<svg xmlns="http://www.w3.org/2000/svg" xmlns:xlink="http://www.w3.org/1999/xlink" viewBox="0 0 105.35 118.91"><defs><style>.cls-1,.cls-78{fill:#e0f3ff;}.cls-2,.cls-3{fill:#fff;}.cls-11,.cls-29,.cls-3,.cls-43,.cls-45,.cls-46,.cls-47,.cls-51,.cls-65,.cls-67,.cls-78,.cls-8{opacity:0.5;}.cls-4{fill:url(#Áåçûìÿííûé_ãðàäèåíò_515);}.cls-5{fill:url(#Áåçûìÿííûé_ãðàäèåíò_515-2);}.cls-6{fill:url(#Áåçûìÿííûé_ãðàäèåíò_515-3);}.cls-7{fill:url(#Áåçûìÿííûé_ãðàäèåíò_515-4);}.cls-8{fill:url(#Áåçûìÿííûé_ãðàäèåíò_515-5);}.cls-9{fill:url(#Áåçûìÿííûé_ãðàäèåíò_515-6);}.cls-10{fill:url(#Áåçûìÿííûé_ãðàäèåíò_515-7);}.cls-11{fill:url(#Áåçûìÿííûé_ãðàäèåíò_515-8);}.cls-12{fill:url(#Áåçûìÿííûé_ãðàäèåíò_515-9);}.cls-13{fill:url(#Áåçûìÿííûé_ãðàäèåíò_515-10);}.cls-14{fill:url(#Áåçûìÿííûé_ãðàäèåíò_515-11);}.cls-15{fill:url(#Áåçûìÿííûé_ãðàäèåíò_515-12);}.cls-16{fill:url(#Áåçûìÿííûé_ãðàäèåíò_515-13);}.cls-17{fill:url(#Áåçûìÿííûé_ãðàäèåíò_515-14);}.cls-18{fill:url(#Áåçûìÿííûé_ãðàäèåíò_515-15);}.cls-19{fill:url(#Áåçûìÿííûé_ãðàäèåíò_515-16);}.cls-20{fill:url(#Áåçûìÿííûé_ãðàäèåíò_515-17);}.cls-21{fill:url(#Áåçûìÿííûé_ãðàäèåíò_515-18);}.cls-22{fill:url(#Áåçûìÿííûé_ãðàäèåíò_515-19);}.cls-23{fill:url(#Áåçûìÿííûé_ãðàäèåíò_515-20);}.cls-24{fill:url(#Áåçûìÿííûé_ãðàäèåíò_515-21);}.cls-25{fill:url(#Áåçûìÿííûé_ãðàäèåíò_515-22);}.cls-26{fill:url(#Áåçûìÿííûé_ãðàäèåíò_515-23);}.cls-27{fill:url(#Áåçûìÿííûé_ãðàäèåíò_515-24);}.cls-28{fill:url(#Áåçûìÿííûé_ãðàäèåíò_515-25);}.cls-29{fill:url(#Áåçûìÿííûé_ãðàäèåíò_515-26);}.cls-30{fill:url(#Áåçûìÿííûé_ãðàäèåíò_515-27);}.cls-31{fill:url(#Áåçûìÿííûé_ãðàäèåíò_515-28);}.cls-32{fill:url(#Áåçûìÿííûé_ãðàäèåíò_515-29);}.cls-33{fill:url(#Áåçûìÿííûé_ãðàäèåíò_515-30);}.cls-34{fill:url(#Áåçûìÿííûé_ãðàäèåíò_515-31);}.cls-35{fill:url(#Áåçûìÿííûé_ãðàäèåíò_515-32);}.cls-36{fill:url(#Áåçûìÿííûé_ãðàäèåíò_515-33);}.cls-37{fill:url(#Áåçûìÿííûé_ãðàäèåíò_515-34);}.cls-38{fill:url(#Áåçûìÿííûé_ãðàäèåíò_515-35);}.cls-39{fill:url(#Áåçûìÿííûé_ãðàäèåíò_515-36);}.cls-40{fill:url(#Áåçûìÿííûé_ãðàäèåíò_515-37);}.cls-41{fill:url(#Áåçûìÿííûé_ãðàäèåíò_515-38);}.cls-42{fill:url(#Áåçûìÿííûé_ãðàäèåíò_515-39);}.cls-43{fill:url(#Áåçûìÿííûé_ãðàäèåíò_515-40);}.cls-44{fill:url(#Áåçûìÿííûé_ãðàäèåíò_515-41);}.cls-45{fill:url(#Áåçûìÿííûé_ãðàäèåíò_515-42);}.cls-46{fill:url(#Áåçûìÿííûé_ãðàäèåíò_515-43);}.cls-47{fill:url(#Áåçûìÿííûé_ãðàäèåíò_515-44);}.cls-48{fill:url(#Áåçûìÿííûé_ãðàäèåíò_515-45);}.cls-49{fill:url(#Áåçûìÿííûé_ãðàäèåíò_515-46);}.cls-50{fill:url(#Áåçûìÿííûé_ãðàäèåíò_515-47);}.cls-51{fill:url(#Áåçûìÿííûé_ãðàäèåíò_515-48);}.cls-52{fill:url(#Áåçûìÿííûé_ãðàäèåíò_515-49);}.cls-53{fill:url(#Áåçûìÿííûé_ãðàäèåíò_515-50);}.cls-54{fill:url(#Áåçûìÿííûé_ãðàäèåíò_515-51);}.cls-55{fill:url(#Áåçûìÿííûé_ãðàäèåíò_515-52);}.cls-56{fill:url(#Áåçûìÿííûé_ãðàäèåíò_515-53);}.cls-57{fill:url(#Áåçûìÿííûé_ãðàäèåíò_515-54);}.cls-58{fill:url(#Áåçûìÿííûé_ãðàäèåíò_515-55);}.cls-59{fill:#172f78;}.cls-59,.cls-71{opacity:0.4;}.cls-60{fill:#03a7d3;}.cls-61{fill:url(#Áåçûìÿííûé_ãðàäèåíò_206);}.cls-62{fill:url(#Áåçûìÿííûé_ãðàäèåíò_206-2);}.cls-63{fill:url(#Áåçûìÿííûé_ãðàäèåíò_206-3);}.cls-64{fill:url(#Áåçûìÿííûé_ãðàäèåíò_302);}.cls-66,.cls-67{fill:#380031;}.cls-68{fill:#6dffe8;}.cls-69{fill:url(#Áåçûìÿííûé_ãðàäèåíò_302-2);}.cls-70,.cls-71{fill:#06033e;}.cls-70{opacity:0.2;}.cls-72{fill:url(#Áåçûìÿííûé_ãðàäèåíò_515-56);}.cls-73{fill:url(#Áåçûìÿííûé_ãðàäèåíò_47);}.cls-74{fill:url(#Áåçûìÿííûé_ãðàäèåíò_89);}.cls-75{fill:url(#Áåçûìÿííûé_ãðàäèåíò_515-57);}.cls-76{fill:#8b1e64;}.cls-77{fill:#fb8488;}</style><linearGradient id="Áåçûìÿííûé_ãðàäèåíò_515" x1="10.86" y1="47.16" x2="14.28" y2="47.16" gradientUnits="userSpaceOnUse"><stop offset="0" stop-color="#b6246e"/><stop offset="1" stop-color="#f9636b"/></linearGradient><linearGradient id="Áåçûìÿííûé_ãðàäèåíò_515-2" x1="13.32" y1="46.7" x2="14.45" y2="46.7" xlink:href="#Áåçûìÿííûé_ãðàäèåíò_515"/><linearGradient id="Áåçûìÿííûé_ãðàäèåíò_515-3" x1="16.41" y1="47.74" x2="16.72" y2="47.74" xlink:href="#Áåçûìÿííûé_ãðàäèåíò_515"/><linearGradient id="Áåçûìÿííûé_ãðàäèåíò_515-4" x1="15.65" y1="47.69" x2="16.16" y2="47.69" xlink:href="#Áåçûìÿííûé_ãðàäèåíò_515"/><linearGradient id="Áåçûìÿííûé_ãðàäèåíò_515-5" x1="23.67" y1="48.26" x2="23.94" y2="48.26" xlink:href="#Áåçûìÿííûé_ãðàäèåíò_515"/><linearGradient id="Áåçûìÿííûé_ãðàäèåíò_515-6" x1="24.54" y1="44.95" x2="24.82" y2="44.95" xlink:href="#Áåçûìÿííûé_ãðàäèåíò_515"/><linearGradient id="Áåçûìÿííûé_ãðàäèåíò_515-7" x1="15.36" y1="47.34" x2="15.76" y2="47.34" xlink:href="#Áåçûìÿííûé_ãðàäèåíò_515"/><linearGradient id="Áåçûìÿííûé_ãðàäèåíò_515-8" x1="23.21" y1="45.49" x2="23.42" y2="45.49" xlink:href="#Áåçûìÿííûé_ãðàäèåíò_515"/><linearGradient id="Áåçûìÿííûé_ãðàäèåíò_515-9" x1="16.27" y1="48.59" x2="16.64" y2="48.59" xlink:href="#Áåçûìÿííûé_ãðàäèåíò_515"/><linearGradient id="Áåçûìÿííûé_ãðàäèåíò_515-10" x1="7.38" y1="46.59" x2="7.68" y2="46.59" xlink:href="#Áåçûìÿííûé_ãðàäèåíò_515"/><linearGradient id="Áåçûìÿííûé_ãðàäèåíò_515-11" x1="20.64" y1="47.63" x2="20.86" y2="47.63" xlink:href="#Áåçûìÿííûé_ãðàäèåíò_515"/><linearGradient id="Áåçûìÿííûé_ãðàäèåíò_515-12" x1="12.46" y1="49.35" x2="13.82" y2="49.35" xlink:href="#Áåçûìÿííûé_ãðàäèåíò_515"/><linearGradient id="Áåçûìÿííûé_ãðàäèåíò_515-13" x1="17.5" y1="45.48" x2="17.9" y2="45.48" xlink:href="#Áåçûìÿííûé_ãðàäèåíò_515"/><linearGradient id="Áåçûìÿííûé_ãðàäèåíò_515-14" x1="18.05" y1="44.85" x2="19.13" y2="44.85" xlink:href="#Áåçûìÿííûé_ãðàäèåíò_515"/><linearGradient id="Áåçûìÿííûé_ãðàäèåíò_515-15" x1="16.16" y1="45.31" x2="16.51" y2="45.31" xlink:href="#Áåçûìÿííûé_ãðàäèåíò_515"/><linearGradient id="Áåçûìÿííûé_ãðàäèåíò_515-16" x1="7.79" y1="44.71" x2="8" y2="44.71" xlink:href="#Áåçûìÿííûé_ãðàäèåíò_515"/><linearGradient id="Áåçûìÿííûé_ãðàäèåíò_515-17" x1="14.64" y1="46.79" x2="15.12" y2="46.79" xlink:href="#Áåçûìÿííûé_ãðàäèåíò_515"/><linearGradient id="Áåçûìÿííûé_ãðàäèåíò_515-18" x1="21.73" y1="47.97" x2="22.02" y2="47.97" xlink:href="#Áåçûìÿííûé_ãðàäèåíò_515"/><linearGradient id="Áåçûìÿííûé_ãðàäèåíò_515-19" x1="11.75" y1="46.51" x2="12.15" y2="46.51" xlink:href="#Áåçûìÿííûé_ãðàäèåíò_515"/><linearGradient id="Áåçûìÿííûé_ãðàäèåíò_515-20" x1="12.02" y1="45.07" x2="12.2" y2="45.07" xlink:href="#Áåçûìÿííûé_ãðàäèåíò_515"/><linearGradient id="Áåçûìÿííûé_ãðàäèåíò_515-21" x1="14.23" y1="46.51" x2="14.41" y2="46.51" xlink:href="#Áåçûìÿííûé_ãðàäèåíò_515"/><linearGradient id="Áåçûìÿííûé_ãðàäèåíò_515-22" x1="11.21" y1="45.61" x2="11.78" y2="45.61" xlink:href="#Áåçûìÿííûé_ãðàäèåíò_515"/><linearGradient id="Áåçûìÿííûé_ãðàäèåíò_515-23" x1="21.99" y1="40.81" x2="22.56" y2="40.81" xlink:href="#Áåçûìÿííûé_ãðàäèåíò_515"/><linearGradient id="Áåçûìÿííûé_ãðàäèåíò_515-24" x1="15.66" y1="45.72" x2="15.84" y2="45.72" xlink:href="#Áåçûìÿííûé_ãðàäèåíò_515"/><linearGradient id="Áåçûìÿííûé_ãðàäèåíò_515-25" x1="13.44" y1="47.45" x2="13.68" y2="47.45" xlink:href="#Áåçûìÿííûé_ãðàäèåíò_515"/><linearGradient id="Áåçûìÿííûé_ãðàäèåíò_515-26" x1="29.86" y1="48.49" x2="30.24" y2="48.49" xlink:href="#Áåçûìÿííûé_ãðàäèåíò_515"/><linearGradient id="Áåçûìÿííûé_ãðàäèåíò_515-27" x1="13.41" y1="48.42" x2="13.65" y2="48.42" xlink:href="#Áåçûìÿííûé_ãðàäèåíò_515"/><linearGradient id="Áåçûìÿííûé_ãðàäèåíò_515-28" x1="15.22" y1="47.67" x2="15.53" y2="47.67" xlink:href="#Áåçûìÿííûé_ãðàäèåíò_515"/><linearGradient id="Áåçûìÿííûé_ãðàäèåíò_515-29" x1="15.59" y1="46.8" x2="15.88" y2="46.8" xlink:href="#Áåçûìÿííûé_ãðàäèåíò_515"/><linearGradient id="Áåçûìÿííûé_ãðàäèåíò_515-30" x1="25.11" y1="50.18" x2="26.37" y2="50.18" xlink:href="#Áåçûìÿííûé_ãðàäèåíò_515"/><linearGradient id="Áåçûìÿííûé_ãðàäèåíò_515-31" x1="13.14" y1="45.34" x2="13.41" y2="45.34" xlink:href="#Áåçûìÿííûé_ãðàäèåíò_515"/><linearGradient id="Áåçûìÿííûé_ãðàäèåíò_515-32" x1="14.29" y1="48.86" x2="14.48" y2="48.86" xlink:href="#Áåçûìÿííûé_ãðàäèåíò_515"/><linearGradient id="Áåçûìÿííûé_ãðàäèåíò_515-33" x1="14.84" y1="46.92" x2="16.32" y2="46.92" xlink:href="#Áåçûìÿííûé_ãðàäèåíò_515"/><linearGradient id="Áåçûìÿííûé_ãðàäèåíò_515-34" x1="24.39" y1="48.44" x2="25.52" y2="48.44" xlink:href="#Áåçûìÿííûé_ãðàäèåíò_515"/><linearGradient id="Áåçûìÿííûé_ãðàäèåíò_515-35" x1="21.34" y1="47.51" x2="21.74" y2="47.51" xlink:href="#Áåçûìÿííûé_ãðàäèåíò_515"/><linearGradient id="Áåçûìÿííûé_ãðàäèåíò_515-36" x1="21.89" y1="46.88" x2="22.97" y2="46.88" xlink:href="#Áåçûìÿííûé_ãðàäèåíò_515"/><linearGradient id="Áåçûìÿííûé_ãðàäèåíò_515-37" x1="15.37" y1="47.96" x2="15.74" y2="47.96" xlink:href="#Áåçûìÿííûé_ãðàäèåíò_515"/><linearGradient id="Áåçûìÿííûé_ãðàäèåíò_515-38" x1="29.36" y1="50.28" x2="29.87" y2="50.28" xlink:href="#Áåçûìÿííûé_ãðàäèåíò_515"/><linearGradient id="Áåçûìÿííûé_ãðàäèåíò_515-39" x1="29.61" y1="48.1" x2="29.88" y2="48.1" xlink:href="#Áåçûìÿííûé_ãðàäèåíò_515"/><linearGradient id="Áåçûìÿííûé_ãðàäèåíò_515-40" x1="21.93" y1="45.42" x2="22.21" y2="45.42" xlink:href="#Áåçûìÿííûé_ãðàäèåíò_515"/><linearGradient id="Áåçûìÿííûé_ãðàäèåíò_515-41" x1="21.6" y1="46.07" x2="21.78" y2="46.07" xlink:href="#Áåçûìÿííûé_ãðàäèåíò_515"/><linearGradient id="Áåçûìÿííûé_ãðàäèåíò_515-42" x1="21.46" y1="44" x2="21.76" y2="44" xlink:href="#Áåçûìÿííûé_ãðàäèåíò_515"/><linearGradient id="Áåçûìÿííûé_ãðàäèåíò_515-43" x1="22.25" y1="42.84" x2="22.59" y2="42.84" xlink:href="#Áåçûìÿííûé_ãðàäèåíò_515"/><linearGradient id="Áåçûìÿííûé_ãðàäèåíò_515-44" x1="22.91" y1="43.45" x2="23.09" y2="43.45" xlink:href="#Áåçûìÿííûé_ãðàäèåíò_515"/><linearGradient id="Áåçûìÿííûé_ãðàäèåíò_515-45" x1="20.79" y1="46.62" x2="21.37" y2="46.62" xlink:href="#Áåçûìÿííûé_ãðàäèåíò_515"/><linearGradient id="Áåçûìÿííûé_ãðàäèåíò_515-46" x1="21.79" y1="48.26" x2="22.16" y2="48.26" xlink:href="#Áåçûìÿííûé_ãðàäèåíò_515"/><linearGradient id="Áåçûìÿííûé_ãðàäèåíò_515-47" x1="28.35" y1="48.9" x2="28.77" y2="48.9" xlink:href="#Áåçûìÿííûé_ãðàäèåíò_515"/><linearGradient id="Áåçûìÿííûé_ãðàäèåíò_515-48" x1="22.51" y1="46.01" x2="22.68" y2="46.01" xlink:href="#Áåçûìÿííûé_ãðàäèåíò_515"/><linearGradient id="Áåçûìÿííûé_ãðàäèåíò_515-49" x1="13.45" y1="46.78" x2="13.93" y2="46.78" xlink:href="#Áåçûìÿííûé_ãðàäèåíò_515"/><linearGradient id="Áåçûìÿííûé_ãðàäèåíò_515-50" x1="19.88" y1="44.08" x2="20.11" y2="44.08" xlink:href="#Áåçûìÿííûé_ãðàäèåíò_515"/><linearGradient id="Áåçûìÿííûé_ãðàäèåíò_515-51" x1="9.06" y1="45.93" x2="9.34" y2="45.93" xlink:href="#Áåçûìÿííûé_ãðàäèåíò_515"/><linearGradient id="Áåçûìÿííûé_ãðàäèåíò_515-52" x1="27.47" y1="48.59" x2="27.7" y2="48.59" xlink:href="#Áåçûìÿííûé_ãðàäèåíò_515"/><linearGradient id="Áåçûìÿííûé_ãðàäèåíò_515-53" x1="14.57" y1="46.51" x2="15.02" y2="46.51" xlink:href="#Áåçûìÿííûé_ãðàäèåíò_515"/><linearGradient id="Áåçûìÿííûé_ãðàäèåíò_515-54" x1="15.68" y1="47.72" x2="15.98" y2="47.72" xlink:href="#Áåçûìÿííûé_ãðàäèåíò_515"/><linearGradient id="Áåçûìÿííûé_ãðàäèåíò_515-55" x1="16.32" y1="45.08" x2="16.51" y2="45.08" xlink:href="#Áåçûìÿííûé_ãðàäèåíò_515"/><linearGradient id="Áåçûìÿííûé_ãðàäèåíò_206" x1="34.51" y1="60.03" x2="87.81" y2="60.03" gradientUnits="userSpaceOnUse"><stop offset="0" stop-color="#1852a0"/><stop offset="1" stop-color="#067ed3"/></linearGradient><linearGradient id="Áåçûìÿííûé_ãðàäèåíò_206-2" x1="1.48" y1="87.27" x2="76.47" y2="87.27" xlink:href="#Áåçûìÿííûé_ãðàäèåíò_206"/><linearGradient id="Áåçûìÿííûé_ãðàäèåíò_206-3" x1="1.47" y1="85.95" x2="76.48" y2="85.95" xlink:href="#Áåçûìÿííûé_ãðàäèåíò_206"/><linearGradient id="Áåçûìÿííûé_ãðàäèåíò_302" x1="33.75" y1="60.2" x2="87.05" y2="60.2" gradientUnits="userSpaceOnUse"><stop offset="0" stop-color="#459fff"/><stop offset="1" stop-color="#a96dff"/></linearGradient><linearGradient id="Áåçûìÿííûé_ãðàäèåíò_302-2" x1="0.38" y1="57.72" x2="13" y2="57.72" xlink:href="#Áåçûìÿííûé_ãðàäèåíò_302"/><linearGradient id="Áåçûìÿííûé_ãðàäèåíò_515-56" x1="11.08" y1="49.99" x2="-1.84" y2="46.52" xlink:href="#Áåçûìÿííûé_ãðàäèåíò_515"/><radialGradient id="Áåçûìÿííûé_ãðàäèåíò_47" cx="10.97" cy="50.62" r="9.63" gradientUnits="userSpaceOnUse"><stop offset="0" stop-color="#f9636b"/><stop offset="1" stop-color="#b6246e"/></radialGradient><linearGradient id="Áåçûìÿííûé_ãðàäèåíò_89" x1="1.53" y1="46.69" x2="15.24" y2="46.69" gradientUnits="userSpaceOnUse"><stop offset="0" stop-color="#a31c5a"/><stop offset="1" stop-color="#f9636b"/></linearGradient><linearGradient id="Áåçûìÿííûé_ãðàäèåíò_515-57" x1="12.75" y1="49.06" x2="-0.26" y2="47.05" xlink:href="#Áåçûìÿííûé_ãðàäèåíò_515"/></defs><title>coder</title><g id="Layer_2" data-name="Layer 2"><g id="Layer_1-2" data-name="Layer 1"><path class="cls-1" d="M53.52,118a22.14,22.14,0,0,1-9.81-6.34,31.76,31.76,0,0,1-4.28-5.76c-.11-.18-.22-.36-.32-.54h0c-3.27-5.66-5.35-12-8.51-17.21-4.32-7.1-9.47-6.68-19.66-15.44-.38-.34-.75-.68-1.12-1A29.37,29.37,0,0,1,3,60.7C.07,52.86,0,44.22,1.52,39c3.9-13.14,34.75-36.92,68.73-7,8.8,7.74,30.65,46.43,19.37,70.65C83.55,115.59,64.31,121.27,53.52,118Z"/><path class="cls-2" d="M45.08,109.88a5.47,5.47,0,0,0,2.42.49,1.06,1.06,0,0,0,.4-.08.76.76,0,0,0,.37-.64,1.61,1.61,0,0,0-.92-1.54,2,2,0,0,0-1.82.13,1.34,1.34,0,0,0-.65.79.76.76,0,0,0,.4.87.16.16,0,0,0,0-.27Z"/><path class="cls-2" d="M47.43,108.86a1,1,0,0,0,.83.53,1.05,1.05,0,0,0,.12-1,.64.64,0,0,0-.84-.34.46.46,0,0,0,0,.8Z"/><path class="cls-2" d="M50.41,109.53a.54.54,0,0,0,.15.44.52.52,0,0,0,.14-.16.2.2,0,0,0,0-.2c-.07-.07-.19,0-.28,0l0-.07Z"/><path class="cls-2" d="M49.78,109.52a.35.35,0,0,1-.13,0,.38.38,0,0,1,.36,0c.06,0,.14,0,.15.11s0,.09,0,.14,0,.22-.05.27a.12.12,0,0,1-.15,0,.39.39,0,0,1-.06-.15l-.08-.34Z"/><path class="cls-3" d="M57.75,110.42c.06.08.2,0,.19-.12s-.09-.17-.17-.23a.33.33,0,0,0-.07.38Z"/><path class="cls-2" d="M58.55,107a.1.1,0,0,1,0-.12.17.17,0,0,1,.14,0l.07,0a.12.12,0,0,1,0,.17.12.12,0,0,1-.16,0,.14.14,0,0,1,0-.18Z"/><path class="cls-2" d="M49.39,109.23a.37.37,0,0,0,0,.34l.25-.15a.22.22,0,0,0,.1-.09.16.16,0,0,0-.11-.21.21.21,0,0,0-.23.1Z"/><path class="cls-3" d="M57.33,107.57l.09,0a.12.12,0,0,0-.1-.11.09.09,0,0,0-.11.09.09.09,0,0,0,.11.08Z"/><path class="cls-2" d="M50.28,110.5a.17.17,0,0,0,.1.2.21.21,0,0,0,.22-.06.07.07,0,0,0,0-.09.07.07,0,0,0-.06,0l-.3,0Z"/><path class="cls-2" d="M41.45,108.68a.08.08,0,0,1-.07-.07.12.12,0,0,1,0-.1.12.12,0,0,1,.22,0,.15.15,0,0,1,0,.17s0,0-.06,0-.07,0-.07,0Z"/><path class="cls-2" d="M54.66,109.67l.17,0a.28.28,0,0,0,0-.13.16.16,0,0,0-.22,0Z"/><path class="cls-2" d="M46.68,111.86a2.15,2.15,0,0,0,1-.23.43.43,0,0,0,.13-.09.32.32,0,0,0,0-.3.67.67,0,0,0-.59-.41.79.79,0,0,0-.64.36.54.54,0,0,0-.11.39.3.3,0,0,0,.29.25.07.07,0,0,0,0-.1Z"/><path class="cls-2" d="M51.5,107.41a.52.52,0,0,0,.38.26.75.75,0,0,0,0-.21.2.2,0,0,0-.14-.15c-.09,0-.17.06-.23.14v-.08Z"/><path class="cls-2" d="M52.6,107.11s.08,0,.12,0a.26.26,0,0,0,.12-.05,1.87,1.87,0,0,1,.29-.2l-.57-.12h-.05s0-.1,0-.16-.13-.08-.21-.06C51.71,106.65,52.4,107,52.6,107.11Z"/><path class="cls-2" d="M50.16,107.3a.38.38,0,0,0,.21.27l.11-.27a.3.3,0,0,0,0-.13.16.16,0,0,0-.21-.11.21.21,0,0,0-.12.22Z"/><path class="cls-2" d="M41.91,106.79l.09-.05a.11.11,0,0,0-.1-.11.09.09,0,0,0-.11.09.1.1,0,0,0,.12.08Z"/><path class="cls-2" d="M48.64,108.82a.6.6,0,0,0,.19.16.21.21,0,0,0,.24,0,.22.22,0,0,0,0-.11.24.24,0,1,0-.47,0Z"/><path class="cls-2" d="M55.75,110a.45.45,0,0,0,.2,0h0a.05.05,0,0,0,0,0,.15.15,0,0,0-.08-.13.18.18,0,0,0-.16,0,.1.1,0,0,0-.05.06.07.07,0,0,0,0,.08,0,0,0,0,0,0,0Z"/><path class="cls-2" d="M45.75,108.44a.53.53,0,0,0,.38.25.75.75,0,0,0,0-.21.2.2,0,0,0-.14-.15c-.09,0-.17.07-.23.14v-.08Z"/><path class="cls-2" d="M46,107a.14.14,0,0,0,.09.22.27.27,0,0,0,.07-.14.12.12,0,0,0-.08-.12.09.09,0,0,0-.1.09Z"/><path class="cls-2" d="M48.26,108.42a.14.14,0,0,0,.09.22.25.25,0,0,0,.06-.14.1.1,0,0,0-.07-.12c-.06,0-.11,0-.1.08Z"/><path class="cls-2" d="M45.74,107.63s-.12,0-.16,0,0,.12-.07.18a.21.21,0,0,1-.16.11.09.09,0,0,1-.1,0,.11.11,0,0,1,0-.07.7.7,0,0,1,0-.38.32.32,0,0,1,.29-.21.25.25,0,0,1,.21.13.27.27,0,0,1,0,.26Z"/><path class="cls-2" d="M56.53,102.83a.1.1,0,0,0-.16,0,1,1,0,0,0-.08.18.24.24,0,0,1-.15.11.11.11,0,0,1-.11,0s0,0,0-.07a.81.81,0,0,1,0-.38.32.32,0,0,1,.29-.21.25.25,0,0,1,.22.13.27.27,0,0,1,0,.26Z"/><path class="cls-2" d="M49.69,107.76l.1,0a.23.23,0,0,0,.05-.15s-.09-.09-.12,0,0,0,0,0l0,.19Z"/><path class="cls-2" d="M47.58,109.59a.18.18,0,0,1-.1-.28.44.44,0,0,1,.2,0,.31.31,0,0,1-.07.21Z"/><path class="cls-3" d="M63.92,110.71a.37.37,0,0,0,.12.07.14.14,0,0,0,.14,0c0-.07,0-.16,0-.24s.09-.15.07-.22a.14.14,0,0,0-.2-.07.38.38,0,0,0-.14.19.39.39,0,0,0,0,.21.15.15,0,0,0,.14.13Z"/><path class="cls-2" d="M47.41,110.36a.09.09,0,0,1,.1-.08.15.15,0,0,1,.11.08.11.11,0,0,1,0,.08.12.12,0,0,1-.12.12.13.13,0,0,1,0-.25Z"/><path class="cls-2" d="M49.22,109.89c.07,0,.05-.16,0-.24s-.06-.18,0-.25a.07.07,0,0,1,.06,0c.06,0,.06.09.09.15a.42.42,0,0,0,.08.12.31.31,0,0,1,0,.32.17.17,0,0,1-.18,0,.16.16,0,0,1,0-.17Z"/><path class="cls-2" d="M49.62,108.81a.07.07,0,0,1,0-.1.16.16,0,0,1,.09,0h.09a.11.11,0,0,1,.09.13.17.17,0,0,1-.1.14.1.1,0,0,1-.09,0,.06.06,0,0,1,0-.07Z"/><path class="cls-2" d="M59.46,111.79a1,1,0,0,0-.34.92,1.09,1.09,0,0,0,1-.09.64.64,0,0,0,.15-.89c-.22-.26-.75-.14-.78.19Z"/><path class="cls-2" d="M47.21,107.5c.07.07.2,0,.2-.12a.2.2,0,1,0-.25.15Z"/><path class="cls-2" d="M48.36,110.93h.1a.12.12,0,0,0,0-.15.11.11,0,0,0-.14,0,.08.08,0,0,0,0,.13Z"/><path class="cls-2" d="M48.93,109.21a2.39,2.39,0,0,0,1,.25l.17,0a.36.36,0,0,0,.17-.28.68.68,0,0,0-.38-.67.82.82,0,0,0-.79,0,.53.53,0,0,0-.29.33.32.32,0,0,0,.16.38.07.07,0,0,0,0-.12Z"/><path class="cls-2" d="M58.5,110.6a1,1,0,0,0,.82.53,1.1,1.1,0,0,0,.13-1,.65.65,0,0,0-.84-.34.47.47,0,0,0,0,.81Z"/><path class="cls-2" d="M55.34,109.44a.23.23,0,1,0,.39,0,.2.2,0,0,0-.13-.16.29.29,0,0,0-.24.15v0Z"/><path class="cls-2" d="M56.44,109.14s.08,0,.12,0a.22.22,0,0,0,.11-.05,1.57,1.57,0,0,1,.3-.2l-.58-.12h0s0-.11-.05-.16-.13-.08-.2-.06C55.54,108.68,56.24,109,56.44,109.14Z"/><path class="cls-2" d="M49.57,110.06l.17,0a.29.29,0,0,0-.12-.3.17.17,0,0,0-.24.15c0,.07.06.17,0,.18Z"/><path class="cls-2" d="M63.49,112.12a.26.26,0,0,1-.13-.06.39.39,0,0,1,.35,0c.07,0,.15,0,.16.11a.74.74,0,0,1,0,.14c0,.09,0,.22,0,.27a.11.11,0,0,1-.14,0,.28.28,0,0,1-.06-.15l-.09-.34Z"/><path class="cls-2" d="M63.69,110.26c.06.07.2,0,.19-.12s-.09-.17-.17-.23a.33.33,0,0,0-.07.38Z"/><path class="cls-3" d="M55.94,107.44a.1.1,0,0,1,0-.12.17.17,0,0,1,.14,0l.07,0a.11.11,0,0,1,0,.16.13.13,0,0,1-.17,0,.14.14,0,0,1,0-.17Z"/><path class="cls-2" d="M55.63,108a.15.15,0,0,0,.09.23.25.25,0,0,0,.06-.14.1.1,0,0,0-.08-.12.07.07,0,0,0-.09.08Z"/><path class="cls-3" d="M55.48,106.12a.2.2,0,0,1,0-.2.2.2,0,0,1,.19-.06s.09.06.07.1a.08.08,0,0,1,0,0l-.22.15,0,0Z"/><path class="cls-3" d="M56.25,105c.09,0,.11-.13.11-.22s0-.19.08-.23a.09.09,0,0,1,.07,0c.05,0,0,.11,0,.17a.65.65,0,0,0,0,.13.29.29,0,0,1-.11.31.16.16,0,0,1-.16-.08.15.15,0,0,1,0-.17Z"/><path class="cls-3" d="M57,105.5l.09,0a.14.14,0,0,0,0-.15.1.1,0,0,0-.14,0,.09.09,0,0,0,0,.14Z"/><path class="cls-2" d="M55.33,108.64c0-.06-.13,0-.16,0s0,.13-.07.18a.24.24,0,0,1-.16.12.11.11,0,0,1-.11,0,.12.12,0,0,1,0-.07.66.66,0,0,1,0-.37.35.35,0,0,1,.3-.22.28.28,0,0,1,.21.14.25.25,0,0,1,0,.25Z"/><path class="cls-2" d="M55.82,110.29a.15.15,0,0,0,.19.1.21.21,0,0,0,.14-.18s0-.08,0-.09,0,0-.07,0l-.26.14Z"/><path class="cls-2" d="M62.46,110.93a.26.26,0,0,1,.31-.27.68.68,0,0,1-.07.37.23.23,0,0,1-.33.06l0-.22Z"/><path class="cls-3" d="M56.54,108.06l.09,0a.23.23,0,0,0,0-.15s-.08-.09-.12,0a.11.11,0,0,0,0,0l0,.19Z"/><path class="cls-2" d="M47.45,108.8a.62.62,0,0,0,.2.16.2.2,0,0,0,.23,0,.18.18,0,0,0,0-.12.24.24,0,0,0-.22-.26.24.24,0,0,0-.24.24Z"/><path class="cls-2" d="M53.9,106.11l.17,0a.33.33,0,0,0,0-.13.17.17,0,0,0-.23,0Z"/><path class="cls-2" d="M43.07,107.94a.08.08,0,0,1,0-.12.15.15,0,0,1,.13,0l.07,0a.12.12,0,0,1,0,.17.13.13,0,0,1-.17,0,.15.15,0,0,1,0-.18Z"/><path class="cls-2" d="M61.49,110.62l.17,0a.56.56,0,0,0,0-.12.17.17,0,0,0-.23,0Z"/><path class="cls-2" d="M49,108.35a.26.26,0,0,0-.1-.11.12.12,0,0,0-.13,0c-.06.06,0,.16-.07.23s-.12.12-.13.2.09.13.17.12a.38.38,0,0,0,.19-.14.48.48,0,0,0,.09-.19.15.15,0,0,0-.09-.17Z"/><path class="cls-2" d="M49.75,109.49a.53.53,0,0,0,0,.46.84.84,0,0,0,.19-.09.18.18,0,0,0,.06-.19c0-.1-.14-.12-.24-.14l.06,0Z"/><path class="cls-2" d="M50.41,107.16h.09a.11.11,0,0,0,0-.14.1.1,0,0,0-.14,0,.09.09,0,0,0,.07.12Z"/><path class="cls-4" d="M11.08,47.88a5.47,5.47,0,0,0,2.42.49,1.06,1.06,0,0,0,.4-.08.76.76,0,0,0,.37-.64,1.61,1.61,0,0,0-.92-1.54,2,2,0,0,0-1.82.13,1.34,1.34,0,0,0-.65.79.76.76,0,0,0,.4.87.16.16,0,0,0,0-.27Z"/><path class="cls-5" d="M13.43,46.86a1,1,0,0,0,.83.53,1.05,1.05,0,0,0,.12-1,.64.64,0,0,0-.84-.34.46.46,0,0,0,0,.8Z"/><path class="cls-6" d="M16.41,47.53a.54.54,0,0,0,.15.44.52.52,0,0,0,.14-.16.2.2,0,0,0,0-.2c-.07-.07-.19,0-.28,0l0-.07Z"/><path class="cls-7" d="M15.78,47.52a.35.35,0,0,1-.13-.05.38.38,0,0,1,.36,0c.06,0,.14,0,.15.11s0,.09,0,.14,0,.22-.05.27a.12.12,0,0,1-.15,0,.39.39,0,0,1-.06-.15l-.08-.34Z"/><path class="cls-8" d="M23.75,48.42c.06.08.2,0,.19-.12s-.09-.17-.17-.23a.33.33,0,0,0-.07.38Z"/><path class="cls-9" d="M24.55,45a.1.1,0,0,1,0-.12.17.17,0,0,1,.14,0l.07,0a.12.12,0,0,1,0,.17.12.12,0,0,1-.16,0,.14.14,0,0,1,0-.18Z"/><path class="cls-10" d="M15.39,47.23a.37.37,0,0,0,0,.34l.25-.15a.22.22,0,0,0,.1-.09.16.16,0,0,0-.11-.21.21.21,0,0,0-.23.1Z"/><path class="cls-11" d="M23.33,45.57l.09,0a.12.12,0,0,0-.1-.11.09.09,0,0,0-.11.09.09.09,0,0,0,.11.08Z"/><path class="cls-12" d="M16.28,48.5a.17.17,0,0,0,.1.2.21.21,0,0,0,.22-.06.07.07,0,0,0,0-.09.07.07,0,0,0-.06,0l-.3,0Z"/><path class="cls-13" d="M7.45,46.68a.08.08,0,0,1-.07-.07.12.12,0,0,1,0-.1.12.12,0,0,1,.22,0,.15.15,0,0,1,0,.17s0,0-.06,0-.07,0-.07,0Z"/><path class="cls-14" d="M20.66,47.67l.17,0a.28.28,0,0,0,0-.13.16.16,0,0,0-.22,0Z"/><path class="cls-15" d="M12.68,49.86a2.15,2.15,0,0,0,1-.23.43.43,0,0,0,.13-.09.32.32,0,0,0,0-.3.67.67,0,0,0-.59-.41.79.79,0,0,0-.64.36.54.54,0,0,0-.11.39.3.3,0,0,0,.29.25.07.07,0,0,0,0-.1Z"/><path class="cls-16" d="M17.5,45.41a.52.52,0,0,0,.38.26.75.75,0,0,0,0-.21.2.2,0,0,0-.14-.15c-.09,0-.17.06-.23.14v-.08Z"/><path class="cls-17" d="M18.6,45.11s.08,0,.12,0a.26.26,0,0,0,.12,0,1.87,1.87,0,0,1,.29-.2l-.57-.12h0s0-.1,0-.16-.13-.08-.21-.06C17.71,44.65,18.4,45,18.6,45.11Z"/><path class="cls-18" d="M16.16,45.3a.38.38,0,0,0,.21.27l.11-.27a.3.3,0,0,0,0-.13.16.16,0,0,0-.21-.11.21.21,0,0,0-.12.22Z"/><path class="cls-19" d="M7.91,44.79l.09,0a.11.11,0,0,0-.1-.11.09.09,0,0,0-.11.09.1.1,0,0,0,.12.08Z"/><path class="cls-20" d="M14.64,46.82a.6.6,0,0,0,.19.16.21.21,0,0,0,.24,0,.22.22,0,0,0,0-.11.24.24,0,1,0-.47,0Z"/><path class="cls-21" d="M21.75,48a.45.45,0,0,0,.2,0h0A.05.05,0,0,0,22,48a.15.15,0,0,0-.08-.13.18.18,0,0,0-.16,0,.1.1,0,0,0-.05.06.07.07,0,0,0,0,.08,0,0,0,0,0,0,0Z"/><path class="cls-22" d="M11.75,46.44a.53.53,0,0,0,.38.25.75.75,0,0,0,0-.21.2.2,0,0,0-.14-.15c-.09,0-.17.07-.23.14v-.08Z"/><path class="cls-23" d="M12,45a.14.14,0,0,0,.09.22.27.27,0,0,0,.07-.14.12.12,0,0,0-.08-.12A.09.09,0,0,0,12,45Z"/><path class="cls-24" d="M14.26,46.42a.14.14,0,0,0,.09.22.25.25,0,0,0,.06-.14.1.1,0,0,0-.07-.12c-.06,0-.11,0-.1.08Z"/><path class="cls-25" d="M11.74,45.63c0-.05-.12,0-.16,0s0,.12-.07.18a.21.21,0,0,1-.16.11.09.09,0,0,1-.1,0,.11.11,0,0,1,0-.07.7.7,0,0,1,0-.38.32.32,0,0,1,.29-.21.25.25,0,0,1,.21.13.27.27,0,0,1,0,.26Z"/><path class="cls-26" d="M22.53,40.83a.1.1,0,0,0-.16,0,1,1,0,0,0-.08.18.24.24,0,0,1-.15.11.11.11,0,0,1-.11,0s0-.05,0-.07a.81.81,0,0,1,0-.38.32.32,0,0,1,.29-.21.25.25,0,0,1,.22.13.27.27,0,0,1,0,.26Z"/><path class="cls-27" d="M15.69,45.76l.1.05a.23.23,0,0,0,.05-.15s-.09-.09-.12,0,0,0,0,0l0,.19Z"/><path class="cls-28" d="M13.58,47.59a.18.18,0,0,1-.1-.28.44.44,0,0,1,.2,0,.31.31,0,0,1-.07.21Z"/><path class="cls-29" d="M29.92,48.71a.37.37,0,0,0,.12.07.14.14,0,0,0,.14,0c0-.07,0-.16,0-.24s.09-.15.07-.22a.14.14,0,0,0-.2-.07.38.38,0,0,0-.14.19.39.39,0,0,0,0,.21.15.15,0,0,0,.14.13Z"/><path class="cls-30" d="M13.41,48.36a.09.09,0,0,1,.1-.08.15.15,0,0,1,.11.08.11.11,0,0,1,0,.08.12.12,0,0,1-.12.12.13.13,0,0,1,0-.25Z"/><path class="cls-31" d="M15.22,47.89c.07,0,0-.16,0-.24s-.06-.18,0-.25a.07.07,0,0,1,.06,0c.06,0,.06.09.09.15a.42.42,0,0,0,.08.12.31.31,0,0,1,0,.32.17.17,0,0,1-.18,0,.16.16,0,0,1-.05-.17Z"/><path class="cls-32" d="M15.62,46.81a.07.07,0,0,1,0-.1.16.16,0,0,1,.09-.05h.09a.11.11,0,0,1,.09.13.17.17,0,0,1-.1.14.1.1,0,0,1-.09,0,.06.06,0,0,1,0-.07Z"/><path class="cls-33" d="M25.46,49.79a1,1,0,0,0-.34.92,1.09,1.09,0,0,0,1-.09.64.64,0,0,0,.15-.89c-.22-.26-.75-.14-.78.19Z"/><path class="cls-34" d="M13.21,45.5c.07.07.2,0,.2-.12a.36.36,0,0,0-.17-.23.35.35,0,0,0-.08.38Z"/><path class="cls-35" d="M14.36,48.93h.1a.12.12,0,0,0,0-.15.11.11,0,0,0-.14,0,.08.08,0,0,0,0,.13Z"/><path class="cls-36" d="M14.93,47.21a2.39,2.39,0,0,0,1.05.25l.17,0a.36.36,0,0,0,.17-.28.68.68,0,0,0-.38-.67.82.82,0,0,0-.79,0,.53.53,0,0,0-.29.33.32.32,0,0,0,.16.38.07.07,0,0,0,0-.12Z"/><path class="cls-37" d="M24.5,48.6a1,1,0,0,0,.82.53,1.1,1.1,0,0,0,.13-1,.65.65,0,0,0-.84-.34.47.47,0,0,0,0,.81Z"/><path class="cls-38" d="M21.34,47.44a.5.5,0,0,0,.38.26.5.5,0,0,0,0-.21.2.2,0,0,0-.13-.16.29.29,0,0,0-.24.15v0Z"/><path class="cls-39" d="M22.44,47.14s.08,0,.12,0a.22.22,0,0,0,.11,0,1.57,1.57,0,0,1,.3-.2l-.58-.12h0s0-.11-.05-.16-.13-.08-.2-.06C21.54,46.68,22.24,47,22.44,47.14Z"/><path class="cls-40" d="M15.57,48.06l.17,0a.29.29,0,0,0-.12-.3.17.17,0,0,0-.24.15c0,.07.06.17,0,.18Z"/><path class="cls-41" d="M29.49,50.12a.26.26,0,0,1-.13-.06.39.39,0,0,1,.35,0c.07,0,.15,0,.16.11a.74.74,0,0,1,0,.14c0,.09,0,.22,0,.27a.11.11,0,0,1-.14,0,.28.28,0,0,1-.06-.15L29.49,50Z"/><path class="cls-42" d="M29.69,48.26c.06.07.2,0,.19-.12s-.09-.17-.17-.23a.33.33,0,0,0-.07.38Z"/><path class="cls-43" d="M21.94,45.44a.1.1,0,0,1,0-.12.17.17,0,0,1,.14,0l.07,0a.11.11,0,0,1,0,.16.13.13,0,0,1-.17,0,.14.14,0,0,1,0-.17Z"/><path class="cls-44" d="M21.63,46a.15.15,0,0,0,.09.23.25.25,0,0,0,.06-.14A.1.1,0,0,0,21.7,46a.07.07,0,0,0-.09.08Z"/><path class="cls-45" d="M21.48,44.12a.2.2,0,0,1,0-.2.2.2,0,0,1,.19-.06c.05,0,.09.06.07.1l0,0-.22.15,0,0Z"/><path class="cls-46" d="M22.25,43c.09,0,.11-.13.11-.22s0-.19.08-.23a.09.09,0,0,1,.07,0s0,.11,0,.17a.65.65,0,0,0,0,.13.29.29,0,0,1-.11.31.16.16,0,0,1-.16-.08.15.15,0,0,1,0-.17Z"/><path class="cls-47" d="M23,43.5l.09,0a.14.14,0,0,0,0-.15.1.1,0,0,0-.14,0,.09.09,0,0,0,0,.14Z"/><path class="cls-48" d="M21.33,46.64c0-.06-.13,0-.16,0s0,.13-.07.18a.24.24,0,0,1-.16.12.11.11,0,0,1-.11,0,.12.12,0,0,1,0-.07.66.66,0,0,1,0-.37.35.35,0,0,1,.3-.22.28.28,0,0,1,.21.14.25.25,0,0,1,0,.25Z"/><path class="cls-49" d="M21.82,48.29a.15.15,0,0,0,.19.1.21.21,0,0,0,.14-.18s0-.08,0-.09-.05,0-.07,0l-.26.14Z"/><path class="cls-50" d="M28.46,48.93a.26.26,0,0,1,.31-.27.68.68,0,0,1-.07.37.23.23,0,0,1-.33.06l0-.22Z"/><path class="cls-51" d="M22.54,46.06l.09,0a.23.23,0,0,0,.05-.15c0-.05-.08-.09-.12-.05a.11.11,0,0,0,0,.05l0,.19Z"/><path class="cls-52" d="M13.45,46.8a.62.62,0,0,0,.2.16.2.2,0,0,0,.23,0,.18.18,0,0,0,0-.12.24.24,0,0,0-.22-.26.24.24,0,0,0-.24.24Z"/><path class="cls-53" d="M19.9,44.11l.17,0a.33.33,0,0,0,0-.13.17.17,0,0,0-.23,0Z"/><path class="cls-54" d="M9.07,45.94a.08.08,0,0,1,0-.12.15.15,0,0,1,.13,0l.07,0a.12.12,0,0,1,0,.17.13.13,0,0,1-.17,0,.15.15,0,0,1,0-.18Z"/><path class="cls-55" d="M27.49,48.62l.17,0a.56.56,0,0,0,0-.12.17.17,0,0,0-.23,0Z"/><path class="cls-56" d="M15,46.35a.26.26,0,0,0-.1-.11.12.12,0,0,0-.13,0c-.06.06,0,.16-.07.23s-.12.12-.13.2.09.13.17.12a.38.38,0,0,0,.19-.14.48.48,0,0,0,.09-.19.15.15,0,0,0-.09-.17Z"/><path class="cls-57" d="M15.75,47.49a.53.53,0,0,0,0,.46.84.84,0,0,0,.19-.09.18.18,0,0,0,.06-.19c0-.1-.14-.12-.24-.14l.06-.05Z"/><path class="cls-58" d="M16.41,45.16h.09a.11.11,0,0,0,0-.14.1.1,0,0,0-.14,0,.09.09,0,0,0,.07.12Z"/><path class="cls-59" d="M45.72,117.1a2.33,2.33,0,0,1-1.15-.27L1.86,91a.84.84,0,0,1-.49-.72A1.11,1.11,0,0,1,2,89.39l26.7-16.57a2.94,2.94,0,0,1,2.64-.11L76.09,98.53a.85.85,0,0,1,.49.72,1.16,1.16,0,0,1-.67.91l-28.7,16.57A3.13,3.13,0,0,1,45.72,117.1Zm-1-.43a2.71,2.71,0,0,0,2.44-.11L75.81,100c.37-.22.58-.49.58-.75a.68.68,0,0,0-.4-.56L31.28,72.88a2.73,2.73,0,0,0-2.45.1L2.14,89.55a1,1,0,0,0-.58.75.66.66,0,0,0,.39.55Z"/><path class="cls-60" d="M45.72,113a2.33,2.33,0,0,1-1.15-.27L1.86,86.87a.84.84,0,0,1-.49-.72A1.13,1.13,0,0,1,2,85.24l26.7-16.57a2.94,2.94,0,0,1,2.64-.11L76.09,94.38a.86.86,0,0,1,.49.72,1.15,1.15,0,0,1-.67.91l-28.7,16.57A3.13,3.13,0,0,1,45.72,113Zm-1-.43a2.71,2.71,0,0,0,2.44-.11l28.7-16.56a1,1,0,0,0,.58-.75.68.68,0,0,0-.4-.56L31.28,68.73a2.73,2.73,0,0,0-2.45.1L2.14,85.4a1,1,0,0,0-.58.75A.66.66,0,0,0,2,86.7Z"/><path class="cls-61" d="M86.92,53.47,45.38,30.76a1.11,1.11,0,0,0-.91-.13h0l-.83.28.29.07a1.55,1.55,0,0,0-.27.51l-9.07,30.7a2,2,0,0,0,.82,2.2L76.94,89.11a1.51,1.51,0,0,0,.33.13l-.11.24.79-.27h0a1.21,1.21,0,0,0,.71-.83l9.08-32.7A2,2,0,0,0,86.92,53.47Z"/><path class="cls-62" d="M75.35,90.33l0,0L34.37,66a2.81,2.81,0,0,0-2.52.1L2.43,81.46l-1-.36.27,1.33h0a.76.76,0,0,0,.42.53l42.4,25.64a2.83,2.83,0,0,0,2.53-.11L75.59,92a1.15,1.15,0,0,0,.6-.7h0l.27-1.3Z"/><path class="cls-63" d="M44.62,107.43,1.91,81.61c-.66-.38-.57-1,.18-1.47l29.7-15.56a2.79,2.79,0,0,1,2.54-.11L76,89.28c.65.38.57,1-.18,1.47l-28.7,16.57A2.82,2.82,0,0,1,44.62,107.43Z"/><path class="cls-2" d="M1.91,80.86l42.71,25.82a2.86,2.86,0,0,0,2.54-.11L75.86,90a1.33,1.33,0,0,0,.49-.44c.27.37.1.85-.49,1.19l-28.7,16.57a2.82,2.82,0,0,1-2.54.11L1.91,81.61a.67.67,0,0,1-.31-1A.93.93,0,0,0,1.91,80.86Z"/><path class="cls-64" d="M76.18,89.37,34.65,64.66a2,2,0,0,1-.82-2.2l9.07-30.7A1.15,1.15,0,0,1,44.62,31L86.16,53.74a2,2,0,0,1,.82,2.2L77.9,88.64A1.14,1.14,0,0,1,76.18,89.37Z"/><path class="cls-60" d="M76.8,89.64a1.34,1.34,0,0,1-.66-.18L34.6,64.74a2.08,2.08,0,0,1-.86-2.31l9.07-30.7a1.39,1.39,0,0,1,.78-.9,1.26,1.26,0,0,1,1.08.11L86.21,53.65A2.09,2.09,0,0,1,87.07,56L78,88.67a1.35,1.35,0,0,1-.78.89A1,1,0,0,1,76.8,89.64Zm-.57-.35a1,1,0,0,0,.92.09,1.13,1.13,0,0,0,.66-.77l9.07-32.7a1.86,1.86,0,0,0-.77-2.09L44.58,31.1a1.08,1.08,0,0,0-.92-.09,1.14,1.14,0,0,0-.66.78l-9.08,30.7a1.88,1.88,0,0,0,.78,2.09Z"/><g class="cls-65"><path class="cls-66" d="M22.34,76.43l-1.46-.88c-.11-.08-.1-.19,0-.27l1.77-1a.5.5,0,0,1,.46,0l1.46.89c.12.07.1.19,0,.26l-1.76,1A.52.52,0,0,1,22.34,76.43Z"/><path class="cls-66" d="M24.6,77.8l-1.46-.89c-.12-.07-.1-.19,0-.26l1.76-1a.52.52,0,0,1,.47,0l1.46.88c.12.07.1.19,0,.27l-1.77,1A.5.5,0,0,1,24.6,77.8Z"/><path class="cls-66" d="M26.85,79.17l-1.46-.89c-.11-.07-.1-.19,0-.27l1.77-1a.53.53,0,0,1,.46,0l1.46.89c.12.07.1.19,0,.27l-1.76,1A.55.55,0,0,1,26.85,79.17Z"/><path class="cls-66" d="M30,78.14l-1.46-.88c-.11-.07-.1-.19,0-.27l1.49-.81a.5.5,0,0,1,.46,0l1.46.88c.12.08.1.2,0,.27l-1.48.82A.52.52,0,0,1,30,78.14Z"/><path class="cls-66" d="M32.29,79.51l-1.46-.88c-.12-.07-.1-.19,0-.27l1.48-.81a.5.5,0,0,1,.46,0l1.46.88c.12.07.1.19,0,.27l-1.49.81A.5.5,0,0,1,32.29,79.51Z"/><path class="cls-66" d="M34.54,80.88,33.08,80c-.11-.07-.1-.19,0-.26l1.49-.82a.53.53,0,0,1,.46,0l1.46.89c.12.07.1.19,0,.27L35,80.87A.52.52,0,0,1,34.54,80.88Z"/><path class="cls-66" d="M36.8,82.25l-1.46-.89c-.12-.07-.1-.19,0-.27l1.48-.81a.5.5,0,0,1,.46,0l1.46.89c.12.07.1.19,0,.26l-1.49.82A.53.53,0,0,1,36.8,82.25Z"/><path class="cls-66" d="M39.05,83.61l-1.46-.88c-.11-.07-.1-.19,0-.27l1.49-.81a.5.5,0,0,1,.46,0l1.46.88c.12.07.1.19,0,.27l-1.48.81A.52.52,0,0,1,39.05,83.61Z"/><path class="cls-66" d="M41.31,85l-1.46-.88c-.12-.08-.1-.2,0-.27L41.37,83a.5.5,0,0,1,.46,0l1.46.88c.12.07.1.19,0,.27L41.77,85A.5.5,0,0,1,41.31,85Z"/><path class="cls-66" d="M43.56,86.35l-1.46-.89c-.11-.07-.1-.19,0-.26l1.48-.82a.55.55,0,0,1,.47,0l1.46.89c.12.07.1.19,0,.26L44,86.34A.55.55,0,0,1,43.56,86.35Z"/><path class="cls-66" d="M45.82,87.71l-1.46-.88c-.12-.07-.1-.19,0-.27l1.48-.81a.5.5,0,0,1,.46,0l1.46.88c.12.08.1.2,0,.27l-1.48.82A.5.5,0,0,1,45.82,87.71Z"/><path class="cls-66" d="M48.07,89.08l-1.46-.88c-.11-.07-.1-.19,0-.27l1.48-.81a.52.52,0,0,1,.47,0l1.46.88c.12.07.1.19,0,.27l-1.48.81A.52.52,0,0,1,48.07,89.08Z"/><path class="cls-66" d="M50.33,90.45l-1.46-.89c-.12-.07-.1-.19,0-.26l1.48-.82a.53.53,0,0,1,.46,0l1.46.89c.12.07.1.19,0,.27l-1.48.81A.5.5,0,0,1,50.33,90.45Z"/><path class="cls-66" d="M33.41,77.59,32,76.71c-.12-.07-.1-.19,0-.27l1.48-.81a.52.52,0,0,1,.47,0l1.46.88c.11.07.1.19,0,.27l-1.48.81A.52.52,0,0,1,33.41,77.59Z"/><path class="cls-66" d="M31.12,76.21l-1.46-.89c-.11-.07-.1-.19,0-.27l1.49-.81a.5.5,0,0,1,.46,0l1.46.89c.12.07.1.19,0,.26l-1.48.82A.55.55,0,0,1,31.12,76.21Z"/><path class="cls-66" d="M28.83,74.82l-3.14-1.91c-.12-.07-.1-.19,0-.27l1.48-.81a.5.5,0,0,1,.46,0l3.15,1.91c.11.07.1.19,0,.26l-1.48.82A.55.55,0,0,1,28.83,74.82Z"/><path class="cls-66" d="M30.49,73.22l-2.55-1.55c-.12-.07-.1-.19,0-.26l1.48-.82a.53.53,0,0,1,.46,0l2.55,1.55c.12.07.1.19,0,.27L31,73.21A.5.5,0,0,1,30.49,73.22Z"/><path class="cls-66" d="M35.67,79l-1.46-.89c-.12-.07-.1-.19,0-.26L35.73,77a.53.53,0,0,1,.46,0l1.46.89c.12.07.1.19,0,.27L36.13,79A.5.5,0,0,1,35.67,79Z"/><path class="cls-66" d="M37.92,80.33l-1.46-.89c-.12-.07-.1-.19,0-.26L38,78.36a.52.52,0,0,1,.47,0l1.46.89c.11.07.1.19,0,.26l-1.49.82A.53.53,0,0,1,37.92,80.33Z"/><path class="cls-66" d="M40.18,81.69l-1.46-.88c-.12-.07-.1-.19,0-.27l1.48-.81a.5.5,0,0,1,.46,0l1.46.88c.12.08.1.19,0,.27l-1.48.82A.5.5,0,0,1,40.18,81.69Z"/><path class="cls-66" d="M42.43,83.06,41,82.18c-.12-.07-.1-.19,0-.27l1.48-.81a.52.52,0,0,1,.47,0l1.46.88c.11.07.1.19,0,.27l-1.49.81A.5.5,0,0,1,42.43,83.06Z"/><path class="cls-66" d="M44.69,84.43l-1.46-.89c-.12-.07-.1-.19,0-.26l1.49-.82a.53.53,0,0,1,.46,0l1.46.89c.12.07.1.19,0,.27l-1.48.81A.5.5,0,0,1,44.69,84.43Z"/><path class="cls-66" d="M46.94,85.8l-1.46-.89c-.12-.07-.1-.19,0-.27L47,83.83a.52.52,0,0,1,.47,0l1.46.89c.11.07.1.19,0,.26l-1.49.82A.53.53,0,0,1,46.94,85.8Z"/><path class="cls-66" d="M49.2,87.16l-1.46-.88c-.12-.07-.1-.19,0-.27l1.49-.81a.5.5,0,0,1,.46,0l1.46.88c.12.07.1.19,0,.27l-1.48.81A.5.5,0,0,1,49.2,87.16Z"/><path class="cls-66" d="M51.45,88.53,50,87.64c-.12-.07-.1-.19,0-.26l1.48-.82a.55.55,0,0,1,.47,0l1.46.89c.11.07.09.19,0,.27l-1.49.81A.5.5,0,0,1,51.45,88.53Z"/><path class="cls-66" d="M53.7,89.9,52.24,89c-.11-.07-.1-.19,0-.26l1.49-.82a.5.5,0,0,1,.46,0l1.46.89c.12.07.1.19,0,.26l-1.48.82A.55.55,0,0,1,53.7,89.9Z"/><path class="cls-66" d="M57.71,92.33,54.53,90.4c-.12-.07-.1-.19,0-.27l1.48-.81a.47.47,0,0,1,.46,0l3.19,1.93c.12.07.1.19,0,.26l-1.48.82A.55.55,0,0,1,57.71,92.33Z"/><path class="cls-66" d="M62.21,89.86l-2.69-1.63c-.11-.07-.1-.19,0-.27l1.49-.81a.5.5,0,0,1,.46,0l2.69,1.63c.12.07.1.19,0,.26l-1.48.82A.55.55,0,0,1,62.21,89.86Z"/><path class="cls-66" d="M39.67,78.79l-1.46-.89c-.12-.07-.1-.19,0-.26l1.48-.82a.55.55,0,0,1,.47,0l1.46.89c.11.07.1.19,0,.26l-1.49.82A.5.5,0,0,1,39.67,78.79Z"/><path class="cls-66" d="M37.36,77.39,35.9,76.5c-.12-.07-.1-.19,0-.27l1.48-.81a.52.52,0,0,1,.47,0l1.46.89c.11.07.09.19,0,.26l-1.49.82A.53.53,0,0,1,37.36,77.39Z"/><path class="cls-66" d="M35.05,76l-1.46-.89c-.12-.07-.1-.19,0-.27L35.11,74a.5.5,0,0,1,.46,0L37,74.9c.12.07.1.19,0,.26L35.51,76A.53.53,0,0,1,35.05,76Z"/><path class="cls-66" d="M32.74,74.58l-1.46-.88c-.12-.07-.1-.19,0-.27l1.48-.81a.5.5,0,0,1,.46,0l1.46.88c.12.08.1.19,0,.27l-1.48.82A.5.5,0,0,1,32.74,74.58Z"/><path class="cls-66" d="M41.93,80.16l-1.46-.89c-.12-.07-.1-.19,0-.27L42,78.19a.5.5,0,0,1,.46,0l1.46.89c.12.07.1.19,0,.26l-1.48.82A.53.53,0,0,1,41.93,80.16Z"/><path class="cls-66" d="M44.18,81.52l-1.46-.88c-.12-.07-.1-.19,0-.27l1.48-.81a.52.52,0,0,1,.47,0l1.46.88c.11.07.1.19,0,.27l-1.49.81A.5.5,0,0,1,44.18,81.52Z"/><path class="cls-66" d="M46.43,82.89,45,82c-.11-.07-.1-.19,0-.26l1.49-.82a.53.53,0,0,1,.46,0l1.46.89c.12.07.1.19,0,.27l-1.48.81A.52.52,0,0,1,46.43,82.89Z"/><path class="cls-66" d="M48.69,84.26l-1.46-.89c-.12-.07-.1-.19,0-.27l1.48-.81a.5.5,0,0,1,.46,0l1.46.89c.12.07.1.19,0,.26l-1.49.82A.53.53,0,0,1,48.69,84.26Z"/><path class="cls-66" d="M50.94,85.62l-1.46-.88c-.11-.07-.1-.19,0-.27L51,83.66a.5.5,0,0,1,.46,0l1.46.88c.12.07.1.19,0,.27l-1.48.81A.52.52,0,0,1,50.94,85.62Z"/><path class="cls-66" d="M53.2,87l-1.46-.88c-.12-.08-.1-.19,0-.27L53.26,85a.5.5,0,0,1,.46,0l1.46.88c.12.07.1.19,0,.27L53.66,87A.5.5,0,0,1,53.2,87Z"/><path class="cls-66" d="M55.45,88.36,54,87.47c-.11-.07-.1-.19,0-.26l1.49-.82a.53.53,0,0,1,.46,0l1.46.89c.12.07.1.19,0,.26l-1.48.82A.52.52,0,0,1,55.45,88.36Z"/><path class="cls-66" d="M57.71,89.73l-1.46-.89c-.12-.07-.1-.19,0-.27l1.48-.81a.5.5,0,0,1,.46,0l1.46.89c.12.07.1.19,0,.26l-1.48.82A.53.53,0,0,1,57.71,89.73Z"/><path class="cls-66" d="M60,91.09l-1.46-.88c-.11-.07-.1-.19,0-.27L60,89.13a.52.52,0,0,1,.47,0L62,90c.12.07.1.19,0,.27l-1.48.81A.52.52,0,0,1,60,91.09Z"/><path class="cls-66" d="M38.54,75.5l-1.46-.88c-.12-.07-.1-.19,0-.27l1.48-.81a.5.5,0,0,1,.46,0l1.46.88c.12.07.1.19,0,.27L39,75.49A.5.5,0,0,1,38.54,75.5Z"/><path class="cls-66" d="M36.29,74.14l-1.46-.88c-.11-.07-.1-.19,0-.27l1.49-.81a.5.5,0,0,1,.46,0l1.46.88c.12.07.1.19,0,.27l-1.48.81A.52.52,0,0,1,36.29,74.14Z"/><path class="cls-66" d="M34.05,72.78l-1.46-.88c-.12-.08-.1-.19,0-.27l1.48-.81a.49.49,0,0,1,.47,0l1.46.88c.11.07.1.19,0,.27l-1.49.81A.5.5,0,0,1,34.05,72.78Z"/><path class="cls-66" d="M31.81,71.42l-1.46-.88c-.12-.08-.1-.19,0-.27l1.48-.82a.5.5,0,0,1,.46,0l1.46.88c.12.07.1.19,0,.27l-1.48.81A.5.5,0,0,1,31.81,71.42Z"/><path class="cls-66" d="M34.17,70.12l-1.46-.88c-.11-.07-.1-.19,0-.27l.49-.27a.55.55,0,0,1,.47,0l1.46.89c.11.07.1.19,0,.26l-.49.27A.52.52,0,0,1,34.17,70.12Z"/><path class="cls-66" d="M37.1,71.9,35.64,71c-.12-.07-.1-.19,0-.26l.49-.27a.5.5,0,0,1,.46,0l1.46.88c.12.07.1.19,0,.27l-.49.27A.53.53,0,0,1,37.1,71.9Z"/><path class="cls-66" d="M39.33,73.25l-1.46-.88c-.11-.07-.1-.19,0-.27l.49-.27a.55.55,0,0,1,.47,0l1.46.89c.11.07.1.19,0,.26l-.49.27A.52.52,0,0,1,39.33,73.25Z"/><path class="cls-66" d="M41.57,74.61l-1.46-.89c-.12-.07-.1-.19,0-.26l.49-.27a.5.5,0,0,1,.46,0l1.46.88c.12.07.1.19,0,.27L42,74.6A.53.53,0,0,1,41.57,74.61Z"/><path class="cls-66" d="M43.8,76l-1.46-.88c-.11-.07-.1-.19,0-.27l.49-.27a.52.52,0,0,1,.47,0l1.46.89c.11.07.1.19,0,.26l-.49.27A.52.52,0,0,1,43.8,76Z"/><path class="cls-66" d="M56.28,83.52l-1.46-.88c-.12-.07-.1-.19,0-.27l.5-.27a.53.53,0,0,1,.46,0l1.46.89c.12.07.1.19,0,.27l-.49.27A.5.5,0,0,1,56.28,83.52Z"/><path class="cls-66" d="M58.51,84.88,57.05,84c-.12-.07-.1-.19,0-.26l.49-.27a.5.5,0,0,1,.46,0l1.46.88c.12.08.1.19,0,.27l-.49.27A.5.5,0,0,1,58.51,84.88Z"/><path class="cls-66" d="M60.74,86.23l-1.46-.88c-.11-.07-.1-.19,0-.27l.49-.27a.55.55,0,0,1,.47,0l1.46.89c.11.07.1.19,0,.27l-.49.26A.49.49,0,0,1,60.74,86.23Z"/><path class="cls-66" d="M63,87.59l-1.46-.89c-.12-.07-.1-.19,0-.26l.49-.27a.5.5,0,0,1,.46,0L64,87c.12.07.1.19,0,.27l-.49.27A.5.5,0,0,1,63,87.59Z"/><path class="cls-66" d="M40.79,76.87,39.33,76c-.11-.07-.1-.19,0-.26l1.48-.82a.55.55,0,0,1,.47,0l1.46.89c.12.07.1.19,0,.27l-1.48.81A.52.52,0,0,1,40.79,76.87Z"/><path class="cls-66" d="M43.05,78.24l-1.46-.89c-.12-.07-.1-.19,0-.27l1.48-.81a.5.5,0,0,1,.46,0l1.46.89c.12.07.1.19,0,.26l-1.48.82A.53.53,0,0,1,43.05,78.24Z"/><path class="cls-66" d="M45.3,79.6l-1.46-.88c-.11-.07-.1-.19,0-.27l1.48-.81a.52.52,0,0,1,.47,0l1.46.88c.12.07.1.19,0,.27l-1.48.81A.52.52,0,0,1,45.3,79.6Z"/><path class="cls-66" d="M47.56,81l-1.46-.88c-.12-.08-.1-.2,0-.27L47.62,79a.5.5,0,0,1,.46,0l1.46.88c.12.07.1.19,0,.27L48,81A.5.5,0,0,1,47.56,81Z"/><path class="cls-66" d="M49.81,82.34l-1.46-.89c-.12-.07-.1-.19,0-.26l1.48-.82a.55.55,0,0,1,.47,0l1.46.89c.11.07.1.19,0,.26l-1.48.82A.55.55,0,0,1,49.81,82.34Z"/><path class="cls-66" d="M52.07,83.7l-1.46-.88c-.12-.07-.1-.19,0-.27l1.48-.81a.5.5,0,0,1,.46,0l1.46.88c.12.08.1.2,0,.27l-1.48.82A.5.5,0,0,1,52.07,83.7Z"/><path class="cls-66" d="M54.32,85.07l-1.46-.88c-.12-.07-.1-.19,0-.27l1.48-.81a.52.52,0,0,1,.47,0l1.46.88c.11.07.1.19,0,.27l-1.49.81A.5.5,0,0,1,54.32,85.07Z"/><path class="cls-66" d="M56.58,86.44l-1.46-.89c-.12-.07-.1-.19,0-.26l1.49-.82a.53.53,0,0,1,.46,0l1.46.89c.12.07.1.19,0,.27L57,86.43A.5.5,0,0,1,56.58,86.44Z"/><path class="cls-66" d="M58.83,87.81l-1.46-.89c-.12-.07-.1-.19,0-.27l1.48-.81a.52.52,0,0,1,.47,0l1.46.89c.11.07.1.19,0,.26l-1.49.82A.53.53,0,0,1,58.83,87.81Z"/><path class="cls-66" d="M27.74,76.75l-4.3-2.61c-.12-.07-.1-.19,0-.26L25,73.06a.53.53,0,0,1,.46,0l4.3,2.61c.12.07.1.19,0,.27l-1.48.81A.5.5,0,0,1,27.74,76.75Z"/><path class="cls-66" d="M55.44,93.55l-4.3-2.61c-.12-.07-.1-.19,0-.27l1.48-.81a.5.5,0,0,1,.46,0l4.3,2.61c.12.07.1.19,0,.26l-1.48.82A.53.53,0,0,1,55.44,93.55Z"/><path class="cls-66" d="M46.36,91l-1.46-.88c-.12-.07-.1-.19,0-.27l1.76-1a.52.52,0,0,1,.47,0l1.46.89c.11.07.1.19,0,.26l-1.77,1A.5.5,0,0,1,46.36,91Z"/><path class="cls-66" d="M30,81.06l-2.33-1.41c-.12-.07-.1-.19,0-.27l1.76-1a.52.52,0,0,1,.47,0l2.33,1.42c.12.07.1.19,0,.26l-1.76,1A.52.52,0,0,1,30,81.06Z"/><path class="cls-66" d="M44.18,89.67l-2.33-1.41c-.12-.07-.1-.19,0-.27l1.77-1a.53.53,0,0,1,.46,0l2.33,1.42c.12.07.1.19,0,.26l-1.76,1A.49.49,0,0,1,44.18,89.67Z"/><path class="cls-66" d="M33.24,83,30.9,81.62c-.12-.07-.1-.19,0-.27l1.77-1a.53.53,0,0,1,.46,0l2.34,1.42c.11.07.1.19,0,.27L33.7,83A.53.53,0,0,1,33.24,83Z"/><path class="cls-66" d="M33.19,80.38l10.15,6.16c.12.08.12.19,0,.27l-1.8,1a.5.5,0,0,1-.46,0L30.92,81.63Z"/><path class="cls-66" d="M52.69,93.52l1.62,1c.1.06.08.16,0,.22l-.72.4a.42.42,0,0,1-.38,0l-1.63-1c-.09-.06-.08-.15,0-.22l.73-.39A.4.4,0,0,1,52.69,93.52Z"/><path class="cls-66" d="M50.41,92.14l1.63,1c.1.05.08.15,0,.21l-.73.4a.42.42,0,0,1-.38,0l-1.62-1c-.1-.06-.08-.15,0-.22l.72-.39A.42.42,0,0,1,50.41,92.14Z"/><path class="cls-66" d="M48.16,90.77l1.62,1c.1.06.09.15,0,.22l-.72.39a.4.4,0,0,1-.38,0L47,91.4c-.09-.06-.08-.16,0-.22l.72-.4A.42.42,0,0,1,48.16,90.77Z"/><path class="cls-66" d="M51.69,91.44l1.63,1c.09,0,.08.15,0,.21l-.72.4a.42.42,0,0,1-.38,0l-1.62-1c-.1-.06-.09-.15,0-.22l.72-.39A.4.4,0,0,1,51.69,91.44Z"/></g><path class="cls-67" d="M33.08,95.55a2.14,2.14,0,0,1-1-.27L20.71,88.41a.83.83,0,0,1-.45-.69,1.06,1.06,0,0,1,.64-.84l6-3.29a2.65,2.65,0,0,1,2.39,0L40.6,90.42a.81.81,0,0,1,.44.7,1.06,1.06,0,0,1-.63.84l-6,3.28A2.74,2.74,0,0,1,33.08,95.55Zm-.9-.51a2.34,2.34,0,0,0,2.11,0l6-3.29a.83.83,0,0,0,.5-.6.58.58,0,0,0-.31-.45L29.12,83.79a2.33,2.33,0,0,0-2.1,0l-6,3.28a.83.83,0,0,0-.5.6.55.55,0,0,0,.31.45Z"/><path class="cls-2" d="M48.9,42.56l-1.24-.69a.3.3,0,0,1-.14-.35h0a.18.18,0,0,1,.27-.13l1.24.7a.3.3,0,0,1,.14.35h0A.18.18,0,0,1,48.9,42.56Z"/><path class="cls-2" d="M51.85,44.22,50,43.2a.34.34,0,0,1-.15-.36h0a.18.18,0,0,1,.28-.12l1.82,1a.34.34,0,0,1,.15.36h0A.19.19,0,0,1,51.85,44.22Z"/><path class="cls-2" d="M46.53,48.15l-1.24-.7a.32.32,0,0,1-.14-.35h0a.18.18,0,0,1,.27-.12l1.24.69a.32.32,0,0,1,.14.36h0A.18.18,0,0,1,46.53,48.15Z"/><path class="cls-2" d="M49.17,49.62l-1.83-1a.33.33,0,0,1-.15-.36h0a.19.19,0,0,1,.28-.12l1.83,1a.33.33,0,0,1,.14.35h0A.18.18,0,0,1,49.17,49.62Z"/><path class="cls-2" d="M45.21,41.65l-.78-.44a.32.32,0,0,1-.14-.35h0a.18.18,0,0,1,.27-.12l.78.43a.34.34,0,0,1,.14.36h0A.18.18,0,0,1,45.21,41.65Z"/><path class="cls-2" d="M47.56,44.12l-2.37-1.33a.32.32,0,0,1-.14-.35h0a.18.18,0,0,1,.27-.12l2.37,1.32a.32.32,0,0,1,.14.36h0A.18.18,0,0,1,47.56,44.12Z"/><path class="cls-2" d="M45.42,45.22l-.77-.43a.32.32,0,0,1-.15-.35h0a.19.19,0,0,1,.28-.13l.77.44a.3.3,0,0,1,.14.35h0A.17.17,0,0,1,45.42,45.22Z"/><path class="cls-2" d="M49.49,52.11,47.43,51a.32.32,0,0,1-.15-.35h0a.18.18,0,0,1,.28-.12l2.07,1.16a.33.33,0,0,1,.14.35h0A.18.18,0,0,1,49.49,52.11Z"/><path class="cls-2" d="M44.6,47.07l-.5-.28a.32.32,0,0,1-.14-.36h0a.18.18,0,0,1,.27-.12l.5.28a.32.32,0,0,1,.14.35h0A.18.18,0,0,1,44.6,47.07Z"/><path class="cls-2" d="M44.17,49.13l-.62-.35a.32.32,0,0,1-.14-.35h0a.18.18,0,0,1,.27-.12l.62.34a.32.32,0,0,1,.14.36h0A.17.17,0,0,1,44.17,49.13Z"/><path class="cls-2" d="M46.57,50.48l-1.63-.92a.33.33,0,0,1-.14-.35h0a.18.18,0,0,1,.28-.12L46.7,50a.32.32,0,0,1,.15.35h0A.19.19,0,0,1,46.57,50.48Z"/><path class="cls-2" d="M44.45,50.44l-1.17-.66a.3.3,0,0,1-.14-.35h0a.17.17,0,0,1,.27-.12l1.17.65a.32.32,0,0,1,.14.36h0A.18.18,0,0,1,44.45,50.44Z"/><path class="cls-2" d="M51.27,53.11l-.75-.42a.3.3,0,0,1-.14-.35h0a.18.18,0,0,1,.27-.13l.75.42a.32.32,0,0,1,.14.36h0A.17.17,0,0,1,51.27,53.11Z"/><path class="cls-2" d="M48.3,46.84l-2.07-1.16a.33.33,0,0,1-.14-.36h0a.18.18,0,0,1,.27-.12l2.07,1.16a.34.34,0,0,1,.15.36h0A.19.19,0,0,1,48.3,46.84Z"/><path class="cls-2" d="M48.53,45.81l-3.61-2a.3.3,0,0,1-.14-.35h0a.18.18,0,0,1,.27-.13l3.61,2a.34.34,0,0,1,.14.36h0A.18.18,0,0,1,48.53,45.81Z"/><path class="cls-2" d="M46.44,47l-2.07-1.16a.33.33,0,0,1-.14-.36h0a.18.18,0,0,1,.27-.12l2.07,1.16a.34.34,0,0,1,.15.36h0A.19.19,0,0,1,46.44,47Z"/><path class="cls-2" d="M49.87,47.72l-.75-.42a.34.34,0,0,1-.14-.36h0a.18.18,0,0,1,.27-.12l.75.42a.33.33,0,0,1,.15.36h0A.19.19,0,0,1,49.87,47.72Z"/><path class="cls-2" d="M55.63,46.33,53,44.85a.31.31,0,0,1-.14-.36h0a.18.18,0,0,1,.27-.12l2.65,1.48a.3.3,0,0,1,.14.35h0A.18.18,0,0,1,55.63,46.33Z"/><path class="cls-2" d="M46.31,49.18l-2.48-1.39a.34.34,0,0,1-.15-.36h0a.19.19,0,0,1,.28-.12l2.48,1.39a.34.34,0,0,1,.15.36h0A.19.19,0,0,1,46.31,49.18Z"/><path class="cls-2" d="M46.53,41.24l-1.83-1a.36.36,0,0,1-.14-.36h0a.18.18,0,0,1,.28-.12l1.82,1a.34.34,0,0,1,.15.36h0A.19.19,0,0,1,46.53,41.24Z"/><path class="cls-2" d="M44.09,51.39,42,50.2a.32.32,0,0,1-.14-.35h0a.18.18,0,0,1,.27-.12l2.12,1.18a.32.32,0,0,1,.14.36h0A.18.18,0,0,1,44.09,51.39Z"/><path class="cls-2" d="M45.9,53.63l-1.24-.7a.32.32,0,0,1-.14-.35h0a.18.18,0,0,1,.27-.12l1.24.69a.32.32,0,0,1,.14.36h0A.18.18,0,0,1,45.9,53.63Z"/><path class="cls-2" d="M48.86,55.28l-1.83-1a.34.34,0,0,1-.15-.36h0a.19.19,0,0,1,.28-.12l1.83,1a.32.32,0,0,1,.14.35h0A.18.18,0,0,1,48.86,55.28Z"/><path class="cls-2" d="M43.53,59.21l-1.24-.69a.33.33,0,0,1-.14-.36h0a.18.18,0,0,1,.27-.12l1.24.7a.32.32,0,0,1,.15.35h0A.18.18,0,0,1,43.53,59.21Z"/><path class="cls-2" d="M46.17,60.69l-1.83-1a.32.32,0,0,1-.15-.35h0a.18.18,0,0,1,.28-.12l1.83,1a.33.33,0,0,1,.14.36h0A.18.18,0,0,1,46.17,60.69Z"/><path class="cls-2" d="M42.21,52.71l-.78-.43a.33.33,0,0,1-.14-.36h0a.18.18,0,0,1,.27-.12l.78.44a.32.32,0,0,1,.14.35h0A.18.18,0,0,1,42.21,52.71Z"/><path class="cls-2" d="M44.56,55.18l-2.37-1.32a.34.34,0,0,1-.14-.36h0a.18.18,0,0,1,.27-.12l2.37,1.33a.3.3,0,0,1,.14.35h0A.17.17,0,0,1,44.56,55.18Z"/><path class="cls-2" d="M42.42,56.29l-.77-.44a.32.32,0,0,1-.15-.35h0a.18.18,0,0,1,.28-.12l.77.43a.34.34,0,0,1,.15.36h0A.19.19,0,0,1,42.42,56.29Z"/><path class="cls-2" d="M46.5,63.18,44.43,62a.34.34,0,0,1-.15-.36h0a.19.19,0,0,1,.28-.12l2.07,1.16a.32.32,0,0,1,.14.35h0A.18.18,0,0,1,46.5,63.18Z"/><path class="cls-2" d="M41.6,58.13l-.5-.28A.32.32,0,0,1,41,57.5h0a.18.18,0,0,1,.27-.13l.5.28a.34.34,0,0,1,.14.36h0A.18.18,0,0,1,41.6,58.13Z"/><path class="cls-2" d="M41.17,60.19l-.62-.34a.33.33,0,0,1-.14-.36h0a.18.18,0,0,1,.27-.12l.62.35a.32.32,0,0,1,.15.35h0A.18.18,0,0,1,41.17,60.19Z"/><path class="cls-2" d="M43.57,61.54,42,60.63a.34.34,0,0,1-.15-.36h0a.19.19,0,0,1,.28-.12l1.63.91a.36.36,0,0,1,.14.36h0A.19.19,0,0,1,43.57,61.54Z"/><path class="cls-2" d="M41.45,61.5l-1.17-.65a.34.34,0,0,1-.14-.36h0a.18.18,0,0,1,.27-.12l1.17.66a.32.32,0,0,1,.15.35h0A.18.18,0,0,1,41.45,61.5Z"/><path class="cls-2" d="M48.27,64.18l-.75-.43a.3.3,0,0,1-.14-.35h0a.18.18,0,0,1,.27-.12l.75.42a.32.32,0,0,1,.15.35h0A.19.19,0,0,1,48.27,64.18Z"/><path class="cls-2" d="M45.3,57.9l-2.07-1.16a.33.33,0,0,1-.14-.35h0a.18.18,0,0,1,.28-.12l2.06,1.16a.32.32,0,0,1,.15.35h0A.18.18,0,0,1,45.3,57.9Z"/><path class="cls-2" d="M45.53,56.88l-3.61-2a.34.34,0,0,1-.14-.36h0a.18.18,0,0,1,.27-.12l3.61,2a.32.32,0,0,1,.14.35h0A.18.18,0,0,1,45.53,56.88Z"/><path class="cls-2" d="M43.44,58l-2.07-1.16a.32.32,0,0,1-.14-.35h0a.18.18,0,0,1,.27-.12l2.07,1.16a.32.32,0,0,1,.15.35h0A.18.18,0,0,1,43.44,58Z"/><path class="cls-2" d="M46.87,58.78l-.75-.42A.33.33,0,0,1,46,58h0a.18.18,0,0,1,.27-.12l.75.42a.34.34,0,0,1,.15.36h0A.18.18,0,0,1,46.87,58.78Z"/><path class="cls-2" d="M43.32,60.24l-2.49-1.39a.32.32,0,0,1-.15-.35h0a.19.19,0,0,1,.28-.13l2.49,1.4a.33.33,0,0,1,.14.35h0A.18.18,0,0,1,43.32,60.24Z"/><path class="cls-2" d="M43.54,52.3l-1.83-1a.32.32,0,0,1-.15-.35h0a.19.19,0,0,1,.28-.13l1.83,1a.33.33,0,0,1,.14.35h0A.18.18,0,0,1,43.54,52.3Z"/><path class="cls-2" d="M41.09,62.45,39,61.27a.34.34,0,0,1-.14-.36h0a.18.18,0,0,1,.27-.12L41.22,62a.3.3,0,0,1,.14.35h0A.17.17,0,0,1,41.09,62.45Z"/><path class="cls-2" d="M74.86,81.2a1.5,1.5,0,0,1-.77-.2L54.2,69.86a2.42,2.42,0,0,1-1.06-2.64l5.18-18.48a1.5,1.5,0,0,1,.85-1,1.4,1.4,0,0,1,1.25.1L80.32,59a2.43,2.43,0,0,1,1.05,2.64L76.19,80.07a1.53,1.53,0,0,1-.84,1A1.38,1.38,0,0,1,74.86,81.2Zm-.68-.36a1.23,1.23,0,0,0,1.1.09A1.36,1.36,0,0,0,76,80L81.2,61.55a2.24,2.24,0,0,0-1-2.43L60.33,48a1.24,1.24,0,0,0-1.1-.1,1.38,1.38,0,0,0-.74.91L53.31,67.27a2.24,2.24,0,0,0,1,2.43Z"/><path class="cls-2" d="M77.62,65.37a1.08,1.08,0,0,1-.54-.15L59.67,55.48a1.7,1.7,0,0,1-.74-1.85l.66-2.35a1.07,1.07,0,0,1,.6-.73,1,1,0,0,1,.88.07l17.41,9.75a1.69,1.69,0,0,1,.74,1.85l-.66,2.35a1.09,1.09,0,0,1-.6.73A1,1,0,0,1,77.62,65.37ZM60.53,50.66a.63.63,0,0,0-.27.06.87.87,0,0,0-.5.61l-.66,2.35a1.5,1.5,0,0,0,.66,1.64l17.4,9.74a.83.83,0,0,0,.73.07.88.88,0,0,0,.49-.61L79,62.17a1.5,1.5,0,0,0-.65-1.64L61,50.78A.92.92,0,0,0,60.53,50.66Z"/><path class="cls-68" d="M75.33,71.52,72.07,69.7a1.6,1.6,0,0,1-.7-1.75L72,65.6a.9.9,0,0,1,1.35-.6l3.27,1.83a1.6,1.6,0,0,1,.69,1.74l-.66,2.36A.89.89,0,0,1,75.33,71.52Z"/><path class="cls-2" d="M74,78.13A1.06,1.06,0,0,1,73.5,78l-3.27-1.83a1.69,1.69,0,0,1-.73-1.85L70.16,72a1,1,0,0,1,.59-.73,1,1,0,0,1,.89.08l3.26,1.82A1.7,1.7,0,0,1,75.64,75L75,77.33a1.07,1.07,0,0,1-.6.73A1,1,0,0,1,74,78.13Zm-.46-.3a.86.86,0,0,0,.73.06.92.92,0,0,0,.5-.61l.66-2.35a1.5,1.5,0,0,0-.66-1.64l-3.26-1.83a.86.86,0,0,0-.73-.06.88.88,0,0,0-.49.61l-.66,2.35A1.5,1.5,0,0,0,70.32,76Z"/><path class="cls-2" d="M66.43,74.11a1.14,1.14,0,0,1-.55-.15L56,68.45a1.7,1.7,0,0,1-.74-1.85l2.51-8.94a1.07,1.07,0,0,1,.6-.73,1,1,0,0,1,.88.08l9.85,5.51a1.7,1.7,0,0,1,.74,1.85l-2.5,8.94a1.07,1.07,0,0,1-.6.72A1.05,1.05,0,0,1,66.43,74.11ZM66,73.8a.83.83,0,0,0,.73.07.88.88,0,0,0,.49-.61l2.51-8.94a1.5,1.5,0,0,0-.65-1.64L59.2,57.16a.86.86,0,0,0-.73-.06.92.92,0,0,0-.5.61l-2.5,8.94a1.51,1.51,0,0,0,.65,1.64Z"/><path class="cls-2" d="M79.54,54.3a.69.69,0,0,1-.34-.09.74.74,0,0,1-.34-.89.56.56,0,0,1,.33-.31.67.67,0,0,1,.53.07.72.72,0,0,1,.33.89h0a.53.53,0,0,1-.33.31A.55.55,0,0,1,79.54,54.3Zm-.16-1.12a.3.3,0,0,0-.13,0,.36.36,0,0,0-.21.19.54.54,0,0,0,.25.66.49.49,0,0,0,.37,0,.35.35,0,0,0,.22-.19.54.54,0,0,0-.26-.66A.5.5,0,0,0,79.38,53.18Z"/><path class="cls-2" d="M81.05,55.17a.61.61,0,0,1-.34-.1.74.74,0,0,1-.34-.89.54.54,0,0,1,.33-.3.66.66,0,0,1,.53.06.73.73,0,0,1,.33.9.55.55,0,0,1-.33.3ZM80.89,54a.3.3,0,0,0-.13,0,.32.32,0,0,0-.21.2.53.53,0,0,0,.25.65.45.45,0,0,0,.37.05.36.36,0,0,0,.22-.2h0a.53.53,0,0,0-.26-.65A.44.44,0,0,0,80.89,54Z"/><path class="cls-2" d="M83,55.66a.5.5,0,0,1-.73.19.62.62,0,0,1-.29-.77.48.48,0,0,1,.72-.19A.64.64,0,0,1,83,55.66Z"/><path class="cls-59" d="M6.69,73.21a7.94,7.94,0,0,1-3.89-.93,2.43,2.43,0,0,1,0-4.6,8.6,8.6,0,0,1,7.78,0,2.43,2.43,0,0,1,0,4.6h0A7.94,7.94,0,0,1,6.69,73.21Zm0-6.27a7.82,7.82,0,0,0-3.8.9,2.26,2.26,0,0,0,0,4.28,8.44,8.44,0,0,0,7.6,0h0a2.26,2.26,0,0,0,0-4.28A7.85,7.85,0,0,0,6.69,66.94Z"/><path class="cls-60" d="M6.69,70.07a7.94,7.94,0,0,1-3.89-.93,2.43,2.43,0,0,1,0-4.6,8.6,8.6,0,0,1,7.78,0,2.43,2.43,0,0,1,0,4.6h0A7.94,7.94,0,0,1,6.69,70.07Zm0-6.27a7.74,7.74,0,0,0-3.8.91,2.25,2.25,0,0,0,0,4.27,8.41,8.41,0,0,0,7.6,0h0a2.25,2.25,0,0,0,0-4.27A7.74,7.74,0,0,0,6.69,63.8Z"/><path class="cls-69" d="M13,49.41H.38L1.55,63.07h0a2.55,2.55,0,0,0,1.51,2.1,8,8,0,0,0,7.26,0,2.57,2.57,0,0,0,1.51-2.1Z"/><path class="cls-70" d="M13,49.41H.38l.19,2.25a5.06,5.06,0,0,0,1.17,1.05,10.59,10.59,0,0,0,9.11.76l-.42,10A2,2,0,0,1,10,64.65,4.7,4.7,0,0,1,7.27,66a7.13,7.13,0,0,0,3.05-.85,2.57,2.57,0,0,0,1.51-2.1l.94-11h0Z"/><ellipse class="cls-71" cx="6.69" cy="49.41" rx="6.31" ry="3.64"/><path class="cls-71" d="M10.53,50.34a8.45,8.45,0,0,1-7.68,0c-2.13-1.22-2.13-3.21,0-4.43a8.45,8.45,0,0,1,7.68,0C12.66,47.13,12.66,49.12,10.53,50.34Z"/><path class="cls-72" d="M13.37,49.24h0v0L13.25,48h0a3.32,3.32,0,0,0-1.91-2.55,10.25,10.25,0,0,0-9.28,0A3.31,3.31,0,0,0,.13,48.07h0L0,49.16v.1H0a3.26,3.26,0,0,0,2,2.88,10.44,10.44,0,0,0,9.46,0A3.23,3.23,0,0,0,13.37,49.24Z"/><ellipse class="cls-73" cx="6.69" cy="48.19" rx="5.44" ry="3.14"/><path class="cls-71" d="M3.49,46.37a8.54,8.54,0,0,1,7.69,0l.07.05a4.15,4.15,0,0,0-.72-.51,8.45,8.45,0,0,0-7.68,0C.75,47.12.73,49.07,2.77,50.3,1.41,49.08,1.65,47.44,3.49,46.37Z"/><path class="cls-74" d="M2.85,46.45a8.52,8.52,0,0,1,7.68,0A2.85,2.85,0,0,1,12.1,48.4a2.55,2.55,0,0,0-1.57-2.49,8.45,8.45,0,0,0-7.68,0A2.55,2.55,0,0,0,1.28,48.4,2.85,2.85,0,0,1,2.85,46.45Z"/><path class="cls-75" d="M11.37,45.48a10.25,10.25,0,0,0-9.31-.08C-.53,46.86-.55,49.27,2,50.77a10.25,10.25,0,0,0,9.31.08C13.91,49.39,13.93,47,11.37,45.48Zm-.84,4.86a7.13,7.13,0,0,1-2.47.82L8,50.83a.31.31,0,0,0-.29-.22h-2a.31.31,0,0,0-.29.22l-.1.33a7.13,7.13,0,0,1-2.47-.82c-2.13-1.22-2.13-3.21,0-4.43a8.45,8.45,0,0,1,7.68,0C12.66,47.13,12.66,49.12,10.53,50.34Z"/><rect class="cls-76" x="5.96" y="51.01" width="1.46" height="0.32" rx="0.16" ry="0.16"/><path class="cls-77" d="M7.27,51H6.11a.15.15,0,0,0-.15.15v0a.06.06,0,0,0,0,0,.14.14,0,0,1,.14-.11H7.27a.15.15,0,0,1,.14.11.06.06,0,0,0,0,0v0A.15.15,0,0,0,7.27,51Z"/><path class="cls-3" d="M7.12,51.22s4.36-1.46,2.6-6.47S4.51,38.21,5.9,34.2a8.12,8.12,0,0,0-.15,7.64c2,4.39,2.48,3.88,2.45,6a3.77,3.77,0,0,1-2,3.4Z"/><path class="cls-3" d="M7.51,34.29A8.06,8.06,0,0,1,10,28.05s-2.58,5.76-1.74,8.6A14.87,14.87,0,0,1,7.51,34.29Z"/><path class="cls-1" d="M56.56,24.72a11,11,0,0,0-1-5,2,2,0,0,0-.44-.69,1.62,1.62,0,0,0-1.51-.21,3.28,3.28,0,0,0-2.2,2.94,4.08,4.08,0,0,0,1.66,3.36,2.73,2.73,0,0,0,2,.61,1.53,1.53,0,0,0,1.34-1.43.33.33,0,0,0-.51.22Z"/><path class="cls-1" d="M52.8,21.06a2.11,2.11,0,0,0,.35-2,2.19,2.19,0,0,0-1.94.53,1.3,1.3,0,0,0,0,1.85,1,1,0,0,0,1.5-.68Z"/><path class="cls-1" d="M51.74,14.89a1,1,0,0,0,.7-.62,1,1,0,0,0-.41-.14.37.37,0,0,0-.36.18c-.09.18,0,.39.16.54l-.16,0Z"/><path class="cls-1" d="M52.2,16.09a.48.48,0,0,1,0,.29.8.8,0,0,1-.35-.64c0-.14,0-.31.1-.39s.19,0,.29,0,.38-.23.55-.12a.24.24,0,0,1,.05.3.78.78,0,0,1-.24.24l-.58.43Z"/><path class="cls-78" d="M47.69.3c.1-.18-.18-.37-.37-.28A.77.77,0,0,0,47,.53a.73.73,0,0,0,.78-.15Z"/><path class="cls-1" d="M40.51,1.48a.18.18,0,0,1-.25,0,.32.32,0,0,1-.12-.25.51.51,0,0,1,0-.17A.25.25,0,0,1,40.51,1a.26.26,0,0,1,.07.34.28.28,0,0,1-.35.09Z"/><path class="cls-1" d="M49,13.56a.29.29,0,0,0,.49-.06.53.53,0,0,0-.25-.2.24.24,0,0,0-.28.1.16.16,0,0,0,.13.23Z"/><path class="cls-1" d="M52,17.06a.82.82,0,0,0,.65-.28l-.49-.35a.45.45,0,0,0-.25-.12.33.33,0,0,0-.32.36.47.47,0,0,0,.38.36Z"/><path class="cls-78" d="M42.62,3.32l-.16-.13a.24.24,0,0,0-.14.27.21.21,0,0,0,.26.14.17.17,0,0,0,.06-.27Z"/><path class="cls-1" d="M50.15,14.5c-.13,0-.12.23,0,.33a3.71,3.71,0,0,0,.32.23.52.52,0,0,1,.16.37.24.24,0,0,1-.11.2.29.29,0,0,1-.16,0,1.45,1.45,0,0,1-.73-.25.66.66,0,0,1-.27-.68.51.51,0,0,1,.38-.36.55.55,0,0,1,.5.15Z"/><path class="cls-1" d="M53.68,14.37A.31.31,0,0,0,54,14a.45.45,0,0,0-.28-.38c-.06,0-.16,0-.2,0a.26.26,0,0,0,0,.15l.15.59Z"/><path class="cls-1" d="M50.79,7.16A.54.54,0,0,1,50,6.79a1.35,1.35,0,0,1,.76-.15.46.46,0,0,1,.38.57l-.4.21Z"/><path class="cls-1" d="M57.12,32.54a.15.15,0,0,1-.09.18.33.33,0,0,1-.22,0,.42.42,0,0,1-.16-.09.29.29,0,0,1,0-.34.38.38,0,0,1,.33-.13.24.24,0,0,1,.15.08.14.14,0,0,1,0,.17Z"/><path class="cls-1" d="M49.61,11.8l.13-.16c-.08-.08-.16-.17-.27-.17s-.22.11-.16.2a.14.14,0,0,0,.1.07l.36.16Z"/><path class="cls-1" d="M47.94,8.41a1.22,1.22,0,0,0,.15-.49.44.44,0,0,0-.23-.43.46.46,0,0,0-.26,0,.48.48,0,1,0,.33.91Z"/><path class="cls-1" d="M48.68,6.74l0-.35a.82.82,0,0,0-.27,0,.34.34,0,0,0,.25.4Z"/><path class="cls-1" d="M58.81,11.6A4.47,4.47,0,0,0,57.63,10a1.21,1.21,0,0,0-.28-.18.66.66,0,0,0-.59.18,1.34,1.34,0,0,0-.3,1.44,1.63,1.63,0,0,0,1.17.94,1.09,1.09,0,0,0,.83-.11.61.61,0,0,0,.24-.75.14.14,0,0,0-.15.17Z"/><path class="cls-1" d="M47.66,20.24a1.06,1.06,0,0,0,.19-.92,1.16,1.16,0,0,0-.41.13.38.38,0,0,0-.18.37c0,.2.26.28.45.33l-.14.09Z"/><path class="cls-1" d="M46.23,18.39a.49.49,0,0,0,0-.27A.48.48,0,0,0,46,18a3.4,3.4,0,0,1-.59-.4l.22,1.18a.27.27,0,0,1,0,.09c0,.11-.17.13-.25.21s-.06.31,0,.44C46.05,20.45,46.12,18.87,46.23,18.39Z"/><path class="cls-1" d="M49.13,21.84a.79.79,0,0,0,.36-.61h-.6a.51.51,0,0,0-.27.06.32.32,0,0,0,0,.48.45.45,0,0,0,.51.06Z"/><path class="cls-1" d="M48.91,18.66a.32.32,0,0,0,0-.44.45.45,0,0,0-.45-.13c-.07,0-.15.06-.15.13s0,.09.08.12l.48.38Z"/><path class="cls-1" d="M51.77,18.81a1.28,1.28,0,0,0,.16-.49.39.39,0,0,0-.49-.44.5.5,0,0,0-.32.62.5.5,0,0,0,.64.29Z"/><path class="cls-1" d="M52.54,10.06c-.11-.13-.33-.09-.49,0s-.37.13-.51,0a.14.14,0,0,1-.07-.12c0-.12.18-.14.29-.19A1,1,0,0,0,52,9.56a.59.59,0,0,1,.67,0,.36.36,0,0,1,0,.36.34.34,0,0,1-.34.12Z"/><path class="cls-1" d="M48.93,7.62c-.12-.14-.33-.1-.5,0s-.36.13-.5,0a.15.15,0,0,1-.07-.12c0-.12.18-.14.29-.19a1.3,1.3,0,0,0,.23-.18.57.57,0,0,1,.66,0,.3.3,0,0,1,0,.35.31.31,0,0,1-.33.13Z"/><path class="cls-1" d="M48.53,4.39a1,1,0,0,0-.1-.42.1.1,0,0,0,0-.05.14.14,0,0,0-.13,0,.28.28,0,0,0-.17.25.35.35,0,0,0,.15.28.22.22,0,0,0,.17.05.13.13,0,0,0,.1-.13s0,0,0,0Z"/><path class="cls-1" d="M53.3,24.58a1.09,1.09,0,0,0,.19-.92,1.16,1.16,0,0,0-.41.13.35.35,0,0,0-.18.37c0,.2.26.28.45.33l-.14.09Z"/><path class="cls-1" d="M50.31,25.16a.28.28,0,0,0,.35-.34.47.47,0,0,0-.31,0,.26.26,0,0,0-.17.25c0,.1.16.18.24.11Z"/><path class="cls-1" d="M51.31,19.84a.29.29,0,0,0,.35-.35.58.58,0,0,0-.32,0,.24.24,0,0,0-.16.25.16.16,0,0,0,.23.11Z"/><path class="cls-1" d="M51.79,25.22c-.08.11,0,.26.17.29s.26,0,.4,0a.52.52,0,0,1,.34.2.28.28,0,0,1,0,.23.28.28,0,0,1-.12.1,1.4,1.4,0,0,1-.74.25.66.66,0,0,1-.62-.39.5.5,0,0,1,.09-.51.53.53,0,0,1,.49-.18Z"/><path class="cls-1" d="M50.76,9.83c-.08.11,0,.26.17.29s.27,0,.4,0a.5.5,0,0,1,.34.21.25.25,0,0,1,0,.22.32.32,0,0,1-.12.11,1.47,1.47,0,0,1-.73.24.65.65,0,0,1-.63-.39.5.5,0,0,1,.09-.51.51.51,0,0,1,.49-.17Z"/><path class="cls-1" d="M52.44,9.45c-.08.11,0,.26.17.29s.26,0,.39,0a.46.46,0,0,1,.35.2.22.22,0,0,1,0,.22.29.29,0,0,1-.11.11,1.54,1.54,0,0,1-.74.24.65.65,0,0,1-.62-.39.5.5,0,0,1,.58-.68Z"/><path class="cls-1" d="M52.47,12.1c-.07.11,0,.26.17.29s.27,0,.4,0a.48.48,0,0,1,.34.2.22.22,0,0,1,0,.23.26.26,0,0,1-.12.11,1.47,1.47,0,0,1-.73.24.66.66,0,0,1-.63-.39.52.52,0,0,1,.09-.51.51.51,0,0,1,.49-.17Z"/><path class="cls-1" d="M34.27,8.54c-.07.1,0,.26.17.28a2.67,2.67,0,0,0,.4,0,.45.45,0,0,1,.34.2.22.22,0,0,1,0,.23.31.31,0,0,1-.12.1,1.39,1.39,0,0,1-.73.25.7.7,0,0,1-.63-.39.54.54,0,0,1,.09-.52.56.56,0,0,1,.49-.17Z"/><path class="cls-1" d="M49.74,23.39v-.22a.49.49,0,0,0-.32,0c-.09.06-.11.23,0,.26a.17.17,0,0,0,.12,0l.38-.09Z"/><path class="cls-1" d="M42.33,11.58a1.28,1.28,0,0,0,.16-.49.42.42,0,0,0-.24-.43.42.42,0,0,0-.25,0,.48.48,0,1,0,.32.91Z"/><path class="cls-1" d="M54.06,20.22a.35.35,0,0,1-.45.39.92.92,0,0,1-.14-.39.63.63,0,0,1,.45,0Z"/><path class="cls-78" d="M43,9.47a.7.7,0,0,0,0-.29A.25.25,0,0,0,42.87,9c-.16,0-.28.15-.44.2s-.35-.05-.48.05a.28.28,0,0,0,0,.42.72.72,0,0,0,.46.11.74.74,0,0,0,.42-.09A.29.29,0,0,0,43,9.28Z"/><path class="cls-1" d="M51,13.57a2.08,2.08,0,0,0,1.47-1.36,2.19,2.19,0,0,0-1.87-.75,1.33,1.33,0,0,0-1.1,1.5.94.94,0,0,0,1.61.35Z"/><path class="cls-1" d="M55.64,19.94a.18.18,0,0,1-.21-.14.33.33,0,0,1,.06-.27.34.34,0,0,1,.12-.12.24.24,0,0,1,.32.13.26.26,0,0,1-.15.32.28.28,0,0,1-.33-.13Z"/><path class="cls-1" d="M53.35,16.87c-.16-.09-.34,0-.48.13s-.3.25-.47.2-.09-.05-.1-.1.12-.19.21-.27a2.13,2.13,0,0,0,.16-.25.58.58,0,0,1,.61-.25.31.31,0,0,1,.1.34.33.33,0,0,1-.28.23Z"/><path class="cls-1" d="M48.55,14l0-.2a.25.25,0,0,0-.28.14.2.2,0,0,0,.13.26.17.17,0,0,0,.21-.18Z"/><path class="cls-1" d="M51,17a.14.14,0,0,1-.18.1.33.33,0,0,1-.17-.14.38.38,0,0,1-.08-.17.28.28,0,0,1,.19-.28.33.33,0,0,1,.34.09.25.25,0,0,1,.08.16c0,.06-.05.12-.11.12Z"/><path class="cls-1" d="M45.77,19.59a2.09,2.09,0,0,0,2-.07,2.17,2.17,0,0,0-.92-1.78,1.3,1.3,0,0,0-1.81.41c-.32.62.31,1.52,1,1.32Z"/><path class="cls-1" d="M50.38,22.54c.1-.18-.18-.37-.37-.28a.77.77,0,0,0-.31.5.71.71,0,0,0,.78-.15Z"/><path class="cls-1" d="M56,17.68l-.05-.2a.26.26,0,0,0-.28.14.21.21,0,0,0,.13.27A.18.18,0,0,0,56,17.7Z"/><path class="cls-1" d="M52.29,18a4.74,4.74,0,0,0-.36-2.17.75.75,0,0,0-.18-.31.69.69,0,0,0-.65-.11,1.42,1.42,0,0,0-1,1.25,1.73,1.73,0,0,0,.68,1.48,1.18,1.18,0,0,0,.85.29.67.67,0,0,0,.6-.61.15.15,0,0,0-.22.09Z"/><path class="cls-1" d="M40.19,16.45a2.09,2.09,0,0,0,.35-2A2.2,2.2,0,0,0,38.6,15a1.31,1.31,0,0,0,0,1.86,1,1,0,0,0,1.5-.68Z"/><path class="cls-1" d="M47.72,5.63a1.07,1.07,0,0,0,.19-.92,1.17,1.17,0,0,0-.41.14.37.37,0,0,0-.18.37c0,.19.26.28.45.33l-.14.08Z"/><path class="cls-1" d="M46.28,3.78a.42.42,0,0,0,0-.27.46.46,0,0,0-.2-.16,4.13,4.13,0,0,1-.59-.41l.21,1.18a.17.17,0,0,1,0,.1c0,.1-.17.12-.25.2s-.06.31,0,.45C46.11,5.84,46.18,4.27,46.28,3.78Z"/><path class="cls-1" d="M53.39,16.07l0-.34a.54.54,0,0,0-.47.45c0,.23.26.46.46.34s.28-.25.36-.12Z"/><path class="cls-1" d="M46,9.19a.48.48,0,0,1,0,.29.82.82,0,0,1-.34-.64c0-.14,0-.32.09-.39s.19,0,.29,0,.39-.23.55-.12a.24.24,0,0,1,0,.3.63.63,0,0,1-.23.23l-.59.43Z"/><path class="cls-1" d="M42.34,10.26c.1-.18-.18-.37-.37-.28a.74.74,0,0,0-.31.51.73.73,0,0,0,.78-.15Z"/><path class="cls-78" d="M43.45,6.05a.17.17,0,0,1-.25,0,.35.35,0,0,1-.12-.25.47.47,0,0,1,0-.17.25.25,0,0,1,.34-.09.26.26,0,0,1,.07.35.28.28,0,0,1-.35.09Z"/><path class="cls-1" d="M44.73,6.21a.28.28,0,0,0,.35-.34.47.47,0,0,0-.31,0,.25.25,0,0,0-.17.24.17.17,0,0,0,.24.12Z"/><path class="cls-1" d="M49.19,7.24a.82.82,0,0,0,.36-.62l-.6,0a.5.5,0,0,0-.27.05.32.32,0,0,0,0,.48.45.45,0,0,0,.51.06Z"/><path class="cls-78" d="M41.31,8a.37.37,0,0,1-.37.13.38.38,0,0,1-.27-.3c0-.1,0-.22.13-.22a.22.22,0,0,1,.11.05l.45.29L41.3,8Z"/><path class="cls-78" d="M38.59,7.36c-.12-.13-.33-.09-.49,0s-.37.13-.51,0a.15.15,0,0,1-.07-.12c0-.13.18-.14.29-.2A1,1,0,0,0,38,6.86a.63.63,0,0,1,.67,0,.36.36,0,0,1,0,.36.34.34,0,0,1-.34.12Z"/><path class="cls-78" d="M54.34,10.16c-.11-.13-.32-.09-.49,0s-.36.13-.5,0a.17.17,0,0,1-.07-.12c0-.13.17-.15.29-.2a1.3,1.3,0,0,0,.23-.18.59.59,0,0,1,.66,0,.32.32,0,0,1,0,.36.32.32,0,0,1-.33.12Z"/><path class="cls-78" d="M39,5.65l0-.21a.26.26,0,0,0-.3,0,.2.2,0,0,0,0,.3A.18.18,0,0,0,39,5.67Z"/><path class="cls-1" d="M46.21,6.27c-.08.11,0,.26.17.29s.27,0,.4,0a.45.45,0,0,1,.34.2.25.25,0,0,1,0,.22.32.32,0,0,1-.12.11,1.47,1.47,0,0,1-.73.24.65.65,0,0,1-.63-.39.5.5,0,0,1,.09-.51.51.51,0,0,1,.49-.17Z"/><path class="cls-1" d="M49,4.06a.34.34,0,0,0,0-.45.47.47,0,0,0-.45-.13c-.07,0-.15.06-.15.14s0,.08.08.11l.48.39Z"/><path class="cls-1" d="M44.58,12.06a.54.54,0,0,1-.77-.38,1.27,1.27,0,0,1,.76-.14c.25.05.48.32.38.56l-.4.21Z"/><path class="cls-78" d="M44.16,4.44V4.23a.44.44,0,0,0-.32,0c-.09.06-.11.23,0,.27a.25.25,0,0,0,.12,0l.38-.09Z"/><path class="cls-1" d="M52.66,21.07a1.28,1.28,0,0,0,.16-.5.41.41,0,0,0-.24-.42.31.31,0,0,0-.25,0,.51.51,0,0,0-.32.62.49.49,0,0,0,.64.28Z"/><path class="cls-1" d="M43.32,16.7l0-.35a.8.8,0,0,0-.27,0,.34.34,0,0,0,.25.4Z"/><path class="cls-1" d="M54.46,30.05a.19.19,0,0,1-.26,0,.39.39,0,0,1-.11-.26.3.3,0,0,1,0-.16.24.24,0,0,1,.33-.09.25.25,0,0,1,.07.34.28.28,0,0,1-.34.1Z"/><path class="cls-1" d="M44.74,14.14l-.05-.35a.63.63,0,0,0-.27,0,.33.33,0,0,0,.26.39Z"/><path class="cls-1" d="M54.29,12.48c.1-.07,0-.26-.08-.32s-.26-.06-.38-.11a.5.5,0,0,1-.27-.3.25.25,0,0,1,0-.22.27.27,0,0,1,.14-.07,1.59,1.59,0,0,1,.78,0A.66.66,0,0,1,55,12a.51.51,0,0,1-.75.48Z"/><path class="cls-1" d="M50.6,18.48a.59.59,0,0,0-.12.27.25.25,0,0,0,.1.26c.15.08.32-.06.48-.05s.32.14.48.09a.27.27,0,0,0,.09-.41.7.7,0,0,0-.41-.25.76.76,0,0,0-.42,0,.31.31,0,0,0-.25.31Z"/><path class="cls-1" d="M49.54,10.93a3.88,3.88,0,0,0,.81,1.59.57.57,0,0,0,.22.19.56.56,0,0,0,.53-.07,1.14,1.14,0,0,0,.46-1.21,1.41,1.41,0,0,0-.89-1,1,1,0,0,0-.73,0,.55.55,0,0,0-.32.62.12.12,0,0,0,.15-.13Z"/><path class="cls-1" d="M53.89,11.27a.44.44,0,0,0,.23-.13.47.47,0,0,0,.05-.26,4.37,4.37,0,0,1,.06-.72l-.92.78-.08.05c-.1,0-.19-.09-.3-.12s-.3.11-.37.25C52,12.15,53.42,11.43,53.89,11.27Z"/><path class="cls-1" d="M49.67,10.85l0-.2a.24.24,0,0,0-.31,0,.21.21,0,0,0,0,.3.18.18,0,0,0,.27-.09Z"/><path class="cls-1" d="M52.73,9.77a.33.33,0,0,0,.4-.2A.45.45,0,0,0,53,9.12c-.05-.06-.13-.1-.19-.06s0,.08-.06.13l-.1.6Z"/><path class="cls-1" d="M50.55,10a1.1,1.1,0,0,0,.9-.3,1.3,1.3,0,0,0-.33-.29.38.38,0,0,0-.41,0c-.14.13-.11.37-.06.56l-.14-.08Z"/><path class="cls-1" d="M49.21,9.41a.46.46,0,0,1-.26.15.83.83,0,0,1,.39-.62c.11-.09.26-.18.38-.11s.12.16.18.23.4.23.38.42a.26.26,0,0,1-.24.2.77.77,0,0,1-.32-.09l-.66-.3Z"/><path class="cls-1" d="M52.48,11.2a.82.82,0,0,0,.7,0l-.3-.52a.48.48,0,0,0-.19-.21.32.32,0,0,0-.43.21.45.45,0,0,0,.2.47Z"/><path class="cls-1" d="M51.83,8.13c-.13,0-.21.17-.16.29a3.12,3.12,0,0,0,.2.35.48.48,0,0,1,0,.39.25.25,0,0,1-.17.15.33.33,0,0,1-.15-.05A1.46,1.46,0,0,1,51,8.74.68.68,0,0,1,51,8a.51.51,0,0,1,.49-.17.51.51,0,0,1,.4.34Z"/><path class="cls-1" d="M48.31,15.93a1.21,1.21,0,0,0,.5-.1.44.44,0,0,0,.26-.42.34.34,0,0,0-.12-.22.49.49,0,0,0-.7,0,.5.5,0,0,0,.07.7Z"/><path class="cls-1" d="M52.18,16.18a1.09,1.09,0,0,0,.89-.3,1.3,1.3,0,0,0-.33-.29.36.36,0,0,0-.41,0c-.14.13-.11.37-.06.56l-.14-.08Z"/><path class="cls-1" d="M48.8,9c-.11-.14-.32-.11-.49-.06a.57.57,0,0,1-.51,0,.16.16,0,0,1-.06-.13c0-.12.19-.13.3-.17a.85.85,0,0,0,.25-.17.59.59,0,0,1,.66,0,.34.34,0,0,1,0,.36.38.38,0,0,1-.35.1Z"/><path class="cls-1" d="M48,22.51,48,22.33a.25.25,0,0,0-.24.19.21.21,0,0,0,.19.23.17.17,0,0,0,.16-.23Z"/><path class="cls-1" d="M51.44,12.49l.19-.09a.48.48,0,0,0-.18-.27c-.1-.05-.25,0-.23.13a.15.15,0,0,0,.06.1l.27.29Z"/><path class="cls-2" d="M100.76,86.18a7.44,7.44,0,0,0-3.12-1.48,1.32,1.32,0,0,0-.56,0,1.07,1.07,0,0,0-.72.74,2.23,2.23,0,0,0,.72,2.39,2.74,2.74,0,0,0,2.52.45,1.88,1.88,0,0,0,1.15-.85,1,1,0,0,0-.25-1.31.22.22,0,0,0-.08.37Z"/><path class="cls-2" d="M97.23,86.76a1.44,1.44,0,0,0-.94-1,1.51,1.51,0,0,0-.5,1.28.91.91,0,0,0,1,.74.64.64,0,0,0,.23-1.1Z"/><path class="cls-2" d="M93.42,84.85a.76.76,0,0,0-.06-.64,1.1,1.1,0,0,0-.25.17.26.26,0,0,0,0,.28c.06.12.23.13.36.13l-.07.08Z"/><path class="cls-2" d="M94.26,85.08a.28.28,0,0,1,.16.12.54.54,0,0,1-.49-.07c-.09,0-.18-.11-.17-.21s.06-.11.09-.17,0-.31.16-.36a.16.16,0,0,1,.18.1.41.41,0,0,1,0,.22v.5Z"/><path class="cls-3" d="M83.77,81.18c-.06-.13-.28-.05-.31.09a.53.53,0,0,0,.15.37.47.47,0,0,0,.24-.48Z"/><path class="cls-2" d="M81.51,85.6a.13.13,0,0,1-.09.15.31.31,0,0,1-.19,0,.34.34,0,0,1-.08-.09.16.16,0,0,1,.09-.22.18.18,0,0,1,.13.33Z"/><path class="cls-2" d="M91.58,85.82a.19.19,0,0,0,.16-.29.38.38,0,0,0-.21,0,.18.18,0,0,0-.06.19.11.11,0,0,0,.18,0Z"/><path class="cls-2" d="M94.69,85.61a.58.58,0,0,0,.12-.47l-.39.12a.31.31,0,0,0-.17.09.21.21,0,0,0,.07.32.31.31,0,0,0,.35-.06Z"/><path class="cls-3" d="M83.37,85.19l-.13,0a.17.17,0,0,0,.09.19.14.14,0,0,0,.18-.09.12.12,0,0,0-.13-.14Z"/><path class="cls-2" d="M92.56,85.57c0,.08.07.16.16.15a2.58,2.58,0,0,0,.26-.08.37.37,0,0,1,.27.06.16.16,0,0,1,.06.14.19.19,0,0,1,0,.1,1,1,0,0,1-.43.3.47.47,0,0,1-.49-.13.37.37,0,0,1,0-.35.34.34,0,0,1,.28-.21Z"/><path class="cls-2" d="M93.92,83.58a.24.24,0,0,0-.07-.3.33.33,0,0,0-.32,0s-.09.07-.07.12.05,0,.08.06l.38.16Z"/><path class="cls-2" d="M88.79,82.25a.37.37,0,0,1-.52.27.89.89,0,0,1,.22-.47c.14-.12.38-.14.47,0l0,.31Z"/><path class="cls-2" d="M105.28,89a.1.1,0,0,1,.07.12.19.19,0,0,1-.1.12l-.11,0a.18.18,0,0,1-.19-.13A.22.22,0,0,1,105,89a.12.12,0,0,1,.1,0s.09,0,.09.07Z"/><path class="cls-2" d="M90.86,84.78l0-.14c-.07,0-.16,0-.2.08s0,.17,0,.17a.11.11,0,0,0,.07,0l.24-.13Z"/><path class="cls-2" d="M88.32,84.32a.83.83,0,0,0-.21-.28.29.29,0,0,0-.33-.05.33.33,0,0,0-.1.14.33.33,0,1,0,.62.19Z"/><path class="cls-2" d="M87.7,83.24l-.21-.12a.39.39,0,0,0-.1.16.23.23,0,0,0,.32,0Z"/><path class="cls-2" d="M94.47,79.64a2.93,2.93,0,0,0-1.38,0,.39.39,0,0,0-.21.08.44.44,0,0,0-.14.39.9.9,0,0,0,.66.75,1.11,1.11,0,0,0,1-.26.75.75,0,0,0,.28-.5.42.42,0,0,0-.31-.44.09.09,0,0,0,0,.15Z"/><path class="cls-2" d="M94.71,89.25a.74.74,0,0,0-.43-.47.73.73,0,0,0-.1.28.27.27,0,0,0,.13.25c.13,0,.26,0,.37-.12v.11Z"/><path class="cls-2" d="M93.11,89.3a.27.27,0,0,0-.15-.11.33.33,0,0,0-.17,0,2.6,2.6,0,0,1-.47.16l.74.36a.1.1,0,0,1,0,0s0,.14,0,.22.14.15.25.16C94.17,90.22,93.33,89.55,93.11,89.3Z"/><path class="cls-2" d="M96.18,89.09a.54.54,0,0,0-.19-.44l-.24.33a.58.58,0,0,0-.08.18.22.22,0,0,0,.25.21.3.3,0,0,0,.24-.26Z"/><path class="cls-2" d="M104,91.44l-.13,0a.17.17,0,0,0,.09.19.15.15,0,0,0,.19-.09c0-.07-.06-.16-.13-.14Z"/><path class="cls-2" d="M94.34,87.93a.21.21,0,0,0-.23-.19.29.29,0,0,0-.25.19s0,.11,0,.14a.17.17,0,0,0,.1,0l.4-.11Z"/><path class="cls-2" d="M95.58,86.42a.86.86,0,0,0-.21-.29.31.31,0,0,0-.33,0,.24.24,0,0,0-.1.14.32.32,0,1,0,.62.18Z"/><path class="cls-2" d="M91.08,82.46c-.12,0-.18.14-.21.26s-.08.25-.19.29a.12.12,0,0,1-.1,0c-.06-.06,0-.16,0-.24a1.34,1.34,0,0,0,0-.2.42.42,0,0,1,.25-.38.24.24,0,0,1,.19.16.22.22,0,0,1-.07.23Z"/><path class="cls-2" d="M88.28,83.46c-.12,0-.18.14-.21.26S88,84,87.88,84a.12.12,0,0,1-.1,0c-.06,0,0-.15,0-.23a.67.67,0,0,0,0-.2.4.4,0,0,1,.25-.38.22.22,0,0,1,.19.16.25.25,0,0,1-.07.23Z"/><path class="cls-2" d="M86.35,82.37a.54.54,0,0,0-.27-.11,0,0,0,0,0,0,0s0,0-.06.06a.2.2,0,0,0,.07.2.23.23,0,0,0,.21,0,.18.18,0,0,0,.1-.07.08.08,0,0,0,0-.11s0,0,0,0Z"/><path class="cls-2" d="M99.37,87.91a.74.74,0,0,0-.43-.47.66.66,0,0,0-.09.28A.22.22,0,0,0,99,88c.12.06.26,0,.36-.11V88Z"/><path class="cls-2" d="M98.48,89.79a.2.2,0,0,0,0-.33.29.29,0,0,0-.13.16.16.16,0,0,0,.07.19c.06,0,.16,0,.15-.08Z"/><path class="cls-2" d="M96,87.09a.2.2,0,0,0,0-.33.31.31,0,0,0-.13.17.17.17,0,0,0,.06.19A.12.12,0,0,0,96,87Z"/><path class="cls-2" d="M99.11,89c0,.09.16.08.23,0s.09-.15.15-.22a.31.31,0,0,1,.25-.1.14.14,0,0,1,.14.07.17.17,0,0,1,0,.1.88.88,0,0,1-.16.5.45.45,0,0,1-.47.19.34.34,0,0,1-.24-.25.35.35,0,0,1,.1-.34Z"/><path class="cls-2" d="M90.24,83.35c0,.08.16.08.23,0s.09-.15.16-.22a.32.32,0,0,1,.24-.11.14.14,0,0,1,.14.07.14.14,0,0,1,0,.11.88.88,0,0,1-.16.5.46.46,0,0,1-.47.19.37.37,0,0,1-.24-.26.36.36,0,0,1,.1-.34Z"/><path class="cls-2" d="M90.71,82.27c0,.09.16.08.23,0s.09-.15.15-.22a.39.39,0,0,1,.25-.1.14.14,0,0,1,.14.07.14.14,0,0,1,0,.11.93.93,0,0,1-.16.5.45.45,0,0,1-.47.18.34.34,0,0,1-.24-.25.35.35,0,0,1,.1-.34Z"/><path class="cls-2" d="M92.18,83.32c0,.09.16.08.23,0s.09-.15.15-.22a.39.39,0,0,1,.25-.1.14.14,0,0,1,.14.07.14.14,0,0,1,0,.11.93.93,0,0,1-.16.5.46.46,0,0,1-.47.18.34.34,0,0,1-.24-.25.35.35,0,0,1,.1-.34Z"/><path class="cls-2" d="M82.87,91.88c0,.08.16.08.22,0a1.77,1.77,0,0,0,.16-.22.3.3,0,0,1,.25-.1.16.16,0,0,1,.14.07.17.17,0,0,1,0,.1,1.06,1.06,0,0,1-.16.5.45.45,0,0,1-.47.19.35.35,0,0,1-.25-.25.39.39,0,0,1,.11-.34Z"/><path class="cls-2" d="M97.27,89.38l-.11-.09c0,.06-.11.11-.11.19s.08.15.14.11a.25.25,0,0,0,0-.07l.11-.25Z"/><path class="cls-2" d="M87.79,88.68a.8.8,0,0,0-.2-.28.29.29,0,0,0-.33-.05.26.26,0,0,0-.11.14.33.33,0,1,0,.63.19Z"/><path class="cls-2" d="M97.28,85.73a.24.24,0,0,1,0,.41.92.92,0,0,1-.27-.08.39.39,0,0,1,.18-.25Z"/><path class="cls-3" d="M86.91,87.45a.44.44,0,0,0-.14-.13.15.15,0,0,0-.19,0c-.09.07,0,.21-.08.32s-.16.17-.16.28.13.19.24.16a.51.51,0,0,0,.25-.21.55.55,0,0,0,.12-.27.21.21,0,0,0-.15-.23Z"/><path class="cls-2" d="M92.39,84.74a1.43,1.43,0,0,0-.16-1.36,1.49,1.49,0,0,0-1.16.72.89.89,0,0,0,.37,1.21c.44.18,1-.29.85-.74Z"/><path class="cls-2" d="M97.77,84.75a.14.14,0,0,1-.17.06.21.21,0,0,1-.12-.14.5.5,0,0,1,0-.12.17.17,0,1,1,.32.09.2.2,0,0,1-.21.13Z"/><path class="cls-2" d="M95.15,84.77c-.11,0-.12.2-.12.32s0,.26-.08.33a.1.1,0,0,1-.09,0c-.08,0-.06-.14-.07-.23a1.34,1.34,0,0,0-.07-.18.4.4,0,0,1,.11-.44.23.23,0,0,1,.23.08.25.25,0,0,1,0,.25Z"/><path class="cls-2" d="M91.61,86.23l-.13,0a.17.17,0,0,0,0,.2.13.13,0,0,0,.19,0,.12.12,0,0,0,0-.19Z"/><path class="cls-2" d="M94.25,86.1a.1.1,0,0,1,0,.14.26.26,0,0,1-.15,0l-.12,0a.2.2,0,0,1-.08-.22.26.26,0,0,1,.19-.15.18.18,0,0,1,.12,0,.08.08,0,0,1,0,.1Z"/><path class="cls-2" d="M93.58,90a1.38,1.38,0,0,0,.77-1.13A1.49,1.49,0,0,0,93,88.69a.9.9,0,0,0-.51,1.16.65.65,0,0,0,1.13,0Z"/><path class="cls-2" d="M97.07,88.69c-.06-.13-.28,0-.3.09a.46.46,0,0,0,.15.37.48.48,0,0,0,.23-.48Z"/><path class="cls-2" d="M96.66,83.65l-.12-.06a.17.17,0,0,0,0,.21.14.14,0,0,0,.2,0,.12.12,0,0,0,0-.19Z"/><path class="cls-2" d="M95.32,85.78A3.41,3.41,0,0,0,94,85.1a.65.65,0,0,0-.24,0,.45.45,0,0,0-.32.32,1,1,0,0,0,.28,1,1.18,1.18,0,0,0,1.09.23.8.8,0,0,0,.5-.36.44.44,0,0,0-.09-.57c-.06,0-.09.12,0,.16Z"/><path class="cls-2" d="M89.6,91.83a1.4,1.4,0,0,0-.94-1,1.45,1.45,0,0,0-.49,1.27.89.89,0,0,0,1,.75.65.65,0,0,0,.24-1.1Z"/><path class="cls-2" d="M86.71,83.32a.74.74,0,0,0-.43-.48.79.79,0,0,0-.1.28.27.27,0,0,0,.13.25c.13.06.26,0,.37-.11v.11Z"/><path class="cls-2" d="M85.11,83.36a.27.27,0,0,0-.15-.11.26.26,0,0,0-.17,0,4.19,4.19,0,0,1-.46.16l.73.36,0,0c0,.06,0,.15,0,.22s.14.16.25.17C86.17,84.29,85.33,83.61,85.11,83.36Z"/><path class="cls-2" d="M94.73,84.43l-.21-.12a.38.38,0,0,0,.06.44c.12.11.36,0,.37-.11s0-.26.08-.25Z"/><path class="cls-2" d="M88,85.69a.31.31,0,0,1,.16.12.54.54,0,0,1-.49-.07c-.09,0-.18-.12-.17-.21s.06-.12.09-.18,0-.3.16-.35a.16.16,0,0,1,.18.1.4.4,0,0,1,0,.22v.49Z"/><path class="cls-2" d="M87.07,88.15c-.06-.13-.27-.05-.3.08a.55.55,0,0,0,.15.38.47.47,0,0,0,.23-.49Z"/><path class="cls-3" d="M85.21,85.83a.13.13,0,0,1-.09.15.22.22,0,0,1-.19,0,.3.3,0,0,1-.08-.08.17.17,0,0,1,.09-.22.18.18,0,0,1,.22.1.2.2,0,0,1-.09.23Z"/><path class="cls-2" d="M85.82,85.19a.2.2,0,0,0,0-.33.36.36,0,0,0-.13.17.17.17,0,0,0,.06.19c.07,0,.16,0,.16-.08Z"/><path class="cls-2" d="M88.18,83.16a.55.55,0,0,0-.19-.45l-.24.34a.53.53,0,0,0-.08.17.23.23,0,0,0,.25.22.31.31,0,0,0,.24-.26Z"/><path class="cls-3" d="M85.39,87.77a.25.25,0,0,1-.08.26.25.25,0,0,1-.27,0C85,88,84.93,88,85,87.9l.07,0,.34-.13,0,.06Z"/><path class="cls-3" d="M84,89c-.12,0-.19.15-.22.26s-.08.26-.19.29a.09.09,0,0,1-.09,0c-.07,0,0-.15,0-.24a1.41,1.41,0,0,0,0-.2.39.39,0,0,1,.25-.37.22.22,0,0,1,.19.15.22.22,0,0,1-.07.24Z"/><path class="cls-3" d="M91.87,81.51c-.12,0-.18.14-.22.26s-.07.25-.19.29a.1.1,0,0,1-.09,0c-.07-.06,0-.16,0-.24a.66.66,0,0,0,0-.2.43.43,0,0,1,.26-.38.23.23,0,0,1,.18.16.22.22,0,0,1-.06.23Z"/><path class="cls-3" d="M83.19,88.12,83.08,88a.15.15,0,0,0-.1.18.14.14,0,0,0,.17.1.11.11,0,0,0,0-.18Z"/><path class="cls-2" d="M86.45,84.41c0,.08.16.08.22,0a1.77,1.77,0,0,0,.16-.22.34.34,0,0,1,.25-.11.23.23,0,0,1,.14.07.21.21,0,0,1,0,.11,1.06,1.06,0,0,1-.16.5.45.45,0,0,1-.47.19.36.36,0,0,1-.25-.26.4.4,0,0,1,.11-.34Z"/><path class="cls-2" d="M86.34,82a.22.22,0,0,0-.23-.2.31.31,0,0,0-.25.19c0,.05,0,.11,0,.14a.12.12,0,0,0,.1,0l.4-.1Z"/><path class="cls-2" d="M89,87.64a.37.37,0,0,1-.52.27.89.89,0,0,1,.22-.47c.14-.12.38-.14.47,0l0,.31Z"/><path class="cls-3" d="M84.61,84.79l-.11-.09a.35.35,0,0,0-.12.19c0,.07.08.15.15.11a.25.25,0,0,0,0-.07l.11-.25Z"/><path class="cls-2" d="M97.18,86.84a.71.71,0,0,0-.21-.28.29.29,0,0,0-.33,0,.24.24,0,0,0-.1.14.33.33,0,0,0,.21.42.33.33,0,0,0,.41-.23Z"/><path class="cls-2" d="M91,90.21l-.22-.12a.51.51,0,0,0-.09.16.23.23,0,0,0,.32,0Z"/><path class="cls-2" d="M102.84,89.48a.13.13,0,0,1-.09.15.22.22,0,0,1-.19,0,.3.3,0,0,1-.08-.08.17.17,0,0,1,.09-.22.18.18,0,0,1,.22.1.2.2,0,0,1-.09.23Z"/><path class="cls-2" d="M90.17,88.39,90,88.28a.42.42,0,0,0-.09.16.23.23,0,0,0,.32,0Z"/><path class="cls-2" d="M93.12,82.48c0-.09-.12-.13-.21-.09a1.73,1.73,0,0,0-.21.17.36.36,0,0,1-.27,0,.14.14,0,0,1-.11-.1.15.15,0,0,1,0-.11,1,1,0,0,1,.3-.43.44.44,0,0,1,.5,0,.33.33,0,0,1,.16.31.38.38,0,0,1-.2.3Z"/><path class="cls-2" d="M94.93,86.93a.46.46,0,0,0,.1.18.15.15,0,0,0,.18,0c.1-.05.1-.19.16-.28s.22-.12.25-.23-.08-.21-.19-.22a.51.51,0,0,0-.3.13.5.5,0,0,0-.19.22A.2.2,0,0,0,95,87Z"/><path class="cls-2" d="M90.35,84.46a2.6,2.6,0,0,0,1.2.2.65.65,0,0,0,.2,0,.4.4,0,0,0,.17-.33.78.78,0,0,0-.48-.74,1,1,0,0,0-.9.09.67.67,0,0,0-.3.4.35.35,0,0,0,.21.42.08.08,0,0,0,0-.13Z"/><path class="cls-2" d="M92.3,82.21a.29.29,0,0,0,0-.18.3.3,0,0,0-.12-.13,4,4,0,0,1-.38-.32l.06.81v.07c0,.07-.13.07-.19.12s-.06.2,0,.3C92,83.59,92.19,82.53,92.3,82.21Z"/><path class="cls-2" d="M90.36,84.36l-.1-.1a.17.17,0,0,0-.12.17.15.15,0,0,0,.17.12.12.12,0,0,0,.06-.18Z"/><path class="cls-2" d="M91,82.24a.22.22,0,0,0,.06-.3.34.34,0,0,0-.3-.13c-.05,0-.11,0-.11.08a.11.11,0,0,0,0,.09l.29.3Z"/><path class="cls-2" d="M90.25,83.53a.76.76,0,0,0,.2-.61.56.56,0,0,0-.29.06.24.24,0,0,0-.15.23c0,.14.15.21.28.26l-.1,0Z"/><path class="cls-2" d="M89.38,84a.27.27,0,0,1,0,.2.58.58,0,0,1-.18-.46c0-.1,0-.22.09-.26a.67.67,0,0,1,.2,0c.14,0,.28-.13.38,0a.17.17,0,0,1,0,.21.62.62,0,0,1-.18.14l-.43.24Z"/><path class="cls-2" d="M91.69,83a.59.59,0,0,0,.28-.39l-.4,0a.31.31,0,0,0-.19,0,.22.22,0,0,0-.07.32.32.32,0,0,0,.35.08Z"/><path class="cls-2" d="M89.74,82.07c-.06.07,0,.18.09.21a2.48,2.48,0,0,0,.27,0,.36.36,0,0,1,.22.16.22.22,0,0,1,0,.16s-.06,0-.09.06a1,1,0,0,1-.52.11.44.44,0,0,1-.39-.31.37.37,0,0,1,.1-.35.35.35,0,0,1,.34-.07Z"/><path class="cls-2" d="M92.6,87.16a.94.94,0,0,0,.15-.32.33.33,0,0,0-.13-.31.25.25,0,0,0-.17,0,.32.32,0,0,0-.26.39.33.33,0,0,0,.41.24Z"/><path class="cls-2" d="M94.3,85.13a.75.75,0,0,0,.2-.61.88.88,0,0,0-.29.06.27.27,0,0,0-.16.24c0,.13.16.21.29.26l-.1,0Z"/><path class="cls-2" d="M89,84.07c-.12,0-.19.13-.23.24s-.09.25-.21.28a.13.13,0,0,1-.09,0c-.07-.06,0-.16,0-.24a.66.66,0,0,0,0-.2.42.42,0,0,1,.28-.36.24.24,0,0,1,.18.17.23.23,0,0,1-.09.23Z"/><path class="cls-2" d="M96.11,90l-.14,0a.17.17,0,0,0,0,.21.14.14,0,0,0,.2,0,.11.11,0,0,0-.06-.18Z"/><path class="cls-2" d="M92,84.05l0-.14a.24.24,0,0,0-.22,0,.1.1,0,0,0,0,.18.11.11,0,0,0,.08,0l.27,0Z"/></g></g></svg>