<svg xmlns="http://www.w3.org/2000/svg" xmlns:xlink="http://www.w3.org/1999/xlink" viewBox="0 0 105.35 118.91"><defs><linearGradient id="Áåçûìÿííûé_ãðàäèåíò_515" x1="10.86" y1="47.16" x2="14.28" y2="47.16" gradientUnits="userSpaceOnUse"><stop offset="0" stop-color="#b6246e"/><stop offset="1" stop-color="#f9636b"/></linearGradient><linearGradient id="Áåçûìÿííûé_ãðàäèåíò_515-2" x1="13.32" y1="46.7" x2="14.45" y2="46.7" xlink:href="#Áåçûìÿííûé_ãðàäèåíò_515"/><linearGradient id="Áåçûìÿííûé_ãðàäèåíò_515-3" x1="16.41" y1="47.74" x2="16.72" y2="47.74" xlink:href="#Áåçûìÿííûé_ãðàäèåíò_515"/><linearGradient id="Áåçûìÿííûé_ãðàäèåíò_515-4" x1="15.65" y1="47.69" x2="16.16" y2="47.69" xlink:href="#Áåçûìÿííûé_ãðàäèåíò_515"/><linearGradient id="Áåçûìÿííûé_ãðàäèåíò_515-5" x1="23.67" y1="48.26" x2="23.94" y2="48.26" xlink:href="#Áåçûìÿííûé_ãðàäèåíò_515"/><linearGradient id="Áåçûìÿííûé_ãðàäèåíò_515-6" x1="24.54" y1="44.95" x2="24.82" y2="44.95" xlink:href="#Áåçûìÿííûé_ãðàäèåíò_515"/><linearGradient id="Áåçûìÿííûé_ãðàäèåíò_515-7" x1="15.36" y1="47.34" x2="15.76" y2="47.34" xlink:href="#Áåçûìÿííûé_ãðàäèåíò_515"/><linearGradient id="Áåçûìÿííûé_ãðàäèåíò_515-8" x1="23.21" y1="45.49" x2="23.42" y2="45.49" xlink:href="#Áåçûìÿííûé_ãðàäèåíò_515"/><linearGradient id="Áåçûìÿííûé_ãðàäèåíò_515-9" x1="16.27" y1="48.59" x2="16.64" y2="48.59" xlink:href="#Áåçûìÿííûé_ãðàäèåíò_515"/><linearGradient id="Áåçûìÿííûé_ãðàäèåíò_515-10" x1="7.38" y1="46.59" x2="7.68" y2="46.59" xlink:href="#Áåçûìÿííûé_ãðàäèåíò_515"/><linearGradient id="Áåçûìÿííûé_ãðàäèåíò_515-11" x1="20.64" y1="47.63" x2="20.86" y2="47.63" xlink:href="#Áåçûìÿííûé_ãðàäèåíò_515"/><linearGradient id="Áåçûìÿííûé_ãðàäèåíò_515-12" x1="12.46" y1="49.35" x2="13.82" y2="49.35" xlink:href="#Áåçûìÿííûé_ãðàäèåíò_515"/><linearGradient id="Áåçûìÿííûé_ãðàäèåíò_515-13" x1="17.5" y1="45.48" x2="17.9" y2="45.48" xlink:href="#Áåçûìÿííûé_ãðàäèåíò_515"/><linearGradient id="Áåçûìÿííûé_ãðàäèåíò_515-14" x1="18.05" y1="44.85" x2="19.13" y2="44.85" xlink:href="#Áåçûìÿííûé_ãðàäèåíò_515"/><linearGradient id="Áåçûìÿííûé_ãðàäèåíò_515-15" x1="16.16" y1="45.31" x2="16.51" y2="45.31" xlink:href="#Áåçûìÿííûé_ãðàäèåíò_515"/><linearGradient id="Áåçûìÿííûé_ãðàäèåíò_515-16" x1="7.79" y1="44.71" x2="8" y2="44.71" xlink:href="#Áåçûìÿííûé_ãðàäèåíò_515"/><linearGradient id="Áåçûìÿííûé_ãðàäèåíò_515-17" x1="14.64" y1="46.79" x2="15.12" y2="46.79" xlink:href="#Áåçûìÿííûé_ãðàäèåíò_515"/><linearGradient id="Áåçûìÿííûé_ãðàäèåíò_515-18" x1="21.73" y1="47.97" x2="22.02" y2="47.97" xlink:href="#Áåçûìÿííûé_ãðàäèåíò_515"/><linearGradient id="Áåçûìÿííûé_ãðàäèåíò_515-19" x1="11.75" y1="46.51" x2="12.15" y2="46.51" xlink:href="#Áåçûìÿííûé_ãðàäèåíò_515"/><linearGradient id="Áåçûìÿííûé_ãðàäèåíò_515-20" x1="12.02" y1="45.07" x2="12.2" y2="45.07" xlink:href="#Áåçûìÿííûé_ãðàäèåíò_515"/><linearGradient id="Áåçûìÿííûé_ãðàäèåíò_515-21" x1="14.23" y1="46.51" x2="14.41" y2="46.51" xlink:href="#Áåçûìÿííûé_ãðàäèåíò_515"/><linearGradient id="Áåçûìÿííûé_ãðàäèåíò_515-22" x1="11.21" y1="45.61" x2="11.78" y2="45.61" xlink:href="#Áåçûìÿííûé_ãðàäèåíò_515"/><linearGradient id="Áåçûìÿííûé_ãðàäèåíò_515-23" x1="21.99" y1="40.81" x2="22.56" y2="40.81" xlink:href="#Áåçûìÿííûé_ãðàäèåíò_515"/><linearGradient id="Áåçûìÿííûé_ãðàäèåíò_515-24" x1="15.66" y1="45.72" x2="15.84" y2="45.72" xlink:href="#Áåçûìÿííûé_ãðàäèåíò_515"/><linearGradient id="Áåçûìÿííûé_ãðàäèåíò_515-25" x1="13.44" y1="47.45" x2="13.68" y2="47.45" xlink:href="#Áåçûìÿííûé_ãðàäèåíò_515"/><linearGradient id="Áåçûìÿííûé_ãðàäèåíò_515-26" x1="29.86" y1="48.49" x2="30.24" y2="48.49" xlink:href="#Áåçûìÿííûé_ãðàäèåíò_515"/><linearGradient id="Áåçûìÿííûé_ãðàäèåíò_515-27" x1="13.41" y1="48.42" x2="13.65" y2="48.42" xlink:href="#Áåçûìÿííûé_ãðàäèåíò_515"/><linearGradient id="Áåçûìÿííûé_ãðàäèåíò_515-28" x1="15.22" y1="47.67" x2="15.53" y2="47.67" xlink:href="#Áåçûìÿííûé_ãðàäèåíò_515"/><linearGradient id="Áåçûìÿííûé_ãðàäèåíò_515-29" x1="15.59" y1="46.8" x2="15.88" y2="46.8" xlink:href="#Áåçûìÿííûé_ãðàäèåíò_515"/><linearGradient id="Áåçûìÿííûé_ãðàäèåíò_515-30" x1="25.11" y1="50.18" x2="26.37" y2="50.18" xlink:href="#Áåçûìÿííûé_ãðàäèåíò_515"/><linearGradient id="Áåçûìÿííûé_ãðàäèåíò_515-31" x1="13.14" y1="45.34" x2="13.41" y2="45.34" xlink:href="#Áåçûìÿííûé_ãðàäèåíò_515"/><linearGradient id="Áåçûìÿííûé_ãðàäèåíò_515-32" x1="14.29" y1="48.86" x2="14.48" y2="48.86" xlink:href="#Áåçûìÿííûé_ãðàäèåíò_515"/><linearGradient id="Áåçûìÿííûé_ãðàäèåíò_515-33" x1="14.84" y1="46.92" x2="16.32" y2="46.92" xlink:href="#Áåçûìÿííûé_ãðàäèåíò_515"/><linearGradient id="Áåçûìÿííûé_ãðàäèåíò_515-34" x1="24.39" y1="48.44" x2="25.52" y2="48.44" xlink:href="#Áåçûìÿííûé_ãðàäèåíò_515"/><linearGradient id="Áåçûìÿííûé_ãðàäèåíò_515-35" x1="21.34" y1="47.51" x2="21.74" y2="47.51" xlink:href="#Áåçûìÿííûé_ãðàäèåíò_515"/><linearGradient id="Áåçûìÿííûé_ãðàäèåíò_515-36" x1="21.89" y1="46.88" x2="22.97" y2="46.88" xlink:href="#Áåçûìÿííûé_ãðàäèåíò_515"/><linearGradient id="Áåçûìÿííûé_ãðàäèåíò_515-37" x1="15.37" y1="47.96" x2="15.74" y2="47.96" xlink:href="#Áåçûìÿííûé_ãðàäèåíò_515"/><linearGradient id="Áåçûìÿííûé_ãðàäèåíò_515-38" x1="29.36" y1="50.28" x2="29.87" y2="50.28" xlink:href="#Áåçûìÿííûé_ãðàäèåíò_515"/><linearGradient id="Áåçûìÿííûé_ãðàäèåíò_515-39" x1="29.61" y1="48.1" x2="29.88" y2="48.1" xlink:href="#Áåçûìÿííûé_ãðàäèåíò_515"/><linearGradient id="Áåçûìÿííûé_ãðàäèåíò_515-40" x1="21.93" y1="45.42" x2="22.21" y2="45.42" xlink:href="#Áåçûìÿííûé_ãðàäèåíò_515"/><linearGradient id="Áåçûìÿííûé_ãðàäèåíò_515-41" x1="21.6" y1="46.07" x2="21.78" y2="46.07" xlink:href="#Áåçûìÿííûé_ãðàäèåíò_515"/><linearGradient id="Áåçûìÿííûé_ãðàäèåíò_515-42" x1="21.46" y1="44" x2="21.76" y2="44" xlink:href="#Áåçûìÿííûé_ãðàäèåíò_515"/><linearGradient id="Áåçûìÿííûé_ãðàäèåíò_515-43" x1="22.25" y1="42.84" x2="22.59" y2="42.84" xlink:href="#Áåçûìÿííûé_ãðàäèåíò_515"/><linearGradient id="Áåçûìÿííûé_ãðàäèåíò_515-44" x1="22.91" y1="43.45" x2="23.09" y2="43.45" xlink:href="#Áåçûìÿííûé_ãðàäèåíò_515"/><linearGradient id="Áåçûìÿííûé_ãðàäèåíò_515-45" x1="20.79" y1="46.62" x2="21.37" y2="46.62" xlink:href="#Áåçûìÿííûé_ãðàäèåíò_515"/><linearGradient id="Áåçûìÿííûé_ãðàäèåíò_515-46" x1="21.79" y1="48.26" x2="22.16" y2="48.26" xlink:href="#Áåçûìÿííûé_ãðàäèåíò_515"/><linearGradient id="Áåçûìÿííûé_ãðàäèåíò_515-47" x1="28.35" y1="48.9" x2="28.77" y2="48.9" xlink:href="#Áåçûìÿííûé_ãðàäèåíò_515"/><linearGradient id="Áåçûìÿííûé_ãðàäèåíò_515-48" x1="22.51" y1="46.01" x2="22.68" y2="46.01" xlink:href="#Áåçûìÿííûé_ãðàäèåíò_515"/><linearGradient id="Áåçûìÿííûé_ãðàäèåíò_515-49" x1="13.45" y1="46.78" x2="13.93" y2="46.78" xlink:href="#Áåçûìÿííûé_ãðàäèåíò_515"/><linearGradient id="Áåçûìÿííûé_ãðàäèåíò_515-50" x1="19.88" y1="44.08" x2="20.11" y2="44.08" xlink:href="#Áåçûìÿííûé_ãðàäèåíò_515"/><linearGradient id="Áåçûìÿííûé_ãðàäèåíò_515-51" x1="9.06" y1="45.93" x2="9.34" y2="45.93" xlink:href="#Áåçûìÿííûé_ãðàäèåíò_515"/><linearGradient id="Áåçûìÿííûé_ãðàäèåíò_515-52" x1="27.47" y1="48.59" x2="27.7" y2="48.59" xlink:href="#Áåçûìÿííûé_ãðàäèåíò_515"/><linearGradient id="Áåçûìÿííûé_ãðàäèåíò_515-53" x1="14.57" y1="46.51" x2="15.02" y2="46.51" xlink:href="#Áåçûìÿííûé_ãðàäèåíò_515"/><linearGradient id="Áåçûìÿííûé_ãðàäèåíò_515-54" x1="15.68" y1="47.72" x2="15.98" y2="47.72" xlink:href="#Áåçûìÿííûé_ãðàäèåíò_515"/><linearGradient id="Áåçûìÿííûé_ãðàäèåíò_515-55" x1="16.32" y1="45.08" x2="16.51" y2="45.08" xlink:href="#Áåçûìÿííûé_ãðàäèåíò_515"/><linearGradient id="Áåçûìÿííûé_ãðàäèåíò_206" x1="34.51" y1="60.03" x2="87.81" y2="60.03" gradientUnits="userSpaceOnUse"><stop offset="0" stop-color="#1852a0"/><stop offset="1" stop-color="#067ed3"/></linearGradient><linearGradient id="Áåçûìÿííûé_ãðàäèåíò_206-2" x1="1.48" y1="87.27" x2="76.47" y2="87.27" xlink:href="#Áåçûìÿííûé_ãðàäèåíò_206"/><linearGradient id="Áåçûìÿííûé_ãðàäèåíò_206-3" x1="1.47" y1="85.95" x2="76.48" y2="85.95" xlink:href="#Áåçûìÿííûé_ãðàäèåíò_206"/><linearGradient id="Áåçûìÿííûé_ãðàäèåíò_302" x1="33.75" y1="60.2" x2="87.05" y2="60.2" gradientUnits="userSpaceOnUse"><stop offset="0" stop-color="#459fff"/><stop offset="1" stop-color="#a96dff"/></linearGradient><linearGradient id="Áåçûìÿííûé_ãðàäèåíò_302-2" x1=".38" y1="57.72" x2="13" y2="57.72" xlink:href="#Áåçûìÿííûé_ãðàäèåíò_302"/><linearGradient id="Áåçûìÿííûé_ãðàäèåíò_515-56" x1="11.08" y1="49.99" x2="-1.84" y2="46.52" xlink:href="#Áåçûìÿííûé_ãðàäèåíò_515"/><linearGradient id="Áåçûìÿííûé_ãðàäèåíò_89" x1="1.53" y1="46.69" x2="15.24" y2="46.69" gradientUnits="userSpaceOnUse"><stop offset="0" stop-color="#a31c5a"/><stop offset="1" stop-color="#f9636b"/></linearGradient><linearGradient id="Áåçûìÿííûé_ãðàäèåíò_515-57" x1="12.75" y1="49.06" x2="-.26" y2="47.05" xlink:href="#Áåçûìÿííûé_ãðàäèåíò_515"/><radialGradient id="Áåçûìÿííûé_ãðàäèåíò_47" cx="10.97" cy="50.62" r="9.63" gradientUnits="userSpaceOnUse"><stop offset="0" stop-color="#f9636b"/><stop offset="1" stop-color="#b6246e"/></radialGradient><style>.cls-1,.cls-78{fill:#e0f3ff}.cls-2,.cls-3{fill:#fff}.cls-3,.cls-78{opacity:.5}.cls-59{fill:#172f78}.cls-59,.cls-71{opacity:.4}.cls-60{fill:#03a7d3}.cls-66{fill:#380031}.cls-71{fill:#06033e}</style></defs><g id="Layer_2" data-name="Layer 2"><g id="Layer_1-2" data-name="Layer 1"><path class="cls-1" d="M53.52 118a22.14 22.14 0 01-9.81-6.34 31.76 31.76 0 01-4.28-5.76c-.11-.18-.22-.36-.32-.54-3.27-5.66-5.35-12-8.51-17.21-4.32-7.1-9.47-6.68-19.66-15.44-.38-.34-.75-.68-1.12-1A29.37 29.37 0 013 60.7C.07 52.86 0 44.22 1.52 39c3.9-13.14 34.75-36.92 68.73-7 8.8 7.74 30.65 46.43 19.37 70.65-6.07 12.94-25.31 18.62-36.1 15.35z"/><path class="cls-2" d="M45.08 109.88a5.47 5.47 0 002.42.49 1.06 1.06 0 00.4-.08.76.76 0 00.37-.64 1.61 1.61 0 00-.92-1.54 2 2 0 00-1.82.13 1.34 1.34 0 00-.65.79.76.76 0 00.4.87.16.16 0 000-.27z"/><path class="cls-2" d="M47.43 108.86a1 1 0 00.83.53 1.05 1.05 0 00.12-1 .64.64 0 00-.84-.34.46.46 0 000 .8zM50.41 109.53a.54.54 0 00.15.44.52.52 0 00.14-.16.2.2 0 000-.2c-.07-.07-.19 0-.28 0v-.07zM49.78 109.52a.35.35 0 01-.13 0 .38.38 0 01.36 0c.06 0 .14 0 .15.11s0 .09 0 .14 0 .22-.05.27a.12.12 0 01-.15 0 .39.39 0 01-.06-.15l-.08-.34z"/><path class="cls-3" d="M57.75 110.42c.06.08.2 0 .19-.12s-.09-.17-.17-.23a.33.33 0 00-.07.38z"/><path class="cls-2" d="M58.55 107a.1.1 0 010-.12.17.17 0 01.14 0h.07a.12.12 0 010 .17.12.12 0 01-.16 0 .14.14 0 010-.18zM49.39 109.23a.37.37 0 000 .34l.25-.15a.22.22 0 00.1-.09.16.16 0 00-.11-.21.21.21 0 00-.23.1z"/><path class="cls-3" d="M57.33 107.57h.09a.12.12 0 00-.1-.11.09.09 0 00-.11.09.09.09 0 00.11.08z"/><path class="cls-2" d="M50.28 110.5a.17.17 0 00.1.2.21.21 0 00.22-.06.07.07 0 000-.09.07.07 0 00-.06 0h-.3zM41.45 108.68a.08.08 0 01-.07-.07.12.12 0 010-.1.12.12 0 01.22 0 .15.15 0 010 .17h-.13zM54.66 109.67h.17a.28.28 0 000-.13.16.16 0 00-.22 0zM46.68 111.86a2.15 2.15 0 001-.23.43.43 0 00.13-.09.32.32 0 000-.3.67.67 0 00-.59-.41.79.79 0 00-.64.36.54.54 0 00-.11.39.3.3 0 00.29.25.07.07 0 000-.1zM51.5 107.41a.52.52 0 00.38.26.75.75 0 000-.21.2.2 0 00-.14-.15c-.09 0-.17.06-.23.14v-.08zM52.6 107.11h.12a.26.26 0 00.12-.05 1.87 1.87 0 01.29-.2l-.57-.12h-.05v-.16c0-.06-.13-.08-.21-.06-.59.13.1.48.3.59zM50.16 107.3a.38.38 0 00.21.27l.11-.27a.3.3 0 000-.13.16.16 0 00-.21-.11.21.21 0 00-.12.22zM41.91 106.79l.09-.05a.11.11 0 00-.1-.11.09.09 0 00-.11.09.1.1 0 00.12.08zM48.64 108.82a.6.6 0 00.19.16.21.21 0 00.24 0 .22.22 0 000-.11.24.24 0 10-.47 0zM55.75 110a.45.45 0 00.2 0 .15.15 0 00-.08-.13.18.18 0 00-.16 0 .1.1 0 00-.05.06.07.07 0 000 .08zM45.75 108.44a.53.53 0 00.38.25.75.75 0 000-.21.2.2 0 00-.14-.15c-.09 0-.17.07-.23.14v-.08zM46 107a.14.14 0 00.09.22.27.27 0 00.07-.14.12.12 0 00-.08-.12.09.09 0 00-.1.09zM48.26 108.42a.14.14 0 00.09.22.25.25 0 00.06-.14.1.1 0 00-.07-.12c-.06 0-.11 0-.1.08zM45.74 107.63h-.16c-.04 0 0 .12-.07.18a.21.21 0 01-.16.11.09.09 0 01-.1 0 .11.11 0 010-.07.7.7 0 010-.38.32.32 0 01.29-.21.25.25 0 01.21.13.27.27 0 010 .26zM56.53 102.83a.1.1 0 00-.16 0 1 1 0 00-.08.18.24.24 0 01-.15.11.11.11 0 01-.11 0v-.07a.81.81 0 010-.38.32.32 0 01.29-.21.25.25 0 01.22.13.27.27 0 010 .26zM49.69 107.76h.1a.23.23 0 00.05-.15s-.09-.09-.12 0v.19zM47.58 109.59a.18.18 0 01-.1-.28.44.44 0 01.2 0 .31.31 0 01-.07.21z"/><path class="cls-3" d="M63.92 110.71a.37.37 0 00.12.07.14.14 0 00.14 0v-.24c0-.08.09-.15.07-.22a.14.14 0 00-.2-.07.38.38 0 00-.14.19.39.39 0 000 .21.15.15 0 00.14.13z"/><path class="cls-2" d="M47.41 110.36a.09.09 0 01.1-.08.15.15 0 01.11.08.11.11 0 010 .08.12.12 0 01-.12.12.13.13 0 010-.25zM49.22 109.89c.07 0 .05-.16 0-.24s-.06-.18 0-.25a.07.07 0 01.06 0c.06 0 .06.09.09.15a.42.42 0 00.08.12.31.31 0 010 .32.17.17 0 01-.18 0 .16.16 0 010-.17zM49.62 108.81a.07.07 0 010-.1.16.16 0 01.09 0h.09a.11.11 0 01.09.13.17.17 0 01-.1.14.1.1 0 01-.09 0 .06.06 0 010-.07zM59.46 111.79a1 1 0 00-.34.92 1.09 1.09 0 001-.09.64.64 0 00.15-.89c-.22-.26-.75-.14-.78.19zM47.21 107.5c.07.07.2 0 .2-.12a.2.2 0 10-.25.15zM48.36 110.93h.1a.12.12 0 000-.15.11.11 0 00-.14 0 .08.08 0 000 .13z"/><path class="cls-2" d="M48.93 109.21a2.39 2.39 0 001 .25h.17a.36.36 0 00.17-.28.68.68 0 00-.38-.67.82.82 0 00-.79 0 .53.53 0 00-.29.33.32.32 0 00.16.38.07.07 0 000-.12zM58.5 110.6a1 1 0 00.82.53 1.1 1.1 0 00.13-1 .65.65 0 00-.84-.34.47.47 0 000 .81zM55.34 109.44a.23.23 0 10.39 0 .2.2 0 00-.13-.16.29.29 0 00-.24.15zM56.44 109.14h.12a.22.22 0 00.11-.05 1.57 1.57 0 01.3-.2l-.58-.12s0-.11-.05-.16-.13-.08-.2-.06c-.6.13.1.45.3.59zM49.57 110.06h.17a.29.29 0 00-.12-.3.17.17 0 00-.24.15c0 .07.06.17 0 .18zM63.49 112.12a.26.26 0 01-.13-.06.39.39 0 01.35 0c.07 0 .15 0 .16.11a.74.74 0 010 .14v.27a.11.11 0 01-.14 0 .28.28 0 01-.06-.15l-.09-.34zM63.69 110.26c.06.07.2 0 .19-.12s-.09-.17-.17-.23a.33.33 0 00-.07.38z"/><path class="cls-3" d="M55.94 107.44a.1.1 0 010-.12.17.17 0 01.14 0h.07a.11.11 0 010 .16.13.13 0 01-.17 0 .14.14 0 010-.17z"/><path class="cls-2" d="M55.63 108a.15.15 0 00.09.23.25.25 0 00.06-.14.1.1 0 00-.08-.12.07.07 0 00-.09.08z"/><path class="cls-3" d="M55.48 106.12a.2.2 0 010-.2.2.2 0 01.19-.06s.09.06.07.1l-.22.15zM56.25 105c.09 0 .11-.13.11-.22s0-.19.08-.23a.09.09 0 01.07 0c.05 0 0 .11 0 .17a.65.65 0 000 .13.29.29 0 01-.11.31.16.16 0 01-.16-.08.15.15 0 010-.17zM57 105.5h.09a.14.14 0 000-.15.1.1 0 00-.14 0 .09.09 0 000 .14z"/><path class="cls-2" d="M55.33 108.64c0-.06-.13 0-.16 0s0 .13-.07.18a.24.24 0 01-.16.12.11.11 0 01-.11 0 .12.12 0 010-.07.66.66 0 010-.37.35.35 0 01.3-.22.28.28 0 01.21.14.25.25 0 010 .25zM55.82 110.29a.15.15 0 00.19.1.21.21 0 00.14-.18v-.09c0-.01 0 0-.07 0l-.26.14zM62.46 110.93a.26.26 0 01.31-.27.68.68 0 01-.07.37.23.23 0 01-.33.06v-.22z"/><path class="cls-3" d="M56.54 108.06h.09a.23.23 0 000-.15s-.08-.09-.12 0v.19z"/><path class="cls-2" d="M47.45 108.8a.62.62 0 00.2.16.2.2 0 00.23 0 .18.18 0 000-.12.24.24 0 00-.22-.26.24.24 0 00-.24.24zM53.9 106.11h.17a.33.33 0 000-.13.17.17 0 00-.23 0zM43.07 107.94a.08.08 0 010-.12.15.15 0 01.13 0h.07a.12.12 0 010 .17.13.13 0 01-.17 0 .15.15 0 010-.18zM61.49 110.62h.17a.56.56 0 000-.12.17.17 0 00-.23 0zM49 108.35a.26.26 0 00-.1-.11.12.12 0 00-.13 0c-.06.06 0 .16-.07.23s-.12.12-.13.2.09.13.17.12a.38.38 0 00.19-.14.48.48 0 00.09-.19.15.15 0 00-.09-.17zM49.75 109.49a.53.53 0 000 .46.84.84 0 00.19-.09.18.18 0 00.06-.19c0-.1-.14-.12-.24-.14h.06zM50.41 107.16h.09a.11.11 0 000-.14.1.1 0 00-.14 0 .09.09 0 00.07.12z"/><path d="M11.08 47.88a5.47 5.47 0 002.42.49 1.06 1.06 0 00.4-.08.76.76 0 00.37-.64 1.61 1.61 0 00-.92-1.54 2 2 0 00-1.82.13 1.34 1.34 0 00-.65.79.76.76 0 00.4.87.16.16 0 000-.27z" fill="url(#Áåçûìÿííûé_ãðàäèåíò_515)"/><path d="M13.43 46.86a1 1 0 00.83.53 1.05 1.05 0 00.12-1 .64.64 0 00-.84-.34.46.46 0 000 .8z" fill="url(#Áåçûìÿííûé_ãðàäèåíò_515-2)"/><path d="M16.41 47.53a.54.54 0 00.15.44.52.52 0 00.14-.16.2.2 0 000-.2c-.07-.07-.19 0-.28 0v-.07z" fill="url(#Áåçûìÿííûé_ãðàäèåíò_515-3)"/><path d="M15.78 47.52a.35.35 0 01-.13-.05.38.38 0 01.36 0c.06 0 .14 0 .15.11s0 .09 0 .14 0 .22-.05.27a.12.12 0 01-.15 0 .39.39 0 01-.06-.15l-.08-.34z" fill="url(#Áåçûìÿííûé_ãðàäèåíò_515-4)"/><path d="M23.75 48.42c.06.08.2 0 .19-.12s-.09-.17-.17-.23a.33.33 0 00-.07.38z" fill="url(#Áåçûìÿííûé_ãðàäèåíò_515-5)" opacity=".5"/><path d="M24.55 45a.1.1 0 010-.12.17.17 0 01.14 0h.07a.12.12 0 010 .17.12.12 0 01-.16 0 .14.14 0 010-.18z" fill="url(#Áåçûìÿííûé_ãðàäèåíò_515-6)"/><path d="M15.39 47.23a.37.37 0 000 .34l.25-.15a.22.22 0 00.1-.09.16.16 0 00-.11-.21.21.21 0 00-.23.1z" fill="url(#Áåçûìÿííûé_ãðàäèåíò_515-7)"/><path d="M23.33 45.57h.09a.12.12 0 00-.1-.11.09.09 0 00-.11.09.09.09 0 00.11.08z" fill="url(#Áåçûìÿííûé_ãðàäèåíò_515-8)" opacity=".5"/><path d="M16.28 48.5a.17.17 0 00.1.2.21.21 0 00.22-.06.07.07 0 000-.09.07.07 0 00-.06 0h-.3z" fill="url(#Áåçûìÿííûé_ãðàäèåíò_515-9)"/><path d="M7.45 46.68a.08.08 0 01-.07-.07.12.12 0 010-.1.12.12 0 01.22 0 .15.15 0 010 .17h-.13z" fill="url(#Áåçûìÿííûé_ãðàäèåíò_515-10)"/><path d="M20.66 47.67h.17a.28.28 0 000-.13.16.16 0 00-.22 0z" fill="url(#Áåçûìÿííûé_ãðàäèåíò_515-11)"/><path d="M12.68 49.86a2.15 2.15 0 001-.23.43.43 0 00.13-.09.32.32 0 000-.3.67.67 0 00-.59-.41.79.79 0 00-.64.36.54.54 0 00-.11.39.3.3 0 00.29.25.07.07 0 000-.1z" fill="url(#Áåçûìÿííûé_ãðàäèåíò_515-12)"/><path d="M17.5 45.41a.52.52 0 00.38.26.75.75 0 000-.21.2.2 0 00-.14-.15c-.09 0-.17.06-.23.14v-.08z" fill="url(#Áåçûìÿííûé_ãðàäèåíò_515-13)"/><path d="M18.6 45.11h.12a.26.26 0 00.12 0 1.87 1.87 0 01.29-.2l-.57-.12v-.16c0-.06-.13-.08-.21-.06-.64.08.05.43.25.54z" fill="url(#Áåçûìÿííûé_ãðàäèåíò_515-14)"/><path d="M16.16 45.3a.38.38 0 00.21.27l.11-.27a.3.3 0 000-.13.16.16 0 00-.21-.11.21.21 0 00-.12.22z" fill="url(#Áåçûìÿííûé_ãðàäèåíò_515-15)"/><path d="M7.91 44.79H8a.11.11 0 00-.1-.11.09.09 0 00-.11.09.1.1 0 00.12.08z" fill="url(#Áåçûìÿííûé_ãðàäèåíò_515-16)"/><path d="M14.64 46.82a.6.6 0 00.19.16.21.21 0 00.24 0 .22.22 0 000-.11.24.24 0 10-.47 0z" fill="url(#Áåçûìÿííûé_ãðàäèåíò_515-17)"/><path d="M21.75 48a.45.45 0 00.2 0 .05.05 0 00.05 0 .15.15 0 00-.08-.13.18.18 0 00-.16 0 .1.1 0 00-.05.06.07.07 0 000 .08z" fill="url(#Áåçûìÿííûé_ãðàäèåíò_515-18)"/><path d="M11.75 46.44a.53.53 0 00.38.25.75.75 0 000-.21.2.2 0 00-.14-.15c-.09 0-.17.07-.23.14v-.08z" fill="url(#Áåçûìÿííûé_ãðàäèåíò_515-19)"/><path d="M12 45a.14.14 0 00.09.22.27.27 0 00.07-.14.12.12 0 00-.08-.12.09.09 0 00-.08.04z" fill="url(#Áåçûìÿííûé_ãðàäèåíò_515-20)"/><path d="M14.26 46.42a.14.14 0 00.09.22.25.25 0 00.06-.14.1.1 0 00-.07-.12c-.06 0-.11 0-.1.08z" fill="url(#Áåçûìÿííûé_ãðàäèåíò_515-21)"/><path d="M11.74 45.63c0-.05-.12 0-.16 0s0 .12-.07.18a.21.21 0 01-.16.11.09.09 0 01-.1 0 .11.11 0 010-.07.7.7 0 010-.38.32.32 0 01.29-.21.25.25 0 01.21.13.27.27 0 010 .26z" fill="url(#Áåçûìÿííûé_ãðàäèåíò_515-22)"/><path d="M22.53 40.83a.1.1 0 00-.16 0 1 1 0 00-.08.18.24.24 0 01-.15.11.11.11 0 01-.11 0v-.07a.81.81 0 010-.38.32.32 0 01.29-.21.25.25 0 01.22.13.27.27 0 010 .26z" fill="url(#Áåçûìÿííûé_ãðàäèåíò_515-23)"/><path d="M15.69 45.76l.1.05a.23.23 0 00.05-.15s-.09-.09-.12 0v.19z" fill="url(#Áåçûìÿííûé_ãðàäèåíò_515-24)"/><path d="M13.58 47.59a.18.18 0 01-.1-.28.44.44 0 01.2 0 .31.31 0 01-.07.21z" fill="url(#Áåçûìÿííûé_ãðàäèåíò_515-25)"/><path d="M29.92 48.71a.37.37 0 00.12.07.14.14 0 00.14 0v-.24c0-.08.09-.15.07-.22a.14.14 0 00-.2-.07.38.38 0 00-.14.19.39.39 0 000 .21.15.15 0 00.14.13z" fill="url(#Áåçûìÿííûé_ãðàäèåíò_515-26)" opacity=".5"/><path d="M13.41 48.36a.09.09 0 01.1-.08.15.15 0 01.11.08.11.11 0 010 .08.12.12 0 01-.12.12.13.13 0 010-.25z" fill="url(#Áåçûìÿííûé_ãðàäèåíò_515-27)"/><path d="M15.22 47.89c.07 0 0-.16 0-.24s-.06-.18 0-.25a.07.07 0 01.06 0c.06 0 .06.09.09.15a.42.42 0 00.08.12.31.31 0 010 .32.17.17 0 01-.18 0 .16.16 0 01-.05-.17z" fill="url(#Áåçûìÿííûé_ãðàäèåíò_515-28)"/><path d="M15.62 46.81a.07.07 0 010-.1.16.16 0 01.09-.05h.09a.11.11 0 01.09.13.17.17 0 01-.1.14.1.1 0 01-.09 0 .06.06 0 010-.07z" fill="url(#Áåçûìÿííûé_ãðàäèåíò_515-29)"/><path d="M25.46 49.79a1 1 0 00-.34.92 1.09 1.09 0 001-.09.64.64 0 00.15-.89c-.22-.26-.75-.14-.78.19z" fill="url(#Áåçûìÿííûé_ãðàäèåíò_515-30)"/><path d="M13.21 45.5c.07.07.2 0 .2-.12a.36.36 0 00-.17-.23.35.35 0 00-.08.38z" fill="url(#Áåçûìÿííûé_ãðàäèåíò_515-31)"/><path d="M14.36 48.93h.1a.12.12 0 000-.15.11.11 0 00-.14 0 .08.08 0 000 .13z" fill="url(#Áåçûìÿííûé_ãðàäèåíò_515-32)"/><path d="M14.93 47.21a2.39 2.39 0 001.05.25h.17a.36.36 0 00.17-.28.68.68 0 00-.38-.67.82.82 0 00-.79 0 .53.53 0 00-.29.33.32.32 0 00.16.38.07.07 0 000-.12z" fill="url(#Áåçûìÿííûé_ãðàäèåíò_515-33)"/><path d="M24.5 48.6a1 1 0 00.82.53 1.1 1.1 0 00.13-1 .65.65 0 00-.84-.34.47.47 0 000 .81z" fill="url(#Áåçûìÿííûé_ãðàäèåíò_515-34)"/><path d="M21.34 47.44a.5.5 0 00.38.26.5.5 0 000-.21.2.2 0 00-.13-.16.29.29 0 00-.24.15z" fill="url(#Áåçûìÿííûé_ãðàäèåíò_515-35)"/><path d="M22.44 47.14h.12a.22.22 0 00.11 0 1.57 1.57 0 01.3-.2l-.58-.12s0-.11-.05-.16-.13-.08-.2-.06c-.6.08.1.4.3.54z" fill="url(#Áåçûìÿííûé_ãðàäèåíò_515-36)"/><path d="M15.57 48.06h.17a.29.29 0 00-.12-.3.17.17 0 00-.24.15c0 .07.06.17 0 .18z" fill="url(#Áåçûìÿííûé_ãðàäèåíò_515-37)"/><path d="M29.49 50.12a.26.26 0 01-.13-.06.39.39 0 01.35 0c.07 0 .15 0 .16.11a.74.74 0 010 .14v.27a.11.11 0 01-.14 0 .28.28 0 01-.06-.15l-.18-.43z" fill="url(#Áåçûìÿííûé_ãðàäèåíò_515-38)"/><path d="M29.69 48.26c.06.07.2 0 .19-.12s-.09-.17-.17-.23a.33.33 0 00-.07.38z" fill="url(#Áåçûìÿííûé_ãðàäèåíò_515-39)"/><path d="M21.94 45.44a.1.1 0 010-.12.17.17 0 01.14 0h.07a.11.11 0 010 .16.13.13 0 01-.17 0 .14.14 0 010-.17z" fill="url(#Áåçûìÿííûé_ãðàäèåíò_515-40)" opacity=".5"/><path d="M21.63 46a.15.15 0 00.09.23.25.25 0 00.06-.14.1.1 0 00-.08-.09.07.07 0 00-.09.08z" fill="url(#Áåçûìÿííûé_ãðàäèåíò_515-41)"/><path d="M21.48 44.12a.2.2 0 010-.2.2.2 0 01.19-.06c.05 0 .09.06.07.1l-.22.15z" fill="url(#Áåçûìÿííûé_ãðàäèåíò_515-42)" opacity=".5"/><path d="M22.25 43c.09 0 .11-.13.11-.22s0-.19.08-.23a.09.09 0 01.07 0v.17a.65.65 0 000 .13.29.29 0 01-.11.31.16.16 0 01-.16-.08.15.15 0 010-.17z" fill="url(#Áåçûìÿííûé_ãðàäèåíò_515-43)" opacity=".5"/><path d="M23 43.5h.09a.14.14 0 000-.15.1.1 0 00-.14 0 .09.09 0 000 .14z" fill="url(#Áåçûìÿííûé_ãðàäèåíò_515-44)" opacity=".5"/><path d="M21.33 46.64c0-.06-.13 0-.16 0s0 .13-.07.18a.24.24 0 01-.16.12.11.11 0 01-.11 0 .12.12 0 010-.07.66.66 0 010-.37.35.35 0 01.3-.22.28.28 0 01.21.14.25.25 0 010 .25z" fill="url(#Áåçûìÿííûé_ãðàäèåíò_515-45)"/><path d="M21.82 48.29a.15.15 0 00.19.1.21.21 0 00.14-.18v-.09c0-.01-.05 0-.07 0l-.26.14z" fill="url(#Áåçûìÿííûé_ãðàäèåíò_515-46)"/><path d="M28.46 48.93a.26.26 0 01.31-.27.68.68 0 01-.07.37.23.23 0 01-.33.06v-.22z" fill="url(#Áåçûìÿííûé_ãðàäèåíò_515-47)"/><path d="M22.54 46.06h.09a.23.23 0 00.05-.15c0-.05-.08-.09-.12-.05a.11.11 0 000 .05v.19z" fill="url(#Áåçûìÿííûé_ãðàäèåíò_515-48)" opacity=".5"/><path d="M13.45 46.8a.62.62 0 00.2.16.2.2 0 00.23 0 .18.18 0 000-.12.24.24 0 00-.22-.26.24.24 0 00-.24.24z" fill="url(#Áåçûìÿííûé_ãðàäèåíò_515-49)"/><path d="M19.9 44.11h.17a.33.33 0 000-.13.17.17 0 00-.23 0z" fill="url(#Áåçûìÿííûé_ãðàäèåíò_515-50)"/><path d="M9.07 45.94a.08.08 0 010-.12.15.15 0 01.13 0h.07a.12.12 0 010 .17.13.13 0 01-.17 0 .15.15 0 010-.18z" fill="url(#Áåçûìÿííûé_ãðàäèåíò_515-51)"/><path d="M27.49 48.62h.17a.56.56 0 000-.12.17.17 0 00-.23 0z" fill="url(#Áåçûìÿííûé_ãðàäèåíò_515-52)"/><path d="M15 46.35a.26.26 0 00-.1-.11.12.12 0 00-.13 0c-.06.06 0 .16-.07.23s-.12.12-.13.2.09.13.17.12a.38.38 0 00.19-.14.48.48 0 00.09-.19.15.15 0 00-.09-.17z" fill="url(#Áåçûìÿííûé_ãðàäèåíò_515-53)"/><path d="M15.75 47.49a.53.53 0 000 .46.84.84 0 00.19-.09.18.18 0 00.06-.19c0-.1-.14-.12-.24-.14l.06-.05z" fill="url(#Áåçûìÿííûé_ãðàäèåíò_515-54)"/><path d="M16.41 45.16h.09a.11.11 0 000-.14.1.1 0 00-.14 0 .09.09 0 00.07.12z" fill="url(#Áåçûìÿííûé_ãðàäèåíò_515-55)"/><path class="cls-59" d="M45.72 117.1a2.33 2.33 0 01-1.15-.27L1.86 91a.84.84 0 01-.49-.72 1.11 1.11 0 01.63-.89l26.7-16.57a2.94 2.94 0 012.64-.11l44.75 25.82a.85.85 0 01.49.72 1.16 1.16 0 01-.67.91l-28.7 16.57a3.13 3.13 0 01-1.49.37zm-1-.43a2.71 2.71 0 002.44-.11L75.81 100c.37-.22.58-.49.58-.75a.68.68 0 00-.4-.56L31.28 72.88a2.73 2.73 0 00-2.45.1L2.14 89.55a1 1 0 00-.58.75.66.66 0 00.39.55z"/><path class="cls-60" d="M45.72 113a2.33 2.33 0 01-1.15-.27L1.86 86.87a.84.84 0 01-.49-.72 1.13 1.13 0 01.63-.91l26.7-16.57a2.94 2.94 0 012.64-.11l44.75 25.82a.86.86 0 01.49.72 1.15 1.15 0 01-.67.91l-28.7 16.57a3.13 3.13 0 01-1.49.42zm-1-.43a2.71 2.71 0 002.44-.11l28.7-16.56a1 1 0 00.58-.75.68.68 0 00-.4-.56L31.28 68.73a2.73 2.73 0 00-2.45.1L2.14 85.4a1 1 0 00-.58.75.66.66 0 00.44.55z"/><path d="M86.92 53.47L45.38 30.76a1.11 1.11 0 00-.91-.13l-.83.28.29.07a1.55 1.55 0 00-.27.51l-9.07 30.7a2 2 0 00.82 2.2l41.53 24.72a1.51 1.51 0 00.33.13l-.11.24.79-.27a1.21 1.21 0 00.71-.83l9.08-32.7a2 2 0 00-.82-2.21z" fill="url(#Áåçûìÿííûé_ãðàäèåíò_206)"/><path d="M75.35 90.33L34.37 66a2.81 2.81 0 00-2.52.1L2.43 81.46l-1-.36.27 1.33a.76.76 0 00.42.53l42.4 25.64a2.83 2.83 0 002.53-.11L75.59 92a1.15 1.15 0 00.6-.7l.27-1.3z" fill="url(#Áåçûìÿííûé_ãðàäèåíò_206-2)"/><path d="M44.62 107.43L1.91 81.61c-.66-.38-.57-1 .18-1.47l29.7-15.56a2.79 2.79 0 012.54-.11L76 89.28c.65.38.57 1-.18 1.47l-28.7 16.57a2.82 2.82 0 01-2.5.11z" fill="url(#Áåçûìÿííûé_ãðàäèåíò_206-3)"/><path class="cls-2" d="M1.91 80.86l42.71 25.82a2.86 2.86 0 002.54-.11L75.86 90a1.33 1.33 0 00.49-.44c.27.37.1.85-.49 1.19l-28.7 16.57a2.82 2.82 0 01-2.54.11L1.91 81.61a.67.67 0 01-.31-1 .93.93 0 00.31.25z"/><path d="M76.18 89.37L34.65 64.66a2 2 0 01-.82-2.2l9.07-30.7a1.15 1.15 0 011.72-.76l41.54 22.74a2 2 0 01.82 2.2l-9.08 32.7a1.14 1.14 0 01-1.72.73z" fill="url(#Áåçûìÿííûé_ãðàäèåíò_302)"/><path class="cls-60" d="M76.8 89.64a1.34 1.34 0 01-.66-.18L34.6 64.74a2.08 2.08 0 01-.86-2.31l9.07-30.7a1.39 1.39 0 01.78-.9 1.26 1.26 0 011.08.11l41.54 22.71a2.09 2.09 0 01.86 2.35L78 88.67a1.35 1.35 0 01-.78.89 1 1 0 01-.42.08zm-.57-.35a1 1 0 00.92.09 1.13 1.13 0 00.66-.77l9.07-32.7a1.86 1.86 0 00-.77-2.09L44.58 31.1a1.08 1.08 0 00-.92-.09 1.14 1.14 0 00-.66.78l-9.08 30.7a1.88 1.88 0 00.78 2.09z"/><g opacity=".5"><path class="cls-66" d="M22.34 76.43l-1.46-.88c-.11-.08-.1-.19 0-.27l1.77-1a.5.5 0 01.46 0l1.46.89c.12.07.1.19 0 .26l-1.76 1a.52.52 0 01-.47 0zM24.6 77.8l-1.46-.89c-.12-.07-.1-.19 0-.26l1.76-1a.52.52 0 01.47 0l1.46.88c.12.07.1.19 0 .27l-1.77 1a.5.5 0 01-.46 0zM26.85 79.17l-1.46-.89c-.11-.07-.1-.19 0-.27l1.77-1a.53.53 0 01.46 0l1.46.89c.12.07.1.19 0 .27l-1.76 1a.55.55 0 01-.47 0zM30 78.14l-1.46-.88c-.11-.07-.1-.19 0-.27l1.49-.81a.5.5 0 01.46 0l1.46.88c.12.08.1.2 0 .27l-1.48.82a.52.52 0 01-.47-.01zM32.29 79.51l-1.46-.88c-.12-.07-.1-.19 0-.27l1.48-.81a.5.5 0 01.46 0l1.46.88c.12.07.1.19 0 .27l-1.49.81a.5.5 0 01-.45 0zM34.54 80.88L33.08 80c-.11-.07-.1-.19 0-.26l1.49-.82a.53.53 0 01.46 0l1.46.89c.12.07.1.19 0 .27l-1.49.79a.52.52 0 01-.46.01zM36.8 82.25l-1.46-.89c-.12-.07-.1-.19 0-.27l1.48-.81a.5.5 0 01.46 0l1.46.89c.12.07.1.19 0 .26l-1.49.82a.53.53 0 01-.45 0zM39.05 83.61l-1.46-.88c-.11-.07-.1-.19 0-.27l1.49-.81a.5.5 0 01.46 0l1.46.88c.12.07.1.19 0 .27l-1.48.81a.52.52 0 01-.47 0zM41.31 85l-1.46-.88c-.12-.08-.1-.2 0-.27l1.52-.85a.5.5 0 01.46 0l1.46.88c.12.07.1.19 0 .27l-1.52.85a.5.5 0 01-.46 0zM43.56 86.35l-1.46-.89c-.11-.07-.1-.19 0-.26l1.48-.82a.55.55 0 01.47 0l1.46.89c.12.07.1.19 0 .26l-1.51.81a.55.55 0 01-.44.01zM45.82 87.71l-1.46-.88c-.12-.07-.1-.19 0-.27l1.48-.81a.5.5 0 01.46 0l1.46.88c.12.08.1.2 0 .27l-1.48.82a.5.5 0 01-.46-.01zM48.07 89.08l-1.46-.88c-.11-.07-.1-.19 0-.27l1.48-.81a.52.52 0 01.47 0l1.46.88c.12.07.1.19 0 .27l-1.48.81a.52.52 0 01-.47 0zM50.33 90.45l-1.46-.89c-.12-.07-.1-.19 0-.26l1.48-.82a.53.53 0 01.46 0l1.46.89c.12.07.1.19 0 .27l-1.48.81a.5.5 0 01-.46 0zM33.41 77.59L32 76.71c-.12-.07-.1-.19 0-.27l1.48-.81a.52.52 0 01.47 0l1.46.88c.11.07.1.19 0 .27l-1.48.81a.52.52 0 01-.52 0zM31.12 76.21l-1.46-.89c-.11-.07-.1-.19 0-.27l1.49-.81a.5.5 0 01.46 0l1.46.89c.12.07.1.19 0 .26l-1.48.82a.55.55 0 01-.47 0zM28.83 74.82l-3.14-1.91c-.12-.07-.1-.19 0-.27l1.48-.81a.5.5 0 01.46 0l3.15 1.91c.11.07.1.19 0 .26l-1.48.82a.55.55 0 01-.47 0zM30.49 73.22l-2.55-1.55c-.12-.07-.1-.19 0-.26l1.48-.82a.53.53 0 01.46 0l2.55 1.55c.12.07.1.19 0 .27l-1.43.8a.5.5 0 01-.51.01zM35.67 79l-1.46-.89c-.12-.07-.1-.19 0-.26l1.52-.85a.53.53 0 01.46 0l1.46.89c.12.07.1.19 0 .27l-1.52.84a.5.5 0 01-.46 0zM37.92 80.33l-1.46-.89c-.12-.07-.1-.19 0-.26l1.54-.82a.52.52 0 01.47 0l1.46.89c.11.07.1.19 0 .26l-1.49.82a.53.53 0 01-.52 0zM40.18 81.69l-1.46-.88c-.12-.07-.1-.19 0-.27l1.48-.81a.5.5 0 01.46 0l1.46.88c.12.08.1.19 0 .27l-1.48.82a.5.5 0 01-.46-.01zM42.43 83.06L41 82.18c-.12-.07-.1-.19 0-.27l1.48-.81a.52.52 0 01.47 0l1.46.88c.11.07.1.19 0 .27l-1.49.81a.5.5 0 01-.49 0zM44.69 84.43l-1.46-.89c-.12-.07-.1-.19 0-.26l1.49-.82a.53.53 0 01.46 0l1.46.89c.12.07.1.19 0 .27l-1.48.81a.5.5 0 01-.47 0zM46.94 85.8l-1.46-.89c-.12-.07-.1-.19 0-.27l1.52-.81a.52.52 0 01.47 0l1.46.89c.11.07.1.19 0 .26l-1.49.82a.53.53 0 01-.5 0zM49.2 87.16l-1.46-.88c-.12-.07-.1-.19 0-.27l1.49-.81a.5.5 0 01.46 0l1.46.88c.12.07.1.19 0 .27l-1.48.81a.5.5 0 01-.47 0zM51.45 88.53L50 87.64c-.12-.07-.1-.19 0-.26l1.48-.82a.55.55 0 01.47 0l1.46.89c.11.07.09.19 0 .27l-1.49.81a.5.5 0 01-.47 0zM53.7 89.9l-1.46-.9c-.11-.07-.1-.19 0-.26l1.49-.82a.5.5 0 01.46 0l1.46.89c.12.07.1.19 0 .26l-1.48.82a.55.55 0 01-.47.01zM57.71 92.33l-3.18-1.93c-.12-.07-.1-.19 0-.27l1.48-.81a.47.47 0 01.46 0l3.19 1.93c.12.07.1.19 0 .26l-1.48.82a.55.55 0 01-.47 0zM62.21 89.86l-2.69-1.63c-.11-.07-.1-.19 0-.27l1.49-.81a.5.5 0 01.46 0l2.69 1.63c.12.07.1.19 0 .26l-1.48.82a.55.55 0 01-.47 0zM39.67 78.79l-1.46-.89c-.12-.07-.1-.19 0-.26l1.48-.82a.55.55 0 01.47 0l1.46.89c.11.07.1.19 0 .26l-1.49.82a.5.5 0 01-.46 0zM37.36 77.39l-1.46-.89c-.12-.07-.1-.19 0-.27l1.48-.81a.52.52 0 01.47 0l1.46.89c.11.07.09.19 0 .26l-1.49.82a.53.53 0 01-.46 0zM35.05 76l-1.46-.89c-.12-.07-.1-.19 0-.27l1.52-.84a.5.5 0 01.46 0l1.43.9c.12.07.1.19 0 .26l-1.49.84a.53.53 0 01-.46 0zM32.74 74.58l-1.46-.88c-.12-.07-.1-.19 0-.27l1.48-.81a.5.5 0 01.46 0l1.46.88c.12.08.1.19 0 .27l-1.48.82a.5.5 0 01-.46-.01zM41.93 80.16l-1.46-.89c-.12-.07-.1-.19 0-.27l1.53-.81a.5.5 0 01.46 0l1.46.89c.12.07.1.19 0 .26l-1.48.82a.53.53 0 01-.51 0zM44.18 81.52l-1.46-.88c-.12-.07-.1-.19 0-.27l1.48-.81a.52.52 0 01.47 0l1.46.88c.11.07.1.19 0 .27l-1.49.81a.5.5 0 01-.46 0zM46.43 82.89L45 82c-.11-.07-.1-.19 0-.26l1.49-.82a.53.53 0 01.46 0l1.46.89c.12.07.1.19 0 .27l-1.48.81a.52.52 0 01-.5 0zM48.69 84.26l-1.46-.89c-.12-.07-.1-.19 0-.27l1.48-.81a.5.5 0 01.46 0l1.46.89c.12.07.1.19 0 .26l-1.49.82a.53.53 0 01-.45 0zM50.94 85.62l-1.46-.88c-.11-.07-.1-.19 0-.27l1.52-.81a.5.5 0 01.46 0l1.46.88c.12.07.1.19 0 .27l-1.48.81a.52.52 0 01-.5 0zM53.2 87l-1.46-.88c-.12-.08-.1-.19 0-.27l1.52-.85a.5.5 0 01.46 0l1.46.88c.12.07.1.19 0 .27l-1.52.85a.5.5 0 01-.46 0zM55.45 88.36L54 87.47c-.11-.07-.1-.19 0-.26l1.49-.82a.53.53 0 01.46 0l1.46.89c.12.07.1.19 0 .26l-1.48.82a.52.52 0 01-.48 0zM57.71 89.73l-1.46-.89c-.12-.07-.1-.19 0-.27l1.48-.81a.5.5 0 01.46 0l1.46.89c.12.07.1.19 0 .26l-1.48.82a.53.53 0 01-.46 0zM60 91.09l-1.46-.88c-.11-.07-.1-.19 0-.27l1.46-.81a.52.52 0 01.47 0L62 90c.12.07.1.19 0 .27l-1.48.81a.52.52 0 01-.52.01zM38.54 75.5l-1.46-.88c-.12-.07-.1-.19 0-.27l1.48-.81a.5.5 0 01.46 0l1.46.88c.12.07.1.19 0 .27l-1.48.8a.5.5 0 01-.46.01zM36.29 74.14l-1.46-.88c-.11-.07-.1-.19 0-.27l1.49-.81a.5.5 0 01.46 0l1.46.88c.12.07.1.19 0 .27l-1.48.81a.52.52 0 01-.47 0zM34.05 72.78l-1.46-.88c-.12-.08-.1-.19 0-.27l1.48-.81a.49.49 0 01.47 0l1.46.88c.11.07.1.19 0 .27l-1.49.81a.5.5 0 01-.46 0zM31.81 71.42l-1.46-.88c-.12-.08-.1-.19 0-.27l1.48-.82a.5.5 0 01.46 0l1.46.88c.12.07.1.19 0 .27l-1.48.81a.5.5 0 01-.46.01zM34.17 70.12l-1.46-.88c-.11-.07-.1-.19 0-.27l.49-.27a.55.55 0 01.47 0l1.46.89c.11.07.1.19 0 .26l-.49.27a.52.52 0 01-.47 0zM37.1 71.9l-1.46-.9c-.12-.07-.1-.19 0-.26l.49-.27a.5.5 0 01.46 0l1.46.88c.12.07.1.19 0 .27l-.49.27a.53.53 0 01-.46.01zM39.33 73.25l-1.46-.88c-.11-.07-.1-.19 0-.27l.49-.27a.55.55 0 01.47 0l1.46.89c.11.07.1.19 0 .26l-.49.27a.52.52 0 01-.47 0zM41.57 74.61l-1.46-.89c-.12-.07-.1-.19 0-.26l.49-.27a.5.5 0 01.46 0l1.46.88c.12.07.1.19 0 .27l-.52.26a.53.53 0 01-.43.01zM43.8 76l-1.46-.88c-.11-.07-.1-.19 0-.27l.49-.27a.52.52 0 01.47 0l1.46.89c.11.07.1.19 0 .26l-.49.27a.52.52 0 01-.47 0zM56.28 83.52l-1.46-.88c-.12-.07-.1-.19 0-.27l.5-.27a.53.53 0 01.46 0l1.46.89c.12.07.1.19 0 .27l-.49.27a.5.5 0 01-.47-.01zM58.51 84.88L57.05 84c-.12-.07-.1-.19 0-.26l.49-.27a.5.5 0 01.46 0l1.46.88c.12.08.1.19 0 .27l-.49.27a.5.5 0 01-.46-.01zM60.74 86.23l-1.46-.88c-.11-.07-.1-.19 0-.27l.49-.27a.55.55 0 01.47 0l1.46.89c.11.07.1.19 0 .27l-.49.26a.49.49 0 01-.47 0zM63 87.59l-1.46-.89c-.12-.07-.1-.19 0-.26l.49-.27a.5.5 0 01.46 0L64 87c.12.07.1.19 0 .27l-.49.27a.5.5 0 01-.51.05zM40.79 76.87L39.33 76c-.11-.07-.1-.19 0-.26l1.48-.82a.55.55 0 01.47 0l1.46.89c.12.07.1.19 0 .27l-1.48.81a.52.52 0 01-.47-.02zM43.05 78.24l-1.46-.89c-.12-.07-.1-.19 0-.27l1.48-.81a.5.5 0 01.46 0l1.46.89c.12.07.1.19 0 .26l-1.48.82a.53.53 0 01-.46 0zM45.3 79.6l-1.46-.88c-.11-.07-.1-.19 0-.27l1.48-.81a.52.52 0 01.47 0l1.46.88c.12.07.1.19 0 .27l-1.48.81a.52.52 0 01-.47 0zM47.56 81l-1.46-.88c-.12-.08-.1-.2 0-.27l1.52-.85a.5.5 0 01.46 0l1.46.88c.12.07.1.19 0 .27L48 81a.5.5 0 01-.44 0zM49.81 82.34l-1.46-.89c-.12-.07-.1-.19 0-.26l1.48-.82a.55.55 0 01.47 0l1.46.89c.11.07.1.19 0 .26l-1.48.82a.55.55 0 01-.47 0zM52.07 83.7l-1.46-.88c-.12-.07-.1-.19 0-.27l1.48-.81a.5.5 0 01.46 0l1.46.88c.12.08.1.2 0 .27l-1.48.82a.5.5 0 01-.46-.01zM54.32 85.07l-1.46-.88c-.12-.07-.1-.19 0-.27l1.48-.81a.52.52 0 01.47 0l1.46.88c.11.07.1.19 0 .27l-1.49.81a.5.5 0 01-.46 0zM56.58 86.44l-1.46-.89c-.12-.07-.1-.19 0-.26l1.49-.82a.53.53 0 01.46 0l1.46.89c.12.07.1.19 0 .27l-1.53.8a.5.5 0 01-.42.01zM58.83 87.81l-1.46-.89c-.12-.07-.1-.19 0-.27l1.48-.81a.52.52 0 01.47 0l1.46.89c.11.07.1.19 0 .26l-1.49.82a.53.53 0 01-.46 0zM27.74 76.75l-4.3-2.61c-.12-.07-.1-.19 0-.26l1.56-.82a.53.53 0 01.46 0l4.3 2.61c.12.07.1.19 0 .27l-1.48.81a.5.5 0 01-.54 0zM55.44 93.55l-4.3-2.61c-.12-.07-.1-.19 0-.27l1.48-.81a.5.5 0 01.46 0l4.3 2.61c.12.07.1.19 0 .26l-1.48.82a.53.53 0 01-.46 0zM46.36 91l-1.46-.88c-.12-.07-.1-.19 0-.27l1.76-1a.52.52 0 01.47 0l1.46.89c.11.07.1.19 0 .26l-1.77 1a.5.5 0 01-.46 0zM30 81.06l-2.33-1.41c-.12-.07-.1-.19 0-.27l1.76-1a.52.52 0 01.47 0l2.33 1.42c.12.07.1.19 0 .26l-1.76 1a.52.52 0 01-.47 0zM44.18 89.67l-2.33-1.41c-.12-.07-.1-.19 0-.27l1.77-1a.53.53 0 01.46 0l2.33 1.42c.12.07.1.19 0 .26l-1.76 1a.49.49 0 01-.47 0zM33.24 83l-2.34-1.38c-.12-.07-.1-.19 0-.27l1.77-1a.53.53 0 01.46 0l2.34 1.42c.11.07.1.19 0 .27L33.7 83a.53.53 0 01-.46 0z"/><path class="cls-66" d="M33.19 80.38l10.15 6.16c.12.08.12.19 0 .27l-1.8 1a.5.5 0 01-.46 0l-10.16-6.18zM52.69 93.52l1.62 1c.1.06.08.16 0 .22l-.72.4a.42.42 0 01-.38 0l-1.63-1c-.09-.06-.08-.15 0-.22l.73-.39a.4.4 0 01.38-.01zM50.41 92.14l1.63 1c.1.05.08.15 0 .21l-.73.4a.42.42 0 01-.38 0l-1.62-1c-.1-.06-.08-.15 0-.22l.72-.39a.42.42 0 01.38 0zM48.16 90.77l1.62 1c.1.06.09.15 0 .22l-.72.39a.4.4 0 01-.38 0L47 91.4c-.09-.06-.08-.16 0-.22l.72-.4a.42.42 0 01.44-.01zM51.69 91.44l1.63 1c.09 0 .08.15 0 .21l-.72.4a.42.42 0 01-.38 0l-1.62-1c-.1-.06-.09-.15 0-.22l.72-.39a.4.4 0 01.37 0z"/></g><path d="M33.08 95.55a2.14 2.14 0 01-1-.27l-11.37-6.87a.83.83 0 01-.45-.69 1.06 1.06 0 01.64-.84l6-3.29a2.65 2.65 0 012.39 0l11.31 6.83a.81.81 0 01.44.7 1.06 1.06 0 01-.63.84l-6 3.28a2.74 2.74 0 01-1.33.31zm-.9-.51a2.34 2.34 0 002.11 0l6-3.29a.83.83 0 00.5-.6.58.58 0 00-.31-.45l-11.36-6.91a2.33 2.33 0 00-2.1 0l-6 3.28a.83.83 0 00-.5.6.55.55 0 00.31.45z" fill="#380031" opacity=".5"/><path class="cls-2" d="M48.9 42.56l-1.24-.69a.3.3 0 01-.14-.35.18.18 0 01.27-.13l1.24.7a.3.3 0 01.14.35.18.18 0 01-.27.12zM51.85 44.22L50 43.2a.34.34 0 01-.15-.36.18.18 0 01.28-.12l1.82 1a.34.34 0 01.15.36.19.19 0 01-.25.14zM46.53 48.15l-1.24-.7a.32.32 0 01-.14-.35.18.18 0 01.27-.12l1.24.69a.32.32 0 01.14.36.18.18 0 01-.27.12zM49.17 49.62l-1.83-1a.33.33 0 01-.15-.36.19.19 0 01.28-.12l1.83 1a.33.33 0 01.14.35.18.18 0 01-.27.13zM45.21 41.65l-.78-.44a.32.32 0 01-.14-.35.18.18 0 01.27-.12l.78.43a.34.34 0 01.14.36.18.18 0 01-.27.12zM47.56 44.12l-2.37-1.33a.32.32 0 01-.14-.35.18.18 0 01.27-.12l2.37 1.32a.32.32 0 01.14.36.18.18 0 01-.27.12zM45.42 45.22l-.77-.43a.32.32 0 01-.15-.35.19.19 0 01.28-.13l.77.44a.3.3 0 01.14.35.17.17 0 01-.27.12zM49.49 52.11L47.43 51a.32.32 0 01-.15-.35.18.18 0 01.28-.12l2.07 1.16a.33.33 0 01.14.35.18.18 0 01-.28.07zM44.6 47.07l-.5-.28a.32.32 0 01-.14-.36.18.18 0 01.27-.12l.5.28a.32.32 0 01.14.35.18.18 0 01-.27.13zM44.17 49.13l-.62-.35a.32.32 0 01-.14-.35.18.18 0 01.27-.12l.62.34a.32.32 0 01.14.36.17.17 0 01-.27.12zM46.57 50.48l-1.63-.92a.33.33 0 01-.14-.35.18.18 0 01.28-.12l1.62.91a.32.32 0 01.15.35.19.19 0 01-.28.13zM44.45 50.44l-1.17-.66a.3.3 0 01-.14-.35.17.17 0 01.27-.12l1.17.65a.32.32 0 01.14.36.18.18 0 01-.27.12zM51.27 53.11l-.75-.42a.3.3 0 01-.14-.35.18.18 0 01.27-.13l.75.42a.32.32 0 01.14.36.17.17 0 01-.27.12zM48.3 46.84l-2.07-1.16a.33.33 0 01-.14-.36.18.18 0 01.27-.12l2.07 1.16a.34.34 0 01.15.36.19.19 0 01-.28.12zM48.53 45.81l-3.61-2a.3.3 0 01-.14-.35.18.18 0 01.27-.13l3.61 2a.34.34 0 01.14.36.18.18 0 01-.27.12zM46.44 47l-2.07-1.16a.33.33 0 01-.14-.36.18.18 0 01.27-.12l2.07 1.16a.34.34 0 01.15.36.19.19 0 01-.28.12zM49.87 47.72l-.75-.42a.34.34 0 01-.14-.36.18.18 0 01.27-.12l.75.42a.33.33 0 01.15.36.19.19 0 01-.28.12zM55.63 46.33L53 44.85a.31.31 0 01-.14-.36.18.18 0 01.27-.12l2.65 1.48a.3.3 0 01.14.35.18.18 0 01-.29.13zM46.31 49.18l-2.48-1.39a.34.34 0 01-.15-.36.19.19 0 01.28-.12l2.48 1.39a.34.34 0 01.15.36.19.19 0 01-.28.12zM46.53 41.24l-1.83-1a.36.36 0 01-.14-.36.18.18 0 01.28-.12l1.82 1a.34.34 0 01.15.36.19.19 0 01-.28.12zM44.09 51.39L42 50.2a.32.32 0 01-.14-.35.18.18 0 01.27-.12l2.12 1.18a.32.32 0 01.14.36.18.18 0 01-.3.12zM45.9 53.63l-1.24-.7a.32.32 0 01-.14-.35.18.18 0 01.27-.12l1.24.69a.32.32 0 01.14.36.18.18 0 01-.27.12zM48.86 55.28l-1.83-1a.34.34 0 01-.15-.36.19.19 0 01.28-.12l1.83 1a.32.32 0 01.14.35.18.18 0 01-.27.13zM43.53 59.21l-1.24-.69a.33.33 0 01-.14-.36.18.18 0 01.27-.12l1.24.7a.32.32 0 01.15.35.18.18 0 01-.28.12zM46.17 60.69l-1.83-1a.32.32 0 01-.15-.35.18.18 0 01.28-.12l1.83 1a.33.33 0 01.14.36.18.18 0 01-.27.11zM42.21 52.71l-.78-.43a.33.33 0 01-.14-.36.18.18 0 01.27-.12l.78.44a.32.32 0 01.14.35.18.18 0 01-.27.12zM44.56 55.18l-2.37-1.32a.34.34 0 01-.14-.36.18.18 0 01.27-.12l2.37 1.33a.3.3 0 01.14.35.17.17 0 01-.27.12zM42.42 56.29l-.77-.44a.32.32 0 01-.15-.35.18.18 0 01.28-.12l.77.43a.34.34 0 01.15.36.19.19 0 01-.28.12zM46.5 63.18L44.43 62a.34.34 0 01-.15-.36.19.19 0 01.28-.12l2.07 1.16a.32.32 0 01.14.35.18.18 0 01-.27.15zM41.6 58.13l-.5-.28a.32.32 0 01-.1-.35.18.18 0 01.27-.13l.5.28a.34.34 0 01.14.36.18.18 0 01-.31.12zM41.17 60.19l-.62-.34a.33.33 0 01-.14-.36.18.18 0 01.27-.12l.62.35a.32.32 0 01.15.35.18.18 0 01-.28.12zM43.57 61.54L42 60.63a.34.34 0 01-.15-.36.19.19 0 01.28-.12l1.63.91a.36.36 0 01.14.36.19.19 0 01-.33.12zM41.45 61.5l-1.17-.65a.34.34 0 01-.14-.36.18.18 0 01.27-.12l1.17.66a.32.32 0 01.15.35.18.18 0 01-.28.12zM48.27 64.18l-.75-.43a.3.3 0 01-.14-.35.18.18 0 01.27-.12l.75.42a.32.32 0 01.15.35.19.19 0 01-.28.13zM45.3 57.9l-2.07-1.16a.33.33 0 01-.14-.35.18.18 0 01.28-.12l2.06 1.16a.32.32 0 01.15.35.18.18 0 01-.28.12zM45.53 56.88l-3.61-2a.34.34 0 01-.14-.36.18.18 0 01.27-.12l3.61 2a.32.32 0 01.14.35.18.18 0 01-.27.13zM43.44 58l-2.07-1.16a.32.32 0 01-.14-.35.18.18 0 01.27-.12l2.07 1.16a.32.32 0 01.15.35.18.18 0 01-.28.12zM46.87 58.78l-.75-.42A.33.33 0 0146 58a.18.18 0 01.27-.12l.75.42a.34.34 0 01.15.36.18.18 0 01-.3.12zM43.32 60.24l-2.49-1.39a.32.32 0 01-.15-.35.19.19 0 01.28-.13l2.49 1.4a.33.33 0 01.14.35.18.18 0 01-.27.12zM43.54 52.3l-1.83-1a.32.32 0 01-.15-.35.19.19 0 01.28-.13l1.83 1a.33.33 0 01.14.35.18.18 0 01-.27.13zM41.09 62.45L39 61.27a.34.34 0 01-.14-.36.18.18 0 01.27-.12L41.22 62a.3.3 0 01.14.35.17.17 0 01-.27.1zM74.86 81.2a1.5 1.5 0 01-.77-.2L54.2 69.86a2.42 2.42 0 01-1.06-2.64l5.18-18.48a1.5 1.5 0 01.85-1 1.4 1.4 0 011.25.1L80.32 59a2.43 2.43 0 011.05 2.64l-5.18 18.43a1.53 1.53 0 01-.84 1 1.38 1.38 0 01-.49.13zm-.68-.36a1.23 1.23 0 001.1.09A1.36 1.36 0 0076 80l5.2-18.45a2.24 2.24 0 00-1-2.43L60.33 48a1.24 1.24 0 00-1.1-.1 1.38 1.38 0 00-.74.91l-5.18 18.46a2.24 2.24 0 001 2.43z"/><path class="cls-2" d="M77.62 65.37a1.08 1.08 0 01-.54-.15l-17.41-9.74a1.7 1.7 0 01-.74-1.85l.66-2.35a1.07 1.07 0 01.6-.73 1 1 0 01.88.07l17.41 9.75a1.69 1.69 0 01.74 1.85l-.66 2.35a1.09 1.09 0 01-.6.73 1 1 0 01-.34.07zM60.53 50.66a.63.63 0 00-.27.06.87.87 0 00-.5.61l-.66 2.35a1.5 1.5 0 00.66 1.64l17.4 9.74a.83.83 0 00.73.07.88.88 0 00.49-.61l.62-2.35a1.5 1.5 0 00-.65-1.64L61 50.78a.92.92 0 00-.47-.12z"/><path d="M75.33 71.52l-3.26-1.82a1.6 1.6 0 01-.7-1.75L72 65.6a.9.9 0 011.35-.6l3.27 1.83a1.6 1.6 0 01.69 1.74l-.66 2.36a.89.89 0 01-1.32.59z" fill="#6dffe8"/><path class="cls-2" d="M74 78.13a1.06 1.06 0 01-.5-.13l-3.27-1.83a1.69 1.69 0 01-.73-1.85l.66-2.32a1 1 0 01.59-.73 1 1 0 01.89.08l3.26 1.82a1.7 1.7 0 01.74 1.83L75 77.33a1.07 1.07 0 01-.6.73 1 1 0 01-.4.07zm-.46-.3a.86.86 0 00.73.06.92.92 0 00.5-.61l.66-2.35a1.5 1.5 0 00-.66-1.64l-3.26-1.83a.86.86 0 00-.73-.06.88.88 0 00-.49.61l-.66 2.35a1.5 1.5 0 00.69 1.64zM66.43 74.11a1.14 1.14 0 01-.55-.15L56 68.45a1.7 1.7 0 01-.74-1.85l2.51-8.94a1.07 1.07 0 01.6-.73 1 1 0 01.88.08l9.85 5.51a1.7 1.7 0 01.74 1.85l-2.5 8.94a1.07 1.07 0 01-.6.72 1.05 1.05 0 01-.31.08zM66 73.8a.83.83 0 00.73.07.88.88 0 00.49-.61l2.51-8.94a1.5 1.5 0 00-.65-1.64l-9.88-5.52a.86.86 0 00-.73-.06.92.92 0 00-.5.61l-2.5 8.94a1.51 1.51 0 00.65 1.64zM79.54 54.3a.69.69 0 01-.34-.09.74.74 0 01-.34-.89.56.56 0 01.33-.31.67.67 0 01.53.07.72.72 0 01.33.89.53.53 0 01-.33.31.55.55 0 01-.18.02zm-.16-1.12a.3.3 0 00-.13 0 .36.36 0 00-.21.19.54.54 0 00.25.66.49.49 0 00.37 0 .35.35 0 00.22-.19.54.54 0 00-.26-.66.5.5 0 00-.24 0zM81.05 55.17a.61.61 0 01-.34-.1.74.74 0 01-.34-.89.54.54 0 01.33-.3.66.66 0 01.53.06.73.73 0 01.33.9.55.55 0 01-.33.3zM80.89 54a.3.3 0 00-.13 0 .32.32 0 00-.21.2.53.53 0 00.25.65.45.45 0 00.37.05.36.36 0 00.22-.2.53.53 0 00-.26-.65.44.44 0 00-.24-.05zM83 55.66a.5.5 0 01-.73.19.62.62 0 01-.29-.77.48.48 0 01.72-.19.64.64 0 01.3.77z"/><path class="cls-59" d="M6.69 73.21a7.94 7.94 0 01-3.89-.93 2.43 2.43 0 010-4.6 8.6 8.6 0 017.78 0 2.43 2.43 0 010 4.6 7.94 7.94 0 01-3.89.93zm0-6.27a7.82 7.82 0 00-3.8.9 2.26 2.26 0 000 4.28 8.44 8.44 0 007.6 0 2.26 2.26 0 000-4.28 7.85 7.85 0 00-3.8-.9z"/><path class="cls-60" d="M6.69 70.07a7.94 7.94 0 01-3.89-.93 2.43 2.43 0 010-4.6 8.6 8.6 0 017.78 0 2.43 2.43 0 010 4.6 7.94 7.94 0 01-3.89.93zm0-6.27a7.74 7.74 0 00-3.8.91 2.25 2.25 0 000 4.27 8.41 8.41 0 007.6 0 2.25 2.25 0 000-4.27 7.74 7.74 0 00-3.8-.91z"/><path d="M13 49.41H.38l1.17 13.66a2.55 2.55 0 001.51 2.1 8 8 0 007.26 0 2.57 2.57 0 001.51-2.1z" fill="url(#Áåçûìÿííûé_ãðàäèåíò_302-2)"/><path d="M13 49.41H.38l.19 2.25a5.06 5.06 0 001.17 1.05 10.59 10.59 0 009.11.76l-.42 10a2 2 0 01-.43 1.18A4.7 4.7 0 017.27 66a7.13 7.13 0 003.05-.85 2.57 2.57 0 001.51-2.1l.94-11z" opacity=".2" fill="#06033e"/><ellipse class="cls-71" cx="6.69" cy="49.41" rx="6.31" ry="3.64"/><path class="cls-71" d="M10.53 50.34a8.45 8.45 0 01-7.68 0c-2.13-1.22-2.13-3.21 0-4.43a8.45 8.45 0 017.68 0c2.13 1.22 2.13 3.21 0 4.43z"/><path d="M13.37 49.24L13.25 48a3.32 3.32 0 00-1.91-2.55 10.25 10.25 0 00-9.28 0 3.31 3.31 0 00-1.93 2.62L0 49.16v.1a3.26 3.26 0 002 2.88 10.44 10.44 0 009.46 0 3.23 3.23 0 001.91-2.9z" fill="url(#Áåçûìÿííûé_ãðàäèåíò_515-56)"/><ellipse cx="6.69" cy="48.19" rx="5.44" ry="3.14" fill="url(#Áåçûìÿííûé_ãðàäèåíò_47)"/><path class="cls-71" d="M3.49 46.37a8.54 8.54 0 017.69 0l.07.05a4.15 4.15 0 00-.72-.51 8.45 8.45 0 00-7.68 0c-2.1 1.21-2.12 3.16-.08 4.39-1.36-1.22-1.12-2.86.72-3.93z"/><path d="M2.85 46.45a8.52 8.52 0 017.68 0 2.85 2.85 0 011.57 1.95 2.55 2.55 0 00-1.57-2.49 8.45 8.45 0 00-7.68 0 2.55 2.55 0 00-1.57 2.49 2.85 2.85 0 011.57-1.95z" fill="url(#Áåçûìÿííûé_ãðàäèåíò_89)"/><path d="M11.37 45.48a10.25 10.25 0 00-9.31-.08C-.53 46.86-.55 49.27 2 50.77a10.25 10.25 0 009.31.08c2.6-1.46 2.62-3.85.06-5.37zm-.84 4.86a7.13 7.13 0 01-2.47.82L8 50.83a.31.31 0 00-.29-.22h-2a.31.31 0 00-.29.22l-.1.33a7.13 7.13 0 01-2.47-.82c-2.13-1.22-2.13-3.21 0-4.43a8.45 8.45 0 017.68 0c2.13 1.22 2.13 3.21 0 4.43z" fill="url(#Áåçûìÿííûé_ãðàäèåíò_515-57)"/><rect x="5.96" y="51.01" width="1.46" height=".32" rx=".16" ry=".16" fill="#8b1e64"/><path d="M7.27 51H6.11a.15.15 0 00-.15.15.14.14 0 01.14-.11h1.17a.15.15 0 01.14.11.15.15 0 00-.14-.15z" fill="#fb8488"/><path class="cls-3" d="M7.12 51.22s4.36-1.46 2.6-6.47S4.51 38.21 5.9 34.2a8.12 8.12 0 00-.15 7.64c2 4.39 2.48 3.88 2.45 6a3.77 3.77 0 01-2 3.4zM7.51 34.29A8.06 8.06 0 0110 28.05s-2.58 5.76-1.74 8.6a14.87 14.87 0 01-.75-2.36z"/><path class="cls-1" d="M56.56 24.72a11 11 0 00-1-5 2 2 0 00-.44-.69 1.62 1.62 0 00-1.51-.21 3.28 3.28 0 00-2.2 2.94 4.08 4.08 0 001.66 3.36 2.73 2.73 0 002 .61 1.53 1.53 0 001.34-1.43.33.33 0 00-.51.22z"/><path class="cls-1" d="M52.8 21.06a2.11 2.11 0 00.35-2 2.19 2.19 0 00-1.94.53 1.3 1.3 0 000 1.85 1 1 0 001.5-.68zM51.74 14.89a1 1 0 00.7-.62 1 1 0 00-.41-.14.37.37 0 00-.36.18c-.09.18 0 .39.16.54h-.16zM52.2 16.09a.48.48 0 010 .29.8.8 0 01-.35-.64c0-.14 0-.31.1-.39s.19 0 .29 0 .38-.23.55-.12a.24.24 0 01.05.3.78.78 0 01-.24.24l-.58.43z"/><path class="cls-78" d="M47.69.3c.1-.18-.18-.37-.37-.28a.77.77 0 00-.32.51.73.73 0 00.78-.15z"/><path class="cls-1" d="M40.51 1.48a.18.18 0 01-.25 0 .32.32 0 01-.12-.25.51.51 0 010-.17.25.25 0 01.37-.06.26.26 0 01.07.34.28.28 0 01-.35.09zM49 13.56a.29.29 0 00.49-.06.53.53 0 00-.25-.2.24.24 0 00-.28.1.16.16 0 00.13.23zM52 17.06a.82.82 0 00.65-.28l-.49-.35a.45.45 0 00-.25-.12.33.33 0 00-.32.36.47.47 0 00.38.36z"/><path class="cls-78" d="M42.62 3.32l-.16-.13a.24.24 0 00-.14.27.21.21 0 00.26.14.17.17 0 00.06-.27z"/><path class="cls-1" d="M50.15 14.5c-.13 0-.12.23 0 .33a3.71 3.71 0 00.32.23.52.52 0 01.16.37.24.24 0 01-.11.2.29.29 0 01-.16 0 1.45 1.45 0 01-.73-.25.66.66 0 01-.27-.68.51.51 0 01.38-.36.55.55 0 01.5.15zM53.68 14.37A.31.31 0 0054 14a.45.45 0 00-.28-.38h-.2a.26.26 0 000 .15l.15.59zM50.79 7.16a.54.54 0 01-.79-.37 1.35 1.35 0 01.76-.15.46.46 0 01.38.57l-.4.21zM57.12 32.54a.15.15 0 01-.09.18.33.33 0 01-.22 0 .42.42 0 01-.16-.09.29.29 0 010-.34.38.38 0 01.33-.13.24.24 0 01.15.08.14.14 0 010 .17zM49.61 11.8l.13-.16c-.08-.08-.16-.17-.27-.17s-.22.11-.16.2a.14.14 0 00.1.07l.36.16zM47.94 8.41a1.22 1.22 0 00.15-.49.44.44 0 00-.23-.43.46.46 0 00-.26 0 .48.48 0 10.33.91zM48.68 6.74v-.35a.82.82 0 00-.27 0 .34.34 0 00.25.4zM58.81 11.6a4.47 4.47 0 00-1.18-1.6 1.21 1.21 0 00-.28-.18.66.66 0 00-.59.18 1.34 1.34 0 00-.3 1.44 1.63 1.63 0 001.17.94 1.09 1.09 0 00.83-.11.61.61 0 00.24-.75.14.14 0 00-.15.17zM47.66 20.24a1.06 1.06 0 00.19-.92 1.16 1.16 0 00-.41.13.38.38 0 00-.18.37c0 .2.26.28.45.33l-.14.09zM46.23 18.39a.49.49 0 000-.27A.48.48 0 0046 18a3.4 3.4 0 01-.59-.4l.22 1.18a.27.27 0 010 .09c0 .11-.17.13-.25.21s-.06.31 0 .44c.67.93.74-.65.85-1.13zM49.13 21.84a.79.79 0 00.36-.61h-.6a.51.51 0 00-.27.06.32.32 0 000 .48.45.45 0 00.51.06zM48.91 18.66a.32.32 0 000-.44.45.45 0 00-.45-.13c-.07 0-.15.06-.15.13s0 .09.08.12l.48.38zM51.77 18.81a1.28 1.28 0 00.16-.49.39.39 0 00-.49-.44.5.5 0 00-.32.62.5.5 0 00.64.29zM52.54 10.06c-.11-.13-.33-.09-.49 0s-.37.13-.51 0a.14.14 0 01-.07-.12c0-.12.18-.14.29-.19a1 1 0 00.24-.19.59.59 0 01.67 0 .36.36 0 010 .36.34.34 0 01-.34.12z"/><path class="cls-1" d="M48.93 7.62c-.12-.14-.33-.1-.5 0s-.36.13-.5 0a.15.15 0 01-.07-.12c0-.12.18-.14.29-.19a1.3 1.3 0 00.23-.18.57.57 0 01.66 0 .3.3 0 010 .35.31.31 0 01-.33.13zM48.53 4.39a1 1 0 00-.1-.42.1.1 0 000-.05.14.14 0 00-.13 0 .28.28 0 00-.17.25.35.35 0 00.15.28.22.22 0 00.17.05.13.13 0 00.1-.13zM53.3 24.58a1.09 1.09 0 00.19-.92 1.16 1.16 0 00-.41.13.35.35 0 00-.18.37c0 .2.26.28.45.33l-.14.09zM50.31 25.16a.28.28 0 00.35-.34.47.47 0 00-.31 0 .26.26 0 00-.17.25c0 .1.16.18.24.11zM51.31 19.84a.29.29 0 00.35-.35.58.58 0 00-.32 0 .24.24 0 00-.16.25.16.16 0 00.23.11zM51.79 25.22c-.08.11 0 .26.17.29s.26 0 .4 0a.52.52 0 01.34.2.28.28 0 010 .23.28.28 0 01-.12.1 1.4 1.4 0 01-.74.25.66.66 0 01-.62-.39.5.5 0 01.09-.51.53.53 0 01.49-.18zM50.76 9.83c-.08.11 0 .26.17.29s.27 0 .4 0a.5.5 0 01.34.21.25.25 0 010 .22.32.32 0 01-.12.11 1.47 1.47 0 01-.73.24.65.65 0 01-.63-.39.5.5 0 01.09-.51.51.51 0 01.49-.17zM52.44 9.45c-.08.11 0 .26.17.29s.26 0 .39 0a.46.46 0 01.35.2.22.22 0 010 .22.29.29 0 01-.11.11 1.54 1.54 0 01-.74.24.65.65 0 01-.62-.39.5.5 0 01.58-.68zM52.47 12.1c-.07.11 0 .26.17.29s.27 0 .4 0a.48.48 0 01.34.2.22.22 0 010 .23.26.26 0 01-.12.11 1.47 1.47 0 01-.73.24.66.66 0 01-.63-.39.52.52 0 01.09-.51.51.51 0 01.49-.17zM34.27 8.54c-.07.1 0 .26.17.28a2.67 2.67 0 00.4 0 .45.45 0 01.34.2.22.22 0 010 .23.31.31 0 01-.12.1 1.39 1.39 0 01-.73.25.7.7 0 01-.63-.39.54.54 0 01.09-.52.56.56 0 01.49-.17zM49.74 23.39v-.22a.49.49 0 00-.32 0c-.09.06-.11.23 0 .26a.17.17 0 00.12 0l.38-.09zM42.33 11.58a1.28 1.28 0 00.16-.49.42.42 0 00-.24-.43.42.42 0 00-.25 0 .48.48 0 10.32.91zM54.06 20.22a.35.35 0 01-.45.39.92.92 0 01-.14-.39.63.63 0 01.45 0z"/><path class="cls-78" d="M43 9.47a.7.7 0 000-.29.25.25 0 00-.13-.18c-.16 0-.28.15-.44.2s-.35-.05-.48.05a.28.28 0 000 .42.72.72 0 00.46.11.74.74 0 00.42-.09.29.29 0 00.17-.41z"/><path class="cls-1" d="M51 13.57a2.08 2.08 0 001.47-1.36 2.19 2.19 0 00-1.87-.75 1.33 1.33 0 00-1.1 1.5.94.94 0 001.61.35zM55.64 19.94a.18.18 0 01-.21-.14.33.33 0 01.06-.27.34.34 0 01.12-.12.24.24 0 01.32.13.26.26 0 01-.15.32.28.28 0 01-.33-.13zM53.35 16.87c-.16-.09-.34 0-.48.13s-.3.25-.47.2-.09-.05-.1-.1.12-.19.21-.27a2.13 2.13 0 00.16-.25.58.58 0 01.61-.25.31.31 0 01.1.34.33.33 0 01-.28.23zM48.55 14v-.2a.25.25 0 00-.28.14.2.2 0 00.13.26.17.17 0 00.21-.18zM51 17a.14.14 0 01-.18.1.33.33 0 01-.17-.14.38.38 0 01-.08-.17.28.28 0 01.19-.28.33.33 0 01.34.09.25.25 0 01.08.16c0 .06-.05.12-.11.12zM45.77 19.59a2.09 2.09 0 002-.07 2.17 2.17 0 00-.92-1.78 1.3 1.3 0 00-1.81.41c-.32.62.31 1.52 1 1.32zM50.38 22.54c.1-.18-.18-.37-.37-.28a.77.77 0 00-.31.5.71.71 0 00.78-.15zM56 17.68l-.05-.2a.26.26 0 00-.28.14.21.21 0 00.13.27.18.18 0 00.2-.19z"/><path class="cls-1" d="M52.29 18a4.74 4.74 0 00-.36-2.17.75.75 0 00-.18-.31.69.69 0 00-.65-.11 1.42 1.42 0 00-1 1.25 1.73 1.73 0 00.68 1.48 1.18 1.18 0 00.85.29.67.67 0 00.6-.61.15.15 0 00-.22.09zM40.19 16.45a2.09 2.09 0 00.35-2 2.2 2.2 0 00-1.94.55 1.31 1.31 0 000 1.86 1 1 0 001.5-.68zM47.72 5.63a1.07 1.07 0 00.19-.92 1.17 1.17 0 00-.41.14.37.37 0 00-.18.37c0 .19.26.28.45.33l-.14.08zM46.28 3.78a.42.42 0 000-.27.46.46 0 00-.2-.16 4.13 4.13 0 01-.59-.41l.21 1.18a.17.17 0 010 .1c0 .1-.17.12-.25.2s-.06.31 0 .45c.66.97.73-.6.83-1.09zM53.39 16.07v-.34a.54.54 0 00-.47.45c0 .23.26.46.46.34s.28-.25.36-.12zM46 9.19a.48.48 0 010 .29.82.82 0 01-.34-.64c0-.14 0-.32.09-.39s.19 0 .29 0 .39-.23.55-.12a.24.24 0 010 .3.63.63 0 01-.23.23l-.59.43zM42.34 10.26c.1-.18-.18-.37-.37-.28a.74.74 0 00-.31.51.73.73 0 00.78-.15z"/><path class="cls-78" d="M43.45 6.05a.17.17 0 01-.25 0 .35.35 0 01-.12-.25.47.47 0 010-.17.25.25 0 01.34-.09.26.26 0 01.07.35.28.28 0 01-.35.09z"/><path class="cls-1" d="M44.73 6.21a.28.28 0 00.35-.34.47.47 0 00-.31 0 .25.25 0 00-.17.24.17.17 0 00.24.12zM49.19 7.24a.82.82 0 00.36-.62h-.6a.5.5 0 00-.27.05.32.32 0 000 .48.45.45 0 00.51.06z"/><path class="cls-78" d="M41.31 8a.37.37 0 01-.37.13.38.38 0 01-.27-.3c0-.1 0-.22.13-.22a.22.22 0 01.11.05l.45.29-.06.05zM38.59 7.36c-.12-.13-.33-.09-.49 0s-.37.13-.51 0a.15.15 0 01-.07-.12c0-.13.18-.14.29-.2a1 1 0 00.19-.18.63.63 0 01.67 0 .36.36 0 010 .36.34.34 0 01-.34.12zM54.34 10.16c-.11-.13-.32-.09-.49 0s-.36.13-.5 0a.17.17 0 01-.07-.12c0-.13.17-.15.29-.2a1.3 1.3 0 00.23-.18.59.59 0 01.66 0 .32.32 0 010 .36.32.32 0 01-.33.12zM39 5.65v-.21a.26.26 0 00-.3 0 .2.2 0 000 .3.18.18 0 00.3-.07z"/><path class="cls-1" d="M46.21 6.27c-.08.11 0 .26.17.29s.27 0 .4 0a.45.45 0 01.34.2.25.25 0 010 .22.32.32 0 01-.12.11 1.47 1.47 0 01-.73.24.65.65 0 01-.63-.39.5.5 0 01.09-.51.51.51 0 01.49-.17zM49 4.06a.34.34 0 000-.45.47.47 0 00-.45-.13c-.07 0-.15.06-.15.14s0 .08.08.11l.48.39zM44.58 12.06a.54.54 0 01-.77-.38 1.27 1.27 0 01.76-.14c.25.05.48.32.38.56l-.4.21z"/><path class="cls-78" d="M44.16 4.44v-.21a.44.44 0 00-.32 0c-.09.06-.11.23 0 .27a.25.25 0 00.12 0l.38-.09z"/><path class="cls-1" d="M52.66 21.07a1.28 1.28 0 00.16-.5.41.41 0 00-.24-.42.31.31 0 00-.25 0 .51.51 0 00-.32.62.49.49 0 00.64.28zM43.32 16.7v-.35a.8.8 0 00-.27 0 .34.34 0 00.25.4zM54.46 30.05a.19.19 0 01-.26 0 .39.39 0 01-.11-.26.3.3 0 010-.16.24.24 0 01.33-.09.25.25 0 01.07.34.28.28 0 01-.34.1zM44.74 14.14l-.05-.35a.63.63 0 00-.27 0 .33.33 0 00.26.39zM54.29 12.48c.1-.07 0-.26-.08-.32s-.26-.06-.38-.11a.5.5 0 01-.27-.3.25.25 0 010-.22.27.27 0 01.14-.07 1.59 1.59 0 01.78 0A.66.66 0 0155 12a.51.51 0 01-.75.48zM50.6 18.48a.59.59 0 00-.12.27.25.25 0 00.1.26c.15.08.32-.06.48-.05s.32.14.48.09a.27.27 0 00.09-.41.7.7 0 00-.41-.25.76.76 0 00-.42 0 .31.31 0 00-.25.31zM49.54 10.93a3.88 3.88 0 00.81 1.59.57.57 0 00.22.19.56.56 0 00.53-.07 1.14 1.14 0 00.46-1.21 1.41 1.41 0 00-.89-1 1 1 0 00-.73 0 .55.55 0 00-.32.62.12.12 0 00.15-.13zM53.89 11.27a.44.44 0 00.23-.13.47.47 0 00.05-.26 4.37 4.37 0 01.06-.72l-.92.78-.08.05c-.1 0-.19-.09-.3-.12s-.3.11-.37.25c-.56 1.03.86.31 1.33.15z"/><path class="cls-1" d="M49.67 10.85v-.2a.24.24 0 00-.31 0 .21.21 0 000 .3.18.18 0 00.27-.09zM52.73 9.77a.33.33 0 00.4-.2.45.45 0 00-.13-.45c-.05-.06-.13-.1-.19-.06s0 .08-.06.13l-.1.6zM50.55 10a1.1 1.1 0 00.9-.3 1.3 1.3 0 00-.33-.29.38.38 0 00-.41 0c-.14.13-.11.37-.06.56l-.14-.08zM49.21 9.41a.46.46 0 01-.26.15.83.83 0 01.39-.62c.11-.09.26-.18.38-.11s.12.16.18.23.4.23.38.42a.26.26 0 01-.24.2.77.77 0 01-.32-.09l-.66-.3zM52.48 11.2a.82.82 0 00.7 0l-.3-.52a.48.48 0 00-.19-.21.32.32 0 00-.43.21.45.45 0 00.2.47zM51.83 8.13c-.13 0-.21.17-.16.29a3.12 3.12 0 00.2.35.48.48 0 010 .39.25.25 0 01-.17.15.33.33 0 01-.15-.05 1.46 1.46 0 01-.55-.52.68.68 0 010-.74.51.51 0 01.49-.17.51.51 0 01.4.34zM48.31 15.93a1.21 1.21 0 00.5-.1.44.44 0 00.26-.42.34.34 0 00-.12-.22.49.49 0 00-.7 0 .5.5 0 00.07.7zM52.18 16.18a1.09 1.09 0 00.89-.3 1.3 1.3 0 00-.33-.29.36.36 0 00-.41 0c-.14.13-.11.37-.06.56l-.14-.08zM48.8 9c-.11-.14-.32-.11-.49-.06a.57.57 0 01-.51 0 .16.16 0 01-.06-.13c0-.12.19-.13.3-.17a.85.85 0 00.25-.17.59.59 0 01.66 0 .34.34 0 010 .36.38.38 0 01-.35.1zM48 22.51v-.18a.25.25 0 00-.24.19.21.21 0 00.19.23.17.17 0 00.16-.23zM51.44 12.49l.19-.09a.48.48 0 00-.18-.27c-.1-.05-.25 0-.23.13a.15.15 0 00.06.1l.27.29z"/><path class="cls-2" d="M100.76 86.18a7.44 7.44 0 00-3.12-1.48 1.32 1.32 0 00-.56 0 1.07 1.07 0 00-.72.74 2.23 2.23 0 00.72 2.39 2.74 2.74 0 002.52.45 1.88 1.88 0 001.15-.85 1 1 0 00-.25-1.31.22.22 0 00-.08.37z"/><path class="cls-2" d="M97.23 86.76a1.44 1.44 0 00-.94-1 1.51 1.51 0 00-.5 1.28.91.91 0 001 .74.64.64 0 00.23-1.1zM93.42 84.85a.76.76 0 00-.06-.64 1.1 1.1 0 00-.25.17.26.26 0 000 .28c.06.12.23.13.36.13l-.07.08zM94.26 85.08a.28.28 0 01.16.12.54.54 0 01-.49-.07c-.09 0-.18-.11-.17-.21s.06-.11.09-.17 0-.31.16-.36a.16.16 0 01.18.1.41.41 0 010 .22v.5z"/><path class="cls-3" d="M83.77 81.18c-.06-.13-.28-.05-.31.09a.53.53 0 00.15.37.47.47 0 00.24-.48z"/><path class="cls-2" d="M81.51 85.6a.13.13 0 01-.09.15.31.31 0 01-.19 0 .34.34 0 01-.08-.09.16.16 0 01.09-.22.18.18 0 01.13.33zM91.58 85.82a.19.19 0 00.16-.29.38.38 0 00-.21 0 .18.18 0 00-.06.19.11.11 0 00.18 0zM94.69 85.61a.58.58 0 00.12-.47l-.39.12a.31.31 0 00-.17.09.21.21 0 00.07.32.31.31 0 00.35-.06z"/><path class="cls-3" d="M83.37 85.19h-.13a.17.17 0 00.09.19.14.14 0 00.18-.09.12.12 0 00-.13-.14z"/><path class="cls-2" d="M92.56 85.57c0 .08.07.16.16.15a2.58 2.58 0 00.26-.08.37.37 0 01.27.06.16.16 0 01.06.14.19.19 0 010 .1 1 1 0 01-.43.3.47.47 0 01-.49-.13.37.37 0 010-.35.34.34 0 01.28-.21zM93.92 83.58a.24.24 0 00-.07-.3.33.33 0 00-.32 0s-.09.07-.07.12.05 0 .08.06l.38.16zM88.79 82.25a.37.37 0 01-.52.27.89.89 0 01.22-.47c.14-.12.38-.14.47 0v.31zM105.28 89a.1.1 0 01.07.12.19.19 0 01-.1.12h-.11a.18.18 0 01-.19-.13.22.22 0 01.05-.11.12.12 0 01.1 0s.09 0 .09.07zM90.86 84.78v-.14c-.07 0-.16 0-.2.08s0 .17 0 .17a.11.11 0 00.07 0l.24-.13zM88.32 84.32a.83.83 0 00-.21-.28.29.29 0 00-.33-.05.33.33 0 00-.1.14.33.33 0 10.62.19zM87.7 83.24l-.21-.12a.39.39 0 00-.1.16.23.23 0 00.32 0zM94.47 79.64a2.93 2.93 0 00-1.38 0 .39.39 0 00-.21.08.44.44 0 00-.14.39.9.9 0 00.66.75 1.11 1.11 0 001-.26.75.75 0 00.28-.5.42.42 0 00-.31-.44.09.09 0 000 .15zM94.71 89.25a.74.74 0 00-.43-.47.73.73 0 00-.1.28.27.27 0 00.13.25c.13 0 .26 0 .37-.12v.11zM93.11 89.3a.27.27 0 00-.15-.11.33.33 0 00-.17 0 2.6 2.6 0 01-.47.16l.74.36v.22c0 .08.14.15.25.16.86.13.02-.54-.2-.79zM96.18 89.09a.54.54 0 00-.19-.44l-.24.33a.58.58 0 00-.08.18.22.22 0 00.25.21.3.3 0 00.24-.26zM104 91.44h-.13a.17.17 0 00.09.19.15.15 0 00.19-.09c0-.07-.06-.16-.13-.14zM94.34 87.93a.21.21 0 00-.23-.19.29.29 0 00-.25.19v.14a.17.17 0 00.1 0l.4-.11zM95.58 86.42a.86.86 0 00-.21-.29.31.31 0 00-.33 0 .24.24 0 00-.1.14.32.32 0 10.62.18zM91.08 82.46c-.12 0-.18.14-.21.26s-.08.25-.19.29a.12.12 0 01-.1 0c-.06-.06 0-.16 0-.24a1.34 1.34 0 000-.2.42.42 0 01.25-.38.24.24 0 01.19.16.22.22 0 01-.07.23z"/><path class="cls-2" d="M88.28 83.46c-.12 0-.18.14-.21.26s-.07.28-.19.28a.12.12 0 01-.1 0c-.06 0 0-.15 0-.23a.67.67 0 000-.2.4.4 0 01.25-.38.22.22 0 01.19.16.25.25 0 01-.07.23zM86.35 82.37a.54.54 0 00-.27-.11l-.06.06a.2.2 0 00.07.2.23.23 0 00.21 0 .18.18 0 00.1-.07.08.08 0 000-.11zM99.37 87.91a.74.74 0 00-.43-.47.66.66 0 00-.09.28.22.22 0 00.15.28c.12.06.26 0 .36-.11V88zM98.48 89.79a.2.2 0 000-.33.29.29 0 00-.13.16.16.16 0 00.07.19c.06 0 .16 0 .15-.08zM96 87.09a.2.2 0 000-.33.31.31 0 00-.13.17.17.17 0 00.06.19A.12.12 0 0096 87zM99.11 89c0 .09.16.08.23 0s.09-.15.15-.22a.31.31 0 01.25-.1.14.14 0 01.14.07.17.17 0 010 .1.88.88 0 01-.16.5.45.45 0 01-.47.19.34.34 0 01-.24-.25.35.35 0 01.1-.34zM90.24 83.35c0 .08.16.08.23 0s.09-.15.16-.22a.32.32 0 01.24-.11.14.14 0 01.14.07.14.14 0 010 .11.88.88 0 01-.16.5.46.46 0 01-.47.19.37.37 0 01-.24-.26.36.36 0 01.1-.34zM90.71 82.27c0 .09.16.08.23 0s.09-.15.15-.22a.39.39 0 01.25-.1.14.14 0 01.14.07.14.14 0 010 .11.93.93 0 01-.16.5.45.45 0 01-.47.18.34.34 0 01-.24-.25.35.35 0 01.1-.34zM92.18 83.32c0 .09.16.08.23 0s.09-.15.15-.22a.39.39 0 01.25-.1.14.14 0 01.14.07.14.14 0 010 .11.93.93 0 01-.16.5.46.46 0 01-.47.18.34.34 0 01-.24-.25.35.35 0 01.1-.34zM82.87 91.88c0 .08.16.08.22 0a1.77 1.77 0 00.16-.22.3.3 0 01.25-.1.16.16 0 01.14.07.17.17 0 010 .1 1.06 1.06 0 01-.16.5.45.45 0 01-.47.19.35.35 0 01-.25-.25.39.39 0 01.11-.34zM97.27 89.38l-.11-.09c0 .06-.11.11-.11.19s.08.15.14.11a.25.25 0 000-.07l.11-.25zM87.79 88.68a.8.8 0 00-.2-.28.29.29 0 00-.33-.05.26.26 0 00-.11.14.33.33 0 10.63.19zM97.28 85.73a.24.24 0 010 .41.92.92 0 01-.27-.08.39.39 0 01.18-.25z"/><path class="cls-3" d="M86.91 87.45a.44.44 0 00-.14-.13.15.15 0 00-.19 0c-.09.07 0 .21-.08.32s-.16.17-.16.28.13.19.24.16a.51.51 0 00.25-.21.55.55 0 00.12-.27.21.21 0 00-.15-.23z"/><path class="cls-2" d="M92.39 84.74a1.43 1.43 0 00-.16-1.36 1.49 1.49 0 00-1.16.72.89.89 0 00.37 1.21c.44.18 1-.29.85-.74zM97.77 84.75a.14.14 0 01-.17.06.21.21 0 01-.12-.14.5.5 0 010-.12.17.17 0 11.32.09.2.2 0 01-.21.13zM95.15 84.77c-.11 0-.12.2-.12.32s0 .26-.08.33a.1.1 0 01-.09 0c-.08 0-.06-.14-.07-.23a1.34 1.34 0 00-.07-.18.4.4 0 01.11-.44.23.23 0 01.23.08.25.25 0 010 .25zM91.61 86.23h-.13a.17.17 0 000 .2.13.13 0 00.19 0 .12.12 0 000-.19zM94.25 86.1a.1.1 0 010 .14.26.26 0 01-.15 0h-.12a.2.2 0 01-.08-.22.26.26 0 01.19-.15.18.18 0 01.12 0 .08.08 0 010 .1zM93.58 90a1.38 1.38 0 00.77-1.13 1.49 1.49 0 00-1.35-.18.9.9 0 00-.51 1.16.65.65 0 001.13 0zM97.07 88.69c-.06-.13-.28 0-.3.09a.46.46 0 00.15.37.48.48 0 00.23-.48zM96.66 83.65l-.12-.06a.17.17 0 000 .21.14.14 0 00.2 0 .12.12 0 000-.19z"/><path class="cls-2" d="M95.32 85.78A3.41 3.41 0 0094 85.1a.65.65 0 00-.24 0 .45.45 0 00-.32.32 1 1 0 00.28 1 1.18 1.18 0 001.09.23.8.8 0 00.5-.36.44.44 0 00-.09-.57c-.06 0-.09.12 0 .16zM89.6 91.83a1.4 1.4 0 00-.94-1 1.45 1.45 0 00-.49 1.27.89.89 0 001 .75.65.65 0 00.24-1.1zM86.71 83.32a.74.74 0 00-.43-.48.79.79 0 00-.1.28.27.27 0 00.13.25c.13.06.26 0 .37-.11v.11zM85.11 83.36a.27.27 0 00-.15-.11.26.26 0 00-.17 0 4.19 4.19 0 01-.46.16l.73.36v.22c0 .07.14.16.25.17.86.13.02-.55-.2-.8zM94.73 84.43l-.21-.12a.38.38 0 00.06.44c.12.11.36 0 .37-.11s0-.26.08-.25zM88 85.69a.31.31 0 01.16.12.54.54 0 01-.49-.07c-.09 0-.18-.12-.17-.21s.06-.12.09-.18 0-.3.16-.35a.16.16 0 01.18.1.4.4 0 010 .22v.49zM87.07 88.15c-.06-.13-.27-.05-.3.08a.55.55 0 00.15.38.47.47 0 00.23-.49z"/><path class="cls-3" d="M85.21 85.83a.13.13 0 01-.09.15.22.22 0 01-.19 0 .3.3 0 01-.08-.08.17.17 0 01.09-.22.18.18 0 01.22.1.2.2 0 01-.09.23z"/><path class="cls-2" d="M85.82 85.19a.2.2 0 000-.33.36.36 0 00-.13.17.17.17 0 00.06.19c.07 0 .16 0 .16-.08zM88.18 83.16a.55.55 0 00-.19-.45l-.24.34a.53.53 0 00-.08.17.23.23 0 00.25.22.31.31 0 00.24-.26z"/><path class="cls-3" d="M85.39 87.77a.25.25 0 01-.08.26.25.25 0 01-.27 0C85 88 84.93 88 85 87.9h.07l.34-.13v.06zM84 89c-.12 0-.19.15-.22.26s-.08.26-.19.29a.09.09 0 01-.09 0c-.07 0 0-.15 0-.24a1.41 1.41 0 000-.2.39.39 0 01.25-.37.22.22 0 01.19.15.22.22 0 01-.07.24zM91.87 81.51c-.12 0-.18.14-.22.26s-.07.25-.19.29a.1.1 0 01-.09 0c-.07-.06 0-.16 0-.24a.66.66 0 000-.2.43.43 0 01.26-.38.23.23 0 01.18.16.22.22 0 01-.06.23zM83.19 88.12l-.11-.12a.15.15 0 00-.1.18.14.14 0 00.17.1.11.11 0 000-.18z"/><path class="cls-2" d="M86.45 84.41c0 .08.16.08.22 0a1.77 1.77 0 00.16-.22.34.34 0 01.25-.11.23.23 0 01.14.07.21.21 0 010 .11 1.06 1.06 0 01-.16.5.45.45 0 01-.47.19.36.36 0 01-.25-.26.4.4 0 01.11-.34zM86.34 82a.22.22 0 00-.23-.2.31.31 0 00-.25.19v.14a.12.12 0 00.1 0l.4-.1zM89 87.64a.37.37 0 01-.52.27.89.89 0 01.22-.47c.14-.12.38-.14.47 0v.31z"/><path class="cls-3" d="M84.61 84.79l-.11-.09a.35.35 0 00-.12.19c0 .07.08.15.15.11a.25.25 0 000-.07l.11-.25z"/><path class="cls-2" d="M97.18 86.84a.71.71 0 00-.21-.28.29.29 0 00-.33 0 .24.24 0 00-.1.14.33.33 0 00.21.42.33.33 0 00.41-.23zM91 90.21l-.22-.12a.51.51 0 00-.09.16.23.23 0 00.32 0zM102.84 89.48a.13.13 0 01-.09.15.22.22 0 01-.19 0 .3.3 0 01-.08-.08.17.17 0 01.09-.22.18.18 0 01.22.1.2.2 0 01-.09.23zM90.17 88.39l-.17-.11a.42.42 0 00-.09.16.23.23 0 00.32 0zM93.12 82.48c0-.09-.12-.13-.21-.09a1.73 1.73 0 00-.21.17.36.36 0 01-.27 0 .14.14 0 01-.11-.1.15.15 0 010-.11 1 1 0 01.3-.43.44.44 0 01.5 0 .33.33 0 01.16.31.38.38 0 01-.2.3zM94.93 86.93a.46.46 0 00.1.18.15.15 0 00.18 0c.1-.05.1-.19.16-.28s.22-.12.25-.23-.08-.21-.19-.22a.51.51 0 00-.3.13.5.5 0 00-.19.22.2.2 0 00.06.27zM90.35 84.46a2.6 2.6 0 001.2.2.65.65 0 00.2 0 .4.4 0 00.17-.33.78.78 0 00-.48-.74 1 1 0 00-.9.09.67.67 0 00-.3.4.35.35 0 00.21.42.08.08 0 000-.13zM92.3 82.21a.29.29 0 000-.18.3.3 0 00-.12-.13 4 4 0 01-.38-.32l.06.81v.07c0 .07-.13.07-.19.12s-.06.2 0 .3c.33.71.52-.35.63-.67z"/><path class="cls-2" d="M90.36 84.36l-.1-.1a.17.17 0 00-.12.17.15.15 0 00.17.12.12.12 0 00.06-.18zM91 82.24a.22.22 0 00.06-.3.34.34 0 00-.3-.13c-.05 0-.11 0-.11.08a.11.11 0 000 .09l.29.3zM90.25 83.53a.76.76 0 00.2-.61.56.56 0 00-.29.06.24.24 0 00-.15.23c0 .14.15.21.28.26h-.1zM89.38 84a.27.27 0 010 .2.58.58 0 01-.18-.46c0-.1 0-.22.09-.26a.67.67 0 01.2 0c.14 0 .28-.13.38 0a.17.17 0 010 .21.62.62 0 01-.18.14l-.43.24zM91.69 83a.59.59 0 00.28-.39h-.4a.31.31 0 00-.19 0 .22.22 0 00-.07.32.32.32 0 00.35.08zM89.74 82.07c-.06.07 0 .18.09.21a2.48 2.48 0 00.27 0 .36.36 0 01.22.16.22.22 0 010 .16s-.06 0-.09.06a1 1 0 01-.52.11.44.44 0 01-.39-.31.37.37 0 01.1-.35.35.35 0 01.34-.07zM92.6 87.16a.94.94 0 00.15-.32.33.33 0 00-.13-.31.25.25 0 00-.17 0 .32.32 0 00-.26.39.33.33 0 00.41.24zM94.3 85.13a.75.75 0 00.2-.61.88.88 0 00-.29.06.27.27 0 00-.16.24c0 .13.16.21.29.26h-.1zM89 84.07c-.12 0-.19.13-.23.24s-.09.25-.21.28a.13.13 0 01-.09 0c-.07-.06 0-.16 0-.24a.66.66 0 000-.2.42.42 0 01.28-.36.24.24 0 01.18.17.23.23 0 01-.09.23zM96.11 90h-.14a.17.17 0 000 .21.14.14 0 00.2 0 .11.11 0 00-.06-.18zM92 84.05v-.14a.24.24 0 00-.22 0 .1.1 0 000 .18.11.11 0 00.08 0h.27z"/></g></g></svg>