<svg xmlns="http://www.w3.org/2000/svg" xmlns:xlink="http://www.w3.org/1999/xlink" viewBox="0 0 108.75 89.38"><defs><linearGradient id="Áåçûìÿííûé_ãðàäèåíò_292" x1="55.14" y1="57.53" x2="61.78" y2="4.72" gradientUnits="userSpaceOnUse"><stop offset="0" stop-color="#2e33a0"/><stop offset="1" stop-color="#0665a5"/></linearGradient><linearGradient id="Áåçûìÿííûé_ãðàäèåíò_206" x1="55.14" y1="56.01" x2="61.78" y2="3.2" gradientUnits="userSpaceOnUse"><stop offset="0" stop-color="#1852a0"/><stop offset="1" stop-color="#067ed3"/></linearGradient><linearGradient id="Áåçûìÿííûé_ãðàäèåíò_302" x1="55.85" y1="53.68" x2="61.01" y2="12.59" gradientUnits="userSpaceOnUse"><stop offset="0" stop-color="#459fff"/><stop offset="1" stop-color="#a96dff"/></linearGradient><linearGradient id="Áåçûìÿííûé_ãðàäèåíò_50" x1="40.06" y1="55.17" x2="43.55" y2="27.4" gradientUnits="userSpaceOnUse"><stop offset="0" stop-color="#7e9598"/><stop offset="1" stop-color="#755cbb"/></linearGradient><linearGradient id="Áåçûìÿííûé_ãðàäèåíò_36" x1="44.97" y1="42.01" x2="46.95" y2="26.3" gradientUnits="userSpaceOnUse"><stop offset="0" stop-color="#a6caff"/><stop offset="1" stop-color="#755cbb"/></linearGradient><linearGradient id="Áåçûìÿííûé_ãðàäèåíò_354" x1="41.17" y1="28.9" x2="49.74" y2="28.9" gradientUnits="userSpaceOnUse"><stop offset="0" stop-color="#d5cdf8"/><stop offset="1" stop-color="#f3edfb"/></linearGradient><linearGradient id="Áåçûìÿííûé_ãðàäèåíò_322" x1="46.7" y1="36.05" x2="46.7" y2="29.52" gradientUnits="userSpaceOnUse"><stop offset="0" stop-color="#b31a8f"/><stop offset="1" stop-color="#fe117e"/></linearGradient><linearGradient id="Áåçûìÿííûé_ãðàäèåíò_50-2" x1="74.91" y1="55.35" x2="78.85" y2="23.92" xlink:href="#Áåçûìÿííûé_ãðàäèåíò_50"/><linearGradient id="Áåçûìÿííûé_ãðàäèåíò_53" x1="37.11" y1="89.38" x2="37.11" y2="26.72" gradientUnits="userSpaceOnUse"><stop offset="0" stop-color="#ff9595"/><stop offset=".98" stop-color="#ffc2a9"/></linearGradient><linearGradient id="Áåçûìÿííûé_ãðàäèåíò_26" x1="48.72" y1="27.7" x2="48.72" y2="24.61" gradientUnits="userSpaceOnUse"><stop offset=".02" stop-color="#ffc2a9"/><stop offset="1" stop-color="#ff9595"/></linearGradient><linearGradient id="Áåçûìÿííûé_ãðàäèåíò_53-2" x1="83.02" y1="72.26" x2="83.02" y2="20.88" xlink:href="#Áåçûìÿííûé_ãðàäèåíò_53"/><linearGradient id="Áåçûìÿííûé_ãðàäèåíò_46" x1="81.89" y1="37.73" x2="81.89" y2="26.72" gradientUnits="userSpaceOnUse"><stop offset="0" stop-color="#cbc1f7"/><stop offset="1" stop-color="#e8dcf7"/></linearGradient><linearGradient id="Áåçûìÿííûé_ãðàäèåíò_9" x1="72.09" y1="27.8" x2="78.39" y2="27.8" gradientUnits="userSpaceOnUse"><stop offset="0" stop-color="#ccedff"/><stop offset="1" stop-color="#755cbb"/></linearGradient><linearGradient id="Áåçûìÿííûé_ãðàäèåíò_206-2" x1="94.04" y1="38.47" x2="94.04" y2="32.88" xlink:href="#Áåçûìÿííûé_ãðàäèåíò_206"/><linearGradient id="Áåçûìÿííûé_ãðàäèåíò_65" x1="96.61" y1="38.82" x2="96.61" y2="33.28" gradientUnits="userSpaceOnUse"><stop offset="0" stop-color="#d93de3"/><stop offset="1" stop-color="#ff6dba"/></linearGradient><linearGradient id="Áåçûìÿííûé_ãðàäèåíò_22" x1="68.96" y1="46.62" x2="97.08" y2="46.62" gradientUnits="userSpaceOnUse"><stop offset=".02" stop-color="#ff9e8b"/><stop offset="1" stop-color="#ff7c7c"/></linearGradient><linearGradient id="Áåçûìÿííûé_ãðàäèåíò_22-2" x1="75.56" y1="64.28" x2="86.4" y2="64.28" xlink:href="#Áåçûìÿííûé_ãðàäèåíò_22"/><linearGradient id="Áåçûìÿííûé_ãðàäèåíò_22-3" x1="25.48" y1="42.64" x2="44.26" y2="42.64" xlink:href="#Áåçûìÿííûé_ãðàäèåíò_22"/><linearGradient id="Áåçûìÿííûé_ãðàäèåíò_54" x1="32.11" y1="32.26" x2="36.23" y2="32.26" gradientUnits="userSpaceOnUse"><stop offset="0" stop-color="#ff7c7c"/><stop offset=".98" stop-color="#ff9e8b"/></linearGradient><linearGradient id="Áåçûìÿííûé_ãðàäèåíò_54-2" x1="36.35" y1="31.48" x2="39.5" y2="31.48" xlink:href="#Áåçûìÿííûé_ãðàäèåíò_54"/><linearGradient id="Áåçûìÿííûé_ãðàäèåíò_54-3" x1="28.45" y1="31.64" x2="31.55" y2="31.64" xlink:href="#Áåçûìÿííûé_ãðàäèåíò_54"/><linearGradient id="Áåçûìÿííûé_ãðàäèåíò_22-4" x1="32.11" y1="65.05" x2="37.26" y2="65.05" xlink:href="#Áåçûìÿííûé_ãðàäèåíò_22"/><linearGradient id="Áåçûìÿííûé_ãðàäèåíò_9-2" x1="72.09" y1="33.11" x2="92.28" y2="33.11" xlink:href="#Áåçûìÿííûé_ãðàäèåíò_9"/><linearGradient id="Áåçûìÿííûé_ãðàäèåíò_9-3" x1="43.55" y1="35.75" x2="43.55" y2="23.51" xlink:href="#Áåçûìÿííûé_ãðàäèåíò_9"/><linearGradient id="Áåçûìÿííûé_ãðàäèåíò_54-4" x1="43.88" y1="35.51" x2="49.51" y2="35.51" xlink:href="#Áåçûìÿííûé_ãðàäèåíò_54"/><linearGradient id="Áåçûìÿííûé_ãðàäèåíò_206-3" x1="-100.99" y1="141.47" x2="-100.99" y2="124.14" gradientTransform="matrix(-.94 .35 .35 .94 -130.55 -30.21)" xlink:href="#Áåçûìÿííûé_ãðàäèåíò_206"/><linearGradient id="Áåçûìÿííûé_ãðàäèåíò_284" x1="-100.35" y1="140.64" x2="-100.35" y2="124.46" gradientTransform="matrix(-.94 .35 .35 .94 -130.55 -30.21)" gradientUnits="userSpaceOnUse"><stop offset="0" stop-color="#313131"/><stop offset="1" stop-color="#365e8b"/></linearGradient><style>.cls-2,.cls-3{fill:#e0f3ff}.cls-3,.cls-41,.cls-42,.cls-48,.cls-9{opacity:.5}.cls-44,.cls-8,.cls-9{fill:#fff}.cls-30{mix-blend-mode:multiply}.cls-39,.cls-44{mix-blend-mode:soft-light}.cls-21{fill:#ec6a6b}.cls-30{opacity:.2}.cls-28{fill:#fed6d1}.cls-39{fill:#feb1a8}.cls-30{fill:#ecc1c9}.cls-41{fill:#95b8ff}.cls-44{opacity:.82}.cls-47,.cls-48{fill:#0c7cc7}.cls-51{fill:#047fc4}</style></defs><g style="isolation:isolate"><g id="Layer_2" data-name="Layer 2"><g id="Layer_1-2" data-name="Layer 1"><path class="cls-2" d="M102 63.46a21.17 21.17 0 01-9 6.87 28.06 28.06 0 01-6.58 1.84c-.19 0-.38.07-.58.09-6.12.92-12.43.44-18.12 1.44-7.76 1.35-9.23 6.42-20.55 12.71-.42.24-.86.46-1.3.67a25.89 25.89 0 01-12.07 2.27c-7.91-.29-15.52-3.52-19.57-7C4.09 73.51-5.74 35 32.57 14.21 44.63 7.68 83 1.65 101.39 23.14c9.24 10.86 7.36 31.31.61 40.32z"/><path class="cls-2" d="M106.08 36.06a13.32 13.32 0 00-1.15-5.9 2.42 2.42 0 00-.53-.81 1.86 1.86 0 00-1.79-.24 3.87 3.87 0 00-2.6 3.47 4.81 4.81 0 002 4 3.3 3.3 0 002.36.73 1.82 1.82 0 001.59-1.7.39.39 0 00-.6.26z"/><path class="cls-2" d="M101.61 31.72a2.48 2.48 0 00.43-2.34 2.57 2.57 0 00-2.3.62 1.56 1.56 0 000 2.2c.65.52 1.85 0 1.78-.81zM100.37 24.41a1.24 1.24 0 00.82-.74 1.2 1.2 0 00-.48-.17.45.45 0 00-.43.22c-.1.22 0 .46.19.64h-.19zM100.91 25.83a.5.5 0 010 .34 1 1 0 01-.41-.76c0-.16 0-.37.12-.45s.23 0 .34-.05.46-.28.65-.14a.27.27 0 01.06.35.8.8 0 01-.27.28l-.7.51z"/><path class="cls-3" d="M95.56 7.12c.12-.22-.21-.44-.43-.33a.83.83 0 00-.37.59.83.83 0 00.92-.18z"/><path class="cls-2" d="M87.05 8.51a.22.22 0 01-.3 0 .38.38 0 01-.13-.3.34.34 0 010-.2.28.28 0 01.4-.1.31.31 0 01.08.41.34.34 0 01-.41.11zM97.12 22.83a.33.33 0 00.57-.07.55.55 0 00-.29-.23.28.28 0 00-.33.11.19.19 0 00.15.28zM100.62 27a1 1 0 00.78-.33l-.58-.42a.69.69 0 00-.3-.14.38.38 0 00-.38.43.54.54 0 00.45.42z"/><path class="cls-3" d="M89.55 10.69l-.19-.15a.27.27 0 00-.16.32.24.24 0 00.31.17.22.22 0 00.07-.33z"/><path class="cls-2" d="M98.48 23.94c-.15 0-.15.28 0 .39a4.61 4.61 0 00.38.28.57.57 0 01.18.44.29.29 0 01-.12.24.4.4 0 01-.19 0 1.7 1.7 0 01-.87-.29.8.8 0 01-.32-.81.62.62 0 011-.24zM102.66 23.79a.38.38 0 00.35-.39.56.56 0 00-.33-.45c-.08 0-.19-.05-.24 0a.27.27 0 000 .18l.18.7zM99.24 15.25a.65.65 0 01-.92-.45 1.69 1.69 0 01.9-.17.56.56 0 01.46.67l-.48.25zM106.73 45.33c0 .07 0 .18-.09.21a.36.36 0 01-.27 0 .45.45 0 01-.19-.11.33.33 0 010-.4.41.41 0 01.39-.15.25.25 0 01.18.1.14.14 0 010 .19zM97.83 20.75l.16-.2a.55.55 0 00-.32-.2c-.13 0-.26.14-.19.25a.25.25 0 00.12.08l.42.19zM95.85 16.73a1.58 1.58 0 00.19-.58.52.52 0 00-.28-.51.44.44 0 00-.3 0 .57.57 0 10.38 1.07zM96.73 14.74l-.06-.41a.82.82 0 00-.31 0 .4.4 0 00.3.47zM108.75 20.51a5.46 5.46 0 00-1.41-2 .94.94 0 00-.33-.2.73.73 0 00-.69.21 1.55 1.55 0 00-.36 1.7 1.9 1.9 0 001.38 1.11 1.28 1.28 0 001-.13.72.72 0 00.3-.88.16.16 0 00-.18.2zM5.08 64.78a5.34 5.34 0 00-1.41-2 .86.86 0 00-.33-.2.73.73 0 00-.69.21 1.55 1.55 0 00-.36 1.7 1.94 1.94 0 001.39 1.12 1.29 1.29 0 001-.14.73.73 0 00.32-.83c-.1 0-.21.1-.18.2zM95.53 30.75a1.26 1.26 0 00.22-1.09 1.23 1.23 0 00-.49.16.42.42 0 00-.21.43c0 .23.31.33.54.4l-.17.09zM93.82 28.55a.42.42 0 000-.31.5.5 0 00-.23-.2 4.91 4.91 0 01-.71-.48l.26 1.4a.4.4 0 010 .11c0 .13-.2.15-.29.24s-.07.37 0 .53c.77 1.16.86-.71.97-1.29zM97.27 32.65a1 1 0 00.43-.73h-.72a.58.58 0 00-.32.06.38.38 0 000 .57.53.53 0 00.61.07zM97 28.88a.38.38 0 000-.53.52.52 0 00-.53-.15c-.09 0-.18.07-.18.16a.28.28 0 00.1.14l.61.5zM100.4 29.05a1.36 1.36 0 00.18-.58.51.51 0 00-.27-.51.44.44 0 00-.3 0 .57.57 0 10.38 1.08zM101.31 18.68c-.14-.16-.39-.11-.59 0s-.43.15-.59 0a.2.2 0 01-.09-.15c0-.14.21-.16.35-.23a1.31 1.31 0 00.27-.21.71.71 0 01.79 0 .44.44 0 010 .43.39.39 0 01-.4.14z"/><path class="cls-2" d="M97 15.79c-.14-.16-.39-.11-.59 0s-.43.16-.6 0a.18.18 0 01-.08-.14c0-.15.21-.17.34-.23a1.51 1.51 0 00.28-.22.71.71 0 01.79 0 .4.4 0 010 .42.41.41 0 01-.4.15zM96.55 12a1.17 1.17 0 00-.11-.49.18.18 0 000-.07.16.16 0 00-.15 0 .33.33 0 00-.21.3.4.4 0 00.18.33.3.3 0 00.2.06.17.17 0 00.13-.15h-.05zM102.21 35.89a1.25 1.25 0 00.22-1.09 1.3 1.3 0 00-.43.2.44.44 0 00-.22.44c0 .23.32.33.54.39l-.17.1zM98.67 36.58a.34.34 0 00.41-.41.59.59 0 00-.37 0 .27.27 0 00-.19.29.19.19 0 00.28.13zM99.85 30.27a.34.34 0 00.41-.41.67.67 0 00-.37 0 .29.29 0 00-.2.29.21.21 0 00.29.14zM100.42 36.65c-.09.13 0 .31.2.34s.32 0 .47 0a.56.56 0 01.41.23.3.3 0 010 .27.35.35 0 01-.14.13 1.7 1.7 0 01-.87.29.81.81 0 01-.74-.47.6.6 0 01.11-.6.61.61 0 01.58-.21zM99.2 18.41c-.09.13 0 .31.2.34s.32 0 .47 0a.54.54 0 01.41.24.27.27 0 010 .26.35.35 0 01-.14.13 1.7 1.7 0 01-.87.29.8.8 0 01-.74-.46.62.62 0 01.69-.82zM101.19 18c-.1.13 0 .31.2.34s.31 0 .47 0a.55.55 0 01.41.24.27.27 0 010 .26.29.29 0 01-.14.13 1.7 1.7 0 01-.87.29.8.8 0 01-.74-.46.61.61 0 01.1-.61.59.59 0 01.58-.2zM101.23 21.1c-.09.13 0 .31.2.34s.32 0 .47 0a.56.56 0 01.41.23.27.27 0 010 .27c0 .06-.08.09-.13.13a1.77 1.77 0 01-.88.29.8.8 0 01-.74-.46.63.63 0 01.11-.61.61.61 0 01.58-.21zM79.66 16.88c-.09.12 0 .3.2.34a3.69 3.69 0 00.47 0 .62.62 0 01.41.24.29.29 0 010 .27.33.33 0 01-.14.12 1.7 1.7 0 01-.87.29.79.79 0 01-.74-.46.6.6 0 01.69-.81zM98 34.48v-.25a.5.5 0 00-.38 0c-.11.08-.12.27 0 .32a.34.34 0 00.14 0l.46-.1zM89.21 20.48a1.52 1.52 0 00.19-.58.52.52 0 00-.28-.51.44.44 0 00-.3 0 .57.57 0 10.38 1.07zM103.11 30.72a.42.42 0 01-.54.47 1.26 1.26 0 01-.16-.46.75.75 0 01.53 0z"/><path class="cls-3" d="M90 18a.86.86 0 000-.35.28.28 0 00-.21-.26c-.19 0-.33.18-.52.23s-.42-.05-.58.06a.34.34 0 000 .5.81.81 0 00.55.13 1 1 0 00.5-.1.39.39 0 00.17-.45z"/><path class="cls-2" d="M99.46 22.85a2.45 2.45 0 001.74-1.62 2.56 2.56 0 00-2.2-.88 1.56 1.56 0 00-1.31 1.77 1.13 1.13 0 001.91.42zM105 30.39a.21.21 0 01-.26-.16.38.38 0 01.08-.32.32.32 0 01.14-.14.29.29 0 01.38.15.31.31 0 01-.18.38.33.33 0 01-.39-.16zM102.27 26.75c-.18-.1-.41 0-.57.16s-.35.29-.55.23A.18.18 0 01101 27c0-.14.15-.23.25-.33a1.32 1.32 0 00.19-.29.7.7 0 01.73-.3.42.42 0 01.12.41.39.39 0 01-.33.27zM96.58 23.3l-.06-.23a.3.3 0 00-.33.16.25.25 0 00.15.32.21.21 0 00.25-.22zM99.47 26.86a.17.17 0 01-.21.12.37.37 0 01-.2-.17.52.52 0 01-.09-.2.32.32 0 01.22-.33.38.38 0 01.4.11.26.26 0 01.09.18.14.14 0 01-.13.14zM93.29 30a2.44 2.44 0 002.37-.09 2.58 2.58 0 00-1.1-2.11 1.56 1.56 0 00-2.15.49c-.36.73.38 1.8 1.17 1.56zM98.75 33.47c.12-.21-.22-.43-.44-.33a.94.94 0 00-.37.6.86.86 0 00.93-.18zM105.39 27.71v-.23a.3.3 0 00-.33.16.25.25 0 00.15.32.21.21 0 00.25-.22z"/><path class="cls-2" d="M101 28a5.79 5.79 0 00-.43-2.57.84.84 0 00-.22-.36.81.81 0 00-.75-.07 1.68 1.68 0 00-1.17 1.47 2.09 2.09 0 00.8 1.76 1.42 1.42 0 001 .34.79.79 0 00.71-.71.17.17 0 00-.27.1zM86.67 26.26a2.47 2.47 0 00.42-2.34 2.58 2.58 0 00-2.3.62 1.55 1.55 0 000 2.2c.64.52 1.84 0 1.78-.8zM95.6 13.43a1.25 1.25 0 00.22-1.09 1.66 1.66 0 00-.49.16.45.45 0 00-.21.44c0 .23.31.33.54.39l-.17.1zM93.9 11.24a.5.5 0 000-.32.48.48 0 00-.23-.19 4.27 4.27 0 01-.71-.49l.26 1.4a.48.48 0 010 .12c0 .12-.2.15-.29.24s-.07.37 0 .53c.76 1.15.85-.71.97-1.29zM102.32 25.81l-.06-.41a.66.66 0 00-.56.53c0 .28.3.55.54.41s.34-.29.43-.14zM93.58 17.65a.5.5 0 010 .34 1 1 0 01-.41-.76c0-.16 0-.37.12-.46a1.22 1.22 0 01.34 0c.23 0 .46-.28.65-.15a.29.29 0 01.06.36.9.9 0 01-.27.28l-.7.51zM89.22 18.92c.11-.21-.22-.43-.44-.33a.94.94 0 00-.37.6.86.86 0 00.93-.18z"/><path class="cls-3" d="M90.54 13.93a.22.22 0 01-.3 0 .41.41 0 01-.14-.3.42.42 0 010-.19.29.29 0 01.4-.11.3.3 0 01.08.41.33.33 0 01-.41.11z"/><path class="cls-2" d="M92.06 14.12a.34.34 0 00.41-.41.67.67 0 00-.37 0 .31.31 0 00-.2.29.2.2 0 00.28.14zM97.34 15.34a1 1 0 00.43-.73h-.72a.68.68 0 00-.32.07.37.37 0 000 .57.54.54 0 00.61.07z"/><path class="cls-3" d="M88 16.18a.42.42 0 01-.44.15.43.43 0 01-.32-.35c0-.11 0-.26.16-.26a.22.22 0 01.13.06l.53.34-.07.09zM84.77 15.49c-.13-.16-.39-.11-.58 0s-.43.15-.6 0a.17.17 0 01-.08-.14c0-.15.21-.17.34-.23a1.93 1.93 0 00.28-.22.69.69 0 01.78 0 .38.38 0 010 .42.41.41 0 01-.4.15zM103.45 18.8c-.14-.16-.39-.11-.59 0s-.43.15-.59 0a.2.2 0 01-.09-.15c0-.14.21-.16.35-.23a1.31 1.31 0 00.27-.21.71.71 0 01.79 0 .42.42 0 010 .43.37.37 0 01-.39.14zM85.25 13.45v-.24a.3.3 0 00-.37 0 .24.24 0 000 .34.2.2 0 00.31-.12z"/><path class="cls-2" d="M93.81 14.19c-.1.13 0 .31.2.34s.31 0 .47 0a.52.52 0 01.4.24.26.26 0 01.05.26.29.29 0 01-.14.13 1.7 1.7 0 01-.87.29.79.79 0 01-.74-.46.6.6 0 01.68-.81zM97.07 11.57a.38.38 0 000-.53.54.54 0 00-.53-.16c-.09 0-.18.08-.18.16a.24.24 0 00.1.14l.56.46zM91.88 21.05a.65.65 0 01-.88-.45 1.69 1.69 0 01.9-.17.56.56 0 01.46.67l-.48.25z"/><path class="cls-3" d="M91.38 12v-.25a.55.55 0 00-.38 0c-.11.07-.13.27 0 .31a.22.22 0 00.14 0l.46-.06z"/><path class="cls-2" d="M101.46 31.73a1.77 1.77 0 00.18-.58.51.51 0 00-.28-.51.44.44 0 00-.3 0 .59.59 0 00-.37.74.58.58 0 00.75.33zM90.39 26.55l-.06-.42a.69.69 0 00-.32 0 .39.39 0 00.3.46zM103.59 42.37a.22.22 0 01-.31 0 .48.48 0 01-.1-.5.29.29 0 01.4-.11.31.31 0 01.08.41.33.33 0 01-.41.11zM92.06 23.52v-.42a.85.85 0 00-.32 0 .4.4 0 00.3.47zM103.38 21.56c.13-.1.05-.31-.09-.39s-.31-.07-.45-.13a.58.58 0 01-.32-.35.26.26 0 010-.27.4.4 0 01.16-.08 1.8 1.8 0 01.92 0 .8.8 0 01.58.66.62.62 0 01-.9.58zM99 28.66a.85.85 0 00-.15.32.32.32 0 00.13.31c.17.09.37-.07.57-.06s.38.17.56.11.22-.33.12-.49a.85.85 0 00-.49-.29.89.89 0 00-.51 0 .37.37 0 00-.29.37zM97.75 19.71a4.78 4.78 0 001 1.89.94.94 0 00.26.23.7.7 0 00.64-.09 1.4 1.4 0 00.54-1.44 1.67 1.67 0 00-1.05-1.16 1.17 1.17 0 00-.88 0 .65.65 0 00-.37.73.14.14 0 00.11-.17zM102.92 20.12a.47.47 0 00.27-.16.52.52 0 000-.3 4.8 4.8 0 01.07-.85l-1.09.91a.15.15 0 01-.09.06c-.13 0-.23-.1-.36-.13s-.35.12-.44.29c-.58 1.22 1.08.36 1.64.18z"/><path class="cls-2" d="M97.9 19.62v-.24a.27.27 0 00-.36 0 .25.25 0 000 .35.21.21 0 00.32-.11zM101.54 18.33a.37.37 0 00.47-.22.56.56 0 00-.13-.55c-.06-.06-.15-.12-.22-.07a.23.23 0 00-.08.16l-.11.71zM99 18.61a1.27 1.27 0 001.05-.35 1.4 1.4 0 00-.38-.35.46.46 0 00-.48 0c-.18.16-.14.44-.08.67l-.16-.1zM97.36 17.92a.6.6 0 01-.3.17.94.94 0 01.46-.73c.13-.11.3-.21.45-.13s.14.18.21.27.47.27.45.5a.29.29 0 01-.28.23 1 1 0 01-.38-.1l-.78-.36zM101.23 20a1 1 0 00.84 0l-.36-.61a.6.6 0 00-.22-.25.37.37 0 00-.51.24.53.53 0 00.24.57zM100.47 16.4c-.16 0-.25.19-.2.34s.18.26.24.41a.55.55 0 010 .47.28.28 0 01-.2.17.35.35 0 01-.18-.06 1.77 1.77 0 01-.69-.61.8.8 0 010-.87.61.61 0 01.56-.25.59.59 0 01.47.4zM96.29 25.65a1.69 1.69 0 00.6-.13.52.52 0 00.3-.5.45.45 0 00-.14-.26.57.57 0 10-.74.86zM100.88 25.93a1.24 1.24 0 001.05-.35 1.24 1.24 0 00-.38-.34.42.42 0 00-.48 0c-.18.16-.13.44-.07.67l-.17-.1zM96.87 17.37c-.12-.17-.38-.14-.58-.08s-.44.13-.6 0a.21.21 0 01-.07-.15c0-.14.22-.15.36-.2a1.37 1.37 0 00.29-.2.73.73 0 01.79 0 .4.4 0 01-.06.42.39.39 0 01-.41.12zM96 33.44l-.11-.22a.29.29 0 00-.28.23.26.26 0 00.22.28.21.21 0 00.19-.27zM100 21.57l.23-.12a.58.58 0 00-.21-.31c-.12-.06-.3 0-.28.15a.28.28 0 00.08.12l.31.34z"/><path d="M85.11 54.38H30.32a3.26 3.26 0 01-3.26-3.29c.08-10 1.16-32.45 1.57-40.67a3.25 3.25 0 013.25-3.1h50.46a3.26 3.26 0 013.25 3c.78 8.75 2.23 31.86 2.77 40.64a3.26 3.26 0 01-3.25 3.42z" fill="url(#Áåçûìÿííûé_ãðàäèåíò_292)"/><path d="M85.3 52.59H30.52a3.26 3.26 0 01-3.26-3.29c.08-10 1.16-32.45 1.57-40.68a3.25 3.25 0 013.25-3.09h50.46a3.27 3.27 0 013.25 3c.78 8.75 2.23 31.85 2.77 40.64a3.26 3.26 0 01-3.26 3.42z" fill="#18a3e5"/><path d="M85.11 52.86H30.32a3.26 3.26 0 01-3.26-3.28c.08-10 1.16-32.46 1.57-40.68a3.25 3.25 0 013.25-3.1h50.46a3.26 3.26 0 013.25 3c.78 8.75 2.23 31.86 2.77 40.64a3.26 3.26 0 01-3.25 3.42z" fill="url(#Áåçûìÿííûé_ãðàäèåíò_206)"/><path d="M86.05 50.38H29.58c-1.12-8.61-1.27-11.16-.68-19.31 1-1.82 3.37-7.07 6-7.29a4.26 4.26 0 013.06 1.39l.17.15a18.42 18.42 0 011.59 1.77c1.22 1.53 2.31 3.23 3.14 4.27a.39.39 0 00.08.1c4.4 5.4 7.36 6.75 10.53 6.71a2 2 0 001.18-.48 8.68 8.68 0 001.56-1.65c4.08-5.33 9.61-18.95 16.63-21.18C81.64 12.1 86 24.28 86 24.28a157.89 157.89 0 01.05 26.1z" fill="url(#Áåçûìÿííûé_ãðàäèåíò_302)"/><path class="cls-8" d="M77.87 72.84a9.05 9.05 0 00-3.7-1.76 1.85 1.85 0 00-.66 0 1.28 1.28 0 00-.86.89 2.63 2.63 0 00.86 2.83 3.24 3.24 0 003 .53 2.24 2.24 0 001.36-1 1.26 1.26 0 00-.29-1.56.27.27 0 00-.1.44z"/><path class="cls-8" d="M73.68 73.53a1.69 1.69 0 00-1.11-1.18 1.76 1.76 0 00-.57 1.52 1.07 1.07 0 001.21.88c.55-.14.76-1 .28-1.3zM69.16 71.26a.83.83 0 00-.07-.75.84.84 0 00-.29.2.31.31 0 000 .33c.08.14.27.15.43.15l-.09.09zM70.16 71.54a.3.3 0 01.19.14.65.65 0 01-.58-.09c-.1 0-.22-.13-.21-.24s.08-.14.12-.21 0-.37.18-.42a.19.19 0 01.22.11.61.61 0 010 .27v.58z"/><path class="cls-9" d="M57.72 66.91c-.07-.15-.33 0-.36.11a.6.6 0 00.18.44.58.58 0 00.28-.58z"/><path class="cls-8" d="M55.05 72.15a.16.16 0 01-.11.18.28.28 0 01-.22 0 .32.32 0 01-.1-.1A.19.19 0 1155 72a.22.22 0 01-.1.27zM67 72.41a.22.22 0 00.19-.34.41.41 0 00-.24.06.19.19 0 00-.07.23.13.13 0 00.21 0zM70.67 72.16a.66.66 0 00.14-.56l-.47.15a.56.56 0 00-.2.11.27.27 0 00.09.38.37.37 0 00.41-.07z"/><path class="cls-9" d="M57.25 71.66h-.16a.2.2 0 00.12.22.15.15 0 00.21-.1.14.14 0 00-.15-.17z"/><path class="cls-8" d="M68.14 72.11c0 .1.09.2.2.19s.2-.08.31-.1a.4.4 0 01.31.08.18.18 0 01.08.16.26.26 0 01-.07.11 1.09 1.09 0 01-.51.36.55.55 0 01-.57-.15.43.43 0 010-.42.41.41 0 01.33-.25zM69.75 69.75a.25.25 0 00-.08-.35.37.37 0 00-.38 0c-.05 0-.1.08-.08.13a.23.23 0 00.09.08l.46.18zM63.67 68.18a.43.43 0 01-.61.32 1.05 1.05 0 01.27-.56.37.37 0 01.55 0l-.06.37zM83.22 76.22a.1.1 0 01.08.14.25.25 0 01-.11.14.35.35 0 01-.14.06.22.22 0 01-.22-.15.27.27 0 01.07-.27.13.13 0 01.12-.06.09.09 0 01.1.08zM66.13 71.18v-.17a.42.42 0 00-.24.09c-.06.07 0 .2.06.21a.32.32 0 00.09 0l.28-.16zM63.12 70.64a1.2 1.2 0 00-.25-.34.35.35 0 00-.39 0 .31.31 0 00-.12.16.4.4 0 00.25.51.41.41 0 00.49-.29zM62.38 69.35l-.25-.13a.45.45 0 00-.11.19.28.28 0 00.38 0zM70.41 65.09a3.63 3.63 0 00-1.64 0 .55.55 0 00-.25.1.49.49 0 00-.16.46 1.07 1.07 0 00.79.89 1.33 1.33 0 001.17-.31.87.87 0 00.32-.59.5.5 0 00-.36-.52.11.11 0 000 .18zM70.69 76.48a.86.86 0 00-.51-.56 1 1 0 00-.11.33.31.31 0 00.15.3c.15.06.31 0 .44-.14v.13zM68.8 76.53a.36.36 0 00-.18-.12.29.29 0 00-.2 0 4 4 0 01-.55.19l.87.42h.06c.01 0 0 .18 0 .27s.17.18.3.19c.95.15-.04-.65-.3-.95zM72.44 76.29a.65.65 0 00-.23-.52l-.28.39a.58.58 0 00-.1.21.26.26 0 00.3.25.35.35 0 00.28-.3zM81.72 79.07h-.16a.2.2 0 00.11.22.16.16 0 00.22-.1.14.14 0 00-.15-.17zM70.26 74.92a.26.26 0 00-.27-.24.39.39 0 00-.31.23v.16c0 .03.08 0 .12 0l.47-.13zM71.73 73.12a1.2 1.2 0 00-.25-.34.37.37 0 00-.39 0 .4.4 0 00-.13.16.39.39 0 10.75.23zM66.4 68.43c-.15 0-.22.17-.26.31s-.09.3-.22.34a.16.16 0 01-.12 0c-.08-.07 0-.19 0-.29a1.85 1.85 0 000-.23.48.48 0 01.3-.45.27.27 0 01.22.18.26.26 0 01-.08.28z"/><path class="cls-8" d="M63.08 69.61c-.15 0-.22.17-.26.31s-.09.3-.23.34a.14.14 0 01-.11 0c-.08-.06 0-.18 0-.28a1.93 1.93 0 000-.24.48.48 0 01.3-.45.27.27 0 01.14.47zM60.78 68.33a.73.73 0 00-.31-.14h-.06a.1.1 0 00-.07.08.21.21 0 00.08.23.28.28 0 00.25 0 .2.2 0 00.11-.09.1.1 0 000-.13zM76.22 74.89a.86.86 0 00-.51-.56.65.65 0 00-.11.33.27.27 0 00.15.29c.15.07.31 0 .43-.13V75zM75.16 77.11a.23.23 0 00-.06-.39.43.43 0 00-.15.2.18.18 0 00.08.22c.07 0 .19 0 .18-.09zM72.17 73.92a.23.23 0 000-.39.37.37 0 00-.16.19.19.19 0 00-.01.28.14.14 0 00.19-.1zM75.91 76.18c0 .1.19.1.27 0s.11-.18.18-.26a.43.43 0 01.3-.13.19.19 0 01.16.08.3.3 0 010 .13 1.16 1.16 0 01-.2.6.53.53 0 01-.55.22.42.42 0 01-.29-.31.4.4 0 01.12-.4zM65.4 69.48c0 .1.18.1.26 0s.12-.18.19-.26a.39.39 0 01.3-.13.16.16 0 01.17.21 1.15 1.15 0 01-.19.6.57.57 0 01-.55.22.42.42 0 01-.29-.31.4.4 0 01.12-.4zM66 68.21c0 .1.19.1.27 0a2.48 2.48 0 00.19-.26.35.35 0 01.29-.12.18.18 0 01.17.08.28.28 0 010 .13 1.21 1.21 0 01-.19.59.54.54 0 01-.56.22.44.44 0 01-.29-.3.43.43 0 01.13-.4zM67.69 69.45c0 .1.19.1.27 0a2.48 2.48 0 00.19-.26.39.39 0 01.29-.13.2.2 0 01.17.08.2.2 0 010 .13 1.15 1.15 0 01-.19.6.53.53 0 01-.55.22.43.43 0 01-.3-.3.44.44 0 01.13-.41zM56.66 79.59c0 .11.18.1.26 0a2.48 2.48 0 00.19-.26.43.43 0 01.3-.13.2.2 0 01.16.09.17.17 0 010 .12 1.15 1.15 0 01-.19.6.53.53 0 01-.55.22.42.42 0 01-.29-.3.4.4 0 01.12-.4zM73.73 76.64l-.13-.11a.35.35 0 00-.14.22c0 .09.1.18.17.13a.24.24 0 00.06-.08l.12-.29zM62.5 75.8a1 1 0 00-.25-.33.35.35 0 00-.39-.06.37.37 0 00-.13.17.39.39 0 10.75.22zM73.74 72.31a.29.29 0 010 .48.71.71 0 01-.32-.1.45.45 0 01.21-.29z"/><path class="cls-9" d="M61.45 74.35a.52.52 0 00-.17-.16.19.19 0 00-.23 0c-.1.09 0 .26-.08.38s-.2.21-.2.34.16.21.29.18a.54.54 0 00.29-.25.55.55 0 00.14-.31.27.27 0 00-.17-.28z"/><path class="cls-8" d="M67.94 71.13a1.66 1.66 0 00-.19-1.61 1.76 1.76 0 00-1.38.86 1.07 1.07 0 00.45 1.43c.52.21 1.21-.35 1-.88zM74.32 71.14a.16.16 0 01-.2.08.26.26 0 01-.14-.17.23.23 0 010-.14.19.19 0 01.24-.14.2.2 0 01.13.25.23.23 0 01-.25.15zM71.22 71.17c-.13 0-.15.23-.14.37a.46.46 0 01-.1.4h-.11c-.03 0-.07-.17-.08-.27a1 1 0 00-.09-.22.47.47 0 01.14-.52.28.28 0 01.27.1.28.28 0 010 .29zM67 72.9l-.15-.07a.2.2 0 000 .25.16.16 0 00.23 0 .15.15 0 000-.23zM70.15 72.75a.12.12 0 010 .16.28.28 0 01-.15.09.32.32 0 01-.14 0 .22.22 0 01-.1-.26.29.29 0 01.22-.17.17.17 0 01.14 0 .1.1 0 010 .13zM69.36 77.4a1.64 1.64 0 00.91-1.34 1.77 1.77 0 00-1.6-.25 1.07 1.07 0 00-.6 1.38.77.77 0 001.33 0zM73.49 75.81c-.07-.14-.33 0-.36.11a.6.6 0 00.18.44.55.55 0 00.27-.57zM73 69.84l-.15-.07a.21.21 0 000 .25.18.18 0 00.24 0 .15.15 0 000-.23z"/><path class="cls-8" d="M71.41 72.37a3.9 3.9 0 00-1.58-.81.71.71 0 00-.29 0 .56.56 0 00-.38.37 1.15 1.15 0 00.34 1.24 1.4 1.4 0 001.28.27.94.94 0 00.6-.42.53.53 0 00-.1-.68.12.12 0 000 .19zM64.64 79.54a1.65 1.65 0 00-1.11-1.18 1.74 1.74 0 00-.59 1.51 1.06 1.06 0 001.22.88.76.76 0 00.27-1.3zM61.21 69.45a.88.88 0 00-.51-.57.85.85 0 00-.11.34.29.29 0 00.15.29c.15.07.31 0 .44-.14v.13zM59.31 69.5a.3.3 0 00-.17-.13.41.41 0 00-.21 0 3.24 3.24 0 01-.55.19l.88.43h.06c.06.07 0 .17 0 .26s.18.19.31.19c.94.16-.05-.65-.32-.94zM70.72 70.76l-.25-.14a.47.47 0 00.07.53A.28.28 0 0071 71c0-.11 0-.3.09-.29zM62.7 72.26a.3.3 0 01.19.14.65.65 0 01-.58-.09c-.1 0-.21-.13-.2-.24a.61.61 0 01.11-.21c.07-.14 0-.37.18-.42a.19.19 0 01.22.11.5.5 0 01.05.27v.59zM61.64 75.17c-.07-.15-.33-.06-.36.1a.64.64 0 00.18.45.57.57 0 00.28-.58z"/><path class="cls-9" d="M59.44 72.43a.15.15 0 01-.12.17.26.26 0 01-.22 0 .26.26 0 01-.09-.09.2.2 0 01.1-.26.21.21 0 01.26.12.22.22 0 01-.1.27z"/><path class="cls-8" d="M60.15 71.67a.23.23 0 000-.39.35.35 0 00-.16.2.19.19 0 00.08.22.13.13 0 00.19-.1zM63 69.26a.67.67 0 00-.23-.53l-.28.4a.42.42 0 00-.1.2.27.27 0 00.3.26.35.35 0 00.28-.31z"/><path class="cls-9" d="M59.65 74.73a.3.3 0 01-.1.31.31.31 0 01-.32 0c-.07 0-.13-.13-.08-.19a.14.14 0 01.08 0l.41-.16v.06zM58 76.22c-.14 0-.22.17-.26.31s-.09.3-.22.34a.14.14 0 01-.11 0c-.08-.06 0-.19 0-.28a1 1 0 000-.24.49.49 0 01.3-.45.27.27 0 01.22.19.25.25 0 01-.08.27zM67.33 67.31c-.14 0-.22.16-.26.3s-.09.3-.22.34a.17.17 0 01-.12 0c-.07-.06 0-.18 0-.28a1.93 1.93 0 000-.24A.49.49 0 0167 67a.28.28 0 01.22.19.27.27 0 01-.08.28zM57 75.14l-.09-.14a.2.2 0 00-.12.21.17.17 0 00.21.13.14.14 0 000-.22z"/><path class="cls-8" d="M60.9 70.74c0 .1.19.1.27 0s.11-.18.19-.26a.35.35 0 01.29-.12.17.17 0 01.16.08.27.27 0 010 .13 1.13 1.13 0 01-.2.59.53.53 0 01-.55.22.4.4 0 01-.29-.3.43.43 0 01.12-.4zM60.78 67.88a.26.26 0 00-.28-.23.38.38 0 00-.3.23v.16a.17.17 0 00.12 0l.47-.12zM63.89 74.57a.44.44 0 01-.62.32 1.05 1.05 0 01.27-.56.37.37 0 01.55 0v.36z"/><path class="cls-9" d="M58.72 71.19l-.13-.1a.4.4 0 00-.14.22c0 .08.1.18.17.13a.18.18 0 00.06-.09l.13-.29z"/><path class="cls-8" d="M73.62 73.62a1 1 0 00-.24-.34.37.37 0 00-.39 0 .33.33 0 00-.13.16.41.41 0 00.25.51.41.41 0 00.49-.28zM66.3 77.61l-.25-.14a.72.72 0 00-.11.19.27.27 0 00.38 0zM80.33 76.75a.16.16 0 01-.11.18.3.3 0 01-.22-.05.2.2 0 010-.35.21.21 0 01.26.12.23.23 0 01-.11.26zM65.32 75.46l-.26-.13a.59.59 0 00-.11.19.29.29 0 00.38 0zM68.81 68.45c0-.1-.15-.14-.25-.1s-.16.14-.25.19a.4.4 0 01-.32 0 .19.19 0 01-.13-.13.23.23 0 010-.12 1.19 1.19 0 01.36-.52.57.57 0 01.6 0 .43.43 0 01.18.38.41.41 0 01-.23.35zM71 73.73a.63.63 0 00.12.21.19.19 0 00.22 0c.12 0 .11-.23.19-.34s.25-.13.29-.26-.09-.25-.22-.26a.58.58 0 00-.36.15.72.72 0 00-.23.26.26.26 0 00.09.31zM65.52 70.8A3.2 3.2 0 0067 71a.86.86 0 00.23-.05.5.5 0 00.21-.39 1 1 0 00-.57-.88 1.17 1.17 0 00-1.07.11.77.77 0 00-.36.47.46.46 0 00.25.51.09.09 0 000-.16zM67.84 68.13a.42.42 0 000-.22.43.43 0 00-.15-.15 3.86 3.86 0 01-.44-.38c0 .32 0 .65.07 1a.25.25 0 010 .08c0 .08-.15.08-.22.14s-.07.24 0 .36c.41.81.61-.45.74-.83z"/><path class="cls-8" d="M65.53 70.68l-.11-.12a.2.2 0 00-.14.21.16.16 0 00.2.13.13.13 0 00.07-.21zM66.3 68.17a.26.26 0 00.06-.36.38.38 0 00-.35-.15c-.05 0-.12 0-.13.1a.15.15 0 00.06.1l.34.35zM65.41 69.69a.86.86 0 00.23-.72.94.94 0 00-.34.07.3.3 0 00-.18.28c0 .16.19.25.33.31l-.12.05zM64.38 70.29a.4.4 0 010 .24.65.65 0 01-.22-.55c0-.11 0-.25.11-.3s.16 0 .23 0 .34-.15.46 0a.18.18 0 010 .24.58.58 0 01-.21.17l-.51.29zM67.11 69a.64.64 0 00.34-.46h-.48a.58.58 0 00-.23 0 .26.26 0 00-.07.38.37.37 0 00.41.1zM64.8 68c-.07.08 0 .21.11.25s.22 0 .32 0a.39.39 0 01.26.19.21.21 0 010 .19.41.41 0 01-.11.07 1.09 1.09 0 01-.61.13.56.56 0 01-.47-.37.43.43 0 01.12-.4.44.44 0 01.41-.1zM68.19 74a1.11 1.11 0 00.18-.38.37.37 0 00-.15-.37.3.3 0 00-.21 0 .4.4 0 00-.31.47.41.41 0 00.49.28zM70.21 71.6a.87.87 0 00.23-.72.65.65 0 00-.34.07.29.29 0 00-.18.28c0 .16.18.25.33.3l-.12.06zM63.88 70.34c-.14 0-.23.15-.27.29s-.11.29-.25.32a.14.14 0 01-.11 0c-.08-.07 0-.18 0-.28a1.93 1.93 0 000-.24.47.47 0 01.33-.42.28.28 0 01.21.2.28.28 0 01-.1.27zM72.35 77.32h-.16a.2.2 0 000 .25.16.16 0 00.24 0 .14.14 0 00-.07-.21zM67.45 70.31v-.17a.39.39 0 00-.26 0c-.08 0-.11.18 0 .22a.17.17 0 00.1 0h.32z"/><path d="M48.22 54.45l-2.29-1.59s.81-12.8 4.56-18.64L46.7 27.8l-8.77 5.88-5.82 20.49z" style="mix-blend-mode:multiply" fill="url(#Áåçûìÿííûé_ãðàäèåíò_50)" opacity=".5"/><path d="M54.67 37.71a16.08 16.08 0 01-7.08 4.62s-4.86-11.57-9.66-17.16a.8.8 0 00.17.15 18.42 18.42 0 011.59 1.77c1.22 1.53 2.31 3.23 3.14 4.27a.39.39 0 00.08.1c4.4 5.4 7.36 6.75 10.53 6.71a2 2 0 001.23-.46z" style="mix-blend-mode:multiply" fill="url(#Áåçûìÿííûé_ãðàäèåíò_36)" opacity=".5"/><path d="M49.74 33.38L45 36.05l-.08-.3v-.06c-.54-1.92-3-10.72-3.77-12.18a11.32 11.32 0 015.09-1.76 16.28 16.28 0 012.17 3.83c.9 2.23 1.33 7.8 1.33 7.8z" fill="url(#Áåçûìÿííûé_ãðàäèåíò_354)"/><path d="M43.66 31.23l1.52.1 4.12-1.81.44 3.86L45 36.05z" fill="url(#Áåçûìÿííûé_ãðàäèåíò_322)"/><path d="M67.21 54.38l2.28-1.52a121.75 121.75 0 000-14.39l1 .35 8.29 9.75a28.9 28.9 0 00-1.16-9.13C76 34.88 69.78 27.7 69.78 27.7l8.61-1.7 5-1.5.47 8.34 1.28 9.81-6.75 11.73z" style="mix-blend-mode:multiply" fill="url(#Áåçûìÿííûé_ãðàäèåíò_50-2)" opacity=".5"/><path d="M33.51 58.56s3.73 18.9 12.35 28.51a25.89 25.89 0 01-12.07 2.27c-1.84-7-6.91-26.65-7.41-29.46-.89-5-1.55-3.13-2.56-10.61a112.25 112.25 0 01-.4-17.83 3.73 3.73 0 012.23-1.28 4.36 4.36 0 011.35 0 31 31 0 014.56 1 13.9 13.9 0 012-.44 10.65 10.65 0 012.7.25 6.16 6.16 0 013.27-.89l2.8-3.41.94 3.1a66.22 66.22 0 00-2.57 6.92c-.71 2.64-1.51 9.43-1.51 9.43a42.3 42.3 0 004-4.53 3.22 3.22 0 00.3-.66 18.61 18.61 0 00.4-2.51v-.15a7.29 7.29 0 01.26-1c.8-2.31 3.33-4.42 4.61-4.65a3.17 3.17 0 01.73-.06 2.29 2.29 0 011.48.53c.19.19-4.15 6.27-5.14 9-.47 1.3-1 3.06-1.59 4.8a27.72 27.72 0 01-2.13 5.15c-.69 1.21-5.59 5.16-8.6 6.52z" fill="url(#Áåçûìÿííûé_ãðàäèåíò_53)"/><path d="M48 24.61a1.93 1.93 0 011 3.09z" fill="url(#Áåçûìÿííûé_ãðàäèåíò_26)"/><path d="M97.05 44.66c-.18 1.09-7.48 12-9.67 15.47a14.84 14.84 0 00.51 1.45A37.52 37.52 0 0093 70.33a28.06 28.06 0 01-6.58 1.84c-.19 0-.38.07-.58.09-1.45-3.15-3.1-6.73-4.21-9.07-.6-1.27-1-2.17-1.21-2.44-.51-.83-2.94-2.72-4.84-4.46a11.86 11.86 0 01-2.18-2.36 1.55 1.55 0 01-.15-.28c-.69-1.76-1-7.25-2.15-10.83-.88-2.68-1.63-4.38-2-5.32a2.55 2.55 0 01-.17-.71c0-.62 3.62-6.74 3.62-6.74l2.93 1.08A6.53 6.53 0 0173 36.74a14.41 14.41 0 001.42 5.52 10 10 0 004.32 4.94.17.17 0 00.12 0c.27-.14 2.48-5.8 3.43-10.85 0-.22.08-.45.11-.66v-.21c.08-.54.13-1.07.17-1.6a32.39 32.39 0 00-.37-7.7l-.07.05a16.83 16.83 0 01-4.72 2.37 2.55 2.55 0 01-.71.05 4.63 4.63 0 01-2.55-1 1.55 1.55 0 01-.6-.85 18.92 18.92 0 004.33-2.38c1.77-1.37 3.62-3.2 4.12-3.42h.08c.33 0 1.6-.31 2.78 1.6.5.81 1.23 5.2 1.23 5.2a28.13 28.13 0 012.68 2.44A4.43 4.43 0 0190 32.59s2.88 2.77 3.35 3.46a12.19 12.19 0 01.76 1.47l.27.59c.43.92.88 1.87 1.19 2.36a12.42 12.42 0 011.37 2.94v.15a1.21 1.21 0 010 .18.5.5 0 010 .12.49.49 0 01.06.14.15.15 0 010 .07v.09a1.78 1.78 0 01.05.5z" fill="url(#Áåçûìÿííûé_ãðàäèåíò_53-2)"/><circle cx="58.8" cy="15.96" r="5.98" transform="rotate(-45 58.8057597 15.97185679)" fill="#6dffe8"/><path d="M94.42 33l-21.13-6.3s-3.8-.07-3.93.34 2.83 2.81 2.83 2.81L93 37.73A5.71 5.71 0 0194.42 33z" fill="url(#Áåçûìÿííûé_ãðàäèåíò_46)"/><path style="mix-blend-mode:soft-light" fill="#fff" d="M93.95 32.88l-.81.71-20.13-6.47.28-.4 20.66 6.16z"/><path class="cls-21" d="M97 43.56v.09a5.44 5.44 0 00-2-2.71 4.91 4.91 0 00-2.54-2.11C91 37.15 88 37 88 37a12.78 12.78 0 00-5.37-2.89v-.28l11.74 4.26c.43.92.88 1.87 1.19 2.36a12.42 12.42 0 011.37 2.94z"/><path d="M72.09 26.72a6.87 6.87 0 003.15 2.08 5.24 5.24 0 003.15-.56l-5.1-1.52z" style="mix-blend-mode:multiply" fill="url(#Áåçûìÿííûé_ãðàäèåíò_9)" opacity=".5"/><path d="M82.25 26.15l-.07.05a16.88 16.88 0 01-4.72 2.37 3.26 3.26 0 01-1.73 0 3.81 3.81 0 01-1.53-1 2.94 2.94 0 01-.6-.85 18.92 18.92 0 004.33-2.38c1.77-1.37 3.62-3.2 4.12-3.42h.08a6.82 6.82 0 00.12 5.23z" fill="#fe9083"/><path d="M94 32.88l1.93.4s-1.85 1-1.5 5.19l-2.19-1s-.37-3.37 1.76-4.59z" fill="url(#Áåçûìÿííûé_ãðàäèåíò_206-2)"/><path d="M94.39 38.47a8.46 8.46 0 003.18.27 2.51 2.51 0 001.45-3c-.27-1.14-3.13-2.43-3.13-2.43a4.56 4.56 0 00-1.5 5.16z" fill="url(#Áåçûìÿííûé_ãðàäèåíò_65)"/><path d="M97.05 44.66c-.18 1.09-7.48 12-9.67 15.47a14.84 14.84 0 00.51 1.45c-2.74-1.27-6.28 1.61-6.28 1.61-.6-1.27-1-2.17-1.21-2.44-.78-1.25-5.92-4.94-7-6.82l-.15-.28s3.52-5.21.94-10.18a18.78 18.78 0 00-5-6 2.55 2.55 0 01-.17-.71c0-.62 3.62-6.74 3.62-6.74l2.93 1.08A6.53 6.53 0 0173 36.74a14.41 14.41 0 001.42 5.52 10 10 0 004.32 4.94c.25.55 2.08 1.37 2.59 1 1.89-1.19 4.27-10.68 3.27-11.56a4.53 4.53 0 00-2.2-1c-.1 0 .12-.06.12-.06l.09-1.79 11.46 3.71c.5 1.07 1.08 2.36 1.46 2.95.63.96 1.71 3.13 1.52 4.21z" style="mix-blend-mode:color-burn" fill="url(#Áåçûìÿííûé_ãðàäèåíò_22)" opacity=".2"/><path class="cls-21" d="M97 44v-.29.05a.5.5 0 010 .12.49.49 0 010 .12zM86.12 27.7l.72 3.06 1.32.39a28.64 28.64 0 00-2.04-3.45zM82.25 26.15a3.75 3.75 0 01-.82-2.62 31.41 31.41 0 01-1 3.55 22.53 22.53 0 01-2.53 1.38 13.43 13.43 0 004.35-2.31z"/><path d="M72.11 30.85a4.13 4.13 0 012.15 2.21c.55 1.56-1.3 3.42-1.3 3.42a5.18 5.18 0 01-2.5 0 2.79 2.79 0 002.58.76v-.5a6.15 6.15 0 002.5-5.61l-2.93-1.08z" style="mix-blend-mode:multiply" opacity=".2" fill="#ec6a6b"/><path class="cls-28" d="M71.32 32.22l1.09-2.3.44.13a4.05 4.05 0 01-1.53 2.17z"/><path class="cls-21" d="M74.27 41.88a30.57 30.57 0 003.36 7l1.12-1.7a12.55 12.55 0 01-4.48-5.3z"/><path d="M82.77 21.43c-1.7.51 1.27 8.49 1.27 8.49l2.8.84s-1.46-7.63-2.25-8.31-1.19-1.21-1.82-1.02z" opacity=".8" fill="#feb1a8"/><path class="cls-30" d="M87.41 39.55s-4.24 10.4-4.62 15c0 .01 4.69-9.85 4.62-15zM92.76 44L86 54.57s5.58-6.82 6.76-10.57z"/><path d="M86.4 72.17c-.19 0-.38.07-.58.09-1.45-3.15-3.1-6.73-4.21-9.07-.6-1.27-1-2.17-1.21-2.44-.51-.83-2.94-2.72-4.84-4.46s5 3.14 5.4 3.59c.26.3 2.94 7.37 5.44 12.29z" fill="url(#Áåçûìÿííûé_ãðàäèåíò_22-2)"/><path d="M44.26 46.91a27.72 27.72 0 01-2.13 5.15c-.71 1.19-5.61 5.14-8.62 6.5a38.92 38.92 0 002.75-7.68c1.52-5.47 4.22-17.11 3.46-18s-3.77 0-3.77 0a8.17 8.17 0 00-2.58 0c-.75.26-.94.73-1.88.76s-4.19-.09-5-.06a1.58 1.58 0 00-1 .28 13.66 13.66 0 01.31-3.39c.13-.21.64-.31 1.2-.34a31 31 0 014.56 1 13.9 13.9 0 012-.44 10.65 10.65 0 012.7.25 6.16 6.16 0 013.27-.89l2.8-3.41.94 3.1a66.22 66.22 0 00-2.57 6.92c-.71 2.64-1.51 9.43-1.51 9.43a42.3 42.3 0 004-4.53 3.22 3.22 0 00.3-.66 14 14 0 00.46 5.07c.11.41.22.69.31.94z" style="mix-blend-mode:color-burn" fill="url(#Áåçûìÿííûé_ãðàäèåíò_22-3)" opacity=".2"/><path class="cls-21" d="M26.85 33.16l.21-1.23 2.34.19a11 11 0 00-2.55 1.04z"/><path d="M35.82 30.94a17.19 17.19 0 01-3.71 2.64A24.09 24.09 0 0036.23 31z" style="mix-blend-mode:multiply" fill="url(#Áåçûìÿííûé_ãðàäèåíò_54)" opacity=".2"/><path d="M38.9 30.16a16.62 16.62 0 01-2.55 2.67s2-1.6 3.15-2.7z" style="mix-blend-mode:multiply" fill="url(#Áåçûìÿííûé_ãðàäèåíò_54-2)" opacity=".2"/><path d="M31.55 31.21l-3.1 1.21s1.67-.9 1.84-1.57z" style="mix-blend-mode:color-burn" fill="url(#Áåçûìÿííûé_ãðàäèåíò_54-3)" opacity=".5"/><path d="M33.51 58.56s-.88.57-1.4 2.89l5.15 10.08s-3.09-8.59-3.75-12.97z" style="mix-blend-mode:color-burn" fill="url(#Áåçûìÿííûé_ãðàäèåíò_22-4)" opacity=".2"/><path class="cls-21" d="M39.16 46.17v2.2a9.73 9.73 0 002.54-4.88z"/><path d="M92.28 35.67L72.09 28.9l.1 1 20 7.45a14.44 14.44 0 01.09-1.68z" style="mix-blend-mode:multiply" fill="url(#Áåçûìÿííûé_ãðàäèåíò_9-2)" opacity=".5"/><path d="M45.93 34.65l-1 1.1v-.06c-.54-1.92-3-10.72-3.77-12.18a12.66 12.66 0 012.26 2.2c.9 1.18 2.51 8.94 2.51 8.94z" style="mix-blend-mode:multiply" fill="url(#Áåçûìÿííûé_ãðàäèåíò_9-3)" opacity=".5"/><path class="cls-39" d="M26 34.43a8.31 8.31 0 003.21-.43s-1.21-.84-3.21.43zM31.1 34.07a6.84 6.84 0 002.9-.47s-1-.81-2.9.47zM35.5 33.76a6.41 6.41 0 002.9-.19s-.98-.9-2.9.19z"/><path class="cls-8" d="M41.17 23.51l2.38 2.39L48 24.61a16.47 16.47 0 00-1.74-2.86s-3.42.37-5.09 1.76z"/><g style="mix-blend-mode:soft-light"><path class="cls-41" d="M55.36 10.15a7.12 7.12 0 00-3.25-.62 1.22 1.22 0 00-.53.1 1 1 0 00-.49.87 2.15 2.15 0 001.25 2 2.64 2.64 0 002.44-.19 1.8 1.8 0 00.86-1.06 1 1 0 00-.54-1.16.21.21 0 000 .36zM41.51 10.09a1.36 1.36 0 00-1.11-.7 1.41 1.41 0 00-.15 1.3.86.86 0 001.13.45.63.63 0 00-.05-1.08zM48.23 10.68a.74.74 0 00-.23-.58.79.79 0 00-.19.22.24.24 0 000 .27c.09.09.24.06.37 0v.09zM49.07 10.69a.36.36 0 01.17.07.55.55 0 01-.47.06c-.09 0-.2-.07-.21-.16a.41.41 0 010-.18c0-.13 0-.29.06-.37a.15.15 0 01.19.05.42.42 0 01.09.19l.11.47zM38.39 9.59c-.08-.1-.27 0-.26.16s.13.23.23.31a.48.48 0 00.1-.51zM60.05 15.94a.59.59 0 00-.17-.1.18.18 0 00-.18.06c-.05.09 0 .21 0 .31s-.11.2-.08.31a.17.17 0 00.26.08.47.47 0 00.18-.25.45.45 0 000-.28c0-.09-.1-.18-.19-.17zM37.36 14.23a.13.13 0 010 .16.25.25 0 01-.19 0l-.17-.05a.15.15 0 010-.22.16.16 0 01.22 0 .18.18 0 010 .23zM46.75 12a.18.18 0 00.08-.31.37.37 0 00-.17.1.14.14 0 000 .19.1.1 0 00.17 0zM49.59 11.08a.52.52 0 000-.47l-.33.21a.4.4 0 00-.13.13.21.21 0 00.14.28.3.3 0 00.31-.14zM66.67 14.75a.24.24 0 010 .26.24.24 0 01-.25.09c-.06 0-.12-.07-.09-.13s0 0 0-.06l.29-.2zM64.48 15c0 .11.07.21.17.28s.2.15.2.26v.08c0 .01-.14 0-.21-.08a.6.6 0 00-.19-.06.4.4 0 01-.26-.35.24.24 0 01.2-.12.21.21 0 01.19.14zM63.41 15.37l-.12.07a.16.16 0 00.13.15.13.13 0 00.15-.12.11.11 0 00-.15-.11zM39 13.4l-.12.07a.16.16 0 00.13.15.14.14 0 00.15-.13.11.11 0 00-.15-.1zM47.6 11.55c0 .09.11.13.19.1a1.59 1.59 0 00.22-.13.34.34 0 01.26 0 .14.14 0 01.1.12.16.16 0 010 .09.9.9 0 01-.33.39.44.44 0 01-.48 0 .35.35 0 01-.12-.32.33.33 0 01.21-.26zM48.38 9.38a.21.21 0 00-.13-.26.29.29 0 00-.3.08s-.06.08 0 .12a.1.1 0 00.09 0l.39.05zM43.31 9.38a.35.35 0 01-.42.37.82.82 0 01.1-.49.31.31 0 01.43-.1v.3zM60.24 11.71s.09 0 .09.1a.22.22 0 01-.06.13.28.28 0 01-.09.07.17.17 0 01-.21-.07.21.21 0 010-.23.16.16 0 01.09-.07.08.08 0 01.09 0zM45.83 11.23l-.06-.13a.28.28 0 00-.17.13c0 .06 0 .16.08.15a.18.18 0 00.07-.05l.18-.18zM43.37 11.41a1 1 0 00-.26-.21.29.29 0 00-.32 0 .2.2 0 00-.06.15.32.32 0 00.3.34.31.31 0 00.32-.32zM42.53 10.56l-.22-.06a.48.48 0 00-.05.17.21.21 0 00.3-.06zM36.93 11.45a3 3 0 00-1.29.32.55.55 0 00-.17.13.43.43 0 000 .4.86.86 0 00.8.53 1.08 1.08 0 00.86-.48.72.72 0 00.13-.53.41.41 0 00-.39-.33.08.08 0 00.06.13zM50.48 14.46a.67.67 0 00-.51-.34.67.67 0 000 .28.23.23 0 00.18.2c.13 0 .23-.09.31-.2v.11zM59.47 13.22a.25.25 0 00-.16-.06.26.26 0 00-.15.07 2.7 2.7 0 01-.39.27l.77.15h.06c.06 0 0 .14.06.2s.17.11.28.09c.74-.12-.2-.54-.47-.72zM62.69 14.69a.36.36 0 01.17.07.55.55 0 01-.47.06c-.09 0-.2-.06-.21-.16a.41.41 0 010-.18c0-.13 0-.29.06-.36a.14.14 0 01.19 0 .46.46 0 01.09.2l.11.46zM60.16 15.49a.13.13 0 010 .16.23.23 0 01-.18 0l-.1-.05a.17.17 0 010-.23.18.18 0 01.23 0 .2.2 0 010 .24zM60.57 14.75a.19.19 0 00-.12-.3.37.37 0 00-.09.19.16.16 0 00.11.16c.07 0 .15-.05.13-.11zM51.81 14a.54.54 0 00-.28-.36l-.14.37a.27.27 0 000 .18.21.21 0 00.29.13.28.28 0 00.12-.32zM59.64 14.25l-.11.06a.16.16 0 00.13.15.14.14 0 00.15-.12.12.12 0 00-.16-.1zM61 13.87c0 .07.16 0 .21 0a1.73 1.73 0 00.1-.24.29.29 0 01.2-.16.17.17 0 01.15 0 .14.14 0 010 .09.89.89 0 010 .51.42.42 0 01-.39.28.32.32 0 01-.27-.51zM49.83 13.32a.21.21 0 00-.26-.13.31.31 0 00-.2.24c0 .05 0 .11.05.12s.06 0 .09 0l.35-.19zM64.08 16.26a.36.36 0 01-.42.38 1 1 0 01.1-.5.31.31 0 01.44-.09v.3zM59.35 14.67l-.12-.06a.25.25 0 00-.06.2c0 .07.11.12.15.07a.11.11 0 000-.08v-.25zM50.61 11.62a.9.9 0 00-.26-.22.29.29 0 00-.32 0 .22.22 0 00-.06.15.33.33 0 00.3.35.32.32 0 00.32-.32zM45.49 9c-.11 0-.14.18-.14.29s0 .26-.11.32a.13.13 0 01-.09 0c-.07 0 0-.14 0-.22a1.06 1.06 0 00-.06-.19.39.39 0 01.15-.41.22.22 0 01.21.1.21.21 0 010 .23z"/><path class="cls-41" d="M43.13 10.62c-.11 0-.14.18-.14.29s0 .26-.11.32a.13.13 0 01-.09 0c-.07 0 0-.14 0-.22a1.06 1.06 0 00-.06-.19.39.39 0 01.15-.41.23.23 0 01.21.1.21.21 0 010 .23zM41.07 10.08a.62.62 0 00-.27-.08.2.2 0 000 .08.2.2 0 00.11.17.23.23 0 00.21 0 .16.16 0 00.07-.09.07.07 0 00-.05-.09zM54.48 12.09a.71.71 0 00-.51-.34.71.71 0 00.03.25.26.26 0 00.18.2c.13 0 .24-.1.32-.2v.11zM63.06 13.72a.25.25 0 00-.16-.06.22.22 0 00-.15.08 4.4 4.4 0 01-.39.26l.76.16h.06c.01 0 0 .13.07.2s.17.11.27.09c.75-.12-.19-.55-.46-.73zM65.45 16.21l-.22-.05a.35.35 0 00.16.39c.13.07.34 0 .31-.19s-.07-.23 0-.25zM58.31 14a.33.33 0 01-.21.5.31.31 0 11.19-.52zM56.42 14.67c.17 0 .4 0 .43.2s-.16.27-.31.33a.22.22 0 01-.21 0c-.13-.11.12-.36 0-.49s.11 0 .1 0zM56.23 14a.28.28 0 01.17.07.51.51 0 01-.47 0c-.09 0-.2-.06-.21-.15a.41.41 0 01.05-.18c0-.13-.05-.3 0-.37a.17.17 0 01.2 0 .52.52 0 01.09.2l.11.46zM66.45 14.82c-.09-.1-.27 0-.26.16a.47.47 0 00.23.31.48.48 0 00.1-.51zM54.11 14.05a.19.19 0 00-.12-.3.34.34 0 00-.09.19.16.16 0 00.11.16c.07 0 .15 0 .13-.12zM51.12 12.15a.19.19 0 00-.12-.3.29.29 0 00-.08.19.15.15 0 00.1.16.11.11 0 00.13-.12zM63.38 17.07a.52.52 0 00-.29-.37l-.14.37a.38.38 0 000 .18.21.21 0 00.28.14.3.3 0 00.16-.3zM55.41 14.56a.43.43 0 00-.21-.41.46.46 0 00-.15.31.32.32 0 00.22.36c.15 0 .31-.17.21-.29zM66.54 14.41a.23.23 0 010 .3l-.34-.1a.28.28 0 01.31-.29zM64.8 14.88a.24.24 0 010 .26.22.22 0 01-.24.09c-.07 0-.13-.07-.1-.13s0 0 0-.06l.29-.2v.05zM62.62 15.09c0 .11.07.21.16.28s.2.15.2.26v.08c0 .01-.14 0-.21-.08a.64.64 0 00-.18-.06.38.38 0 01-.26-.35.22.22 0 01.2-.12.23.23 0 01.19.14zM61.54 15.5l-.12.07a.17.17 0 00.14.15.13.13 0 00.14-.12.11.11 0 00-.15-.11zM54.5 13.16c0 .08.17 0 .22 0a1.7 1.7 0 00.09-.24.34.34 0 01.21-.16.14.14 0 01.14 0 .13.13 0 010 .1.85.85 0 010 .5.44.44 0 01-.39.29.33.33 0 01-.29-.18.35.35 0 010-.34zM44.92 10.05c0 .07.17 0 .21 0a1.73 1.73 0 00.1-.24.32.32 0 01.2-.16.2.2 0 01.15 0 .19.19 0 010 .1.89.89 0 010 .51.42.42 0 01-.38.28.32.32 0 01-.29-.18.34.34 0 010-.34zM45.1 8.94c0 .07.16 0 .21 0a1.73 1.73 0 00.1-.24.29.29 0 01.2-.16.2.2 0 01.15 0 .19.19 0 010 .1.89.89 0 010 .51.43.43 0 01-.39.28.33.33 0 01-.27-.52zM46.71 9.56c0 .07.17 0 .22 0s0-.16.09-.24a.31.31 0 01.21-.16.14.14 0 01.14 0 .25.25 0 010 .09 1 1 0 010 .51.43.43 0 01-.37.24.33.33 0 01-.28-.51zM35.62 15.52c.05.08.17 0 .22 0s0-.17.09-.24a.31.31 0 01.21-.16.14.14 0 01.14 0 .3.3 0 010 .1 1.05 1.05 0 010 .5.45.45 0 01-.39.29.36.36 0 01-.29-.18.34.34 0 010-.34zM61.39 16.43a.21.21 0 00-.26-.13.33.33 0 00-.19.24.11.11 0 00.05.13h.09l.35-.19zM68.08 13.9a.34.34 0 01-.41.37.9.9 0 01.09-.49.32.32 0 01.44-.1v.3z"/><path class="cls-41" d="M63.07 16.57s.09 0 .09.09a.2.2 0 01-.06.13.24.24 0 01-.09.08.18.18 0 01-.21-.07.24.24 0 010-.23.14.14 0 01.09-.08.11.11 0 01.09.05zM52.89 14l-.12-.06a.32.32 0 00-.07.2c0 .07.12.12.16.07a.11.11 0 000-.07v-.26zM43.93 15.58a1 1 0 00-.26-.21.29.29 0 00-.32 0 .2.2 0 00-.06.15.31.31 0 10.62 0zM52 10.57a.23.23 0 01.13.37.62.62 0 01-.27 0 .48.48 0 01.1-.28zM39.12 15.8a.48.48 0 00-.17-.1.18.18 0 00-.17.06c-.06.09 0 .21 0 .32s-.11.2-.09.3a.18.18 0 00.26.08.44.44 0 00.19-.25.53.53 0 000-.28.19.19 0 00-.19-.17zM47.24 10.82a1.35 1.35 0 00-.47-1.22 1.42 1.42 0 00-.9 1 .85.85 0 00.64 1c.45.06.87-.52.6-.89zM52.24 9.54a.13.13 0 01-.14.1.23.23 0 01-.1-.11.18.18 0 010-.1.16.16 0 11.31 0 .18.18 0 01-.16.17zM49.82 10.19c-.09.07-.07.21 0 .32s.08.24 0 .33a.13.13 0 01-.09 0c-.08 0-.08-.12-.11-.19a1 1 0 00-.12-.16.42.42 0 010-.43.23.23 0 01.24 0 .22.22 0 01.07.22zM46.88 12.39h-.13a.15.15 0 000 .2.13.13 0 00.19 0 .11.11 0 00-.06-.17zM49.3 11.64a.09.09 0 010 .13.21.21 0 01-.13.07.25.25 0 01-.12 0 .2.2 0 01-.13-.19.24.24 0 01.14-.18.22.22 0 01.11 0 .09.09 0 01.05.1zM35.73 14.67a1.37 1.37 0 00-1.11-.67 1.41 1.41 0 00-.16 1.3.86.86 0 001.13.44.61.61 0 000-1.07zM52.54 13.37c-.09-.11-.27 0-.26.15a.47.47 0 00.23.31.48.48 0 00.1-.51zM61.77 15.89c0 .08.17 0 .22 0s0-.17.09-.24a.31.31 0 01.21-.16.14.14 0 01.14 0 .3.3 0 010 .1 1.06 1.06 0 010 .5.45.45 0 01-.39.29.36.36 0 01-.29-.18.34.34 0 010-.34zM51 8.78h-.13a.16.16 0 000 .2A.15.15 0 0051 9a.12.12 0 000-.22z"/><path class="cls-41" d="M50.21 11.09a3.08 3.08 0 00-1.4-.31.45.45 0 00-.23 0 .42.42 0 00-.22.37.91.91 0 00.51.9 1.17 1.17 0 001.06-.05.78.78 0 00.39-.45.43.43 0 00-.22-.51.09.09 0 000 .16zM45.89 12.48a1.38 1.38 0 00-1.11-.7 1.43 1.43 0 00-.16 1.31.87.87 0 001.13.44.62.62 0 000-1.08zM41.63 10.87a.68.68 0 00-.51-.34.67.67 0 000 .28.24.24 0 00.18.2c.13 0 .24-.09.31-.19v.1zM40.16 11.29a.25.25 0 00-.16-.06.22.22 0 00-.15.08 3.3 3.3 0 01-.39.26l.76.16h.06c.01 0 0 .13.07.2s.17.11.28.09c.74-.12-.2-.55-.47-.73zM49.35 10l-.23-.06a.38.38 0 00.16.4c.14.07.34 0 .32-.19s-.08-.24 0-.25zM43.37 12.77a.29.29 0 01.18.07.51.51 0 01-.47.05c-.09 0-.2-.06-.21-.15s0-.12 0-.19 0-.29.06-.36a.17.17 0 01.2 0 .39.39 0 01.08.2l.12.46zM43.13 15.26c-.08-.1-.27 0-.26.16s.13.23.23.31a.46.46 0 00.1-.51zM40.85 13.56a.13.13 0 01-.05.16.23.23 0 01-.18 0 .21.21 0 01-.1-.06.16.16 0 010-.22.17.17 0 01.23 0 .18.18 0 010 .23zM41.26 12.82a.18.18 0 00-.13-.29.33.33 0 00-.08.18.15.15 0 00.11.16.1.1 0 00.13-.11zM43 10.37a.53.53 0 00-.28-.37l-.14.37a.38.38 0 000 .18.21.21 0 00.28.14.3.3 0 00.16-.3zM41.48 15.32a.24.24 0 01-.26.35c-.06 0-.12-.08-.1-.13a.09.09 0 01.06-.06l.28-.2v.05zM40.46 16.83c-.11 0-.14.18-.14.29a.39.39 0 01-.1.32.15.15 0 01-.09 0c-.08 0-.05-.14-.05-.22A.6.6 0 0040 17a.39.39 0 01.15-.41.22.22 0 01.21.1.21.21 0 010 .23zM39.52 16.17l-.12-.06a.16.16 0 000 .19.13.13 0 00.18.06.12.12 0 000-.19zM41.65 11.94c.05.07.17 0 .22 0s.05-.17.09-.24a.31.31 0 01.21-.16.14.14 0 01.14 0 .18.18 0 010 .1 1 1 0 010 .5.45.45 0 01-.39.29.38.38 0 01-.29-.18.34.34 0 010-.34zM41 9.73a.22.22 0 00-.26-.13.31.31 0 00-.19.24.12.12 0 000 .13.13.13 0 00.1 0l.35-.22zM44.77 14.34a.35.35 0 01-.42.37.82.82 0 01.1-.49c.09-.14.31-.22.43-.1v.3zM40 12.74l-.12-.06a.31.31 0 00-.07.2c0 .07.11.12.16.07s0 0 0-.08v-.25zM52.2 11.62a.86.86 0 00-.26-.21.29.29 0 00-.32 0 .26.26 0 00-.07.15.32.32 0 10.63 0zM47.28 16.23l-.23-.06a.48.48 0 000 .17.21.21 0 00.3-.06zM58.08 12.72a.11.11 0 010 .16.23.23 0 01-.18 0l-.09-.05a.16.16 0 11.25-.19.18.18 0 010 .24zM46.07 14.75l-.23-.06a.48.48 0 00-.05.17.21.21 0 00.3-.06zM52.25 44.59a.19.19 0 00.08-.31.4.4 0 00-.18.1.18.18 0 000 .2c0 .05.15 0 .17 0zM49.43 48.16a.9.9 0 00-.26-.22.31.31 0 00-.32 0 .3.3 0 00-.07.15.32.32 0 10.63 0zM52.74 43.4a1.36 1.36 0 00-.47-1.23 1.46 1.46 0 00-.91.95.87.87 0 00.64 1c.46.06.88-.52.61-.89zM52.38 45h-.13a.16.16 0 000 .2.14.14 0 00.2 0 .12.12 0 00-.05-.2zM51.38 45.05a1.34 1.34 0 00-1.11-.69 1.43 1.43 0 00-.15 1.3.85.85 0 001.13.44.61.61 0 000-1.07zM50.26 46.91a.34.34 0 01-.41.37.9.9 0 01.09-.49.32.32 0 01.44-.1v.3zM52.77 48.8l-.22-.06a.37.37 0 000 .17.22.22 0 00.3 0zM51.56 47.32l-.22-.06a.55.55 0 00-.05.17.22.22 0 00.3 0zM33.9 12.37c0-.09-.15-.09-.22 0s-.1.14-.16.2a.3.3 0 01-.24.09.16.16 0 01-.13-.07v-.11a1 1 0 01.18-.47.45.45 0 01.46-.16.34.34 0 01.22.26.36.36 0 01-.11.32zM50.13 12.25a.35.35 0 00.13.14.17.17 0 00.18 0c.09-.07.05-.21.09-.31s.16-.16.17-.26-.12-.18-.23-.16a.41.41 0 00-.24.19.47.47 0 00-.13.25.2.2 0 00.13.22zM45.29 11.05a2.53 2.53 0 001.16-.1.4.4 0 00.17-.09.35.35 0 00.08-.34.74.74 0 00-.62-.57.92.92 0 00-.81.3.63.63 0 00-.19.44.35.35 0 00.3.34v-.12zM46.56 8.5a.36.36 0 000-.18.26.26 0 00-.15-.09A2.06 2.06 0 0146 8l.25.75a.13.13 0 010 .06c0 .07-.1.1-.14.15s0 .21.06.29c.46.59.36-.43.39-.75z"/><path class="cls-41" d="M45.27 11l-.11-.07a.15.15 0 00-.07.19.13.13 0 00.18.06.11.11 0 000-.18zM45.36 8.84a.22.22 0 000-.29.29.29 0 00-.36-.05s-.09.05-.08.1a.16.16 0 00.07.07l.34.21zM45 10.21a.69.69 0 000-.61.77.77 0 00-.26.12.26.26 0 00-.08.26c0 .12.2.16.32.17l-.08.07zM44.29 10.89a.31.31 0 010 .19.56.56 0 01-.29-.39v-.26c0-.06.12 0 .18 0s.23-.18.35-.13a.17.17 0 01.06.19.46.46 0 01-.13.18l-.34.33zM46.17 9.34a.54.54 0 00.17-.43L46 9a.35.35 0 00-.17.06.22.22 0 000 .32.3.3 0 00.34 0zM44.15 9c0 .08.05.17.13.17a2.3 2.3 0 00.26 0 .28.28 0 01.24.1.14.14 0 010 .14.21.21 0 01-.06.08 1 1 0 01-.45.22.46.46 0 01-.45-.19.34.34 0 010-.34.33.33 0 01.3-.16zM48 13a.77.77 0 00.06-.33.28.28 0 00-.19-.26.3.3 0 00-.16 0 .32.32 0 00-.15.43.32.32 0 00.44.16zM49.11 10.73a.69.69 0 000-.61.88.88 0 00-.26.12.26.26 0 00-.08.26c0 .12.2.15.33.17l-.09.07zM43.91 11c-.11 0-.15.17-.16.29s0 .25-.13.3a.14.14 0 01-.09 0c-.07 0 0-.15 0-.23a1.29 1.29 0 000-.19.39.39 0 01.17-.4.21.21 0 01.2.12.21.21 0 010 .23zM52 14.78h-.13a.15.15 0 00.06.19.13.13 0 00.18-.06.11.11 0 00-.1-.15zM46.7 10.28v-.14a.28.28 0 00-.2 0v.17h.08l.24-.1zM64.61 10a4 4 0 00-1.82-.35.58.58 0 00-.29.06.56.56 0 00-.27.48 1.19 1.19 0 00.69 1.14 1.46 1.46 0 001.36-.11 1 1 0 00.48-.59.57.57 0 00-.3-.65.13.13 0 000 .21zM69.93 9.68a.67.67 0 00-.21-.58.65.65 0 00-.18.22.24.24 0 000 .26c.09.1.25.07.37 0l-.05.1zM70.77 9.69a.29.29 0 01.18.07.51.51 0 01-.47.05c-.09 0-.2-.06-.21-.15s0-.12 0-.19 0-.29.06-.36a.17.17 0 01.2 0 .7.7 0 01.08.2l.12.46zM71.29 16.59a.4.4 0 00-.17-.09.14.14 0 00-.17.06c-.06.09 0 .2 0 .31s-.12.2-.09.31.17.13.26.08a.67.67 0 00.23-.53.22.22 0 00-.19-.18zM68.46 11a.19.19 0 00.08-.31.25.25 0 00-.18.1.17.17 0 000 .19c.05.05.15.05.17 0zM71.3 10.07a.53.53 0 000-.46l-.3.21a.41.41 0 00-.14.12.21.21 0 00.15.28.27.27 0 00.3-.14zM78.07 13.71a.24.24 0 010 .26.23.23 0 01-.25.09c-.06 0-.12-.07-.1-.13l.06-.06.29-.2v.06zM75.89 13.92c0 .11.07.22.17.28s.2.15.2.26a.19.19 0 010 .09c-.07 0-.15-.05-.21-.09a1.39 1.39 0 00-.19-.06.39.39 0 01-.26-.35.24.24 0 01.2-.12.23.23 0 01.19.14zM74.82 14.34l-.12.06a.16.16 0 00.13.15.14.14 0 00.15-.12c0-.07-.09-.14-.15-.1zM69.31 10.55c0 .08.11.13.19.1s.14-.1.22-.14a.3.3 0 01.26 0 .16.16 0 01.1.11.29.29 0 010 .1 1 1 0 01-.33.39.44.44 0 01-.48 0 .32.32 0 01-.13-.31.38.38 0 01.22-.27zM70.09 8.37a.2.2 0 00-.09-.25.3.3 0 00-.3.07s-.06.09 0 .13.06 0 .09 0l.4.05zM82.11 9a.1.1 0 01.09.1.22.22 0 01-.06.13.24.24 0 01-.09.08.18.18 0 01-.21-.08.22.22 0 010-.22.14.14 0 01.09-.08A.07.07 0 0182 9zM67.54 10.22l-.07-.12c-.06 0-.14.06-.17.12s0 .17.09.15a.1.1 0 00.07 0l.18-.18zM72.35 11.76a.68.68 0 00-.51-.34.67.67 0 000 .28.24.24 0 00.18.2c.13 0 .23-.09.31-.19v.1zM70.88 12.18a.25.25 0 00-.16-.06.22.22 0 00-.15.08 4.4 4.4 0 01-.39.26l.76.15H71c.06 0 0 .13.07.2s.17.11.27.09c.75-.11-.19-.54-.46-.72zM74.09 13.66a.24.24 0 01.18.07.55.55 0 01-.47 0c-.09 0-.2-.06-.21-.15s0-.12 0-.19 0-.29.06-.36a.17.17 0 01.2 0 .36.36 0 01.08.2l.12.46zM71.57 14.45a.13.13 0 010 .16.23.23 0 01-.18 0 .33.33 0 01-.1-.06.15.15 0 010-.22.17.17 0 01.23 0 .2.2 0 010 .23zM72 13.71a.18.18 0 00-.13-.29.3.3 0 00-.08.18.15.15 0 00.11.16.11.11 0 00.13-.11zM73.68 11.26a.53.53 0 00-.28-.37l-.14.37a.39.39 0 000 .18.22.22 0 00.29.14.3.3 0 00.16-.3zM81.51 11.55l-.11.06a.14.14 0 00.13.15.14.14 0 00.15-.12.11.11 0 00-.15-.1zM72.37 12.83c0 .07.17 0 .22 0s0-.17.09-.24a.31.31 0 01.21-.16.14.14 0 01.14 0 .18.18 0 010 .1 1 1 0 010 .5.45.45 0 01-.39.29.38.38 0 01-.29-.18.32.32 0 010-.34zM71.7 10.62a.22.22 0 00-.26-.13.29.29 0 00-.19.24.12.12 0 000 .13.1.1 0 00.09 0l.35-.19zM75.32 16.92a.36.36 0 01-.42.38.94.94 0 01.1-.5.31.31 0 01.44-.09V17zM70.76 13.63l-.12-.06a.31.31 0 00-.07.2c0 .07.11.12.16.07s0-.05 0-.08v-.25zM72.48 8.92a.7.7 0 00-.26-.22.29.29 0 00-.31 0 .23.23 0 00-.07.15.33.33 0 00.3.35.34.34 0 00.33-.32zM76.36 9.39a.71.71 0 00-.52-.33.66.66 0 000 .28.24.24 0 00.17.2c.13 0 .24-.1.32-.2v.11zM74.47 12.68a.35.35 0 00-.17-.06.28.28 0 00-.15.08 2 2 0 01-.39.26l.77.16h.06c.06 0 0 .13.06.2s.18.11.28.09c.74-.12-.19-.55-.46-.73zM76.69 16.87l-.22-.06a.36.36 0 00.16.4c.13.07.34 0 .31-.19s-.07-.24 0-.25zM80.18 11.29a.33.33 0 01-.2.5.31.31 0 11.18-.52zM78.3 12c.17 0 .39 0 .42.2s-.16.27-.31.33-.15.05-.2 0 .11-.35 0-.49.11 0 .1 0zM78.1 11.29a.28.28 0 01.17.07.51.51 0 01-.47.05c-.09 0-.2-.06-.21-.15a.41.41 0 010-.18c0-.13 0-.3.06-.37a.15.15 0 01.19 0A.42.42 0 0178 11l.11.46z"/><path class="cls-41" d="M77.86 13.78c-.09-.1-.27 0-.26.16a.47.47 0 00.23.31.48.48 0 00.1-.51zM76 11.35a.19.19 0 00-.12-.3.29.29 0 00-.08.19.14.14 0 00.1.16c.07 0 .15-.05.13-.12zM73 9.45a.19.19 0 00-.12-.3.36.36 0 00-.08.19.17.17 0 00.1.16c.07 0 .15-.05.13-.11zM74.62 17.72a.52.52 0 00-.29-.36l-.14.36a.38.38 0 000 .18.21.21 0 00.28.14.29.29 0 00.17-.29zM77.28 11.86a.38.38 0 00-.21-.4.48.48 0 00-.15.3.34.34 0 00.22.36c.15 0 .31-.17.21-.29zM77.94 13.38a.24.24 0 010 .3l-.35-.1a.28.28 0 01.32-.29zM76.2 13.84a.24.24 0 010 .26.23.23 0 01-.25.09c-.06 0-.12-.07-.1-.13l.05-.06.29-.2v.06zM74 14.05c0 .11.07.22.17.28s.2.15.2.26a.13.13 0 010 .09c-.07 0-.14 0-.21-.09a1.39 1.39 0 00-.19-.06.4.4 0 01-.26-.35.24.24 0 01.2-.12.22.22 0 01.19.14zM73 14.47l-.12.06a.16.16 0 00.13.15.14.14 0 00.15-.12c0-.07-.09-.14-.15-.1zM76.38 10.47c0 .07.16 0 .21 0a1.73 1.73 0 00.1-.24.29.29 0 01.2-.16.16.16 0 01.15 0 .19.19 0 010 .1.89.89 0 010 .51.45.45 0 01-.39.28.33.33 0 01-.27-.52zM66.8 7.93c0 .08.17 0 .22 0s0-.17.09-.24a.31.31 0 01.21-.16.14.14 0 01.14 0 .18.18 0 010 .1.94.94 0 010 .5.45.45 0 01-.39.29.33.33 0 01-.29-.18.34.34 0 010-.34zM68.42 8.55c0 .08.16 0 .21 0a1.73 1.73 0 00.1-.24.32.32 0 01.2-.16.16.16 0 01.15 0 .17.17 0 010 .1.85.85 0 010 .5.43.43 0 01-.39.29.32.32 0 01-.28-.18.34.34 0 010-.34zM72.63 17.09a.21.21 0 00-.26-.13.3.3 0 00-.19.24v.12a.1.1 0 00.09 0l.35-.19zM79.49 12.86a.36.36 0 01-.41.38.85.85 0 01.09-.5.31.31 0 01.44-.09v.29z"/><path class="cls-41" d="M74.31 17.22a.1.1 0 01.09.1.22.22 0 01-.06.13.16.16 0 01-.09.07.16.16 0 01-.21-.07.24.24 0 010-.23.16.16 0 01.09-.07.07.07 0 01.09.05zM74.77 11.26h-.13a.25.25 0 00-.06.2c0 .07.11.12.16.06a.19.19 0 000-.07v-.26zM73.73 9.57a.23.23 0 01.12.37.58.58 0 01-.26 0 .39.39 0 01.1-.27zM69 9.82a1.35 1.35 0 00-.47-1.22 1.4 1.4 0 00-.91 1 .87.87 0 00.64 1c.45.06.88-.52.61-.89zM73.94 8.54a.11.11 0 01-.13.09.18.18 0 01-.15-.1.18.18 0 010-.1.14.14 0 01.15-.16.17.17 0 01.16.17.17.17 0 01-.16.16zM71.52 9.18a.3.3 0 000 .33c0 .11.07.24 0 .33a.12.12 0 01-.08 0c-.08 0-.09-.12-.12-.2a.53.53 0 00-.11-.15.39.39 0 010-.44.2.2 0 01.23 0 .19.19 0 01.07.22zM68.59 11.39h-.13a.16.16 0 000 .2.14.14 0 00.2 0 .11.11 0 00-.07-.17z"/><path class="cls-41" d="M71.17 9v.13a.2.2 0 01-.13.06.25.25 0 01-.12 0 .16.16 0 01-.1-.19.22.22 0 01.18-.22.17.17 0 01.12 0s.06.06 0 .09zM74.41 10.67c-.09-.1-.27 0-.26.15a.49.49 0 00.23.32.48.48 0 00.1-.51zM73.18 14.85c0 .08.17 0 .21 0a1.73 1.73 0 00.1-.24.32.32 0 01.2-.16.16.16 0 01.15 0 .17.17 0 010 .1.85.85 0 010 .5.43.43 0 01-.38.29.32.32 0 01-.29-.18.34.34 0 010-.34zM72.66 7.78h-.13a.15.15 0 000 .2.13.13 0 00.19 0 .11.11 0 00-.06-.17z"/><path class="cls-41" d="M72.09 8.39a3.26 3.26 0 00-1.41-.31.59.59 0 00-.23 0 .47.47 0 00-.22.37.92.92 0 00.51.9 1.16 1.16 0 001.07-.05.77.77 0 00.38-.45.43.43 0 00-.19-.47.09.09 0 000 .16zM67.59 11.47a1.35 1.35 0 00-1.11-.69 1.41 1.41 0 00-.15 1.3.86.86 0 001.13.45c.39-.23.39-.95 0-1.08z"/><path class="cls-41" d="M71.05 9l-.22-.06a.36.36 0 00.16.4c.13.07.34-.05.31-.2s-.07-.23 0-.25zM74.07 8.93a.9.9 0 00-.26-.22.29.29 0 00-.32 0 .22.22 0 00-.06.15.33.33 0 00.3.35.32.32 0 00.32-.32zM69 15.22l-.22-.05a.34.34 0 00-.05.17.23.23 0 00.3-.06zM80 10a.12.12 0 01-.06.16.22.22 0 01-.18 0s-.07 0-.09-.06a.16.16 0 010-.23.17.17 0 01.22 0 .18.18 0 010 .23zM67.77 13.74l-.22-.05a.34.34 0 000 .17.23.23 0 00.3-.06zM72 9.55a.58.58 0 00.13.14.18.18 0 00.19 0c.08-.07 0-.21.08-.31s.17-.16.17-.26-.12-.18-.22-.16a.44.44 0 00-.25.19.5.5 0 00-.1.25.22.22 0 00.13.23zM67 10.05a2.73 2.73 0 001.17-.1.56.56 0 00.17-.09.37.37 0 00.08-.34.77.77 0 00-.62-.58.92.92 0 00-.81.31.58.58 0 00-.19.44.35.35 0 00.29.34.07.07 0 000-.12zM68.26 7.49a.25.25 0 000-.17.26.26 0 00-.14-.09 2.74 2.74 0 01-.45-.23l.25.74v.06c0 .06-.1.1-.15.16s0 .21.06.29c.51.59.41-.44.43-.76z"/><path class="cls-41" d="M67.87 8.33a.51.51 0 00.18-.42l-.39.09a.32.32 0 00-.17.06.2.2 0 000 .31.29.29 0 00.34 0zM69.73 12a1 1 0 00.06-.34.27.27 0 00-.19-.25.25.25 0 00-.17 0 .34.34 0 00-.15.44.33.33 0 00.44.12zM70.82 9.73a.75.75 0 000-.62.71.71 0 00-.26.13.22.22 0 00-.08.25c0 .13.19.16.32.18l-.08.06zM73.82 12.08h-.13a.16.16 0 00.06.19.13.13 0 00.18 0 .12.12 0 00-.09-.16zM63.7 37.17a.24.24 0 010 .26.21.21 0 01-.24.09c-.06 0-.13-.07-.1-.13s0 0 0-.06l.29-.2v.06zM61.52 37.38c0 .11.07.21.16.28s.21.15.2.26a.1.1 0 010 .09c-.07 0-.14 0-.21-.09a1 1 0 00-.18-.06.38.38 0 01-.26-.35.22.22 0 01.2-.12.23.23 0 01.19.14zM60.44 37.8l-.12.06a.17.17 0 00.14.15.12.12 0 00.14-.12.11.11 0 00-.15-.1zM67.74 32.47a.1.1 0 01.09.1.22.22 0 01-.06.13.39.39 0 01-.1.08.17.17 0 01-.2-.08.21.21 0 010-.23.18.18 0 01.08-.07.08.08 0 01.1.05zM59.72 37.12a.26.26 0 01.18.07.57.57 0 01-.48.05c-.09 0-.19-.06-.21-.15s0-.12 0-.19 0-.29.06-.36a.15.15 0 01.19 0 .46.46 0 01.09.2l.12.46zM59.31 34.72a.52.52 0 00-.29-.37l-.14.37a.38.38 0 000 .18.21.21 0 00.28.14.31.31 0 00.17-.3zM67.14 35l-.12.06a.15.15 0 00.14.15.13.13 0 00.14-.12.11.11 0 00-.15-.1zM61 40.38a.36.36 0 01-.42.38.93.93 0 01.09-.5.31.31 0 01.44-.09v.29zM56.33 28.54a.7.7 0 00-.51-.34.67.67 0 000 .28.22.22 0 00.18.2c.13 0 .23-.09.31-.19v.1zM60.09 36.14a.31.31 0 00-.16-.06.22.22 0 00-.15.08 2 2 0 01-.39.26l.77.16h.06c.05 0 0 .13.06.2s.17.11.28.09c.74-.12-.2-.55-.47-.73zM62.32 40.33l-.23-.06a.4.4 0 00.16.4c.14.07.34 0 .32-.19s-.08-.24 0-.25zM68.85 28.25a.33.33 0 01-.21.5.34.34 0 01-.34-.42.33.33 0 01.53-.1zM63.92 35.43c.17 0 .4 0 .42.2s-.15.27-.31.33a.2.2 0 01-.2 0c-.13-.11.12-.35 0-.49s.1 0 .1 0zM65.39 27.38a.28.28 0 01.17.07.51.51 0 01-.47.05c-.09 0-.2-.06-.21-.15s0-.12.05-.19-.05-.29.06-.36a.16.16 0 01.19 0 .52.52 0 01.09.2l.11.46z"/><path class="cls-41" d="M63.48 37.24c-.08-.1-.27 0-.26.16s.13.23.23.31a.46.46 0 00.1-.51zM61.61 34.81a.19.19 0 00-.13-.3.36.36 0 00-.08.19.16.16 0 00.11.16.12.12 0 00.13-.12zM56 44.88a.57.57 0 00-.29-.37l-.14.37a.38.38 0 000 .18.21.21 0 00.28.14.3.3 0 00.16-.3zM62.91 35.32a.41.41 0 00-.21-.4.44.44 0 00-.15.3.32.32 0 00.22.36c.15 0 .3-.17.2-.29zM63.57 36.84a.24.24 0 010 .3l-.35-.1a.27.27 0 01.32-.29zM61.83 37.3a.24.24 0 010 .26.23.23 0 01-.25.09c-.06 0-.12-.07-.1-.13a.17.17 0 01.06-.06l.28-.2v.06zM59.65 37.51c0 .11.07.22.16.28s.21.15.2.26a.1.1 0 010 .09c-.07 0-.14 0-.21-.09a1 1 0 00-.18-.06.38.38 0 01-.26-.35.23.23 0 01.2-.12.23.23 0 01.19.14zM62.56 26.35c0 .08.17 0 .22 0s0-.17.09-.24a.31.31 0 01.21-.16.14.14 0 01.14 0 .18.18 0 010 .1.94.94 0 010 .5.45.45 0 01-.39.29.35.35 0 01-.29-.18.34.34 0 010-.34zM66.83 43.19a.35.35 0 01-.41.38.92.92 0 01.09-.5A.32.32 0 0167 43v.3zM59.94 40.68a.1.1 0 01.09.1.22.22 0 01-.06.13.23.23 0 01-.1.07.16.16 0 01-.2-.07.21.21 0 010-.23.18.18 0 01.08-.07.08.08 0 01.1 0zM60.39 34.72h-.12a.31.31 0 00-.07.2c0 .07.11.12.16.06s0 0 0-.07v-.26zM59.35 33a.23.23 0 01.13.37.62.62 0 01-.27 0 .45.45 0 01.1-.27zM59.57 32a.12.12 0 01-.14.09.22.22 0 01-.15-.1.3.3 0 010-.1.15.15 0 01.16-.16.17.17 0 01.16.17.18.18 0 01-.17.16zM60 34.13c-.08-.1-.26 0-.26.15s.13.23.23.32a.45.45 0 00.1-.51zM58.8 38.31c.05.08.17 0 .22 0a1.7 1.7 0 00.09-.24.31.31 0 01.21-.16.14.14 0 01.14 0 .18.18 0 010 .1.94.94 0 010 .5.45.45 0 01-.39.29.33.33 0 01-.29-.18.35.35 0 010-.34zM59.7 32.39a.9.9 0 00-.26-.22.29.29 0 00-.32 0 .3.3 0 00-.07.15.32.32 0 10.63 0zM65.58 33.48v.16a.22.22 0 01-.18 0 .33.33 0 01-.1-.06.17.17 0 010-.23.19.19 0 01.23 0 .18.18 0 010 .23zM59.45 35.54h-.14a.16.16 0 00.07.19.13.13 0 00.18-.05.12.12 0 00-.1-.16zM68.4 9.28v-.14a.33.33 0 00-.2 0 .11.11 0 000 .18h.08l.24-.09z"/></g><g class="cls-42"><path class="cls-9" d="M89.15 65.73a.7.7 0 00.17-.68.74.74 0 00-.69.14.46.46 0 000 .65c.18.16.55 0 .54-.2zM90 69.26a.38.38 0 00.26-.2.35.35 0 00-.14-.06.11.11 0 00-.13.06v.19zM90.1 69.69a.34.34 0 010 .1c-.08 0-.1-.14-.11-.23s0-.11 0-.13.06 0 .1 0 .14-.07.19 0 0 .07 0 .11a.27.27 0 01-.08.07l-.22.14zM88.89 64.06c0-.06-.06-.13-.12-.11a.28.28 0 00-.13.17.26.26 0 00.28 0zM82.55 57.73a.16.16 0 000-.1.08.08 0 00-.06-.08c-.05 0-.1.05-.15.06s-.13 0-.17 0a.08.08 0 000 .14.22.22 0 00.16.05.2.2 0 00.15 0 .11.11 0 000-.13zM86.35 64.3h-.09a.11.11 0 010-.09.14.14 0 010-.06.08.08 0 01.12 0 .09.09 0 01-.11.15zM89 68.73a.11.11 0 00.18 0 .24.24 0 00-.09-.08.1.1 0 00-.1 0 .07.07 0 000 .09zM90 70a.29.29 0 00.23-.08l-.16-.13h-.09a.12.12 0 00-.12.12.16.16 0 00.14.09zM87 65a.09.09 0 00-.06.09.07.07 0 00.09 0 .06.06 0 000-.09zM89.41 69.08v.12c0 .04.08.06.11.09a.15.15 0 010 .13.07.07 0 010 .07.46.46 0 01-.25-.1.24.24 0 01-.08-.25.21.21 0 01.14-.12.19.19 0 01.17.07zM90.65 69.12a.1.1 0 00.11-.11.18.18 0 00-.09-.14.06.06 0 00-.07 0v.26zM89.81 66.53a.18.18 0 01-.26-.15.5.5 0 01.27 0 .16.16 0 01.12.21l-.15.06zM89.29 68.13v-.06s-.06-.06-.09-.06a.05.05 0 00-.06.07l.12.07zM88.78 66.9a.44.44 0 00.07-.17.15.15 0 00-.07-.15.14.14 0 00-.09 0 .18.18 0 00-.13.21.18.18 0 00.22.11zM89.08 66.33v-.12H89a.12.12 0 00.08.15zM87.69 63.62a1.51 1.51 0 00-.37-.6.23.23 0 00-.1-.07.19.19 0 00-.2 0 .44.44 0 00-.14.49.55.55 0 00.38.36.36.36 0 00.29 0 .21.21 0 00.11-.25s-.07 0-.06.05zM82.8 57.72a.07.07 0 01-.09 0 .16.16 0 010-.09.13.13 0 010-.06.08.08 0 01.12 0v.12a.12.12 0 01-.13 0zM83.24 57.8a.1.1 0 00.13-.11.17.17 0 00-.1 0 .08.08 0 00-.07.08.06.06 0 00.08.05zM88.88 70.51a.1.1 0 000-.15.14.14 0 00-.15-.06h-.06l.16.14zM87.19 70.53v-.07a.14.14 0 00-.11 0v.09h.14zM89.88 70.63a.51.51 0 00.07-.17.15.15 0 00-.08-.15.08.08 0 00-.08 0 .17.17 0 10.09.32zM90.35 67.59h-.34c-.04 0 0 0 0 0s.07 0 .11-.06a.47.47 0 00.09-.06.21.21 0 01.23 0 .12.12 0 010 .13.11.11 0 01-.12 0z"/><path class="cls-9" d="M89.15 66.65c0-.05-.12 0-.18 0h-.17c-.04 0 0 0 0 0s.06 0 .1-.06a.47.47 0 00.09-.06.2.2 0 01.23 0 .13.13 0 010 .12.12.12 0 01-.13 0zM89.08 65.51a.26.26 0 000-.15.1.1 0 00-.06.09.11.11 0 000 .1h.06zM85.59 57.61a.1.1 0 00.13-.11.21.21 0 00-.11 0s-.07 0-.06.08a.06.06 0 00.08 0zM82.53 59.62a.29.29 0 00.14-.21h-.21a.16.16 0 00-.1 0 .1.1 0 000 .16.15.15 0 00.17 0zM83 58.42v-.05a.11.11 0 00-.06.1.07.07 0 00.09.05.06.06 0 000-.09zM89.74 67.47s0 .09.05.1h.14a.15.15 0 01.11.08.06.06 0 010 .08.48.48 0 01-.26.07.22.22 0 01-.21-.15.17.17 0 010-.18.18.18 0 01.17-.05zM90.33 67.37s0 .09.06.11h.13a.15.15 0 01.12.07.12.12 0 010 .08.1.1 0 01-.05 0 .59.59 0 01-.26.07.25.25 0 01-.21-.16.17.17 0 010-.17.18.18 0 01.18 0zM90.28 68.3s0 .09.06.1.09 0 .14 0a.18.18 0 01.11.08.11.11 0 010 .08.41.41 0 01-.26.07.23.23 0 01-.21-.15.17.17 0 01.22-.22zM85.4 63.63v.1c0 .01.1 0 .14 0a.2.2 0 01.12.08.11.11 0 010 .08.41.41 0 01-.26.07.23.23 0 01-.21-.15.17.17 0 01.22-.22zM82.52 58.5a.11.11 0 000-.15.17.17 0 00-.16-.06.08.08 0 000 .05l.16.14z"/><path class="cls-9" d="M82.73 59.38v.06a.11.11 0 01-.08 0 .09.09 0 01-.05 0 .09.09 0 010-.12.13.13 0 01.12 0v.06zM86.75 67.88a.35.35 0 00.06-.17.13.13 0 00-.07-.15.1.1 0 00-.09 0 .17.17 0 10.09.32zM86.54 57.81a.12.12 0 01-.16.13.23.23 0 010-.14.2.2 0 01.15 0zM85.84 65.46a.36.36 0 000-.1.08.08 0 00-.06-.08s-.1 0-.16.06-.12 0-.17 0a.11.11 0 000 .15.25.25 0 00.16.05.24.24 0 00.15 0 .1.1 0 00.06-.13zM87.89 68.54a.73.73 0 00.54-.45.73.73 0 00-.63-.3.45.45 0 00-.42.5c0 .24.41.36.55.16zM87.1 57.75h-.07a.14.14 0 010-.09.08.08 0 01.11 0 .08.08 0 01-.06.11.1.1 0 01-.11-.06zM90.48 70h-.17c-.05 0-.11.07-.17 0s.05-.07.08-.1 0 0 .07-.08a.19.19 0 01.22-.07.11.11 0 010 .12.1.1 0 01-.1.07zM88.87 68.86v-.07a.09.09 0 00-.1 0 .07.07 0 000 .09.06.06 0 00.08 0zM89.65 70a.06.06 0 01-.07 0 .1.1 0 010-.06.14.14 0 010-.06s0-.08.07-.09a.11.11 0 01.11 0s0 .05 0 0zM85.85 63.54a.7.7 0 00.17-.68.75.75 0 00-.69.14.46.46 0 000 .65c.18.16.55 0 .54-.2zM91.38 70.34v-.08a.09.09 0 00-.1 0 .06.06 0 000 .09.07.07 0 00.08-.06zM85.75 59.44a1.81 1.81 0 00-.08-.77.24.24 0 00-.06-.11.24.24 0 00-.22-.06.5.5 0 00-.38.42.61.61 0 00.21.53.4.4 0 00.29.12.23.23 0 00.22-.2h-.08zM88.42 57.49a.42.42 0 10-.52-.49.46.46 0 000 .65.33.33 0 00.54-.21zM88.77 65.93a.38.38 0 00.09-.32.28.28 0 00-.15 0 .12.12 0 00-.07.12c0 .07.09.1.15.13h-.05zM88.31 65.24a.14.14 0 000-.09.11.11 0 00-.07-.06l-.2-.16v.42s-.06 0-.09.07 0 .11 0 .16c.25.42.32-.17.36-.34z"/><path class="cls-9" d="M90.51 69.71v-.12a.19.19 0 00-.17.15.12.12 0 00.15.13s.1-.08.13 0zM88.09 67.13a.17.17 0 010 .1c-.08 0-.1-.14-.11-.23s0-.11 0-.13.07 0 .11 0 .14-.07.19 0 0 .07 0 .11a.27.27 0 01-.08.07l-.22.14zM86.78 67.42c0-.06-.06-.13-.12-.11a.24.24 0 00-.12.17.24.24 0 00.27 0zM87.27 66h-.09a.08.08 0 010-.09.13.13 0 010-.06.08.08 0 01.12 0 .09.09 0 01-.11.15zM87.71 66.06a.1.1 0 00.13-.11.14.14 0 00-.11 0 .11.11 0 00-.06.09.06.06 0 00.08 0zM89.25 66.52a.29.29 0 00.14-.2h-.21a.12.12 0 00-.1 0 .1.1 0 000 .16.17.17 0 00.18 0zM86.48 66.59a.14.14 0 01-.14 0 .13.13 0 01-.09-.11.07.07 0 01.06-.07l.15.11zM85.54 66.32h-.35c-.04 0 0 0 0 0s.06 0 .1-.06l.09-.06a.2.2 0 01.23 0 .13.13 0 010 .13.1.1 0 01-.12 0zM85.72 65.73v-.08a.09.09 0 00-.11 0 .07.07 0 000 .1.06.06 0 00.1 0zM88.23 66.11v.11h.14a.15.15 0 01.12.07v.08a.59.59 0 01-.26.07.25.25 0 01-.21-.15.19.19 0 010-.18.17.17 0 01.18 0zM89.24 65.4a.11.11 0 000-.15.17.17 0 00-.16-.06l.16.14zM87.52 68.1a.19.19 0 01-.26-.15.42.42 0 01.27 0 .15.15 0 01.12.2l-.15.07zM87.55 65.42v-.07a.14.14 0 00-.11 0v.09h.13zM87 69.69v-.12h-.09a.12.12 0 00.08.15zM87.53 68.83v-.12h-.09a.11.11 0 00.08.14zM86.73 62.23v-.12h-.13a.14.14 0 01-.09-.11v-.07a.07.07 0 01.06 0 .42.42 0 01.27 0 .23.23 0 01.15.2.17.17 0 01-.09.16.19.19 0 01-.18 0zM89.48 70.49a.41.41 0 000 .09v.09c0 .01.11 0 .17 0h.16c.05 0 .07-.09 0-.14a.28.28 0 00-.14-.1.39.39 0 00-.15 0s-.1 0-.09.1zM89.28 67.82a1.51 1.51 0 00.25.58.23.23 0 00.07.07.21.21 0 00.19 0A.41.41 0 0090 68a.5.5 0 00-.29-.36.3.3 0 00-.26 0 .18.18 0 00-.12.2h.06zM90.8 68a.09.09 0 00.08 0v-.09a1.13 1.13 0 010-.25l-.34.25s-.06 0-.1-.05-.1 0-.13.08c-.19.37.32.15.49.06z"/><path class="cls-9" d="M89.33 67.8v-.07a.09.09 0 00-.11 0 .08.08 0 000 .11.06.06 0 00.09 0zM90.43 67.49a.11.11 0 00.14-.06.15.15 0 000-.16h-.07c-.07 0 0 0 0 .05v.21zM89.66 67.52a.41.41 0 00.32-.08.29.29 0 00-.11-.11.12.12 0 00-.14 0 .18.18 0 000 .19zM89.2 67.28a.13.13 0 01-.09 0c0-.09.08-.16.15-.21a.15.15 0 01.14 0v.09c0 .03.14.08.13.15a.08.08 0 01-.09.06.2.2 0 01-.11 0l-.23-.12zM90.31 68a.25.25 0 00.24 0l-.09-.18a.24.24 0 00-.06-.08.11.11 0 00-.16.06.16.16 0 00.06.17zM90.15 66.9s-.07 0-.06.09a.52.52 0 00.06.13.17.17 0 010 .14.1.1 0 01-.07 0 .5.5 0 01-.19-.19.23.23 0 010-.26.21.21 0 01.17 0 .19.19 0 01.13.13zM88.73 69.54a.5.5 0 00.18 0c.06 0 .11-.08.1-.14a.11.11 0 000-.08.17.17 0 10-.24.24zM90.08 69.72a.4.4 0 00.32-.08.36.36 0 00-.1-.11.14.14 0 00-.15 0 .18.18 0 000 .19h-.05z"/><path class="cls-9" d="M89.07 67.11h-.35c-.05 0 0 0 0 0s.06 0 .11-.06h.09a.21.21 0 01.23 0 .15.15 0 010 .13.11.11 0 01-.12 0zM89.91 68.41h.07a.13.13 0 00-.06-.09.05.05 0 00-.08 0l.09.11z"/></g><g class="cls-42"><path class="cls-9" d="M31.59 70a.71.71 0 00.38-.59.74.74 0 00-.7-.08.45.45 0 00-.24.6.33.33 0 00.58 0zM31.29 73.62a.4.4 0 00.31-.11.38.38 0 00-.12-.1.14.14 0 00-.14 0 .2.2 0 000 .2h-.05zM31.28 74.07a.19.19 0 010 .1.29.29 0 010-.26s0-.1.08-.11.06 0 .1 0h.19a.09.09 0 010 .11.22.22 0 01-.11.05l-.24.06zM31.85 68.34c.06 0 0-.14-.08-.14a.3.3 0 00-.17.13.26.26 0 00.28 0zM33.78 83a.43.43 0 000-.11.08.08 0 00-.06-.08c-.05 0-.1 0-.16.06s-.12 0-.17 0 0 .11 0 .15a.22.22 0 00.16 0 .2.2 0 00.15 0 .1.1 0 00.06-.12zM33.57 76.22a.07.07 0 01-.09 0 .13.13 0 010-.1.08.08 0 010-.05.09.09 0 01.12 0 .1.1 0 010 .13.11.11 0 01-.12 0zM30.57 72.83a.09.09 0 00.16 0 .16.16 0 00-.05-.09h-.1a.07.07 0 000 .1zM31.08 74.35a.28.28 0 00.25 0l-.12-.18s0-.06-.06-.07a.11.11 0 00-.15.08.15.15 0 00.07.16zM29.81 68.67v-.07s-.08 0-.08.07a.06.06 0 10.12 0zM30.82 73.29c-.05 0-.07 0-.06.1a1.25 1.25 0 01.08.12.17.17 0 010 .14h-.11a.5.5 0 01-.21-.17.23.23 0 010-.26.18.18 0 01.31 0zM32 73.7a.1.1 0 00.13-.07.16.16 0 000-.16.06.06 0 00-.07 0v.21zM32 71a.19.19 0 01-.2-.22.4.4 0 01.26 0 .15.15 0 01.05.23h-.16zM31 72.34h.07a.22.22 0 00-.07-.09s-.09 0-.08.05l.1.1zM30.88 71a.5.5 0 00.12-.14.17.17 0 000-.17.09.09 0 00-.08 0 .17.17 0 100 .34zM31.34 70.57v-.13h-.09a.12.12 0 000 .16zM30.85 67.56a1.5 1.5 0 00-.17-.69.22.22 0 00-.07-.09.2.2 0 00-.21 0 .46.46 0 00-.29.43.56.56 0 00.26.45.39.39 0 00.29.08.23.23 0 00.17-.22h-.07zM34 83a.06.06 0 01-.09 0 .11.11 0 010-.09.14.14 0 010-.06.08.08 0 01.12 0 .09.09 0 010 .12.1.1 0 01-.12 0zM34.47 83.1a.1.1 0 00.13-.1.14.14 0 00-.11 0s-.07 0-.06.08a.06.06 0 00.08 0zM29.87 74.48a.1.1 0 00.07-.14.16.16 0 00-.13-.1h-.06c-.06 0 0 0 0 0l.1.19zM34.32 82.46v-.07a.14.14 0 00-.11 0v.09h.14zM30.79 74.9a.38.38 0 00.11-.14.13.13 0 000-.17.11.11 0 00-.08 0 .17.17 0 100 .33zM32.17 72.15c0-.06-.09-.07-.15-.08s-.14 0-.17 0h.22a.21.21 0 01.22.08.12.12 0 01-.05.11.11.11 0 01-.13 0z"/><path class="cls-9" d="M31.31 70.88s-.09-.07-.16-.07-.13 0-.16-.06.07 0 .12 0h.1a.21.21 0 01.22.08.13.13 0 01-.06.11.13.13 0 01-.12 0zM31.6 69.78a.39.39 0 000-.15.09.09 0 00-.09.06.11.11 0 000 .11.09.09 0 00.05 0h.05zM30.51 75.18a.1.1 0 00.15-.07.31.31 0 00-.1 0 .1.1 0 00-.08.06.05.05 0 00.06.07zM33.73 84.9a.29.29 0 00.14-.2h-.21a.12.12 0 00-.1 0 .11.11 0 000 .16.17.17 0 00.18 0zM34.24 83.71h-.06a.1.1 0 000 .1s0 .06.08 0a.05.05 0 000-.09zM31.62 71.84v.12l.13.05a.2.2 0 01.09.11.11.11 0 010 .08h-.05a.49.49 0 01-.27 0 .24.24 0 01-.16-.21.18.18 0 01.1-.15.19.19 0 01.18 0zM32.22 71.94v.11c0 .02.08 0 .13 0a.18.18 0 01.08.11.06.06 0 010 .08.42.42 0 01-.27 0 .23.23 0 01-.15-.2.19.19 0 01.09-.16.19.19 0 01.19 0zM31.89 72.8v.12c0 .03.11.08.11.08a.15.15 0 01.08.11.08.08 0 010 .08h-.05a.5.5 0 01-.27 0 .23.23 0 01-.15-.21.19.19 0 01.09-.15.17.17 0 01.18 0zM28.67 66.86v.12c0 .03.08 0 .13 0a.15.15 0 01.08.11.06.06 0 010 .08h-.05a.5.5 0 01-.27 0 .23.23 0 01-.15-.21.18.18 0 01.28-.14zM33.74 83.78a.11.11 0 000-.15.14.14 0 00-.15-.06h-.06l.15.15z"/><path class="cls-9" d="M33.93 84.67v.06a.11.11 0 01-.08 0 .11.11 0 010-.12.13.13 0 01.12 0v.06zM33.91 79.8a.36.36 0 00.07-.17.13.13 0 00-.07-.15.09.09 0 00-.09 0 .16.16 0 00-.12.2.17.17 0 00.21.12zM31.35 75.66a.12.12 0 01-.2.06.71.71 0 010-.14.22.22 0 01.15.06zM33 77.37a.12.12 0 000-.1.08.08 0 00-.05-.08h-.33c-.05 0 0 .1 0 .14a.28.28 0 00.16.06.32.32 0 00.14 0 .11.11 0 00.08-.09zM35 80.47a.73.73 0 00.6-.47.79.79 0 00-.63-.32.47.47 0 00-.43.5.33.33 0 00.55.17zM31.91 75.77a.07.07 0 01-.06-.07.12.12 0 01.06-.08h.05a.09.09 0 01.09.09.09.09 0 01-.18 0zM31.55 74.47h-.35s.07 0 .11-.06.05 0 .08-.06a.19.19 0 01.23 0 .1.1 0 010 .12.11.11 0 01-.12 0zM30.37 72.9v-.07a.09.09 0 00-.11 0 .07.07 0 000 .1.06.06 0 00.1 0zM30.77 74.2h-.07a.11.11 0 010-.07.17.17 0 010-.07.09.09 0 01.1-.06.12.12 0 01.1.07.06.06 0 010 .06.05.05 0 01-.05 0zM29.12 66.92a.72.72 0 00.37-.6.77.77 0 00-.69-.08.46.46 0 00-.24.61.33.33 0 00.58 0zM32.31 75.08V75a.09.09 0 00-.11 0v.1a.07.07 0 00.09 0zM37 84.76a1.78 1.78 0 00-.07-.76.61.61 0 00-.05-.12.24.24 0 00-.23 0 .49.49 0 00-.38.4.61.61 0 00.2.54.43.43 0 00.29.13.24.24 0 00.22-.2.05.05 0 00-.08 0zM33.24 75.92a.72.72 0 00.37-.59.74.74 0 00-.7-.08.46.46 0 00-.24.6.33.33 0 00.58 0zM31.18 70.08a.42.42 0 00.18-.27.45.45 0 00-.16 0 .12.12 0 00-.1.09c0 .07 0 .13.1.17zM31 69.29a.19.19 0 000-.09v-.08a.9.9 0 01-.14-.2l-.09.41h-.11c-.04 0-.05.1 0 .15-.04.46.19-.04.34-.19z"/><path class="cls-9" d="M31.67 74.22v-.12a.18.18 0 00-.21.09c0 .07 0 .18.1.16s.13 0 .14 0zM30.16 71a.15.15 0 010 .09.27.27 0 010-.25.14.14 0 01.08-.11.16.16 0 01.1 0h.2a.09.09 0 010 .11h-.11l-.25.07zM34 79.34c0-.06-.05-.13-.12-.11a.27.27 0 00-.12.17.26.26 0 00.28 0zM34.46 77.9h-.09a.14.14 0 010-.09.14.14 0 010-.06.07.07 0 01.11 0 .09.09 0 11-.1.14zM30.13 69.88a.09.09 0 00.15-.06.14.14 0 00-.1 0 .08.08 0 00-.08.06.05.05 0 00.06.07zM31.45 70.8a.28.28 0 00.19-.16l-.19-.07h-.1a.11.11 0 00-.08.15.18.18 0 00.16.09zM33.66 78.5a.13.13 0 01-.13 0 .14.14 0 01-.09-.12s0-.07.05-.07l.15.12zM32.73 78.22h-.35.1l.09-.06a.19.19 0 01.23 0 .11.11 0 010 .12.1.1 0 01-.12 0zM32.92 77.63v-.07a.11.11 0 00-.11 0 .08.08 0 000 .11h.1zM30.6 70.09v.12a.69.69 0 00.13.05.15.15 0 01.08.11.08.08 0 010 .08h-.06a.5.5 0 01-.27 0 .23.23 0 01-.15-.21.18.18 0 01.28-.14zM31.78 69.73a.11.11 0 00.07-.14.15.15 0 00-.13-.1h-.06l.1.19zM34.69 80a.19.19 0 01-.26-.15.42.42 0 01.27 0 .15.15 0 01.11.21l-.14.06zM30.17 69.23v-.07a.14.14 0 00-.11 0 .05.05 0 000 .09h.13zM34.11 81.62v-.13H34a.12.12 0 00.08.14zM34.68 80.76v-.12a.17.17 0 00-.1 0 .12.12 0 00.08.15zM30.36 65.93v-.11a.48.48 0 00-.11-.09.15.15 0 010-.13.08.08 0 010-.07h.06a.54.54 0 01.25.09.25.25 0 01.09.25.17.17 0 01-.14.12.18.18 0 01-.17-.06zM30.45 74.64a.27.27 0 00-.08.07v.1c0 .02.11 0 .16 0s.09.09.14.09a.1.1 0 00.09-.12.28.28 0 00-.1-.14.28.28 0 00-.14-.06.1.1 0 00-.12.07zM31.08 72a1.35 1.35 0 00.06.63.2.2 0 00.05.09.19.19 0 00.18 0 .41.41 0 00.31-.33.53.53 0 00-.17-.44.34.34 0 00-.23-.1.2.2 0 00-.19.16h.07zM32.46 72.72a.15.15 0 00.09 0l.05-.07a1.63 1.63 0 01.11-.23l-.4.13s-.05-.05-.09-.08-.11 0-.15 0c-.34.29.21.24.39.25z"/><path class="cls-9" d="M31.13 72v-.06a.08.08 0 00-.1 0A.06.06 0 0031 72a.06.06 0 00.1 0zM32.27 72.08a.12.12 0 00.16 0 .17.17 0 000-.17s0-.05-.05 0l-.11.19zM31.53 71.87a.38.38 0 00.33 0 .27.27 0 00-.07-.14.12.12 0 00-.13 0c-.07 0-.09.11-.09.17zM31.17 71.51a.17.17 0 01-.1 0 .31.31 0 01.2-.15.14.14 0 01.14 0 .38.38 0 010 .1c0 .07.1.13.07.19a.09.09 0 01-.1 0 .16.16 0 01-.09-.07l-.18-.18zM32 72.51a.3.3 0 00.23.1v-.21a.17.17 0 000-.1.11.11 0 00-.17 0 .17.17 0 000 .18zM32.19 71.43s-.09 0-.09.07v.14a.19.19 0 010 .13.08.08 0 01-.08 0 .49.49 0 01-.12-.25.22.22 0 01.1-.23.18.18 0 01.27.16zM30 73.52a1.13 1.13 0 00.18 0 .18.18 0 00.14-.11.14.14 0 000-.09.18.18 0 00-.23-.08.17.17 0 00-.07.24zM31.26 74.09a.35.35 0 00.33 0 .42.42 0 00-.07-.13.14.14 0 00-.13 0 .21.21 0 00-.1.18zM31.1 71.3c0-.06-.09-.08-.16-.08s-.13 0-.16-.07v-.05H31a.2.2 0 01.21.09.1.1 0 01-.06.11.1.1 0 01-.12 0zM31.5 72.8h.07a.2.2 0 000-.11h-.09l.05.12z"/></g><path d="M49.1 33a5.43 5.43 0 00-1.2 1.6 2.29 2.29 0 00-.14 1.8c.57.71 1.93-1 1.93-1z" fill="#ff909a"/><path class="cls-28" d="M51.26 33.2s-.11.17-.29.42a17.36 17.36 0 01-1.73 2.16c-.55.55-1 .85-1.23.4a2 2 0 01-.09-1 5.23 5.23 0 011.47-2.49l.18-.18a1.22 1.22 0 011.69.69z"/><path class="cls-44" d="M49.24 35.78c-.55.55-1 .85-1.23.4a2 2 0 01-.09-1 1.41 1.41 0 011.08.12.52.52 0 01.24.48zM51.26 33.2s-.11.17-.29.42a2.16 2.16 0 00-1.58-.93l.18-.18a1.22 1.22 0 011.69.69z"/><path d="M49.51 32.58l-.94 1.13s-.64-.05-2.43 1.07a6.12 6.12 0 00-2.26 3.65v-.15a7.29 7.29 0 01.26-1c.8-2.31 3.33-4.42 4.61-4.65a3.17 3.17 0 01.76-.05z" style="mix-blend-mode:color-burn" fill="url(#Áåçûìÿííûé_ãðàäèåíò_54-4)" opacity=".5"/><path class="cls-21" d="M72.41 29.92a9.51 9.51 0 013 2.66 4.92 4.92 0 00.06-1.45z"/><path d="M98.23 34.79A2.69 2.69 0 0097 36.62a2.24 2.24 0 00.6 2.12 2.18 2.18 0 001.35-1.42c.34-1.15.05-2.26-.72-2.53z" style="mix-blend-mode:soft-light" fill="#ffe5ba"/><path class="cls-21" d="M82.11 37.32s.91-2.52 2-2.93l-1.54-.54z"/><path class="cls-47" d="M38.38 3.74a6.45 6.45 0 00-2.86-.63 1.06 1.06 0 00-.47.08.93.93 0 00-.46.75 1.89 1.89 0 001.06 1.84 2.3 2.3 0 002.16-.11 1.59 1.59 0 00.79-.92.9.9 0 00-.45-1 .2.2 0 000 .33z"/><path class="cls-47" d="M35.57 4.9a1.21 1.21 0 00-1-.65 1.28 1.28 0 00-.16 1.15.76.76 0 001 .42.55.55 0 000-1zM32.06 4a.63.63 0 00-.18-.52.7.7 0 00-.16.19.23.23 0 000 .24.35.35 0 00.33 0l-.05.15zM32.8 4.07a.3.3 0 01.15.07.47.47 0 01-.42 0c-.08 0-.17-.06-.18-.14s0-.1 0-.16 0-.26.06-.32a.14.14 0 01.17 0 .4.4 0 01.07.18l.09.41z"/><path class="cls-48" d="M23.38 2.84c-.07-.09-.24 0-.23.13a.39.39 0 00.19.28.41.41 0 00.1-.45z"/><path class="cls-47" d="M22.35 6.92a.11.11 0 010 .14.2.2 0 01-.17 0 .14.14 0 01-.08 0 .14.14 0 010-.2.15.15 0 01.2.05.15.15 0 010 .2zM33.25 4.42a.45.45 0 000-.41l-.3.18a.26.26 0 00-.12.11.18.18 0 00.12.25.25.25 0 00.27-.12z"/><path class="cls-48" d="M23.81 6.23h-.1a.14.14 0 00.11.14.12.12 0 00.18-.06.11.11 0 00-.14-.09z"/><path class="cls-47" d="M32.23 2.89a.19.19 0 00-.12-.23.28.28 0 00-.26.06s-.06.08 0 .11.05 0 .08 0h.35zM42.66 5.24s.08 0 .08.08a.17.17 0 01-.06.12.15.15 0 01-.09.06.15.15 0 01-.18-.06.22.22 0 010-.21.12.12 0 01.08-.06.07.07 0 01.08 0zM27 3.79h-.2a.42.42 0 000 .15.18.18 0 00.2-.1zM36.53 1.36a2.68 2.68 0 00-1.15.25.42.42 0 00-.15.11.36.36 0 000 .35.73.73 0 00.69.49 1 1 0 00.77-.4.66.66 0 00.13-.47.36.36 0 00-.34-.3s0 .12.05.12zM30.72 6.53a.64.64 0 00-.44-.31.72.72 0 000 .25c0 .08.07.17.16.18s.21-.08.28-.16v.09zM29.41 6.87a.25.25 0 00-.14-.06.27.27 0 00-.14.07 2.56 2.56 0 01-.35.22l.68.16a.06.06 0 01.05 0v.18c0 .06.15.1.24.08.71-.08-.11-.52-.34-.65zM32.31 6.69a.51.51 0 00-.25-.33l-.13.33a.27.27 0 000 .15.17.17 0 00.24.13.25.25 0 00.15-.26zM42.07 7.47h-.11a.15.15 0 00.12.14.12.12 0 00.13-.11.1.1 0 00-.13-.09zM34.14 4.92a.67.67 0 00-.22-.19.24.24 0 00-.28 0 .27.27 0 00-.07.14.29.29 0 00.26.31.3.3 0 00.3-.28zM25.74 3.34a.52.52 0 00-.24 0 .08.08 0 000 .06.15.15 0 00.1.15.19.19 0 00.18 0 .16.16 0 00.06-.08.09.09 0 000-.09zM37.56 5.44a.59.59 0 00-.45-.31.52.52 0 000 .25.22.22 0 00.15.18c.12 0 .21-.08.28-.17v.09zM37.18 7.16a.17.17 0 00-.1-.27.27.27 0 00-.08.17.14.14 0 00.09.14.1.1 0 00.12-.1zM34.58 5.41a.17.17 0 00-.1-.27.3.3 0 00-.08.17.14.14 0 00.09.14.1.1 0 00.12-.1zM37.55 6.39c0 .06.15 0 .19 0s0-.14.09-.21A.26.26 0 0138 6a.11.11 0 01.12 0 .11.11 0 010 .08.77.77 0 010 .45.38.38 0 01-.35.24.3.3 0 01-.25-.16.29.29 0 010-.3zM24.67 11.86c0 .06.15 0 .19 0s.05-.14.09-.21a.3.3 0 01.19-.14.14.14 0 01.12 0 .11.11 0 010 .08.77.77 0 010 .45.37.37 0 01-.35.24.3.3 0 01-.25-.16.32.32 0 010-.3zM32.87 6.15l-.11-.05a.22.22 0 00-.06.17.09.09 0 00.14.07.19.19 0 000-.07v-.22zM35.41 4a.2.2 0 01.11.33.65.65 0 01-.24 0 .35.35 0 01.1-.24z"/><path class="cls-48" d="M16.07 2.37a.38.38 0 00-.15-.09.14.14 0 00-.15.05c-.06.08 0 .18 0 .28s-.11.17-.09.26a.16.16 0 00.24.08.37.37 0 00.16-.22.49.49 0 00.05-.24.18.18 0 00-.13-.16z"/><path class="cls-47" d="M35.63 3.13c0 .05-.07.09-.12.08a.19.19 0 01-.13-.1.19.19 0 010-.09.14.14 0 11.13.16zM33.47 3.64c-.08.06-.06.19 0 .29a.3.3 0 010 .29h-.07c-.07 0-.08-.1-.1-.17a.5.5 0 00-.1-.14.37.37 0 010-.39.2.2 0 01.21 0 .21.21 0 01.06.2zM33 4.92A.07.07 0 0133 5s-.07 0-.11.06h-.11a.14.14 0 01-.1-.16.19.19 0 01.12-.16.12.12 0 01.1 0 .07.07 0 010 .08zM21.38 1.18A1.2 1.2 0 0021.8.1a1.28 1.28 0 00-1.16.08.77.77 0 00-.2 1.06.55.55 0 00.93-.24zM35.8 6.52c-.07-.09-.23 0-.23.13a.4.4 0 00.2.28.42.42 0 00.1-.45zM34.51 2.43h-.12a.17.17 0 000 .18.12.12 0 00.17 0 .09.09 0 000-.15z"/><path class="cls-47" d="M33.8 4.45a2.77 2.77 0 00-1.23-.31.44.44 0 00-.2 0 .38.38 0 00-.21.32.81.81 0 00.43.81 1 1 0 00.94 0 .64.64 0 00.35-.39.37.37 0 00-.18-.45.08.08 0 000 .14zM22.49 2.61a1.19 1.19 0 00-1-.64 1.26 1.26 0 00-.17 1.15.76.76 0 001 .42c.36-.19.37-.83 0-1zM26.22 4.05a.59.59 0 00-.45-.31.52.52 0 000 .25.22.22 0 00.15.18c.11 0 .21-.08.28-.17v.1zM24.9 4.39s-.09-.07-.14-.06a.22.22 0 00-.13.06 2.21 2.21 0 01-.36.23l.68.15H25c.05 0 0 .12.05.18s.16.1.25.09c.7-.04-.16-.49-.4-.65zM33.06 3.44l-.19-.06a.33.33 0 00.13.36c.12.06.3 0 .28-.17s-.06-.21 0-.22zM16.61.71a.25.25 0 01.15.06.44.44 0 01-.42 0c-.07 0-.17-.06-.18-.14a.43.43 0 01.05-.16c0-.11 0-.26.06-.32a.13.13 0 01.17 0 .36.36 0 01.07.18l.09.41zM16.34 2.91c-.08-.09-.24 0-.24.13a.44.44 0 00.2.28.42.42 0 00.1-.45z"/><path class="cls-48" d="M25.46 6.41a.1.1 0 01-.05.14.18.18 0 01-.16 0 .14.14 0 01-.08 0 .13.13 0 010-.2.15.15 0 01.2 0 .17.17 0 010 .2z"/><path class="cls-47" d="M25.84 5.77a.17.17 0 00-.1-.27.3.3 0 00-.08.17.12.12 0 00.09.14.09.09 0 00.11-.1z"/><path class="cls-48" d="M26 8a.24.24 0 010 .23.21.21 0 01-.22.08c-.06 0-.11-.07-.09-.13a.1.1 0 01.05 0L26 8zM25 9.3c-.1 0-.13.15-.13.25s0 .22-.1.27a.08.08 0 01-.08 0c-.07 0 0-.12 0-.2a.94.94 0 000-.16.34.34 0 01.13-.36.19.19 0 01.18.3zM24.22 8.69l-.1-.06a.13.13 0 00-.05.17.11.11 0 00.16 0 .1.1 0 000-.16z"/><path class="cls-47" d="M26.21 5c0 .06.15 0 .19 0s.05-.14.09-.21a.26.26 0 01.18-.13.12.12 0 01.13 0 .11.11 0 010 .08.86.86 0 010 .45.38.38 0 01-.35.24.3.3 0 01-.25-.16.3.3 0 010-.3zM25.67 3a.18.18 0 00-.23-.12.26.26 0 00-.18.21.09.09 0 000 .11.11.11 0 00.08 0l.36-.2zM17.8 2.13a.3.3 0 01-.37.32.78.78 0 01.09-.45.27.27 0 01.39-.08v.27z"/><path class="cls-48" d="M24.76 5.67l-.11-.06a.28.28 0 00-.06.18c0 .06.1.11.14.06s0 0 0-.07v-.22z"/><path class="cls-47" d="M35.55 5a.87.87 0 00-.23-.2.26.26 0 00-.28 0 .16.16 0 00-.06.13.28.28 0 10.55 0zM27.84 8h-.19a.33.33 0 000 .15.19.19 0 00.27 0zM40.73 6.08v.14a.22.22 0 01-.16 0h-.08a.13.13 0 010-.2.14.14 0 01.19 0 .16.16 0 010 .21zM18.94 2.52h-.19a.44.44 0 00-.05.15.19.19 0 00.3-.1zM33.7 5.47a.47.47 0 00.11.13.15.15 0 00.17 0c.07-.06 0-.18.08-.27s.15-.13.16-.23A.17.17 0 0034 5a.38.38 0 00-.22.16.4.4 0 00-.12.22.18.18 0 00.11.2zM32.84 4.11a.62.62 0 000-.55.57.57 0 00-.22.11.19.19 0 00-.08.22c0 .11.17.15.28.16l-.08.06zM32 6.85h-.1A.13.13 0 0032 7a.12.12 0 00.16 0 .1.1 0 00-.16-.16z"/><path d="M21.73 63.61a25.69 25.69 0 01-8.28 1.27C8.54 64.88-.31 55.51 0 53.61s11.41-.67 15.79 2.7 4.54 6.94 4.54 6.94l1.21-.1z" fill="url(#Áåçûìÿííûé_ãðàäèåíò_206-3)"/><path d="M19.69 63.49S7.54 54.82.44 53.45c0 0 7.1 14.47 19.25 10.04z" style="mix-blend-mode:color-dodge" fill="url(#Áåçûìÿííûé_ãðàäèåíò_284)" opacity=".82"/><path class="cls-51" d="M13.83 54.05a.87.87 0 01-.62-.43 1 1 0 01.31-.15.3.3 0 01.31.11c.09.14 0 .31-.08.45h.13zM13.58 55a.45.45 0 000 .23.65.65 0 00.21-.54c0-.11 0-.25-.12-.3a.59.59 0 00-.23 0c-.15 0-.33-.15-.45 0a.19.19 0 000 .24.47.47 0 00.21.16l.51.29z"/><path d="M14.77 45.38c-.1-.14.11-.32.26-.26s.24.22.3.37a.58.58 0 01-.63-.05z" fill="#047fc4" opacity=".5"/><path class="cls-51" d="M15.87 52.72a.23.23 0 01-.39 0 .49.49 0 01.17-.18.2.2 0 01.23.05.13.13 0 01-.07.2zM15.05 53.58c.11 0 .12.17.06.26s-.16.13-.23.21a.39.39 0 00-.08.31.18.18 0 00.1.15.29.29 0 00.13 0 1.1 1.1 0 00.55-.27.54.54 0 00.15-.57.45.45 0 00-.33-.25.43.43 0 00-.38.18zM12.24 53.83a.26.26 0 01-.26-.24.38.38 0 01.18-.33h.16a.11.11 0 010 .11l-.06.49zM15.11 44a6 6 0 012.62-.74 1.3 1.3 0 01.44 0 .84.84 0 01.46.68 1.75 1.75 0 01-.88 1.76 2.19 2.19 0 01-2 0 1.47 1.47 0 01-.78-.81.84.84 0 01.37-1 .18.18 0 010 .3zM14.51 48.69a.73.73 0 010-.33h.1a.23.23 0 01.16.19.24.24 0 01-.09.23.2.2 0 01-.13.06.12.12 0 01-.1-.09zM13 51.91c.08.07 0 .21-.1.24s-.21 0-.32 0a.37.37 0 00-.25.19.19.19 0 000 .18.19.19 0 00.11.07 1.07 1.07 0 00.6.12.52.52 0 00.46-.36.41.41 0 00-.52-.49zM16.27 53v-.16a.19.19 0 01.23.08.18.18 0 01-.07.23.15.15 0 01-.19-.13zM13.69 56.52a4 4 0 01.07-1.75.69.69 0 01.12-.26.56.56 0 01.51-.15 1.13 1.13 0 01.9.89 1.38 1.38 0 01-.39 1.23.93.93 0 01-.65.32.52.52 0 01-.53-.42.11.11 0 01.18 0zM15.27 49.6a.81.81 0 01-.24-.71 1 1 0 01.34.07.3.3 0 01.18.27c0 .16-.19.25-.33.31l.12.05zM16.22 48a.42.42 0 010-.22.4.4 0 01.14-.15 2.6 2.6 0 00.43-.38l-.05 1v.07c0 .09.15.09.22.14s.08.24 0 .36c-.4.79-.61-.45-.74-.82zM10.36 36.74a.23.23 0 01-.31-.23.37.37 0 01.25 0 .2.2 0 01.16.17c0 .09-.11.16-.18.12zM14.13 48.48a.26.26 0 01-.07-.35.37.37 0 01.34-.13c.06 0 .13 0 .13.09a.14.14 0 010 .1l-.34.35zM16.65 54.54a1.15 1.15 0 01-.41 0 .35.35 0 01-.24-.31.34.34 0 01.07-.19.39.39 0 11.57.52zM13.83 52.12l-.16-.06a.37.37 0 01.12-.23c.07 0 .2 0 .2.08A.18.18 0 0114 52l-.19.25z"/></g></g></g></svg>