<svg xmlns="http://www.w3.org/2000/svg" xmlns:xlink="http://www.w3.org/1999/xlink" width="500" height="500" viewBox="0 0 500 500">
  <defs>
    <clipPath id="clip-DSC_KIIT_-_Colored_Horizontal_Logo_SVG">
      <rect width="500" height="500"/>
    </clipPath>
  </defs>
  <g id="DSC_KIIT_-_Colored_Horizontal_Logo_SVG" data-name="DSC KIIT - Colored Horizontal Logo  SVG" clip-path="url(#clip-DSC_KIIT_-_Colored_Horizontal_Logo_SVG)">
    <g id="Group_8" data-name="Group 8" transform="translate(-44 -79)">
      <path id="path0" d="M280.4,26.654a42.66,42.66,0,0,0-6.568,2.447C269,31.517,139.847,104.587,140.047,104.79a19.672,19.672,0,0,0,3.985-.843c12.561-3.391,17.922-1.514,53.6,18.766,21.756,12.364,29.125,16.243,30.027,15.8,16.3-7.992,83.874-47.6,87.749-51.434,26.077-25.79.467-69.979-35.019-60.425" transform="translate(-57.642 197.008)" fill="#ea4235" fill-rule="evenodd"/>
      <path id="path0-2" data-name="path0" d="M263.008,81.749c-48.4,29.122-49.972,30.415-53.608,44.086-8.064,30.3,23.56,55.9,51.534,41.725,3.719-1.884,132.564-79.146,131.987-79.146a50.043,50.043,0,0,0-4.839,1.887c-4,1.7-5.233,1.884-12.388,1.856-10.4-.045-10.2.041-43.425-18.845-14.784-8.4-27.317-15.42-27.85-15.589s-19.167,10.643-41.41,24.027" transform="translate(113.647 264.826)" fill="#fabb04" fill-rule="evenodd"/>
      <path id="path1" d="M165.4,48.093c-7.155,1.41-9.257,2-12.665,3.553a20.477,20.477,0,0,0-4.618,2.637,52.065,52.065,0,0,1-4.017,3.681c-1.828,1.555-2.687,2.393-6.927,8.438-.318.235-1.954,3.64-3.18,10.933a37.268,37.268,0,0,0,3.692,23.436,12.531,12.531,0,0,1,1.1,2.548c-.086,1.085,10.4,11.31,10.868,10.594.079-.128.719.256,1.414.85,1.376,1.179,13.809,8.285,116.65,66.688,21.714,12.33,23.761,13.069,34.946,12.623,31.631-1.265,46.007-41.87,22.233-62.8-3-2.637-67.182-39.689-82.067-47.373-3.8-1.963-18.268-10.038-32.146-17.943S183.867,51.031,181.931,50.35c-5.669-2-12.859-2.98-16.529-2.257" transform="translate(-60 241.991)" fill="#4286f5" fill-rule="evenodd"/>
      <path id="path2" d="M234.2,26.3c-21.811,5.428-32.44,30.4-21.865,51.355,3.794,7.514,7.521,10.389,30.139,23.258,11.284,6.421,27.933,15.905,37,21.075s18.448,10.4,20.853,11.617,15.865,8.745,29.914,16.733c30.808,17.51,30.519,17.389,40.717,17.446,23.6.138,39.839-20.752,33.95-43.667-2.99-11.627-7.965-16.857-25.541-26.843C315.17,60.8,285.1,43.707,273.252,36.943,254.431,26.2,244.97,23.618,234.2,26.3" transform="translate(108.043 197)" fill="#109d58" fill-rule="evenodd"/>
    </g>
  </g>
</svg>
