<svg xmlns="http://www.w3.org/2000/svg" width="656.528" height="483.715" viewBox="0 0 656.528 483.715"><g transform="translate(0 0)"><rect width="275.963" height="8.095" transform="translate(380.566 179.113)" fill="#e6e6e6"/><rect width="69.911" height="69.911" transform="translate(403.378 111.41)" fill="#e6e6e6"/><rect width="41.946" height="41.946" transform="translate(417.36 125.393)" fill="#ccc"/><rect width="17.662" height="69.911" transform="translate(560.125 111.41)" fill="#e6e6e6"/><rect width="17.662" height="8.095" transform="translate(560.125 122.449)" fill="#ccc"/><rect width="17.662" height="8.095" transform="translate(560.125 157.772)" fill="#ccc"/><rect width="17.662" height="69.911" transform="translate(532.897 111.41)" fill="#e6e6e6"/><rect width="17.662" height="8.095" transform="translate(532.897 122.449)" fill="#ccc"/><rect width="17.662" height="8.095" transform="translate(532.897 157.772)" fill="#ccc"/><rect width="17.662" height="69.911" transform="matrix(0.896, -0.444, 0.444, 0.896, 577.176, 118.959)" fill="#e6e6e6"/><rect width="17.662" height="8.095" transform="matrix(0.896, -0.444, 0.444, 0.896, 582.074, 128.85)" fill="#ccc"/><rect width="17.662" height="8.095" transform="matrix(0.896, -0.444, 0.444, 0.896, 597.747, 160.506)" fill="#ccc"/><path d="M520.746,170.382l8.895,15.4,8.894,15.4H502.958l8.894-15.4Z" transform="translate(-91.244 -30.91)" fill="#e6e6e6"/><path d="M539.625,173.978l8.894,15.4,8.895,15.4H521.837l8.894-15.4Z" transform="translate(-94.669 -31.562)" fill="#e6e6e6"/><circle cx="5.151" cy="5.151" r="5.151" transform="translate(446.061 127.6)" fill="#e6e6e6"/><rect width="275.963" height="8.095" transform="translate(656.528 76.087) rotate(180)" fill="#e6e6e6"/><rect width="69.911" height="69.911" transform="translate(633.715 70.2) rotate(180)" fill="#e6e6e6"/><rect width="41.946" height="41.946" transform="translate(619.733 56.218) rotate(180)" fill="#ccc"/><rect width="17.662" height="69.911" transform="translate(476.968 70.2) rotate(180)" fill="#e6e6e6"/><rect width="17.662" height="8.095" transform="translate(476.968 19.423) rotate(180)" fill="#ccc"/><rect width="17.662" height="8.095" transform="translate(476.968 54.746) rotate(180)" fill="#ccc"/><rect width="17.662" height="69.911" transform="translate(504.196 70.2) rotate(180)" fill="#e6e6e6"/><rect width="17.662" height="8.095" transform="translate(504.196 19.423) rotate(180)" fill="#ccc"/><rect width="17.662" height="8.095" transform="translate(504.196 54.746) rotate(180)" fill="#ccc"/><rect width="17.662" height="69.911" transform="matrix(-0.896, -0.444, 0.444, -0.896, 428.898, 70.49)" fill="#e6e6e6"/><rect width="17.662" height="8.095" transform="matrix(-0.896, -0.444, 0.444, -0.896, 451.428, 24.984)" fill="#ccc"/><rect width="17.662" height="8.095" transform="matrix(-0.896, -0.444, 0.444, -0.896, 435.755, 56.64)" fill="#ccc"/><path d="M738.3,34.634l-8.894,15.4-8.894,15.4h35.577l-8.895-15.4Z" transform="translate(-130.711 -6.283)" fill="#e6e6e6"/><path d="M719.423,38.23l-8.894,15.4-8.894,15.4h35.577l-8.894-15.4Z" transform="translate(-127.286 -6.935)" fill="#e6e6e6"/><circle cx="5.151" cy="5.151" r="5.151" transform="translate(580.73 16.479)" fill="#e6e6e6"/><rect width="275.963" height="8.095" transform="translate(656.528 298.329) rotate(180)" fill="#e6e6e6"/><rect width="69.911" height="69.911" transform="translate(633.715 292.442) rotate(180)" fill="#e6e6e6"/><rect width="41.946" height="41.946" transform="translate(619.733 278.46) rotate(180)" fill="#ccc"/><rect width="17.662" height="69.911" transform="translate(476.968 292.442) rotate(180)" fill="#e6e6e6"/><rect width="17.662" height="8.095" transform="translate(476.968 241.665) rotate(180)" fill="#ccc"/><rect width="17.662" height="8.095" transform="translate(476.968 276.988) rotate(180)" fill="#ccc"/><rect width="17.662" height="69.911" transform="translate(504.196 292.442) rotate(180)" fill="#e6e6e6"/><rect width="17.662" height="8.095" transform="translate(504.196 241.665) rotate(180)" fill="#ccc"/><rect width="17.662" height="8.095" transform="translate(504.196 276.988) rotate(180)" fill="#ccc"/><rect width="17.662" height="69.911" transform="matrix(-0.896, -0.444, 0.444, -0.896, 428.898, 292.732)" fill="#e6e6e6"/><rect width="17.662" height="8.095" transform="matrix(-0.896, -0.444, 0.444, -0.896, 451.427, 247.226)" fill="#ccc"/><rect width="17.662" height="8.095" transform="matrix(-0.896, -0.444, 0.444, -0.896, 435.755, 278.882)" fill="#ccc"/><path d="M738.3,306.129l-8.894,15.4-8.894,15.406h35.577L747.2,321.534Z" transform="translate(-130.711 -55.536)" fill="#e6e6e6"/><path d="M719.423,309.725l-8.894,15.4-8.894,15.406h35.577l-8.894-15.406Z" transform="translate(-127.286 -56.188)" fill="#e6e6e6"/><circle cx="5.151" cy="5.151" r="5.151" transform="translate(580.73 238.721)" fill="#e6e6e6"/><ellipse cx="325.084" cy="23.088" rx="325.084" ry="23.088" transform="translate(0 437.539)" fill="#e6e6e6"/><path d="M868.3,717.493c-53.008-9.435-110.973-7.866-171.778,0,27.714-23.4,51.632-46.792,23.918-70.189,54.059,11.152,61.631,10.024,121.766,0C828.263,670.7,854.356,694.1,868.3,717.493Z" transform="translate(-289.247 -243.936)" fill="#6c63ff"/><path d="M868.3,717.493c-53.008-9.435-110.973-7.866-171.778,0,27.714-23.4,51.632-46.792,23.918-70.189,54.059,11.152,61.631,10.024,121.766,0C828.263,670.7,854.356,694.1,868.3,717.493Z" transform="translate(-289.247 -243.936)" fill="#006eff" opacity="0.2"/><path d="M858.24,708.438c-45.028-7.531-94.268-6.279-145.919,0,23.542-18.675,43.86-37.35,20.318-56.026,45.921,8.9,52.353,8,103.436,0C824.227,671.087,846.391,689.762,858.24,708.438Z" transform="translate(-292.113 -244.862)" fill="#00a2ff"/><path d="M531.655,466.249l16.624,2.771,8.312,24.012L532.58,507.809l-27.707-41.56h26.782Z" transform="translate(-91.591 -84.584)" fill="#a0616a"/><circle cx="38.789" cy="38.789" r="38.789" transform="translate(448.376 341.03)" fill="#a0616a"/><path d="M500.918,445.919s-94.2,10.159-110.824,8.312-24.012-3.694-24.012-3.694S355,465.313,360.54,471.778a39.965,39.965,0,0,0,11.083,9.235s10.159-2.771,17.547,0,82.2,14.777,95.124,3.694S500.918,445.919,500.918,445.919Z" transform="translate(-228.013 -207.402)" fill="#2f2e41"/><path d="M509.569,659.463s-61.877-17.547-72.959-95.124V556.95s-12.243,21.478-16.624,25.859c-5.079,5.079-23.088,50.794-22.165,55.412s0,6.465,0,6.465l-26.783-2.771V633.6s14.315-42.944,15.238-53.1,35.556-80.809,35.556-80.809,12.929-26.782,35.094,0,24.012,45.253,24.012,45.253l28.63,55.412Z" transform="translate(-230.199 -214.997)" fill="#2f2e41"/><path d="M359.564,443.922l-29.553-10.159s-27.706-20.318-21.241,0,36.018,64.647,44.33,60.03,18.308-16.08,16.081-17.737S352.177,462.393,359.564,443.922Z" transform="translate(-218.725 -203.558)" fill="#2f2e41"/><path d="M366.205,659.259,342.349,670.91s-28.85,4.438-12.76,12.76,60.474,17.2,62.693,9.432,1.339-20.658-1-20.316S372.863,674.793,366.205,659.259Z" transform="translate(-221.794 -246.104)" fill="#2f2e41"/><path d="M524.822,617.522s-12.006,51.718,8.312,62.8,162.543,12.929,173.625-7.389,5.541-20.318,5.541-20.318l-29.553-33.247,24.012-1.847s0-7.388-8.312-8.312-34.171-10.159-56.336-3.694-35.094-12.93-35.094-12.93Z" transform="translate(-257.459 -234.009)" fill="#190088"/><path d="M303.957,270.046l-15.7,85.889,108.054-12.93,19.394-77.577Z" transform="translate(-52.294 -48.152)" fill="#3f3d56"/><path d="M308.521,273.995l-12.93,76.653L393.947,339.1l18.932-69.727Z" transform="translate(-53.624 -48.869)" fill="#fff"/><path d="M291.542,376.916l-3.694-.923L286,379.686l29.553,82.2,2.779-1.062.914-5.4Z" transform="translate(-51.885 -68.21)" fill="#b3b3b3"/><path d="M288.257,372.2l29.553,85.889,111.748-16.624L396.311,360.2Z" transform="translate(-52.294 -65.345)" fill="#d0cde1"/><path d="M306.309,369.433v4.618l82.194-9.235-.923-4.618Z" transform="translate(-55.569 -65.345)" fill="#3f3d56"/><path d="M308.565,380.92l12.93,36.018,84.042-10.159L390.76,372.608Z" transform="translate(-55.978 -67.596)" fill="#3f3d56"/><path d="M627.9,590.952l-2.771-7.388S603.887,546.622,592.8,554.01s23.088,43.406,23.088,43.406h11.082Z" transform="translate(-270.029 -226.834)" fill="#a0616a"/><path d="M549.344,596.488l-2.771-11.082s-7.388-34.171,5.541-32.324,16.624,34.171,16.624,34.171l-.924,7.388Z" transform="translate(-261.662 -226.829)" fill="#a0616a"/><path d="M571.754,600.216s-24.012-3.694-24.935,1.847-5.541,88.659,17.547,91.43,137.607,14.777,125.6-13.853S659.489,654.7,659.489,654.7l-78.5,8.312Z" transform="translate(-261.908 -235.174)" fill="#190088"/><path d="M458.072,455.13,433.6,438.044l-16.162,12.468,20.318,22.165Z" transform="translate(-75.729 -79.467)" fill="#190088"/><path d="M386.976,479.224l3.693,35.094,63.724-3.694-55.413-.923Z" transform="translate(-70.203 -86.938)" opacity="0.2"/><path d="M46.177,0C58.006-32.526,92.354,20.674,92.354,46.177A46.177,46.177,0,0,1,0,46.177C0,20.674,34.347,32.526,46.177,0Z" transform="translate(460.136 340.69)" fill="#2f2e41"/><path d="M328.309,302.619l57.259-1.993,5.541-21.095L332,281.315Z" transform="translate(-59.56 -50.711)" fill="#00a2ff"/><path d="M310.258,320.97,397.07,318.2l.923-3.694-86.812,3.057Z" transform="translate(-56.285 -57.055)" fill="#e6e6e6"/><path d="M308,332.252l86.813-2.771.923-3.694-86.813,3.057Z" transform="translate(-55.876 -59.102)" fill="#e6e6e6"/><path d="M306.873,341.277l86.812-2.77.924-3.694L307.8,337.869Z" transform="translate(-55.671 -60.74)" fill="#e6e6e6"/></g></svg>